<svg version="1.1" id="Livello_1" xmlns="http://www.w3.org/2000/svg" x="0" y="0" viewBox="0 0 56 40" xml:space="preserve"><style>.st0{fill:none}.st1{fill:#fff}.st2{fill:#1d1d1b}</style><path class="st0" d="M39.06 6.9a1.07 1.07 0 00-1.03-1.03c.44.23.8.59 1.03 1.03zM8.13 5.87c-.56.02-1.01.47-1.03 1.03.23-.44.59-.8 1.03-1.03z"/><path d="M37.99 5.32H8.16c-.89 0-1.62.73-1.62 1.62v9.05h.28V8.02c0-.4.11-.78.28-1.11.02-.56.47-1.01 1.03-1.03.34-.18.71-.29 1.11-.29h27.67c.4 0 .78.11 1.11.28.56.02 1.01.47 1.03 1.03.17.33.28.71.28 1.11v21.14c0 .15-.12.28-.28.28H7.1a.28.28 0 01-.28-.28v-9.77h-.28v9.9c0 .24.19.43.43.43h32.21c.24 0 .43-.19.43-.43V6.94c0-.9-.72-1.62-1.62-1.62z"/><path d="M37.99 5.87c.01 0 .02.01.03.01-.33-.17-.71-.28-1.11-.28H9.24c-.4 0-.78.11-1.11.28.01 0 .02-.01.03-.01h29.83zM39.06 29.15H7.09v-9.78h-.27v9.77c0 .15.12.28.28.28h31.97c.15 0 .28-.12.28-.28V8.02c0-.4-.11-.78-.28-1.11 0 .01.01.02.01.03v22.21zM7.09 6.94c0-.01.01-.02.01-.03-.17.33-.28.7-.28 1.11v7.97h.28V6.94z"/><path class="st1" d="M48.99 28.01h-9.63V12.54h1.31a8.32 8.32 0 018.32 8.32v7.15z"/><path class="st2" d="M49.27 28.28H39.09V12.26h5.29c2.7 0 4.89 2.19 4.89 4.89v11.13zm-9.63-.55h9.08V17.16c0-2.39-1.95-4.34-4.34-4.34h-4.74v14.91z"/><path class="st1" d="M47.84 31.72H7.02c-.54 0-.97-.43-.97-.97v-1.74c0-.54.43-.97.97-.97h42.56c.54 0 .97.43.97.97 0 1.5-1.21 2.71-2.71 2.71z"/><path class="st2" d="M48.84 32H6.66c-.49 0-.89-.4-.89-.89v-2.46c0-.49.4-.89.89-.89h43.28c.49 0 .89.4.89.89v1.36c0 1.1-.89 1.99-1.99 1.99zM6.66 28.31c-.19 0-.34.15-.34.34v2.46c0 .18.15.34.34.34h42.18c.79 0 1.44-.64 1.44-1.43v-1.36c0-.18-.15-.34-.34-.34H6.66z"/><circle class="st1" cx="16.75" cy="31.14" r="4.35"/><path class="st2" d="M16.75 35.76c-2.55 0-4.62-2.07-4.62-4.63s2.07-4.62 4.62-4.62c2.55 0 4.62 2.07 4.62 4.62s-2.07 4.63-4.62 4.63zm0-8.7c-2.25 0-4.07 1.83-4.07 4.07 0 2.25 1.83 4.07 4.07 4.07s4.07-1.83 4.07-4.07c.01-2.24-1.82-4.07-4.07-4.07z"/><circle class="st1" cx="43.53" cy="31.14" r="4.35"/><path class="st2" d="M43.53 35.76c-2.55 0-4.62-2.07-4.62-4.63s2.07-4.62 4.62-4.62 4.63 2.07 4.63 4.62-2.08 4.63-4.63 4.63zm0-8.7c-2.25 0-4.07 1.83-4.07 4.07 0 2.25 1.83 4.07 4.07 4.07 2.25 0 4.07-1.83 4.07-4.07.01-2.24-1.82-4.07-4.07-4.07zM15.88 24.17h21.18v.16H15.88zM54.79 15.39h-2.57c-.04 0-.08-.04-.08-.08s.04-.08.08-.08h2.57c.04 0 .08.04.08.08s-.04.08-.08.08zM53.56 17.97h-2.75c-.04 0-.08-.04-.08-.08s.04-.08.08-.08h2.75c.04 0 .08.04.08.08s-.04.08-.08.08zM47.14 20.41h-5.55v-4.72c0-.04.04-.08.08-.08s.08.04.08.08v4.56h5.39c.04 0 .08.04.08.08s-.03.08-.08.08zM14.89 16.51v-2.44h.32v2.47c0 .06.03.1.1.1h.84v.32h-.85c-.13 0-.23-.04-.3-.12-.07-.1-.11-.2-.11-.33M19.47 15.01h.62l-.2-.51c-.03-.07-.04-.1-.05-.11-.02-.02-.04-.03-.06-.03-.03 0-.05.01-.06.03 0 0-.02.04-.04.1-.08.17-.14.35-.21.52m-.05-.68c.07-.18.19-.27.36-.27.18 0 .31.09.38.27.13.33.47 1.16 1 2.5l-.28.11-.66-1.65h-.86l-.63 1.65-.28-.1.97-2.51zM23.87 14.37c-.08 0-.12.03-.12.08v2.11c0 .06.03.09.08.09h.57c.16 0 .3-.08.42-.23.11-.14.16-.29.16-.46 0-.22-.09-.4-.26-.52-.13-.09-.25-.14-.35-.14h-.49v-.31h.01c.09 0 .16-.03.22-.09a.31.31 0 00.09-.22c0-.08-.03-.16-.09-.21a.31.31 0 00-.22-.09h-.02zm-.4 2.24v-2.1c0-.12.02-.2.05-.26.07-.12.21-.18.42-.18.17 0 .3.06.42.17.11.11.17.25.17.41 0 .13-.04.25-.12.35.22.01.42.1.59.25.21.18.31.42.31.71 0 .32-.11.58-.34.76-.19.15-.38.23-.6.23h-.54c-.07 0-.14-.02-.21-.07-.11-.06-.15-.15-.15-.27M29.06 16.68c.33 0 .6-.11.82-.34.22-.23.33-.51.33-.83 0-.33-.11-.61-.33-.83a1.08 1.08 0 00-.82-.34c-.33 0-.6.11-.82.34-.22.23-.33.51-.33.84 0 .33.11.61.33.84.22.21.49.32.82.32m-1.46-1.17c0-.42.14-.77.42-1.06.28-.29.63-.43 1.04-.43.41 0 .76.14 1.04.43s.42.64.42 1.06c0 .42-.14.77-.41 1.05-.29.29-.64.44-1.05.44-.41 0-.76-.14-1.04-.43a1.48 1.48 0 01-.42-1.06M16.75 33.52a2.39 2.39 0 110-4.78 2.39 2.39 0 010 4.78zm0-4.62c-1.23 0-2.23 1-2.23 2.23s1 2.23 2.23 2.23 2.23-1 2.23-2.23c0-1.22-1-2.23-2.23-2.23z"/><g><path class="st2" d="M43.52 33.52a2.39 2.39 0 112.39-2.39 2.403 2.403 0 01-2.39 2.39zm0-4.62c-1.23 0-2.23 1-2.23 2.23s1 2.23 2.23 2.23 2.23-1 2.23-2.23c0-1.22-1-2.23-2.23-2.23z"/></g><g><path class="st2" d="M9.02 17.57H6.45c-.04 0-.08-.04-.08-.08s.04-.08.08-.08h2.57c.04 0 .08.04.08.08s-.04.08-.08.08z"/></g><g><path class="st2" d="M6.99 15.99H2.31c-.04 0-.08-.04-.08-.08s.04-.08.08-.08h4.68c.04 0 .08.04.08.08s-.04.08-.08.08z"/></g><g><path class="st2" d="M8.93 19.44h-3.3c-.04 0-.08-.04-.08-.08s.04-.08.08-.08h3.3c.04 0 .08.04.08.08 0 .05-.03.08-.08.08z"/></g><g><path class="st2" d="M16.75 32.93c-.99 0-1.79-.8-1.79-1.79s.8-1.79 1.79-1.79 1.79.8 1.79 1.79-.8 1.79-1.79 1.79zm0-3.43a1.641 1.641 0 000 3.28 1.641 1.641 0 000-3.28z"/></g><g><path class="st2" d="M43.54 32.93c-.99 0-1.79-.8-1.79-1.79s.8-1.79 1.79-1.79 1.79.8 1.79 1.79-.8 1.79-1.79 1.79zm0-3.43a1.641 1.641 0 000 3.28c.9 0 1.64-.73 1.64-1.64-.01-.91-.74-1.64-1.64-1.64z"/></g><g><path class="st2" d="M37.21 23.04H8.85V19.3h.16v3.58h28.05V7.8H9.11v9.76h-.16V7.65h28.26z"/></g></svg>