<svg version="1.1" id="Livello_1" xmlns="http://www.w3.org/2000/svg" x="0" y="0" viewBox="0 0 56 40" xml:space="preserve"><style>.st0{fill:#fff}.st1{fill:#1d1d1b}</style><path class="st0" d="M7.94 16.28h38.8V38H7.94z"/><path class="st1" d="M47.06 38.33H7.61V15.96h39.45v22.37zm-38.79-.65h38.14V16.61H8.27v21.07z"/><path class="st1" d="M18.06 28.33v-2.9h.38v2.93c0 .08.04.11.11.11h1v.38h-1.01c-.15 0-.27-.05-.35-.15a.508.508 0 01-.13-.37M23.5 26.55h.74l-.24-.61a.527.527 0 00-.06-.13c-.02-.03-.04-.04-.08-.04-.03 0-.05.01-.07.04 0 0-.02.04-.05.12-.08.21-.16.41-.24.62m-.06-.81c.08-.21.22-.31.42-.31.21 0 .37.11.45.32.16.39.55 1.38 1.19 2.97l-.33.13-.77-1.95h-1.02l-.75 1.96-.34-.12 1.15-3zM28.73 25.79c-.09 0-.14.03-.14.09v2.51c0 .07.03.1.09.1h.68c.19 0 .36-.09.5-.27.13-.17.19-.35.19-.55 0-.26-.1-.47-.31-.62a.715.715 0 00-.42-.16h-.59v-.37h.01c.1 0 .19-.04.26-.11a.363.363 0 000-.52.354.354 0 00-.26-.1h-.01zm-.49 2.66v-2.5c0-.14.02-.24.06-.31.08-.14.24-.22.49-.22.2 0 .36.07.49.2s.2.3.2.49c0 .15-.05.29-.14.42.26.02.5.12.71.3.24.22.37.5.37.84 0 .38-.13.68-.4.91-.22.18-.46.27-.71.27h-.64c-.08 0-.16-.03-.25-.08a.35.35 0 01-.18-.32M34.88 28.53c.39 0 .71-.14.97-.41.26-.27.39-.6.39-.99s-.13-.72-.39-.99-.59-.41-.97-.41c-.39 0-.71.14-.98.41-.26.27-.39.6-.39.99s.13.72.39.99c.27.28.6.41.98.41m-1.73-1.39c0-.49.17-.91.5-1.25.33-.34.74-.51 1.23-.51s.9.17 1.23.51c.33.34.5.76.5 1.25s-.16.91-.49 1.25c-.33.34-.75.51-1.24.51s-.9-.17-1.23-.51c-.33-.34-.5-.75-.5-1.25"/><g><path class="st1" d="M44.64 35.89h-34.6V18.4h34.6v17.49zm-34.41-.19h34.22V18.59H10.23V35.7z"/></g><g><path transform="rotate(12.638 29.405 13.134)" class="st0" d="M7.04 10.36h44.74v5.55H7.04z"/><path class="st1" d="M50.88 21.13L6.59 11.2l1.36-6.05.32.07 43.97 9.86-1.36 6.05zM7.37 10.7l43.01 9.64 1.07-4.77L8.44 5.93 7.37 10.7z"/><path class="st1" d="M34.42 17.2l-.09-.02-11.18-2.51 1.25-5.59.09.02 11.18 2.51-.02.09-1.23 5.5zm-11.05-2.67l10.91 2.45 1.17-5.23L24.54 9.3l-1.17 5.23z"/><path class="st1" d="M29.08 10.47l.14-.44c.07-.23 1.81-5.73 3.65-7.13.92-.7 2.01-1.06 3.09-1 1.09.05 2.03.52 2.64 1.32 1.25 1.63.7 4.15-1.21 5.61-1.84 1.4-7.6 1.62-7.84 1.63l-.47.01zm6.67-7.92c-.86 0-1.74.31-2.49.88-1.39 1.06-2.82 5.01-3.27 6.36 1.41-.08 5.61-.41 7-1.47 1.63-1.24 2.12-3.35 1.09-4.69-.49-.64-1.26-1.02-2.15-1.07-.07-.01-.12-.01-.18-.01z"/><path class="st1" d="M29.49 10.62l-.41-.21c-.19-.1-4.73-2.45-5.67-4.27-.48-.91-.62-1.93-.41-2.87.21-.96.77-1.71 1.57-2.13.8-.42 1.74-.44 2.64-.07.89.37 1.63 1.07 2.11 1.98.95 1.82.27 6.88.24 7.1l-.07.47zm-5.51-4.79c.7 1.34 3.83 3.14 4.98 3.77.14-1.29.47-4.9-.23-6.24-.4-.78-1.04-1.37-1.78-1.68-.72-.3-1.47-.28-2.09.04-.62.32-1.06.92-1.23 1.69-.18.79-.05 1.65.35 2.42z"/><g><path class="st0" d="M29.24 10.34l-4.56 2.62"/><path transform="rotate(-29.923 26.956 11.654)" class="st1" d="M24.33 11.33h5.26v.65h-5.26z"/></g><g><path class="st0" d="M29.35 10.46l3.32 4.08"/><path transform="rotate(-39.066 31.013 12.5)" class="st1" d="M30.68 9.87h.65v5.26h-.65z"/></g></g></svg>