<svg version="1.1" id="Livello_1" xmlns="http://www.w3.org/2000/svg" x="0" y="0" viewBox="0 0 56 40" xml:space="preserve"><style>.st1{fill:#fff}</style><path d="M46.27 38.66H8.77c-1.1 0-1.99-.89-1.99-1.99V8.11c0-1.1.89-1.99 1.99-1.99h37.5c1.1 0 1.99.89 1.99 1.99v28.55c.01 1.1-.89 2-1.99 2zM8.77 6.77c-.74 0-1.34.6-1.34 1.34v28.55c0 .74.6 1.34 1.34 1.34h37.5c.74 0 1.34-.6 1.34-1.34V8.11c0-.74-.6-1.34-1.34-1.34H8.77z"/><path d="M46.09 36.99H9.01a.76.76 0 01-.76-.76v-23c0-.42.34-.76.76-.76h37.08c.42 0 .76.34.76.76v23.01c.01.41-.34.75-.76.75zM9.01 12.65a.57.57 0 00-.57.57v23.01c0 .32.26.57.57.57h37.08c.32 0 .57-.26.57-.57v-23a.57.57 0 00-.57-.57H9.01z" fill="#1d1d1b"/><path class="st1" d="M16.93 10.81h-.07c-.72 0-1.31-.59-1.31-1.31V3.38c0-.72.59-1.31 1.31-1.31h.07c.72 0 1.31.59 1.31 1.31V9.5c0 .73-.58 1.31-1.31 1.31z"/><path d="M17.37 11.14h-.94c-.66 0-1.2-.54-1.2-1.2V2.95c0-.66.54-1.2 1.2-1.2h.94c.66 0 1.2.54 1.2 1.2v6.99c0 .66-.54 1.2-1.2 1.2zm-.94-8.73c-.3 0-.54.24-.54.54v6.99c0 .3.24.54.54.54h.94c.3 0 .54-.24.54-.54V2.95c0-.3-.24-.54-.54-.54h-.94z"/><path class="st1" d="M38.18 10.81h-.07c-.72 0-1.31-.59-1.31-1.31V3.38c0-.72.59-1.31 1.31-1.31h.07c.72 0 1.31.59 1.31 1.31V9.5c0 .73-.59 1.31-1.31 1.31z"/><path d="M38.62 11.14h-.94c-.66 0-1.2-.54-1.2-1.2V2.95c0-.66.54-1.2 1.2-1.2h.94c.66 0 1.2.54 1.2 1.2v6.99c0 .66-.54 1.2-1.2 1.2zm-.94-8.73c-.3 0-.54.24-.54.54v6.99c0 .3.24.54.54.54h.94c.3 0 .54-.24.54-.54V2.95c0-.3-.24-.54-.54-.54h-.94zM19.79 22.26h-5.73v-5.73h5.73v5.73zm-5.06-.66h4.41v-4.4h-4.41v4.4zM30.42 22.26h-5.73v-5.73h5.73v5.73zm-5.07-.66h4.41v-4.4h-4.41v4.4zM41.04 22.26h-5.73v-5.73h5.73v5.73zm-5.07-.66h4.41v-4.4h-4.41v4.4z"/><g><path d="M19.79 32.16h-5.73v-5.73h5.73v5.73zm-5.06-.66h4.41v-4.4h-4.41v4.4z"/></g><g><path d="M30.42 32.16h-5.73v-5.73h5.73v5.73zm-5.07-.66h4.41v-4.4h-4.41v4.4z"/></g><g><path transform="rotate(-45.001 38.179 29.3)" d="M34.6 28.97h7.17v.66H34.6z"/><path transform="rotate(-45.004 38.176 29.298)" d="M37.85 25.72h.66v7.17h-.66z"/></g></svg>