<svg version="1.1" id="Livello_1" xmlns="http://www.w3.org/2000/svg" x="0" y="0" viewBox="0 0 56 40" xml:space="preserve"><style>.st0{fill:#1d1d1b}.st1{fill:#010101}.st2{fill:#fff}</style><path class="st0" d="M50.41 32.46H39c-.78 0-1.41-.63-1.41-1.41v-5.56c0-.78.63-1.41 1.41-1.41h11.41c.78 0 1.41.63 1.41 1.41v5.56c0 .77-.63 1.41-1.41 1.41zM39 24.74c-.41 0-.75.34-.75.75v5.56c0 .41.34.75.75.75h11.41c.41 0 .75-.34.75-.75v-5.56c0-.41-.34-.75-.75-.75H39z"/><path class="st1" d="M8.41 36.52H5.04c-.9 0-1.63-.73-1.63-1.63v-2.04L1.6 18.93c-.01-.05-.01-.1-.01-.16 0-.33.13-.63.36-.86.23-.23.54-.36.86-.36h7.84c.05 0 .11 0 .16.01.67.09 1.14.7 1.05 1.37l-1.81 13.96v2c-.01.9-.74 1.63-1.64 1.63zm-5.6-18.31a.56.56 0 00-.56.57v.07l1.81 13.96v2.09c0 .54.44.97.97.97H8.4c.54 0 .97-.44.97-.97v-2.04l1.82-14.01a.563.563 0 00-.49-.63H2.81z"/><path class="st0" d="M10.59 19.26H2.67a.09.09 0 01-.09-.09c0-.05.04-.09.09-.09h7.93c.05 0 .09.04.09.09 0 .05-.05.09-.1.09z"/><path class="st0" d="M3.02 19.2a.09.09 0 01-.09-.09v-.55c0-.05.04-.09.09-.09.05 0 .09.04.09.09v.55c.01.04-.03.09-.09.09zM3.62 19.2a.09.09 0 01-.09-.09v-.55c0-.05.04-.09.09-.09.05 0 .09.04.09.09v.55c.01.04-.03.09-.09.09zM4.23 19.2a.09.09 0 01-.09-.09v-.55c0-.05.04-.09.09-.09s.09.04.09.09v.55c0 .04-.04.09-.09.09zM4.83 19.2a.09.09 0 01-.09-.09v-.55c0-.05.04-.09.09-.09.05 0 .09.04.09.09v.55c0 .04-.04.09-.09.09zM7.23 19.2a.09.09 0 01-.09-.09v-.55c0-.05.04-.09.09-.09.05 0 .09.04.09.09v.55c0 .04-.04.09-.09.09zM6.63 19.2a.09.09 0 01-.09-.09v-.55c0-.05.04-.09.09-.09s.09.04.09.09v.55c0 .04-.04.09-.09.09zM6.03 19.2a.09.09 0 01-.09-.09v-.55c0-.05.04-.09.09-.09s.09.04.09.09v.55c0 .04-.04.09-.09.09zM5.43 19.2a.09.09 0 01-.09-.09v-.55c0-.05.04-.09.09-.09.05 0 .09.04.09.09v.55c0 .04-.04.09-.09.09zM7.83 19.2a.09.09 0 01-.09-.09v-.55c0-.05.04-.09.09-.09s.09.04.09.09v.55c0 .04-.04.09-.09.09zM8.43 19.2a.09.09 0 01-.09-.09v-.55c0-.05.04-.09.09-.09s.09.04.09.09v.55c.01.04-.04.09-.09.09zM9.03 19.2a.09.09 0 01-.09-.09v-.55c0-.05.04-.09.09-.09s.09.04.09.09v.55c.01.04-.04.09-.09.09zM9.63 19.2a.09.09 0 01-.09-.09v-.55c0-.05.04-.09.09-.09s.09.04.09.09v.55c.01.04-.04.09-.09.09zM10.23 19.2a.09.09 0 01-.09-.09v-.55c0-.05.04-.09.09-.09s.09.04.09.09v.55c.01.04-.03.09-.09.09z"/><g><path class="st0" d="M9.16 33.43h-4.8c-.05 0-.09-.04-.09-.09s.04-.09.09-.09h4.8c.05 0 .09.04.09.09s-.04.09-.09.09z"/></g><g><path class="st0" d="M9.16 32.88h-4.8c-.05 0-.09-.04-.09-.09s.03-.09.08-.09h4.8c.05 0 .09.04.09.09s-.03.09-.08.09z"/></g><g><path class="st1" d="M14.41 34.14V8.1l18.23-3.55v26.04l-18.23 3.55zm.66-25.5v24.7l16.92-3.29V5.35L15.07 8.64z"/></g><g><path class="st2" d="M14.79 8.4H33.7v27.79H14.79z"/><path class="st1" d="M34.02 36.52H14.46V8.08h19.57v28.44zm-18.91-.65h18.25V8.73H15.11v27.14z"/></g><g><path class="st0" d="M17.72 23.15v-2.04h.27v2.06c0 .05.03.08.08.08h.7v.27h-.71c-.11 0-.19-.03-.25-.1a.4.4 0 01-.09-.27M21.54 21.89h.52l-.17-.42c-.02-.05-.04-.09-.04-.09a.055.055 0 00-.05-.03c-.02 0-.04.01-.05.03 0 0-.01.03-.04.09-.06.14-.11.28-.17.42m-.04-.56c.06-.15.16-.22.3-.22.15 0 .26.08.32.23.11.27.39.97.84 2.09l-.23.09-.55-1.38h-.72l-.53 1.38-.24-.09.81-2.1zM25.22 21.36c-.07 0-.1.02-.1.07v1.76c0 .05.02.07.06.07h.48c.14 0 .25-.06.35-.19.09-.12.13-.25.13-.39 0-.18-.07-.33-.22-.44-.11-.08-.2-.12-.3-.12h-.41v-.26h.01c.07 0 .13-.03.19-.08.05-.05.08-.11.08-.19a.25.25 0 00-.08-.18.241.241 0 00-.18-.07h-.01zm-.34 1.88v-1.76c0-.1.01-.17.04-.22.06-.1.17-.15.35-.15a.476.476 0 01.49.48c0 .11-.03.21-.1.29a.8.8 0 01.5.21c.17.15.26.35.26.59 0 .27-.09.48-.28.64-.15.13-.32.19-.5.19h-.45c-.06 0-.12-.02-.17-.06a.212.212 0 01-.14-.21M29.55 23.29c.27 0 .5-.1.69-.29.18-.19.28-.42.28-.7 0-.27-.09-.51-.28-.7a.913.913 0 00-.69-.29c-.27 0-.5.09-.69.29-.18.19-.28.42-.28.7 0 .27.09.51.28.7.19.2.42.29.69.29m-1.22-.98c0-.35.12-.64.35-.88.23-.24.52-.36.87-.36s.63.12.87.36c.23.24.35.53.35.88s-.12.64-.34.88c-.23.24-.52.36-.87.36s-.63-.12-.87-.36-.36-.53-.36-.88"/></g><g><path class="st0" d="M31.23 35.2H17.25c-.85 0-1.54-.69-1.54-1.54V11c0-.85.69-1.54 1.54-1.54h13.98c.85 0 1.54.69 1.54 1.54v22.66c0 .84-.69 1.54-1.54 1.54zM17.25 9.65c-.75 0-1.35.61-1.35 1.35v22.66c0 .75.61 1.35 1.35 1.35h13.98c.75 0 1.35-.61 1.35-1.35V11c0-.75-.61-1.35-1.35-1.35H17.25z"/></g><g><path class="st2" d="M51.53 36.19H37.88c-.9 0-1.63-.73-1.63-1.63V28.2c0-.9.73-1.63 1.63-1.63h13.65c.9 0 1.63.73 1.63 1.63v6.36c0 .91-.73 1.63-1.63 1.63z"/><path class="st0" d="M52.08 36.52H37.33c-.78 0-1.41-.63-1.41-1.41v-7.46c0-.78.63-1.41 1.41-1.41h14.75c.78 0 1.41.63 1.41 1.41v7.46c0 .78-.63 1.41-1.41 1.41zm-14.75-9.61c-.41 0-.75.34-.75.75v7.46c0 .41.34.75.75.75h14.75c.41 0 .75-.34.75-.75v-7.46c0-.41-.34-.75-.75-.75H37.33z"/></g><g><path class="st0" d="M7.12 29.04h-.96v-.13h.97c.02 0 .04-.01.04-.04v-.33h.13v.33c0 .05-.02.09-.05.12-.04.04-.08.05-.13.05M6.53 27.24V27l-.2.08a.11.11 0 00-.04.02c-.01.01-.01.01-.01.02s0 .02.01.02a1.192 1.192 0 00.24.1m-.26.03c-.07-.03-.1-.07-.1-.14s.04-.12.11-.15c.13-.05.46-.18.98-.39l.04.11-.65.26v.34l.65.25-.04.11-.99-.39zM6.28 25.52c0 .03.01.05.03.05h.83c.02 0 .03-.01.03-.03v-.22c0-.06-.03-.12-.09-.17a.3.3 0 00-.18-.06c-.09 0-.15.03-.2.1-.04.05-.05.1-.05.14v.19h-.13c0-.03-.01-.06-.04-.09a.127.127 0 00-.09-.04.09.09 0 00-.08.04c-.02.02-.03.05-.03.09zm.88.16h-.82c-.05 0-.08-.01-.1-.02-.05-.03-.07-.08-.07-.16 0-.06.02-.12.07-.16s.1-.07.16-.07c.05 0 .1.02.14.05.01-.09.04-.17.1-.23.06-.09.15-.13.26-.13.13 0 .23.04.3.13.06.07.09.15.09.24v.21c0 .03-.01.05-.03.08a.11.11 0 01-.1.06M7.19 23.49c0-.13-.04-.24-.13-.32a.445.445 0 00-.33-.13.445.445 0 00-.46.45c0 .13.04.24.13.32.09.09.2.13.33.13s.24-.04.33-.13c.08-.09.13-.2.13-.32m-.46.57a.566.566 0 01-.58-.57.566.566 0 01.58-.57.566.566 0 01.58.57c0 .16-.06.3-.17.41a.6.6 0 01-.41.16"/></g><g><path class="st0" d="M52.72 34.53H36.69c-.29 0-.53-.24-.53-.53v-5.24c0-.29.24-.53.53-.53h16.03c.29 0 .53.24.53.53V34c0 .3-.24.53-.53.53zm-16.03-6.1c-.19 0-.34.15-.34.34v5.24c0 .19.15.34.34.34h16.03c.19 0 .34-.15.34-.34v-5.24c0-.19-.15-.34-.34-.34H36.69z"/></g><g><path class="st0" d="M40.4 31.76v-1.34h.18v1.36c0 .04.02.05.05.05h.46V32h-.47c-.07 0-.13-.02-.16-.07a.235.235 0 01-.06-.17M42.93 30.93h.34l-.11-.28c-.02-.04-.02-.06-.03-.06-.01-.01-.02-.02-.04-.02-.01 0-.03.01-.03.02 0 0-.01.02-.02.06-.04.09-.08.19-.11.28m-.03-.37c.04-.1.1-.15.2-.15s.17.05.21.15c.07.18.26.64.55 1.38l-.16.06-.36-.91h-.47l-.35.91-.16-.06.54-1.38zM45.35 30.58c-.04 0-.07.01-.07.04v1.16c0 .03.01.05.04.05h.31c.09 0 .17-.04.23-.13.06-.08.09-.16.09-.25 0-.12-.05-.22-.14-.29a.367.367 0 00-.2-.08h-.27v-.17h.01c.05 0 .09-.02.12-.05.03-.03.05-.07.05-.12 0-.05-.02-.09-.05-.12a.214.214 0 00-.12-.04zm-.22 1.24v-1.16c0-.06.01-.11.03-.14.04-.07.11-.1.23-.1.09 0 .17.03.23.09s.09.14.09.23c0 .07-.02.14-.07.19.12.01.23.05.33.14.11.1.17.23.17.39 0 .18-.06.32-.19.42-.1.08-.21.13-.33.13h-.3a.15.15 0 01-.11-.04.166.166 0 01-.08-.15M48.21 31.85c.18 0 .33-.06.45-.19a.65.65 0 00.18-.46.65.65 0 00-.18-.46.583.583 0 00-.45-.19c-.18 0-.33.06-.45.19a.65.65 0 00-.18.46c0 .18.06.33.18.46.11.13.27.19.45.19m-.81-.64c0-.23.08-.42.23-.58.15-.16.34-.24.57-.24.23 0 .42.08.57.24.15.16.23.35.23.58 0 .23-.08.42-.23.58-.15.16-.35.24-.57.24-.23 0-.42-.08-.57-.24a.816.816 0 01-.23-.58"/></g></svg>