<?xml version="1.0" encoding="utf-8"?>
<!-- Generator: Adobe Illustrator 27.8.1, SVG Export Plug-In . SVG Version: 6.00 Build 0)  -->
<svg version="1.1" id="Livello_1" xmlns="http://www.w3.org/2000/svg" xmlns:xlink="http://www.w3.org/1999/xlink" x="0px" y="0px"
	 viewBox="0 0 56 40" style="enable-background:new 0 0 56 40;" xml:space="preserve">
<style type="text/css">
	.st0{fill:none;}
	.st1{fill:#FFFFFF;}
	.st2{fill:#1D1D1B;}
</style>
<path class="st0" d="M39.06,6.9c-0.02-0.56-0.47-1.01-1.03-1.03C38.47,6.1,38.83,6.46,39.06,6.9z"/>
<path class="st0" d="M8.13,5.87C7.57,5.89,7.12,6.34,7.1,6.9C7.33,6.46,7.69,6.1,8.13,5.87z"/>
<path d="M37.99,5.32H8.16c-0.89,0-1.62,0.73-1.62,1.62v9.05h0.28V8.02c0-0.4,0.11-0.78,0.28-1.11c0.02-0.56,0.47-1.01,1.03-1.03
	C8.47,5.7,8.84,5.59,9.24,5.59h27.67c0.4,0,0.78,0.11,1.11,0.28c0.56,0.02,1.01,0.47,1.03,1.03c0.17,0.33,0.28,0.71,0.28,1.11v21.14
	c0,0.15-0.12,0.28-0.28,0.28H7.1c-0.15,0-0.28-0.12-0.28-0.28v-9.77H6.54v9.9c0,0.24,0.19,0.43,0.43,0.43h32.21
	c0.24,0,0.43-0.19,0.43-0.43V6.94C39.61,6.04,38.89,5.32,37.99,5.32z"/>
<path d="M37.99,5.87c0.01,0,0.02,0.01,0.03,0.01c-0.33-0.17-0.71-0.28-1.11-0.28H9.24c-0.4,0-0.78,0.11-1.11,0.28
	c0.01,0,0.02-0.01,0.03-0.01H37.99z"/>
<path d="M39.06,29.15H7.09v-9.78H6.82v9.77c0,0.15,0.12,0.28,0.28,0.28h31.97c0.15,0,0.28-0.12,0.28-0.28V8.02
	c0-0.4-0.11-0.78-0.28-1.11c0,0.01,0.01,0.02,0.01,0.03V29.15z"/>
<path d="M7.09,6.94c0-0.01,0.01-0.02,0.01-0.03C6.93,7.24,6.82,7.61,6.82,8.02v7.97h0.28V6.94z"/>
<g>
	<path class="st1" d="M48.99,28.01h-9.63V12.54h1.31c4.59,0,8.32,3.72,8.32,8.32V28.01z"/>
	<path class="st2" d="M49.27,28.28H39.09V12.26h5.29c2.7,0,4.89,2.19,4.89,4.89V28.28z M39.64,27.73h9.08V17.16
		c0-2.39-1.95-4.34-4.34-4.34h-4.74V27.73z"/>
</g>
<g>
	<path class="st1" d="M47.84,31.72H7.02c-0.54,0-0.97-0.43-0.97-0.97v-1.74c0-0.54,0.43-0.97,0.97-0.97h42.56
		c0.54,0,0.97,0.43,0.97,0.97v0C50.55,30.51,49.34,31.72,47.84,31.72z"/>
	<path class="st2" d="M48.84,32H6.66c-0.49,0-0.89-0.4-0.89-0.89v-2.46c0-0.49,0.4-0.89,0.89-0.89h43.28c0.49,0,0.89,0.4,0.89,0.89
		v1.36C50.83,31.11,49.94,32,48.84,32z M6.66,28.31c-0.19,0-0.34,0.15-0.34,0.34v2.46c0,0.18,0.15,0.34,0.34,0.34h42.18
		c0.79,0,1.44-0.64,1.44-1.43v-1.36c0-0.18-0.15-0.34-0.34-0.34H6.66z"/>
</g>
<g>
	<circle class="st1" cx="16.75" cy="31.14" r="4.35"/>
	<path class="st2" d="M16.75,35.76c-2.55,0-4.62-2.07-4.62-4.63s2.07-4.62,4.62-4.62c2.55,0,4.62,2.07,4.62,4.62
		S19.3,35.76,16.75,35.76z M16.75,27.06c-2.25,0-4.07,1.83-4.07,4.07c0,2.25,1.83,4.07,4.07,4.07s4.07-1.83,4.07-4.07
		C20.83,28.89,19,27.06,16.75,27.06z"/>
</g>
<g>
	<circle class="st1" cx="43.53" cy="31.14" r="4.35"/>
	<path class="st2" d="M43.53,35.76c-2.55,0-4.62-2.07-4.62-4.63s2.07-4.62,4.62-4.62s4.63,2.07,4.63,4.62S46.08,35.76,43.53,35.76z
		 M43.53,27.06c-2.25,0-4.07,1.83-4.07,4.07c0,2.25,1.83,4.07,4.07,4.07c2.25,0,4.07-1.83,4.07-4.07
		C47.61,28.89,45.78,27.06,43.53,27.06z"/>
</g>
<g>
	<rect x="15.88" y="24.17" class="st2" width="21.18" height="0.16"/>
</g>
<g>
	<path class="st2" d="M54.79,15.39h-2.57c-0.04,0-0.08-0.04-0.08-0.08s0.04-0.08,0.08-0.08h2.57c0.04,0,0.08,0.04,0.08,0.08
		S54.83,15.39,54.79,15.39z"/>
</g>
<g>
	<path class="st2" d="M53.56,17.97h-2.75c-0.04,0-0.08-0.04-0.08-0.08s0.04-0.08,0.08-0.08h2.75c0.04,0,0.08,0.04,0.08,0.08
		S53.6,17.97,53.56,17.97z"/>
</g>
<g>
	<path class="st2" d="M47.14,20.41h-5.55v-4.72c0-0.04,0.04-0.08,0.08-0.08s0.08,0.04,0.08,0.08v4.56h5.39
		c0.04,0,0.08,0.04,0.08,0.08C47.22,20.37,47.19,20.41,47.14,20.41z"/>
</g>
<g>
	<g>
		<g>
			<path class="st2" d="M14.89,16.51v-2.44h0.32v2.47c0,0.06,0.03,0.1,0.1,0.1h0.84v0.32h-0.85c-0.13,0-0.23-0.04-0.3-0.12
				C14.93,16.74,14.89,16.64,14.89,16.51"/>
		</g>
		<g>
			<path class="st2" d="M19.47,15.01h0.62l-0.2-0.51c-0.03-0.07-0.04-0.1-0.05-0.11c-0.02-0.02-0.04-0.03-0.06-0.03
				c-0.03,0-0.05,0.01-0.06,0.03c0,0-0.02,0.04-0.04,0.1C19.6,14.66,19.54,14.84,19.47,15.01 M19.42,14.33
				c0.07-0.18,0.19-0.27,0.36-0.27c0.18,0,0.31,0.09,0.38,0.27c0.13,0.33,0.47,1.16,1,2.5l-0.28,0.11l-0.66-1.65h-0.86l-0.63,1.65
				l-0.28-0.1L19.42,14.33z"/>
		</g>
		<g>
			<path class="st2" d="M23.87,14.37c-0.08,0-0.12,0.03-0.12,0.08v2.11c0,0.06,0.03,0.09,0.08,0.09h0.57c0.16,0,0.3-0.08,0.42-0.23
				c0.11-0.14,0.16-0.29,0.16-0.46c0-0.22-0.09-0.4-0.26-0.52c-0.13-0.09-0.25-0.14-0.35-0.14h-0.49v-0.31h0.01
				c0.09,0,0.16-0.03,0.22-0.09c0.06-0.06,0.09-0.14,0.09-0.22c0-0.08-0.03-0.16-0.09-0.21c-0.06-0.06-0.14-0.09-0.22-0.09H23.87z
				 M23.47,16.61v-2.1c0-0.12,0.02-0.2,0.05-0.26c0.07-0.12,0.21-0.18,0.42-0.18c0.17,0,0.3,0.06,0.42,0.17
				c0.11,0.11,0.17,0.25,0.17,0.41c0,0.13-0.04,0.25-0.12,0.35c0.22,0.01,0.42,0.1,0.59,0.25c0.21,0.18,0.31,0.42,0.31,0.71
				c0,0.32-0.11,0.58-0.34,0.76c-0.19,0.15-0.38,0.23-0.6,0.23h-0.54c-0.07,0-0.14-0.02-0.21-0.07
				C23.51,16.82,23.47,16.73,23.47,16.61"/>
		</g>
		<g>
			<path class="st2" d="M29.06,16.68c0.33,0,0.6-0.11,0.82-0.34c0.22-0.23,0.33-0.51,0.33-0.83c0-0.33-0.11-0.61-0.33-0.83
				c-0.22-0.23-0.49-0.34-0.82-0.34c-0.33,0-0.6,0.11-0.82,0.34c-0.22,0.23-0.33,0.51-0.33,0.84c0,0.33,0.11,0.61,0.33,0.84
				C28.46,16.57,28.73,16.68,29.06,16.68 M27.6,15.51c0-0.42,0.14-0.77,0.42-1.06c0.28-0.29,0.63-0.43,1.04-0.43
				c0.41,0,0.76,0.14,1.04,0.43c0.28,0.29,0.42,0.64,0.42,1.06c0,0.42-0.14,0.77-0.41,1.05C29.82,16.85,29.47,17,29.06,17
				c-0.41,0-0.76-0.14-1.04-0.43C27.74,16.28,27.6,15.92,27.6,15.51"/>
		</g>
	</g>
</g>
<g>
	<path class="st2" d="M16.75,33.52c-1.32,0-2.39-1.07-2.39-2.39c0-1.32,1.07-2.39,2.39-2.39s2.39,1.07,2.39,2.39
		C19.14,32.45,18.07,33.52,16.75,33.52z M16.75,28.9c-1.23,0-2.23,1-2.23,2.23c0,1.23,1,2.23,2.23,2.23s2.23-1,2.23-2.23
		C18.98,29.91,17.98,28.9,16.75,28.9z"/>
</g>
<g>
	<path class="st2" d="M43.52,33.52c-1.32,0-2.39-1.07-2.39-2.39c0-1.32,1.07-2.39,2.39-2.39c1.32,0,2.39,1.07,2.39,2.39
		C45.9,32.45,44.83,33.52,43.52,33.52z M43.52,28.9c-1.23,0-2.23,1-2.23,2.23c0,1.23,1,2.23,2.23,2.23c1.23,0,2.23-1,2.23-2.23
		C45.75,29.91,44.75,28.9,43.52,28.9z"/>
</g>
<g>
	<path class="st2" d="M9.02,17.57H6.45c-0.04,0-0.08-0.04-0.08-0.08c0-0.04,0.04-0.08,0.08-0.08h2.57c0.04,0,0.08,0.04,0.08,0.08
		C9.1,17.53,9.06,17.57,9.02,17.57z"/>
</g>
<g>
	<path class="st2" d="M6.99,15.99H2.31c-0.04,0-0.08-0.04-0.08-0.08s0.04-0.08,0.08-0.08h4.68c0.04,0,0.08,0.04,0.08,0.08
		S7.03,15.99,6.99,15.99z"/>
</g>
<g>
	<path class="st2" d="M8.93,19.44h-3.3c-0.04,0-0.08-0.04-0.08-0.08c0-0.04,0.04-0.08,0.08-0.08h3.3c0.04,0,0.08,0.04,0.08,0.08
		C9.01,19.41,8.98,19.44,8.93,19.44z"/>
</g>
<g>
	<path class="st2" d="M16.75,32.93c-0.99,0-1.79-0.8-1.79-1.79s0.8-1.79,1.79-1.79s1.79,0.8,1.79,1.79S17.74,32.93,16.75,32.93z
		 M16.75,29.5c-0.9,0-1.64,0.73-1.64,1.64c0,0.9,0.73,1.64,1.64,1.64c0.9,0,1.64-0.73,1.64-1.64C18.39,30.23,17.65,29.5,16.75,29.5z
		"/>
</g>
<g>
	<path class="st2" d="M43.54,32.93c-0.99,0-1.79-0.8-1.79-1.79s0.8-1.79,1.79-1.79c0.99,0,1.79,0.8,1.79,1.79
		S44.53,32.93,43.54,32.93z M43.54,29.5c-0.9,0-1.64,0.73-1.64,1.64c0,0.9,0.73,1.64,1.64,1.64c0.9,0,1.64-0.73,1.64-1.64
		C45.17,30.23,44.44,29.5,43.54,29.5z"/>
</g>
<g>
	<polygon class="st2" points="37.21,23.04 8.85,23.04 8.85,19.3 9.01,19.3 9.01,22.88 37.06,22.88 37.06,7.8 9.11,7.8 9.11,17.56 
		8.95,17.56 8.95,7.65 37.21,7.65 	"/>
</g>
</svg>
