<?xml version="1.0" encoding="utf-8"?>
<!-- Generator: Adobe Illustrator 27.8.1, SVG Export Plug-In . SVG Version: 6.00 Build 0)  -->
<svg version="1.1" id="Livello_1" xmlns="http://www.w3.org/2000/svg" xmlns:xlink="http://www.w3.org/1999/xlink" x="0px" y="0px"
	 viewBox="0 0 56 40" style="enable-background:new 0 0 56 40;" xml:space="preserve">
<style type="text/css">
	.st0{fill:#FFFFFF;}
	.st1{fill:#1D1D1B;}
</style>
<g>
	<g>
		<rect x="7.94" y="16.28" class="st0" width="38.8" height="21.72"/>
		<path class="st1" d="M47.06,38.33H7.61V15.96h39.45V38.33z M8.27,37.68h38.14V16.61H8.27V37.68z"/>
	</g>
	<g>
		<g>
			<g>
				<path class="st1" d="M18.06,28.33v-2.9h0.38v2.93c0,0.08,0.04,0.11,0.11,0.11h1v0.38h-1.01c-0.15,0-0.27-0.05-0.35-0.15
					C18.1,28.61,18.06,28.48,18.06,28.33"/>
			</g>
			<g>
				<path class="st1" d="M23.5,26.55h0.74L24,25.94c-0.03-0.08-0.05-0.12-0.06-0.13c-0.02-0.03-0.04-0.04-0.08-0.04
					c-0.03,0-0.05,0.01-0.07,0.04c0,0-0.02,0.04-0.05,0.12C23.66,26.14,23.58,26.34,23.5,26.55 M23.44,25.74
					c0.08-0.21,0.22-0.31,0.42-0.31c0.21,0,0.37,0.11,0.45,0.32c0.16,0.39,0.55,1.38,1.19,2.97l-0.33,0.13L24.4,26.9h-1.02
					l-0.75,1.96l-0.34-0.12L23.44,25.74z"/>
			</g>
			<g>
				<path class="st1" d="M28.73,25.79c-0.09,0-0.14,0.03-0.14,0.09v2.51c0,0.07,0.03,0.1,0.09,0.1h0.68c0.19,0,0.36-0.09,0.5-0.27
					c0.13-0.17,0.19-0.35,0.19-0.55c0-0.26-0.1-0.47-0.31-0.62c-0.15-0.11-0.29-0.16-0.42-0.16h-0.59v-0.37h0.01
					c0.1,0,0.19-0.04,0.26-0.11c0.07-0.07,0.11-0.16,0.11-0.26c0-0.1-0.04-0.19-0.11-0.26c-0.07-0.07-0.16-0.1-0.26-0.1H28.73z
					 M28.24,28.45v-2.5c0-0.14,0.02-0.24,0.06-0.31c0.08-0.14,0.24-0.22,0.49-0.22c0.2,0,0.36,0.07,0.49,0.2
					c0.13,0.13,0.2,0.3,0.2,0.49c0,0.15-0.05,0.29-0.14,0.42c0.26,0.02,0.5,0.12,0.71,0.3c0.24,0.22,0.37,0.5,0.37,0.84
					c0,0.38-0.13,0.68-0.4,0.91c-0.22,0.18-0.46,0.27-0.71,0.27h-0.64c-0.08,0-0.16-0.03-0.25-0.08
					C28.3,28.7,28.24,28.59,28.24,28.45"/>
			</g>
			<g>
				<path class="st1" d="M34.88,28.53c0.39,0,0.71-0.14,0.97-0.41c0.26-0.27,0.39-0.6,0.39-0.99c0-0.39-0.13-0.72-0.39-0.99
					c-0.26-0.27-0.59-0.41-0.97-0.41c-0.39,0-0.71,0.14-0.98,0.41c-0.26,0.27-0.39,0.6-0.39,0.99c0,0.39,0.13,0.72,0.39,0.99
					C34.17,28.4,34.5,28.53,34.88,28.53 M33.15,27.14c0-0.49,0.17-0.91,0.5-1.25c0.33-0.34,0.74-0.51,1.23-0.51
					c0.49,0,0.9,0.17,1.23,0.51c0.33,0.34,0.5,0.76,0.5,1.25c0,0.49-0.16,0.91-0.49,1.25c-0.33,0.34-0.75,0.51-1.24,0.51
					c-0.49,0-0.9-0.17-1.23-0.51C33.32,28.05,33.15,27.64,33.15,27.14"/>
			</g>
		</g>
	</g>
	<g>
		<path class="st1" d="M44.64,35.89h-34.6V18.4h34.6V35.89z M10.23,35.7h34.22V18.59H10.23V35.7z"/>
	</g>
	<g>
		<g>
			<g>
				
					<rect x="7.04" y="10.36" transform="matrix(0.9758 0.2188 -0.2188 0.9758 3.5862 -6.1155)" class="st0" width="44.74" height="5.55"/>
				<path class="st1" d="M50.88,21.13L6.59,11.2l1.36-6.05l0.32,0.07l43.97,9.86L50.88,21.13z M7.37,10.7l43.01,9.64l1.07-4.77
					L8.44,5.93L7.37,10.7z"/>
			</g>
			<g>
				<path class="st1" d="M34.42,17.2l-0.09-0.02l-11.18-2.51l1.25-5.59l0.09,0.02l11.18,2.51l-0.02,0.09L34.42,17.2z M23.37,14.53
					l10.91,2.45l1.17-5.23L24.54,9.3L23.37,14.53z"/>
			</g>
		</g>
		<g>
			<path class="st1" d="M29.08,10.47l0.14-0.44c0.07-0.23,1.81-5.73,3.65-7.13c0.92-0.7,2.01-1.06,3.09-1
				c1.09,0.05,2.03,0.52,2.64,1.32c1.25,1.63,0.7,4.15-1.21,5.61l0,0c-1.84,1.4-7.6,1.62-7.84,1.63L29.08,10.47z M35.75,2.55
				c-0.86,0-1.74,0.31-2.49,0.88c-1.39,1.06-2.82,5.01-3.27,6.36c1.41-0.08,5.61-0.41,7-1.47c1.63-1.24,2.12-3.35,1.09-4.69
				c-0.49-0.64-1.26-1.02-2.15-1.07C35.86,2.55,35.81,2.55,35.75,2.55z"/>
		</g>
		<g>
			<path class="st0" d="M40.88-1.53"/>
			<path class="st1" d="M29.49,10.62l-0.41-0.21c-0.19-0.1-4.73-2.45-5.67-4.27l0,0c-0.48-0.91-0.62-1.93-0.41-2.87
				c0.21-0.96,0.77-1.71,1.57-2.13c0.8-0.42,1.74-0.44,2.64-0.07c0.89,0.37,1.63,1.07,2.11,1.98c0.95,1.82,0.27,6.88,0.24,7.1
				L29.49,10.62z M23.98,5.83c0.7,1.34,3.83,3.14,4.98,3.77c0.14-1.29,0.47-4.9-0.23-6.24c-0.4-0.78-1.04-1.37-1.78-1.68
				c-0.72-0.3-1.47-0.28-2.09,0.04c-0.62,0.32-1.06,0.92-1.23,1.69C23.45,4.2,23.58,5.06,23.98,5.83L23.98,5.83z"/>
		</g>
		<g>
			<line class="st0" x1="29.24" y1="10.34" x2="24.68" y2="12.96"/>
			
				<rect x="24.33" y="11.33" transform="matrix(0.8667 -0.4988 0.4988 0.8667 -2.2199 14.9991)" class="st1" width="5.26" height="0.65"/>
		</g>
		<g>
			<line class="st0" x1="29.35" y1="10.46" x2="32.67" y2="14.54"/>
			
				<rect x="30.68" y="9.87" transform="matrix(0.7764 -0.6302 0.6302 0.7764 -0.9441 22.3393)" class="st1" width="0.65" height="5.26"/>
		</g>
	</g>
</g>
</svg>
