<?xml version="1.0" encoding="utf-8"?>
<!-- Generator: Adobe Illustrator 27.8.1, SVG Export Plug-In . SVG Version: 6.00 Build 0)  -->
<svg version="1.1" id="Livello_1" xmlns="http://www.w3.org/2000/svg" xmlns:xlink="http://www.w3.org/1999/xlink" x="0px" y="0px"
	 viewBox="0 0 56 40" style="enable-background:new 0 0 56 40;" xml:space="preserve">
<style type="text/css">
	.st0{fill:#1D1D1B;}
	.st1{fill:#FFFFFF;}
</style>
<g>
	<path d="M46.27,38.66H8.77c-1.1,0-1.99-0.89-1.99-1.99V8.11c0-1.1,0.89-1.99,1.99-1.99h37.5c1.1,0,1.99,0.89,1.99,1.99v28.55
		C48.27,37.76,47.37,38.66,46.27,38.66z M8.77,6.77c-0.74,0-1.34,0.6-1.34,1.34v28.55c0,0.74,0.6,1.34,1.34,1.34h37.5
		c0.74,0,1.34-0.6,1.34-1.34V8.11c0-0.74-0.6-1.34-1.34-1.34H8.77z"/>
</g>
<g>
	<path class="st0" d="M46.09,36.99H9.01c-0.42,0-0.76-0.34-0.76-0.76V13.23c0-0.42,0.34-0.76,0.76-0.76h37.08
		c0.42,0,0.76,0.34,0.76,0.76v23.01C46.86,36.65,46.51,36.99,46.09,36.99z M9.01,12.65c-0.32,0-0.57,0.26-0.57,0.57v23.01
		c0,0.32,0.26,0.57,0.57,0.57h37.08c0.32,0,0.57-0.26,0.57-0.57V13.23c0-0.32-0.26-0.57-0.57-0.57H9.01z"/>
</g>
<g>
	<g>
		<path class="st1" d="M16.93,10.81h-0.07c-0.72,0-1.31-0.59-1.31-1.31V3.38c0-0.72,0.59-1.31,1.31-1.31h0.07
			c0.72,0,1.31,0.59,1.31,1.31v6.12C18.24,10.23,17.66,10.81,16.93,10.81z"/>
		<path d="M17.37,11.14h-0.94c-0.66,0-1.2-0.54-1.2-1.2V2.95c0-0.66,0.54-1.2,1.2-1.2h0.94c0.66,0,1.2,0.54,1.2,1.2v6.99
			C18.57,10.6,18.03,11.14,17.37,11.14z M16.43,2.41c-0.3,0-0.54,0.24-0.54,0.54v6.99c0,0.3,0.24,0.54,0.54,0.54h0.94
			c0.3,0,0.54-0.24,0.54-0.54V2.95c0-0.3-0.24-0.54-0.54-0.54H16.43z"/>
	</g>
	<g>
		<path class="st1" d="M38.18,10.81h-0.07c-0.72,0-1.31-0.59-1.31-1.31V3.38c0-0.72,0.59-1.31,1.31-1.31h0.07
			c0.72,0,1.31,0.59,1.31,1.31v6.12C39.49,10.23,38.9,10.81,38.18,10.81z"/>
		<path d="M38.62,11.14h-0.94c-0.66,0-1.2-0.54-1.2-1.2V2.95c0-0.66,0.54-1.2,1.2-1.2h0.94c0.66,0,1.2,0.54,1.2,1.2v6.99
			C39.82,10.6,39.28,11.14,38.62,11.14z M37.68,2.41c-0.3,0-0.54,0.24-0.54,0.54v6.99c0,0.3,0.24,0.54,0.54,0.54h0.94
			c0.3,0,0.54-0.24,0.54-0.54V2.95c0-0.3-0.24-0.54-0.54-0.54H37.68z"/>
	</g>
</g>
<g>
	<path d="M19.79,22.26h-5.73v-5.73h5.73V22.26z M14.73,21.6h4.41V17.2h-4.41V21.6z"/>
</g>
<g>
	<path d="M30.42,22.26h-5.73v-5.73h5.73V22.26z M25.35,21.6h4.41V17.2h-4.41V21.6z"/>
</g>
<g>
	<path d="M41.04,22.26h-5.73v-5.73h5.73V22.26z M35.97,21.6h4.41V17.2h-4.41V21.6z"/>
</g>
<g>
	<path d="M19.79,32.16h-5.73v-5.73h5.73V32.16z M14.73,31.5h4.41V27.1h-4.41V31.5z"/>
</g>
<g>
	<path d="M30.42,32.16h-5.73v-5.73h5.73V32.16z M25.35,31.5h4.41V27.1h-4.41V31.5z"/>
</g>
<g>
	<g>
		<rect x="34.6" y="28.97" transform="matrix(0.7071 -0.7071 0.7071 0.7071 -9.536 35.5784)" width="7.17" height="0.66"/>
	</g>
	<g>
		<rect x="37.85" y="25.72" transform="matrix(0.7071 -0.7072 0.7072 0.7071 -9.5356 35.5814)" width="0.66" height="7.17"/>
	</g>
</g>
</svg>
