<?xml version="1.0" encoding="utf-8"?>
<!-- Generator: Adobe Illustrator 27.8.1, SVG Export Plug-In . SVG Version: 6.00 Build 0)  -->
<svg version="1.1" id="Livello_1" xmlns="http://www.w3.org/2000/svg" xmlns:xlink="http://www.w3.org/1999/xlink" x="0px" y="0px"
	 viewBox="0 0 56 40" style="enable-background:new 0 0 56 40;" xml:space="preserve">
<style type="text/css">
	.st0{fill:#1D1D1B;}
	.st1{fill:#010101;}
	.st2{fill:#FFFFFF;}
</style>
<g>
	<path class="st0" d="M50.41,32.46H39c-0.78,0-1.41-0.63-1.41-1.41v-5.56c0-0.78,0.63-1.41,1.41-1.41h11.41
		c0.78,0,1.41,0.63,1.41,1.41v5.56C51.82,31.82,51.19,32.46,50.41,32.46z M39,24.74c-0.41,0-0.75,0.34-0.75,0.75v5.56
		c0,0.41,0.34,0.75,0.75,0.75h11.41c0.41,0,0.75-0.34,0.75-0.75v-5.56c0-0.41-0.34-0.75-0.75-0.75H39z"/>
</g>
<g>
	<g>
		<path class="st1" d="M8.41,36.52H5.04c-0.9,0-1.63-0.73-1.63-1.63v-2.04L1.6,18.93c-0.01-0.05-0.01-0.1-0.01-0.16
			c0-0.33,0.13-0.63,0.36-0.86c0.23-0.23,0.54-0.36,0.86-0.36h7.84c0.05,0,0.11,0,0.16,0.01c0.67,0.09,1.14,0.7,1.05,1.37
			l-1.81,13.96l0,2C10.04,35.79,9.31,36.52,8.41,36.52z M2.81,18.21c-0.15,0-0.29,0.06-0.4,0.17c-0.11,0.11-0.16,0.25-0.16,0.4
			c0,0.02,0,0.05,0,0.07l1.81,13.96l0,2.09c0,0.54,0.44,0.97,0.97,0.97h3.37c0.54,0,0.97-0.44,0.97-0.97v-2.04l1.82-14.01
			c0.04-0.31-0.18-0.59-0.49-0.63c-0.02,0-0.05,0-0.07,0H2.81z"/>
	</g>
	<g>
		<path class="st0" d="M10.59,19.26H2.67c-0.05,0-0.09-0.04-0.09-0.09c0-0.05,0.04-0.09,0.09-0.09h7.93c0.05,0,0.09,0.04,0.09,0.09
			C10.69,19.22,10.64,19.26,10.59,19.26z"/>
	</g>
	<g>
		<g>
			<path class="st0" d="M3.02,19.2c-0.05,0-0.09-0.04-0.09-0.09v-0.55c0-0.05,0.04-0.09,0.09-0.09c0.05,0,0.09,0.04,0.09,0.09v0.55
				C3.12,19.15,3.08,19.2,3.02,19.2z"/>
		</g>
		<g>
			<path class="st0" d="M3.62,19.2c-0.05,0-0.09-0.04-0.09-0.09v-0.55c0-0.05,0.04-0.09,0.09-0.09c0.05,0,0.09,0.04,0.09,0.09v0.55
				C3.72,19.15,3.68,19.2,3.62,19.2z"/>
		</g>
		<g>
			<path class="st0" d="M4.23,19.2c-0.05,0-0.09-0.04-0.09-0.09v-0.55c0-0.05,0.04-0.09,0.09-0.09s0.09,0.04,0.09,0.09v0.55
				C4.32,19.15,4.28,19.2,4.23,19.2z"/>
		</g>
		<g>
			<path class="st0" d="M4.83,19.2c-0.05,0-0.09-0.04-0.09-0.09v-0.55c0-0.05,0.04-0.09,0.09-0.09c0.05,0,0.09,0.04,0.09,0.09v0.55
				C4.92,19.15,4.88,19.2,4.83,19.2z"/>
		</g>
		<g>
			<path class="st0" d="M7.23,19.2c-0.05,0-0.09-0.04-0.09-0.09v-0.55c0-0.05,0.04-0.09,0.09-0.09c0.05,0,0.09,0.04,0.09,0.09v0.55
				C7.32,19.15,7.28,19.2,7.23,19.2z"/>
		</g>
		<g>
			<path class="st0" d="M6.63,19.2c-0.05,0-0.09-0.04-0.09-0.09v-0.55c0-0.05,0.04-0.09,0.09-0.09s0.09,0.04,0.09,0.09v0.55
				C6.72,19.15,6.68,19.2,6.63,19.2z"/>
		</g>
		<g>
			<path class="st0" d="M6.03,19.2c-0.05,0-0.09-0.04-0.09-0.09v-0.55c0-0.05,0.04-0.09,0.09-0.09s0.09,0.04,0.09,0.09v0.55
				C6.12,19.15,6.08,19.2,6.03,19.2z"/>
		</g>
		<g>
			<path class="st0" d="M5.43,19.2c-0.05,0-0.09-0.04-0.09-0.09v-0.55c0-0.05,0.04-0.09,0.09-0.09c0.05,0,0.09,0.04,0.09,0.09v0.55
				C5.52,19.15,5.48,19.2,5.43,19.2z"/>
		</g>
		<g>
			<path class="st0" d="M7.83,19.2c-0.05,0-0.09-0.04-0.09-0.09v-0.55c0-0.05,0.04-0.09,0.09-0.09s0.09,0.04,0.09,0.09v0.55
				C7.92,19.15,7.88,19.2,7.83,19.2z"/>
		</g>
		<g>
			<path class="st0" d="M8.43,19.2c-0.05,0-0.09-0.04-0.09-0.09v-0.55c0-0.05,0.04-0.09,0.09-0.09s0.09,0.04,0.09,0.09v0.55
				C8.53,19.15,8.48,19.2,8.43,19.2z"/>
		</g>
		<g>
			<path class="st0" d="M9.03,19.2c-0.05,0-0.09-0.04-0.09-0.09v-0.55c0-0.05,0.04-0.09,0.09-0.09s0.09,0.04,0.09,0.09v0.55
				C9.13,19.15,9.08,19.2,9.03,19.2z"/>
		</g>
		<g>
			<path class="st0" d="M9.63,19.2c-0.05,0-0.09-0.04-0.09-0.09v-0.55c0-0.05,0.04-0.09,0.09-0.09s0.09,0.04,0.09,0.09v0.55
				C9.73,19.15,9.68,19.2,9.63,19.2z"/>
		</g>
		<g>
			<path class="st0" d="M10.23,19.2c-0.05,0-0.09-0.04-0.09-0.09v-0.55c0-0.05,0.04-0.09,0.09-0.09s0.09,0.04,0.09,0.09v0.55
				C10.33,19.15,10.29,19.2,10.23,19.2z"/>
		</g>
	</g>
	<g>
		<path class="st0" d="M9.16,33.43h-4.8c-0.05,0-0.09-0.04-0.09-0.09s0.04-0.09,0.09-0.09h4.8c0.05,0,0.09,0.04,0.09,0.09
			S9.21,33.43,9.16,33.43z"/>
	</g>
	<g>
		<path class="st0" d="M9.16,32.88h-4.8c-0.05,0-0.09-0.04-0.09-0.09S4.3,32.7,4.35,32.7h4.8c0.05,0,0.09,0.04,0.09,0.09
			S9.21,32.88,9.16,32.88z"/>
	</g>
</g>
<g>
	<path class="st1" d="M14.41,34.14V8.1l18.23-3.55v26.04L14.41,34.14z M15.07,8.64v24.7l16.92-3.29V5.35L15.07,8.64z"/>
</g>
<g>
	<rect x="14.79" y="8.4" class="st2" width="18.91" height="27.79"/>
	<path class="st1" d="M34.02,36.52H14.46V8.08h19.57V36.52z M15.11,35.87h18.25V8.73H15.11V35.87z"/>
</g>
<g>
	<g>
		<g>
			<path class="st0" d="M17.72,23.15v-2.04h0.27v2.06c0,0.05,0.03,0.08,0.08,0.08h0.7v0.27h-0.71c-0.11,0-0.19-0.03-0.25-0.1
				C17.75,23.35,17.72,23.26,17.72,23.15"/>
		</g>
		<g>
			<path class="st0" d="M21.54,21.89h0.52l-0.17-0.42c-0.02-0.05-0.04-0.09-0.04-0.09c-0.01-0.02-0.03-0.03-0.05-0.03
				c-0.02,0-0.04,0.01-0.05,0.03c0,0-0.01,0.03-0.04,0.09C21.65,21.61,21.6,21.75,21.54,21.89 M21.5,21.33
				c0.06-0.15,0.16-0.22,0.3-0.22c0.15,0,0.26,0.08,0.32,0.23c0.11,0.27,0.39,0.97,0.84,2.09l-0.23,0.09l-0.55-1.38h-0.72
				l-0.53,1.38l-0.24-0.09L21.5,21.33z"/>
		</g>
		<g>
			<path class="st0" d="M25.22,21.36c-0.07,0-0.1,0.02-0.1,0.07v1.76c0,0.05,0.02,0.07,0.06,0.07h0.48c0.14,0,0.25-0.06,0.35-0.19
				c0.09-0.12,0.13-0.25,0.13-0.39c0-0.18-0.07-0.33-0.22-0.44c-0.11-0.08-0.2-0.12-0.3-0.12h-0.41v-0.26h0.01
				c0.07,0,0.13-0.03,0.19-0.08c0.05-0.05,0.08-0.11,0.08-0.19c0-0.07-0.03-0.13-0.08-0.18c-0.05-0.05-0.11-0.07-0.18-0.07H25.22z
				 M24.88,23.24v-1.76c0-0.1,0.01-0.17,0.04-0.22c0.06-0.1,0.17-0.15,0.35-0.15c0.14,0,0.25,0.05,0.35,0.14
				c0.09,0.09,0.14,0.21,0.14,0.34c0,0.11-0.03,0.21-0.1,0.29c0.19,0.01,0.35,0.08,0.5,0.21c0.17,0.15,0.26,0.35,0.26,0.59
				c0,0.27-0.09,0.48-0.28,0.64c-0.15,0.13-0.32,0.19-0.5,0.19h-0.45c-0.06,0-0.12-0.02-0.17-0.06
				C24.92,23.41,24.88,23.33,24.88,23.24"/>
		</g>
		<g>
			<path class="st0" d="M29.55,23.29c0.27,0,0.5-0.1,0.69-0.29c0.18-0.19,0.28-0.42,0.28-0.7c0-0.27-0.09-0.51-0.28-0.7
				c-0.18-0.19-0.41-0.29-0.69-0.29c-0.27,0-0.5,0.09-0.69,0.29c-0.18,0.19-0.28,0.42-0.28,0.7c0,0.27,0.09,0.51,0.28,0.7
				C29.05,23.2,29.28,23.29,29.55,23.29 M28.33,22.31c0-0.35,0.12-0.64,0.35-0.88c0.23-0.24,0.52-0.36,0.87-0.36
				c0.35,0,0.63,0.12,0.87,0.36c0.23,0.24,0.35,0.53,0.35,0.88c0,0.35-0.12,0.64-0.34,0.88c-0.23,0.24-0.52,0.36-0.87,0.36
				c-0.35,0-0.63-0.12-0.87-0.36C28.45,22.95,28.33,22.66,28.33,22.31"/>
		</g>
	</g>
</g>
<g>
	<path class="st0" d="M31.23,35.2H17.25c-0.85,0-1.54-0.69-1.54-1.54V11c0-0.85,0.69-1.54,1.54-1.54h13.98
		c0.85,0,1.54,0.69,1.54,1.54v22.66C32.77,34.5,32.08,35.2,31.23,35.2z M17.25,9.65c-0.75,0-1.35,0.61-1.35,1.35v22.66
		c0,0.75,0.61,1.35,1.35,1.35h13.98c0.75,0,1.35-0.61,1.35-1.35V11c0-0.75-0.61-1.35-1.35-1.35H17.25z"/>
</g>
<g>
	<path class="st2" d="M51.53,36.19H37.88c-0.9,0-1.63-0.73-1.63-1.63v-6.36c0-0.9,0.73-1.63,1.63-1.63h13.65
		c0.9,0,1.63,0.73,1.63,1.63v6.36C53.16,35.47,52.43,36.19,51.53,36.19z"/>
	<path class="st0" d="M52.08,36.52H37.33c-0.78,0-1.41-0.63-1.41-1.41v-7.46c0-0.78,0.63-1.41,1.41-1.41h14.75
		c0.78,0,1.41,0.63,1.41,1.41v7.46C53.49,35.89,52.86,36.52,52.08,36.52z M37.33,26.91c-0.41,0-0.75,0.34-0.75,0.75v7.46
		c0,0.41,0.34,0.75,0.75,0.75h14.75c0.41,0,0.75-0.34,0.75-0.75v-7.46c0-0.41-0.34-0.75-0.75-0.75H37.33z"/>
</g>
<g>
	<g>
		<g>
			<path class="st0" d="M7.12,29.04H6.16v-0.13h0.97c0.02,0,0.04-0.01,0.04-0.04v-0.33h0.13v0.33c0,0.05-0.02,0.09-0.05,0.12
				C7.21,29.03,7.17,29.04,7.12,29.04"/>
		</g>
		<g>
			<path class="st0" d="M6.53,27.24V27l-0.2,0.08c-0.03,0.01-0.04,0.02-0.04,0.02c-0.01,0.01-0.01,0.01-0.01,0.02
				c0,0.01,0,0.02,0.01,0.02c0,0,0.01,0.01,0.04,0.02C6.39,27.19,6.46,27.22,6.53,27.24 M6.27,27.27c-0.07-0.03-0.1-0.07-0.1-0.14
				c0-0.07,0.04-0.12,0.11-0.15c0.13-0.05,0.46-0.18,0.98-0.39l0.04,0.11l-0.65,0.26v0.34l0.65,0.25l-0.04,0.11L6.27,27.27z"/>
		</g>
		<g>
			<path class="st0" d="M6.28,25.52c0,0.03,0.01,0.05,0.03,0.05h0.83c0.02,0,0.03-0.01,0.03-0.03v-0.22c0-0.06-0.03-0.12-0.09-0.17
				c-0.05-0.04-0.12-0.06-0.18-0.06c-0.09,0-0.15,0.03-0.2,0.1c-0.04,0.05-0.05,0.1-0.05,0.14v0.19H6.52v0
				c0-0.03-0.01-0.06-0.04-0.09c-0.02-0.02-0.05-0.04-0.09-0.04c-0.03,0-0.06,0.01-0.08,0.04C6.29,25.45,6.28,25.48,6.28,25.52
				L6.28,25.52z M7.16,25.68H6.34c-0.05,0-0.08-0.01-0.1-0.02c-0.05-0.03-0.07-0.08-0.07-0.16c0-0.06,0.02-0.12,0.07-0.16
				s0.1-0.07,0.16-0.07c0.05,0,0.1,0.02,0.14,0.05c0.01-0.09,0.04-0.17,0.1-0.23C6.7,25,6.79,24.96,6.9,24.96
				c0.13,0,0.23,0.04,0.3,0.13c0.06,0.07,0.09,0.15,0.09,0.24v0.21c0,0.03-0.01,0.05-0.03,0.08C7.24,25.66,7.2,25.68,7.16,25.68"/>
		</g>
		<g>
			<path class="st0" d="M7.19,23.49c0-0.13-0.04-0.24-0.13-0.32c-0.09-0.09-0.2-0.13-0.33-0.13c-0.13,0-0.24,0.04-0.33,0.13
				c-0.09,0.09-0.13,0.19-0.13,0.32c0,0.13,0.04,0.24,0.13,0.32c0.09,0.09,0.2,0.13,0.33,0.13c0.13,0,0.24-0.04,0.33-0.13
				C7.14,23.72,7.19,23.61,7.19,23.49 M6.73,24.06c-0.16,0-0.3-0.05-0.41-0.16c-0.11-0.11-0.17-0.25-0.17-0.41
				c0-0.16,0.06-0.3,0.17-0.41c0.11-0.11,0.25-0.16,0.41-0.16c0.16,0,0.3,0.05,0.41,0.16c0.11,0.11,0.17,0.25,0.17,0.41
				c0,0.16-0.06,0.3-0.17,0.41C7.03,24,6.89,24.06,6.73,24.06"/>
		</g>
	</g>
</g>
<g>
	<path class="st0" d="M52.72,34.53H36.69c-0.29,0-0.53-0.24-0.53-0.53v-5.24c0-0.29,0.24-0.53,0.53-0.53h16.03
		c0.29,0,0.53,0.24,0.53,0.53v5.24C53.25,34.3,53.01,34.53,52.72,34.53z M36.69,28.43c-0.19,0-0.34,0.15-0.34,0.34v5.24
		c0,0.19,0.15,0.34,0.34,0.34h16.03c0.19,0,0.34-0.15,0.34-0.34v-5.24c0-0.19-0.15-0.34-0.34-0.34H36.69z"/>
</g>
<g>
	<g>
		<g>
			<path class="st0" d="M40.4,31.76v-1.34h0.18v1.36c0,0.04,0.02,0.05,0.05,0.05h0.46V32h-0.47c-0.07,0-0.13-0.02-0.16-0.07
				C40.42,31.89,40.4,31.83,40.4,31.76"/>
		</g>
		<g>
			<path class="st0" d="M42.93,30.93h0.34l-0.11-0.28c-0.02-0.04-0.02-0.06-0.03-0.06c-0.01-0.01-0.02-0.02-0.04-0.02
				c-0.01,0-0.03,0.01-0.03,0.02c0,0-0.01,0.02-0.02,0.06C43,30.74,42.96,30.84,42.93,30.93 M42.9,30.56c0.04-0.1,0.1-0.15,0.2-0.15
				c0.1,0,0.17,0.05,0.21,0.15c0.07,0.18,0.26,0.64,0.55,1.38L43.7,32l-0.36-0.91h-0.47L42.52,32l-0.16-0.06L42.9,30.56z"/>
		</g>
		<g>
			<path class="st0" d="M45.35,30.58c-0.04,0-0.07,0.01-0.07,0.04v1.16c0,0.03,0.01,0.05,0.04,0.05h0.31c0.09,0,0.17-0.04,0.23-0.13
				c0.06-0.08,0.09-0.16,0.09-0.25c0-0.12-0.05-0.22-0.14-0.29c-0.07-0.05-0.14-0.08-0.2-0.08h-0.27v-0.17h0.01
				c0.05,0,0.09-0.02,0.12-0.05c0.03-0.03,0.05-0.07,0.05-0.12c0-0.05-0.02-0.09-0.05-0.12C45.44,30.6,45.4,30.58,45.35,30.58
				L45.35,30.58z M45.13,31.82v-1.16c0-0.06,0.01-0.11,0.03-0.14c0.04-0.07,0.11-0.1,0.23-0.1c0.09,0,0.17,0.03,0.23,0.09
				c0.06,0.06,0.09,0.14,0.09,0.23c0,0.07-0.02,0.14-0.07,0.19c0.12,0.01,0.23,0.05,0.33,0.14c0.11,0.1,0.17,0.23,0.17,0.39
				c0,0.18-0.06,0.32-0.19,0.42c-0.1,0.08-0.21,0.13-0.33,0.13h-0.3c-0.04,0-0.08-0.01-0.11-0.04
				C45.15,31.93,45.13,31.88,45.13,31.82"/>
		</g>
		<g>
			<path class="st0" d="M48.21,31.85c0.18,0,0.33-0.06,0.45-0.19c0.12-0.13,0.18-0.28,0.18-0.46c0-0.18-0.06-0.33-0.18-0.46
				c-0.12-0.13-0.27-0.19-0.45-0.19c-0.18,0-0.33,0.06-0.45,0.19c-0.12,0.13-0.18,0.28-0.18,0.46c0,0.18,0.06,0.33,0.18,0.46
				C47.87,31.79,48.03,31.85,48.21,31.85 M47.4,31.21c0-0.23,0.08-0.42,0.23-0.58c0.15-0.16,0.34-0.24,0.57-0.24
				c0.23,0,0.42,0.08,0.57,0.24c0.15,0.16,0.23,0.35,0.23,0.58c0,0.23-0.08,0.42-0.23,0.58c-0.15,0.16-0.35,0.24-0.57,0.24
				c-0.23,0-0.42-0.08-0.57-0.24C47.48,31.63,47.4,31.44,47.4,31.21"/>
		</g>
	</g>
</g>
</svg>
