<svg width="182" height="58" fill="none" xmlns="http://www.w3.org/2000/svg">
    <path d="M0 28.53V.47h3.707v28.342c0 .751.38 1.126 1.141 1.126h9.791v3.66H4.658c-1.521 0-2.662-.469-3.422-1.407C.38 31.252 0 30.032 0 28.53ZM53.328 11.262h7.225l-2.377-5.818c-.285-.751-.475-1.22-.57-1.314-.19-.188-.475-.376-.76-.376-.286 0-.571.094-.666.376 0 0-.19.375-.475 1.22-.856 1.97-1.616 3.942-2.377 5.912Zm-.665-7.695c.76-2.065 2.186-3.004 4.182-3.004 2.092 0 3.613 1.033 4.468 3.098 1.521 3.754 5.419 13.326 11.693 28.718l-3.232 1.314-7.605-18.958H52.092l-7.414 18.864-3.327-1.22L52.663 3.567ZM104.471 4.036c-.951 0-1.331.282-1.331.938v24.214c0 .657.285 1.032.951 1.032h6.654c1.901 0 3.517-.844 4.943-2.627 1.236-1.596 1.901-3.38 1.901-5.256 0-2.534-1.046-4.505-3.042-6.007-1.521-1.032-2.852-1.595-4.087-1.595h-5.704v-3.566h.095c1.046 0 1.901-.376 2.567-1.033.76-.75 1.045-1.595 1.045-2.534 0-.938-.38-1.783-1.045-2.44-.761-.657-1.616-1.032-2.567-1.032h-.38v-.094Zm-4.753 25.715V5.631c0-1.313.19-2.346.57-3.003.761-1.408 2.377-2.065 4.848-2.065 1.901 0 3.517.657 4.848 1.878 1.331 1.313 1.901 2.815 1.901 4.692 0 1.502-.475 2.816-1.425 4.036 2.566.187 4.943 1.126 6.939 2.909 2.376 2.065 3.612 4.786 3.612 8.165 0 3.66-1.331 6.57-3.992 8.822-2.187 1.783-4.468 2.628-6.94 2.628h-6.274c-.76 0-1.616-.282-2.376-.75-1.141-.846-1.711-1.878-1.711-3.192ZM164.835 30.502c3.803 0 7.035-1.314 9.506-3.942 2.567-2.628 3.803-5.819 3.803-9.573 0-3.754-1.236-6.945-3.803-9.573-2.566-2.628-5.703-3.942-9.506-3.942-3.802 0-7.034 1.314-9.601 3.942-2.567 2.628-3.897 5.819-3.897 9.573 0 3.754 1.33 6.945 3.897 9.573 2.567 2.628 5.799 3.942 9.601 3.942ZM147.819 17.08c0-4.787 1.616-8.822 4.848-12.107C155.899 1.69 159.987 0 164.74 0c4.848 0 8.841 1.69 12.073 4.974 3.232 3.285 4.848 7.32 4.848 12.107 0 4.786-1.616 8.822-4.848 12.107-3.232 3.284-7.32 4.974-12.168 4.974-4.848 0-8.841-1.69-12.073-4.974-3.137-3.285-4.753-7.32-4.753-12.107Z" fill="#B52A2D"/>
    <path d="M1.996 57.812c-.57 0-.95-.187-1.236-.563-.285-.281-.475-.75-.475-1.314v-9.76h1.426v9.948c0 .188.095.282.285.282h3.422v1.407H1.996ZM15.115 47.958c-.095-.282-.19-.375-.19-.47-.095-.093-.095-.093-.19-.093s-.19.094-.285.188c-.19.375-.476 1.126-.856 2.252h2.282l-.76-1.877Zm4.088 9.854-2.662-6.57h-3.422l-2.567 6.57-1.236-.469 3.898-10.042c.285-.75.76-1.126 1.52-1.126.761 0 1.237.375 1.617 1.126.475 1.032 1.806 4.411 4.088 10.042l-1.236.47ZM29.373 51.712c-.475-.375-.95-.563-1.425-.563h-2.092v-1.314h.095c.38 0 .57-.094.856-.375.19-.188.38-.47.38-.845 0-.282-.095-.563-.38-.845-.285-.187-.57-.375-.856-.375h-.095c-.285 0-.38.094-.38.281v8.447c0 .188.095.282.285.282h2.282c.665 0 1.14-.282 1.616-.939.475-.563.665-1.126.665-1.783 0-.75-.285-1.408-.95-1.971Zm.951 5.162c-.76.657-1.616.938-2.472.938h-2.186c-.285 0-.57-.093-.855-.281a1.333 1.333 0 0 1-.57-1.126v-8.353c0-.47.094-.845.19-1.126.284-.47.855-.751 1.71-.751.666 0 1.236.188 1.712.657.475.469.665 1.032.665 1.69 0 .468-.19.938-.475 1.313a4.134 4.134 0 0 1 2.376 1.032c.856.751 1.236 1.69 1.236 2.91.095 1.314-.38 2.346-1.33 3.097ZM41.54 47.301c-1.33 0-2.376.47-3.231 1.314-.856.939-1.331 1.971-1.331 3.285s.475 2.346 1.33 3.285c.856.938 1.997 1.314 3.233 1.314 1.33 0 2.376-.47 3.232-1.314.855-.939 1.33-1.971 1.33-3.285s-.475-2.346-1.33-3.285c-.856-.845-1.902-1.314-3.232-1.314Zm0 10.7c-1.71 0-3.136-.564-4.277-1.784-1.14-1.126-1.711-2.534-1.711-4.223 0-1.69.57-3.097 1.71-4.224 1.142-1.126 2.568-1.783 4.279-1.783 1.71 0 3.137.563 4.277 1.783 1.141 1.127 1.711 2.534 1.711 4.224 0 1.69-.57 3.097-1.71 4.223C44.582 57.437 43.251 58 41.54 58ZM62.36 57.812c-1.615 0-3.041-.563-4.182-1.689-1.14-1.126-1.711-2.534-1.711-4.13 0-1.595.57-3.003 1.71-4.129 1.142-1.126 2.568-1.69 4.184-1.69h2.09v1.315h-2.09c-1.236 0-2.377.469-3.232 1.314-.856.844-1.331 1.877-1.331 3.19a4.44 4.44 0 0 0 1.33 3.191 4.556 4.556 0 0 0 3.233 1.314h2.09v1.408h-2.09v-.094ZM74.242 47.301c-1.331 0-2.377.47-3.232 1.314-.856.939-1.331 1.971-1.331 3.285s.475 2.346 1.33 3.285c.856.938 1.997 1.314 3.233 1.314 1.33 0 2.376-.47 3.232-1.314.855-.939 1.33-1.971 1.33-3.285s-.475-2.346-1.33-3.285a4.557 4.557 0 0 0-3.232-1.314Zm0 10.7c-1.711 0-3.137-.564-4.278-1.784-1.14-1.126-1.711-2.534-1.711-4.223 0-1.69.57-3.097 1.711-4.224 1.14-1.126 2.567-1.783 4.278-1.783 1.71 0 3.137.563 4.277 1.783 1.141 1.127 1.712 2.534 1.712 4.224 0 1.69-.57 3.097-1.712 4.223C77.284 57.437 75.858 58 74.242 58ZM88.312 57.812h-4.278V56.5h4.278c.76 0 1.33-.188 1.9-.751.476-.47.761-1.127.761-1.783 0-.751-.285-1.314-.76-1.878-.475-.469-1.14-.75-1.901-.75h-1.807c-.76 0-1.33-.282-1.9-.751-.476-.47-.761-1.126-.761-1.877 0-.75.285-1.314.76-1.877.475-.47 1.141-.75 1.901-.75h2.282v1.313h-2.282c-.38 0-.665.094-.855.375-.19.282-.38.563-.38.845 0 .375.095.657.38.845.285.281.57.375.855.375h1.807c1.14 0 2.09.376 2.851 1.126.76.751 1.141 1.69 1.141 2.816s-.38 2.065-1.14 2.815c-.761.845-1.712 1.22-2.852 1.22ZM99.624 54.246h-1.711v-1.314h1.71c.761 0 1.427-.282 1.902-.75.57-.564.76-1.127.76-1.878 0-.75-.285-1.407-.76-1.877-.475-.469-1.141-.75-1.901-.75h-1.806c-.19 0-.286.093-.286.281V58h-1.426V47.864c0-.47.096-.844.38-1.126.286-.282.666-.47 1.141-.563h1.521c.76 0 1.331.094 1.711.188.571.187 1.141.469 1.616.938.761.75 1.236 1.69 1.236 2.816s-.38 2.064-1.14 2.909c-.856.845-1.807 1.22-2.947 1.22ZM114.072 57.812l-4.753-6.663h-.095v-1.314c.38 0 .666-.094.856-.282.285-.187.38-.469.38-.844 0-.376-.095-.657-.38-.845a1.213 1.213 0 0 0-.856-.375c-.19 0-.285 0-.38.094v10.23h-1.426V47.3c0-.375.285-.657.665-.845a2.562 2.562 0 0 1 1.141-.281c.666 0 1.236.281 1.711.75.475.47.761 1.033.761 1.784 0 .844-.381 1.595-1.046 2.064l4.468 6.382-1.046.657ZM125.004 47.301c-1.33 0-2.376.47-3.232 1.314-.855.939-1.33 1.971-1.33 3.285s.475 2.346 1.33 3.285c.856.938 1.997 1.314 3.232 1.314 1.331 0 2.377-.47 3.232-1.314.856-.939 1.331-1.971 1.331-3.285s-.475-2.346-1.331-3.285a4.555 4.555 0 0 0-3.232-1.314Zm0 10.7c-1.711 0-3.137-.564-4.277-1.784-1.141-1.126-1.711-2.534-1.711-4.223 0-1.69.57-3.097 1.711-4.224 1.14-1.126 2.566-1.783 4.277-1.783 1.712 0 3.137.563 4.278 1.783 1.141 1.127 1.711 2.534 1.711 4.224 0 1.69-.57 3.097-1.711 4.223-1.236 1.22-2.662 1.783-4.278 1.783ZM138.218 54.246h-1.711v-1.314h1.711c.76 0 1.426-.282 1.901-.75.57-.564.76-1.127.76-1.878 0-.75-.285-1.407-.76-1.877-.57-.469-1.141-.75-1.901-.75h-1.901c-.191 0-.286.093-.286.281V58h-1.426V47.864c0-.47.096-.844.381-1.126.285-.282.665-.47 1.14-.563h1.521c.761 0 1.331.094 1.711.188.571.187 1.141.469 1.617.938.76.75 1.235 1.69 1.235 2.816s-.38 2.064-1.14 2.909c-.761.845-1.712 1.22-2.852 1.22ZM153.902 57.812v-6.476h-6.369v6.476h-1.426V46.174h1.426v3.754h6.369v-3.754h1.426v11.638h-1.426ZM164.93 47.958c-.096-.282-.191-.376-.191-.47-.095-.094-.095-.094-.19-.094s-.19.094-.285.188c-.19.376-.475 1.126-.855 2.252h2.281l-.76-1.877Zm4.087 9.854-2.662-6.57h-3.422l-2.566 6.57-1.236-.47 3.897-10.041c.286-.751.761-1.127 1.521-1.127.761 0 1.331.376 1.616 1.127.476 1.032 1.806 4.41 4.088 10.042l-1.236.469ZM180.614 57.812l-4.753-6.664h-.095V49.835c.38 0 .666-.094.856-.282.285-.188.38-.47.38-.845s-.095-.657-.38-.844a1.213 1.213 0 0 0-.856-.376c-.19 0-.285 0-.38.094v10.23h-1.426V47.3c0-.376.285-.657.665-.845a2.562 2.562 0 0 1 1.141-.282c.666 0 1.236.282 1.711.751.475.47.761 1.033.761 1.783 0 .845-.381 1.596-1.046 2.065l4.468 6.382-1.046.657Z" fill="#000"/>
</svg>