<?xml version="1.0" standalone="no"?>
<!DOCTYPE svg PUBLIC "-//W3C//DTD SVG 1.1//EN" "http://www.w3.org/Graphics/SVG/1.1/DTD/svg11.dtd" >
<svg xmlns="http://www.w3.org/2000/svg" xmlns:xlink="http://www.w3.org/1999/xlink" version="1.1">
<metadata>
Created by FontForge 20170812 at Sun Aug 19 17:25:23 2018
 By root
Copyright \(c\) 2016 Swiss Typefaces Sarl. All rights reserved. |DCNT
</metadata>
<defs>
<font id="SuisseIntl-SemiBoldItalic" horiz-adv-x="678" >
  <font-face 
    font-family="Suisse Intl SemiBold"
    font-weight="600"
    font-style="italic"
    font-stretch="normal"
    units-per-em="1000"
    panose-1="2 11 5 4 0 0 0 0 0 0"
    ascent="750"
    descent="-250"
    x-height="538"
    cap-height="725"
    bbox="-179 -235 1372 935"
    underline-thickness="70"
    underline-position="-110"
    stemh="116"
    stemv="141"
    unicode-range="U+0020-FB02"
  />
<missing-glyph horiz-adv-x="500" 
d="M0 0v725h500v-725h-500zM239 362l-220 334v-667zM260 362l221 -333v667zM250 346l-217 -327h433zM33 706l217 -328l216 328h-433z" />
    <glyph glyph-name="uni0407_uni0407" unicode="&#x407;&#x407;" horiz-adv-x="532" 
d="M308 725l-154 -725h-143l154 725h143zM561 725l-154 -725h-143l154 725h143zM550 886h143l-25 -113h-142zM325 886h143l-25 -113h-142zM100 886h143l-25 -113h-142z" />
    <glyph glyph-name="uni0457_uni0457" unicode="&#x457;&#x457;" horiz-adv-x="525" 
d="M379 538h138l-114 -538h-138zM122 538h138l-114 -538h-138zM62 725h115l-25 -118h-115zM539 725h115l-25 -118h-115zM300 725h115l-25 -118h-115z" />
    <glyph glyph-name=".notdef" horiz-adv-x="500" 
d="M0 0v725h500v-725h-500zM239 362l-220 334v-667zM260 362l221 -333v667zM250 346l-217 -327h433zM33 706l217 -328l216 328h-433z" />
    <glyph glyph-name="NULL" horiz-adv-x="0" 
 />
    <glyph glyph-name="NULL" horiz-adv-x="0" 
 />
    <glyph glyph-name="CR" horiz-adv-x="210" 
 />
    <glyph glyph-name="space" unicode=" " horiz-adv-x="210" 
 />
    <glyph glyph-name="exclam" unicode="!" horiz-adv-x="273" 
d="M164 725h138l-41 -186l-91 -325h-91l44 325zM153 0h-148l31 150h148z" />
    <glyph glyph-name="quotedbl" unicode="&#x22;" horiz-adv-x="341" 
d="M239 725h145l-20 -259h-106zM71 725h145l-20 -259h-106z" />
    <glyph glyph-name="numbersign" unicode="#" horiz-adv-x="724" 
d="M54 547h138l25 178h124l-25 -178h133l25 178h124l-25 -178h140l-13 -108h-142l-21 -151h139l-11 -106h-142l-25 -182h-124l25 182h-133l-25 -182h-124l25 182h-136l13 106h137l21 151h-134zM301 439l-21 -151h133l21 151h-133z" />
    <glyph glyph-name="dollar" unicode="$" horiz-adv-x="621" 
d="M582 210c0 -148 -134 -222 -274 -222c-11 0 -19 1 -30 1l-18 -85h-57l20 94c-110 24 -187 104 -187 223c0 11 1 21 2 32h134c-1 -4 -1 -8 -1 -12v-10c0 -71 29 -113 73 -132l48 224l-39 13c-85 27 -170 86 -170 192c0 138 115 210 257 210c13 0 26 -1 39 -2l16 74h57
l-18 -83c101 -24 180 -92 180 -214v-12c0 -3 0 -7 -1 -11h-135c1 3 1 7 1 10v11c0 60 -28 94 -67 111l-42 -198c96 -32 212 -88 212 -214zM451 198c0 55 -39 84 -106 108l-46 -216c5 -1 10 0 15 0c63 0 137 34 137 108zM214 541c0 -52 36 -78 85 -93l18 -6l40 191h-4
c-7 1 -15 2 -23 2c-58 0 -116 -31 -116 -94z" />
    <glyph glyph-name="percent" unicode="%" horiz-adv-x="1015" 
d="M167 486c0 -64 24 -105 69 -105c74 0 91 113 91 174c0 64 -24 107 -68 107c-74 0 -92 -112 -92 -176zM425 556c0 -120 -48 -246 -195 -246c-110 0 -161 72 -161 175c0 120 49 247 193 247c112 0 163 -73 163 -176zM348 0h-141l500 725h141zM728 169
c0 -64 24 -105 69 -105c74 0 91 113 91 174c0 64 -24 107 -68 107c-74 0 -92 -112 -92 -176zM986 239c0 -120 -48 -246 -195 -246c-110 0 -161 72 -161 175c0 120 49 247 193 247c112 0 163 -73 163 -176z" />
    <glyph glyph-name="ampersand" unicode="&#x26;" horiz-adv-x="693" 
d="M-17 186c0 116 75 170 197 215c-35 43 -68 101 -68 169c0 101 96 168 227 168c96 0 208 -36 208 -156c0 -81 -50 -151 -174 -211l99 -116c21 43 37 90 49 145h128c-11 -67 -41 -157 -98 -237l139 -163h-168l-59 69c-63 -49 -139 -82 -235 -82c-152 0 -245 87 -245 199z
M125 198c0 -59 41 -108 126 -108c56 0 104 21 144 58l-150 176c-72 -28 -120 -58 -120 -126zM409 567c0 45 -32 71 -76 71c-40 0 -82 -20 -82 -73c0 -50 35 -92 58 -118c72 28 100 69 100 120z" />
    <glyph glyph-name="quotesingle" unicode="'" horiz-adv-x="173" 
d="M71 725h145l-20 -259h-106z" />
    <glyph glyph-name="parenleft" unicode="(" horiz-adv-x="274" 
d="M184 -175h-115c-30 65 -68 186 -68 323c0 219 101 420 247 577h126c-141 -176 -236 -380 -236 -622c0 -113 19 -207 46 -278z" />
    <glyph glyph-name="parenright" unicode=")" horiz-adv-x="274" 
d="M81 725h116c30 -65 67 -186 67 -324c0 -216 -100 -421 -247 -576h-126c142 177 237 378 237 622c0 112 -20 207 -47 278z" />
    <glyph glyph-name="asterisk" unicode="*" horiz-adv-x="367" 
d="M280 725v-104l99 38l33 -87l-102 -35l61 -85l-72 -54l-65 87l-59 -87l-78 53l61 85l-100 36l32 87l97 -38v104h93z" />
    <glyph glyph-name="plus" unicode="+" 
d="M402 0h-125v207h-216v120h216v212h125v-212h215v-120h-215v-207z" />
    <glyph glyph-name="comma" unicode="," horiz-adv-x="273" 
d="M5 0l32 150h147l-34 -161l-106 -151h-79l109 162h-69z" />
    <glyph glyph-name="hyphen" unicode="-" horiz-adv-x="436" 
d="M369 207h-331l25 120h331z" />
    <glyph glyph-name="period" unicode="." horiz-adv-x="273" 
d="M153 0h-148l31 150h148z" />
    <glyph glyph-name="slash" unicode="/" horiz-adv-x="398" 
d="M121 0h-128l280 725h128z" />
    <glyph glyph-name="zero" unicode="0" horiz-adv-x="652" 
d="M183 269c0 -109 42 -179 114 -179c153 0 205 234 205 368c0 109 -39 176 -122 176c-148 0 -197 -247 -197 -365zM641 455c0 -192 -95 -468 -355 -468c-159 0 -241 111 -241 284c0 203 101 467 348 467c165 0 248 -106 248 -283z" />
    <glyph glyph-name="one" unicode="1" horiz-adv-x="371" 
d="M233 0h-138l115 542h-156l20 94c106 3 155 10 208 89h104z" />
    <glyph glyph-name="two" unicode="2" horiz-adv-x="593" 
d="M211 491h-130c8 155 118 247 283 247c140 0 237 -57 237 -188c0 -173 -183 -319 -395 -434h319l-25 -116h-522l23 109c305 169 457 298 457 427c0 69 -42 99 -107 99c-72 0 -135 -37 -140 -144z" />
    <glyph glyph-name="three" unicode="3" horiz-adv-x="609" 
d="M18 222h132c8 -81 45 -132 136 -132c100 0 136 61 136 124c0 83 -76 110 -154 110h-35l22 110h12c80 0 190 13 190 108c0 60 -52 92 -113 92c-88 0 -126 -39 -141 -124h-130c19 145 120 228 277 228c144 0 248 -61 248 -180c0 -83 -47 -144 -123 -175
c56 -29 86 -80 86 -156c0 -156 -121 -240 -282 -240c-179 0 -258 115 -261 235z" />
    <glyph glyph-name="four" unicode="4" horiz-adv-x="638" 
d="M425 538l-253 -255h197zM631 283l-25 -119h-124l-35 -164h-138l34 164h-355l24 110l455 451h134l-93 -442h123z" />
    <glyph glyph-name="five" unicode="5" horiz-adv-x="608" 
d="M265 609l-48 -155c27 15 72 28 123 28c131 0 230 -82 230 -235c0 -147 -118 -260 -282 -260c-157 0 -257 84 -269 233h131c8 -73 53 -130 137 -130c97 0 142 74 142 156c0 75 -52 134 -132 134c-52 0 -103 -29 -122 -69l-113 30l114 384h444l-24 -116h-331z" />
    <glyph glyph-name="six" unicode="6" horiz-adv-x="624" 
d="M439 243c0 69 -38 136 -119 136c-79 0 -144 -56 -144 -155c0 -76 48 -134 125 -134c83 0 138 69 138 153zM612 525h-126c-4 72 -44 109 -105 109c-92 0 -157 -81 -180 -212c36 33 86 58 155 58c111 0 224 -79 224 -220c0 -159 -111 -273 -279 -273
c-172 0 -256 111 -256 286c0 217 95 465 336 465c126 0 223 -65 231 -213z" />
    <glyph glyph-name="seven" unicode="7" horiz-adv-x="526" 
d="M59 609l25 116h532l-23 -110c-252 -166 -383 -319 -423 -615h-152c37 299 226 486 422 609h-381z" />
    <glyph glyph-name="eight" unicode="8" horiz-adv-x="620" 
d="M497 374c60 -43 82 -101 82 -158c0 -161 -143 -229 -285 -229c-141 0 -266 70 -266 212c0 96 52 165 140 202c-41 33 -63 89 -63 142c0 139 138 195 261 195c128 0 247 -64 247 -188c0 -81 -48 -141 -116 -176zM168 210c0 -80 62 -120 133 -120c88 0 141 53 141 125
c0 80 -65 120 -134 120c-85 0 -140 -53 -140 -125zM236 534c0 -52 36 -104 117 -104c73 0 124 40 124 103c0 59 -47 101 -119 101s-122 -40 -122 -100z" />
    <glyph glyph-name="nine" unicode="9" horiz-adv-x="612" 
d="M207 482c0 -69 38 -136 119 -136c79 0 144 56 144 155c0 76 -48 134 -125 134c-83 0 -138 -69 -138 -153zM34 200h126c4 -72 44 -109 105 -109c92 0 157 81 180 212c-35 -33 -86 -58 -155 -58c-111 0 -224 79 -224 220c0 159 111 273 279 273c172 0 256 -111 256 -286
c0 -216 -96 -465 -336 -465c-126 0 -223 66 -231 213z" />
    <glyph glyph-name="colon" unicode=":" horiz-adv-x="273" 
d="M153 0h-148l31 150h148zM235 388h-148l31 150h148z" />
    <glyph glyph-name="semicolon" unicode=";" horiz-adv-x="273" 
d="M235 388h-148l31 150h148zM5 0l32 150h147l-34 -161l-106 -151h-79l109 162h-69z" />
    <glyph glyph-name="less" unicode="&#x3c;" 
d="M58 324l516 220v-134l-364 -143l364 -143v-135l-516 221v114z" />
    <glyph glyph-name="equal" unicode="=" 
d="M592 310h-508v120h508v-120zM592 99h-508v121h508v-121z" />
    <glyph glyph-name="greater" unicode="&#x3e;" 
d="M611 324v-114l-516 -221v135l365 143l-365 143v134z" />
    <glyph glyph-name="question" unicode="?" horiz-adv-x="523" 
d="M184 491h-130c5 160 117 247 283 247c111 0 227 -46 227 -172c0 -116 -92 -153 -167 -204c-56 -39 -84 -79 -93 -154h-135c16 129 76 188 148 231c56 32 105 61 105 117c0 53 -46 79 -98 79c-72 0 -135 -37 -140 -144zM265 0h-148l31 150h148z" />
    <glyph glyph-name="at" unicode="@" horiz-adv-x="826" 
d="M431 492c-75 0 -119 -75 -119 -158c0 -71 30 -105 83 -105c79 0 123 77 123 165c0 63 -31 98 -87 98zM628 153c-53 0 -95 32 -103 92c-31 -57 -80 -89 -152 -89c-78 0 -148 54 -148 179c0 116 77 232 205 232c56 0 96 -29 115 -76c3 19 4 40 8 59h71l-29 -218
c-3 -15 -4 -29 -4 -40c0 -45 15 -67 46 -67c52 0 95 66 95 177c0 166 -114 253 -278 253c-185 0 -311 -133 -311 -309c0 -170 111 -286 276 -286c68 0 126 12 190 43l28 -67c-67 -33 -146 -49 -218 -49c-211 0 -356 149 -356 362c0 214 170 376 393 376
c193 0 353 -100 353 -319c0 -163 -90 -253 -181 -253z" />
    <glyph glyph-name="A" unicode="A" horiz-adv-x="684" 
d="M-57 0l421 725h144l119 -725h-146l-21 147h-282l-81 -147h-154zM402 550l-159 -286h200z" />
    <glyph glyph-name="B" unicode="B" horiz-adv-x="669" 
d="M11 0l154 725h281c114 0 229 -45 229 -168c0 -69 -37 -147 -118 -179c39 -23 77 -68 77 -140c0 -172 -153 -238 -307 -238h-316zM221 313l-42 -197h153c87 0 154 27 154 115c0 51 -37 82 -113 82h-152zM283 609l-38 -180h148c67 0 130 27 130 103c0 45 -32 77 -93 77
h-147z" />
    <glyph glyph-name="C" unicode="C" horiz-adv-x="714" 
d="M549 233h139c-62 -166 -195 -246 -353 -246c-176 0 -294 106 -294 293c0 216 139 458 407 458c160 0 269 -85 282 -255h-141c-4 84 -54 140 -150 140c-173 0 -250 -199 -250 -335c0 -90 38 -186 161 -186c92 0 158 50 199 131z" />
    <glyph glyph-name="D" unicode="D" horiz-adv-x="692" 
d="M541 423c0 107 -54 186 -177 186h-81l-104 -493h106c180 0 256 164 256 307zM165 725h205c185 0 318 -96 318 -300c0 -212 -134 -425 -418 -425h-259z" />
    <glyph glyph-name="E" unicode="E" horiz-adv-x="635" 
d="M11 0l154 725h527l-25 -116h-384l-38 -180h362l-24 -116h-362l-42 -197h384l-25 -116h-527z" />
    <glyph glyph-name="F" unicode="F" horiz-adv-x="607" 
d="M11 0l154 725h527l-25 -116h-384l-38 -180h362l-24 -116h-362l-67 -313h-143z" />
    <glyph glyph-name="G" unicode="G" horiz-adv-x="760" 
d="M528 0l10 66c-51 -53 -129 -79 -217 -79c-162 0 -280 106 -280 293c0 228 150 458 415 458c159 0 262 -77 281 -249h-140c-8 83 -55 134 -151 134c-165 0 -257 -168 -257 -335c0 -90 38 -186 161 -186c83 0 196 34 215 169h-208l25 117h347l-83 -388h-118z" />
    <glyph glyph-name="H" unicode="H" horiz-adv-x="746" 
d="M632 725h143l-154 -725h-143l65 308h-324l-65 -308h-143l154 725h143l-64 -301h324z" />
    <glyph glyph-name="I" unicode="I" horiz-adv-x="279" 
d="M308 725l-154 -725h-143l154 725h143z" />
    <glyph glyph-name="J" unicode="J" horiz-adv-x="557" 
d="M585 725l-104 -488c-37 -175 -130 -250 -289 -250c-137 0 -214 79 -214 195c0 19 1 36 5 55h142c-3 -19 -5 -32 -5 -47c0 -64 33 -86 85 -86c64 0 112 34 133 133l104 488h143z" />
    <glyph glyph-name="K" unicode="K" horiz-adv-x="676" 
d="M308 725l-70 -327l340 327h178l-335 -313l201 -412h-157l-152 312l-116 -108l-43 -204h-143l154 725h143z" />
    <glyph glyph-name="L" unicode="L" horiz-adv-x="563" 
d="M308 725l-129 -609h352l-25 -116h-495l154 725h143z" />
    <glyph glyph-name="M" unicode="M" horiz-adv-x="901" 
d="M462 0h-142l-52 538l-114 -538h-143l154 725h213l50 -547l277 547h224l-154 -725h-143l114 538z" />
    <glyph glyph-name="N" unicode="N" horiz-adv-x="746" 
d="M621 0h-190l-159 560l-119 -560h-142l154 725h189l159 -563l120 563h142z" />
    <glyph glyph-name="O" unicode="O" horiz-adv-x="755" 
d="M188 291c0 -92 45 -189 169 -189c184 0 252 212 252 332c0 92 -45 189 -168 189c-184 0 -253 -212 -253 -332zM756 444c0 -212 -139 -457 -414 -457c-179 0 -301 106 -301 294c0 212 140 457 414 457c178 0 301 -106 301 -294z" />
    <glyph glyph-name="P" unicode="P" horiz-adv-x="640" 
d="M165 725h222c191 0 284 -61 284 -206c0 -190 -149 -264 -354 -264h-109l-54 -255h-143zM283 609l-50 -239h99c98 0 186 21 186 138c0 88 -79 101 -147 101h-88z" />
    <glyph glyph-name="Q" unicode="Q" horiz-adv-x="755" 
d="M756 444c0 -145 -65 -302 -191 -390l62 -114l-105 -59l-67 121c-35 -9 -72 -15 -113 -15c-179 0 -301 106 -301 294c0 212 140 457 414 457c178 0 301 -106 301 -294zM358 179l106 60l41 -76c74 71 104 191 104 271c0 92 -45 189 -168 189c-184 0 -253 -212 -253 -332
c0 -92 45 -189 169 -189c15 0 28 1 41 4z" />
    <glyph glyph-name="R" unicode="R" horiz-adv-x="677" 
d="M438 0l-84 284h-140l-60 -284h-143l154 725h218c185 0 299 -47 299 -188c0 -124 -75 -197 -182 -229l92 -308h-154zM283 609l-44 -210h107c80 0 184 17 184 121c0 73 -62 89 -148 89h-99z" />
    <glyph glyph-name="S" unicode="S" horiz-adv-x="655" 
d="M653 492h-140c-7 76 -63 132 -160 132c-53 0 -125 -20 -125 -83c0 -47 32 -73 87 -88l91 -25c109 -29 216 -84 216 -208c0 -149 -141 -234 -295 -234c-162 0 -301 92 -301 278h143c3 -93 51 -164 165 -164c66 0 142 25 142 97c0 60 -57 88 -126 109l-84 24
c-92 26 -182 87 -182 195c0 146 145 213 280 213c146 0 276 -71 289 -246z" />
    <glyph glyph-name="T" unicode="T" horiz-adv-x="589" 
d="M166 0l129 609h-223l25 116h589l-25 -116h-223l-129 -609h-143z" />
    <glyph glyph-name="U" unicode="U" horiz-adv-x="708" 
d="M194 220c0 -76 35 -119 135 -119c131 0 163 77 190 205l89 419h143l-89 -418c-50 -239 -139 -320 -350 -320c-175 0 -262 68 -262 215c0 31 4 66 12 105l89 418h143l-89 -419c-7 -33 -11 -62 -11 -86z" />
    <glyph glyph-name="V" unicode="V" horiz-adv-x="633" 
d="M233 725l58 -546l284 546h158l-404 -725h-146l-98 725h148z" />
    <glyph glyph-name="W" unicode="W" horiz-adv-x="900" 
d="M618 725l-3 -531l207 531h158l-315 -725h-169l4 540l-224 -540h-171l-5 725h148l-10 -528l213 528h167z" />
    <glyph glyph-name="X" unicode="X" horiz-adv-x="703" 
d="M-57 0l348 378l-178 347h156l122 -238l219 238h168l-327 -355l190 -370h-156l-135 262l-241 -262h-166z" />
    <glyph glyph-name="Y" unicode="Y" horiz-adv-x="641" 
d="M79 725h160l104 -314l237 314h170l-363 -456l-57 -269h-143l58 271z" />
    <glyph glyph-name="Z" unicode="Z" horiz-adv-x="640" 
d="M689 725l-24 -112l-480 -491h391l-26 -122h-578l24 112l480 492h-346l26 121h533z" />
    <glyph glyph-name="bracketleft" unicode="[" horiz-adv-x="319" 
d="M157 725h258l-21 -100h-134l-149 -699h135l-22 -101h-256z" />
    <glyph glyph-name="backslash" unicode="\" horiz-adv-x="488" 
d="M168 725l280 -725h-128l-280 725h128z" />
    <glyph glyph-name="bracketright" unicode="]" horiz-adv-x="319" 
d="M89 725h258l-191 -900h-256l22 101h133l148 699h-134z" />
    <glyph glyph-name="asciicircum" unicode="^" horiz-adv-x="552" 
d="M362 725l199 -387h-134l-122 249l-121 -249h-135l199 387h114z" />
    <glyph glyph-name="underscore" unicode="_" horiz-adv-x="489" 
d="M401 -121h-448l25 121h447z" />
    <glyph glyph-name="grave" unicode="`" horiz-adv-x="406" 
d="M223 598l-127 127h157l66 -127h-96z" />
    <glyph glyph-name="a" unicode="a" horiz-adv-x="580" 
d="M348 0l14 69c-51 -57 -109 -82 -181 -82c-91 0 -165 54 -165 145c1 60 28 106 92 139c61 33 156 53 295 65l4 17c3 13 4 25 4 36c0 52 -46 66 -95 66c-57 0 -110 -28 -118 -87h-129c24 106 122 184 260 184c124 0 218 -50 218 -163c0 -21 -3 -42 -9 -65l-34 -146
c-24 -103 -27 -144 -27 -161c0 -8 0 -14 1 -17h-130zM385 230l4 19c-173 -19 -229 -46 -229 -104c0 -41 28 -60 71 -60c89 0 135 58 154 145z" />
    <glyph glyph-name="b" unicode="b" horiz-adv-x="607" 
d="M160 68l-14 -68h-138l154 725h138l-52 -245c37 47 97 70 157 70c132 0 184 -102 184 -212c0 -155 -87 -351 -285 -351c-73 0 -123 36 -144 81zM196 217c0 -75 28 -124 95 -124c119 0 157 143 157 229c0 76 -26 122 -93 122c-119 0 -159 -147 -159 -227z" />
    <glyph glyph-name="c" unicode="c" horiz-adv-x="571" 
d="M559 342h-130c0 51 -32 100 -104 100c-97 0 -158 -90 -161 -202c-4 -99 37 -145 105 -145c60 0 114 33 137 97h131c-46 -153 -173 -205 -279 -205c-157 0 -240 105 -235 238c5 179 124 325 313 325c128 0 218 -80 223 -208z" />
    <glyph glyph-name="d" unicode="d" horiz-adv-x="616" 
d="M352 0l12 57c-36 -47 -94 -70 -154 -70c-132 0 -184 102 -184 212c0 152 87 351 285 351c73 0 120 -36 141 -81l54 256h138l-154 -725h-138zM419 320c0 75 -28 124 -95 124c-119 0 -157 -145 -157 -229c0 -76 26 -122 93 -122c119 0 159 145 159 227z" />
    <glyph glyph-name="e" unicode="e" horiz-adv-x="590" 
d="M406 172h133c-51 -128 -167 -185 -281 -185c-156 0 -236 104 -236 225c0 168 110 338 321 338c166 0 262 -130 209 -314h-394c-1 -5 -1 -9 -1 -14v-12c0 -68 37 -115 116 -115c56 0 108 21 133 77zM331 447c-50 0 -123 -17 -150 -118h253c8 84 -38 118 -103 118z" />
    <glyph glyph-name="f" unicode="f" horiz-adv-x="342" 
d="M136 538l6 30c29 136 97 157 233 157h47l-22 -102h-27c-68 0 -82 -8 -93 -59l-5 -26h107l-20 -95h-107l-94 -443h-138l94 443h-77l20 95h76z" />
    <glyph glyph-name="g" unicode="g" horiz-adv-x="614" 
d="M423 329c0 72 -28 119 -95 119c-117 0 -156 -136 -156 -220c0 -73 27 -117 92 -117c119 0 159 139 159 218zM456 472l14 66h138l-101 -476c-37 -181 -123 -250 -282 -250c-115 0 -207 41 -220 172h125c5 -40 36 -67 104 -67c71 0 107 32 127 125l6 25
c-37 -39 -97 -58 -152 -58c-132 0 -184 98 -184 204c0 148 87 337 284 337c73 0 120 -35 141 -78z" />
    <glyph glyph-name="h" unicode="h" horiz-adv-x="600" 
d="M300 725l-53 -250c33 40 87 75 162 75c97 0 156 -46 156 -149c0 -23 -3 -49 -9 -77l-69 -324h-138l67 313c4 20 7 39 7 56c0 41 -15 70 -70 70c-90 0 -129 -76 -148 -161l-59 -278h-138l154 725h138z" />
    <glyph glyph-name="i" unicode="i" horiz-adv-x="268" 
d="M122 538h138l-114 -538h-138zM162 725h138l-27 -128h-138z" />
    <glyph glyph-name="j" unicode="j" horiz-adv-x="268" 
d="M8 -4l114 542h138l-115 -544c-32 -152 -79 -169 -222 -169h-47l19 100h24c64 0 79 13 89 71zM162 725h138l-27 -128h-138z" />
    <glyph glyph-name="k" unicode="k" horiz-adv-x="555" 
d="M162 725h138l-82 -383l211 196h174l-251 -227l139 -311h-147l-94 218l-71 -64l-33 -154h-138z" />
    <glyph glyph-name="l" unicode="l" horiz-adv-x="268" 
d="M300 725l-154 -725h-138l154 725h138z" />
    <glyph glyph-name="m" unicode="m" horiz-adv-x="920" 
d="M414 550c87 0 122 -42 135 -82c53 56 105 82 185 82c96 0 151 -45 151 -145c0 -25 -3 -52 -10 -81l-69 -324h-137l67 313c4 21 8 41 8 60c0 39 -15 66 -68 66c-93 0 -121 -75 -139 -157l-60 -282h-138l67 313c4 21 8 41 8 60c0 39 -15 66 -67 66
c-92 0 -125 -75 -141 -157l-60 -282h-138l114 538h138l-13 -63c41 51 100 75 167 75z" />
    <glyph glyph-name="n" unicode="n" horiz-adv-x="601" 
d="M122 538h138l-13 -63c33 40 87 75 162 75c99 0 157 -46 157 -150c0 -23 -3 -48 -9 -76l-69 -324h-138l67 313c4 20 7 38 7 55c0 43 -16 71 -71 71c-90 0 -129 -76 -148 -161l-59 -278h-138z" />
    <glyph glyph-name="o" unicode="o" horiz-adv-x="584" 
d="M323 442c-98 0 -161 -103 -161 -223c0 -69 25 -124 100 -124c99 0 162 103 162 223c0 69 -25 124 -101 124zM338 550c137 0 225 -77 225 -226c0 -157 -101 -337 -315 -337c-137 0 -225 77 -225 226c0 157 101 337 315 337z" />
    <glyph glyph-name="p" unicode="p" horiz-adv-x="607" 
d="M257 538l-11 -58c37 47 97 70 157 70c132 0 184 -102 184 -212c0 -155 -87 -351 -285 -351c-73 0 -120 36 -141 81l-52 -243h-138l152 713h134zM194 231c0 -72 19 -138 95 -138c119 0 157 138 157 229c0 76 -26 122 -93 122c-101 0 -159 -114 -159 -213z" />
    <glyph glyph-name="q" unicode="q" horiz-adv-x="605" 
d="M446 469l16 69h135l-151 -713h-138l48 222c-37 -40 -96 -60 -152 -60c-132 0 -184 102 -184 212c0 155 87 351 285 351c73 0 120 -36 141 -81zM413 320c0 75 -28 124 -95 124c-119 0 -157 -143 -157 -229c0 -76 26 -122 93 -122c119 0 159 145 159 227z" />
    <glyph glyph-name="r" unicode="r" horiz-adv-x="400" 
d="M430 535l-28 -130c-18 2 -35 3 -50 3c-76 0 -127 -30 -148 -137l-58 -271h-138l115 538h136l-19 -83c44 54 99 81 164 81h13c4 0 8 0 13 -1z" />
    <glyph glyph-name="s" unicode="s" horiz-adv-x="535" 
d="M508 373h-128c-3 65 -62 79 -114 79c-48 0 -89 -16 -89 -51c0 -31 29 -48 70 -59l60 -16c108 -30 181 -69 181 -165c0 -118 -120 -174 -233 -174c-127 0 -249 66 -249 202h128c0 -68 48 -103 117 -103c39 0 102 14 102 62c0 39 -37 57 -84 70l-68 18
c-95 27 -152 69 -152 158c0 109 114 156 222 156c104 0 229 -52 237 -177z" />
    <glyph glyph-name="t" unicode="t" horiz-adv-x="372" 
d="M142 538l31 146h138l-31 -146h111l-20 -95h-111l-59 -278c-3 -11 -4 -20 -4 -29c0 -31 18 -37 57 -37h42l-21 -99h-101c-93 0 -124 22 -124 78c0 19 3 41 9 67l63 298h-77l20 95h77z" />
    <glyph glyph-name="u" unicode="u" horiz-adv-x="591" 
d="M331 0l13 63c-33 -40 -85 -76 -160 -76c-96 0 -155 46 -155 149c0 23 3 49 9 78l69 324h138l-66 -313c-4 -21 -7 -39 -7 -58c0 -40 16 -69 68 -69c91 0 128 78 146 162l59 278h138l-114 -538h-138z" />
    <glyph glyph-name="v" unicode="v" horiz-adv-x="518" 
d="M189 538l52 -371l189 371h145l-297 -538h-136l-85 538h132z" />
    <glyph glyph-name="w" unicode="w" horiz-adv-x="742" 
d="M200 166l162 372h140l8 -371l140 371h149l-234 -538h-150l-16 379l-169 -379h-150l-23 538h144z" />
    <glyph glyph-name="x" unicode="x" horiz-adv-x="562" 
d="M600 538l-246 -266l131 -272h-149l-80 166l-154 -166h-159l258 280l-123 258h148l73 -152l141 152h160z" />
    <glyph glyph-name="y" unicode="y" horiz-adv-x="524" 
d="M248 148l190 390h143l-283 -522c-85 -159 -125 -191 -278 -191h-57l23 108h53c43 0 66 10 94 57l9 15l-85 533h136z" />
    <glyph glyph-name="z" unicode="z" horiz-adv-x="498" 
d="M-35 0l23 109l351 320h-267l23 109h432l-23 -109l-351 -320h291l-23 -109h-456z" />
    <glyph glyph-name="braceleft" unicode="{" horiz-adv-x="318" 
d="M214 -175h-36c-113 0 -170 24 -170 109c0 17 3 39 8 64l25 119c4 19 7 36 7 51c0 33 -13 53 -60 53l22 109c66 0 86 41 99 104l24 118c29 139 77 173 236 173h35l-22 -110h-16c-79 0 -85 -20 -96 -71l-28 -131c-18 -92 -68 -123 -124 -136l-1 -3c41 -11 72 -33 72 -89
c0 -13 -2 -29 -6 -47l-28 -133c-3 -11 -4 -21 -4 -30c0 -28 17 -41 69 -41h17z" />
    <glyph glyph-name="bar" unicode="|" horiz-adv-x="245" 
d="M65 725h115v-814h-115v814z" />
    <glyph glyph-name="braceright" unicode="}" horiz-adv-x="318" 
d="M-90 -175l23 109h16c78 0 83 20 94 71l28 133c22 92 68 123 124 136l1 3c-40 11 -71 33 -71 89c0 13 2 29 6 47l28 131c3 11 4 21 4 29c0 31 -17 42 -70 42h-16l22 110h36c113 0 170 -23 170 -108c0 -19 -3 -40 -8 -65l-24 -118c-4 -19 -7 -36 -7 -51
c0 -33 13 -53 60 -53l-22 -109c-66 0 -86 -41 -99 -104l-25 -119c-29 -139 -77 -173 -234 -173h-36z" />
    <glyph glyph-name="asciitilde" unicode="~" 
d="M243 360c83 0 131 -68 187 -68c33 0 56 16 57 68h98c-5 -115 -49 -187 -150 -187c-72 0 -126 69 -187 69c-33 0 -56 -16 -57 -69h-98c4 115 47 187 150 187z" />
    <glyph glyph-name="uni00A0" unicode="&#xa0;" horiz-adv-x="210" 
 />
    <glyph glyph-name="exclamdown" unicode="&#xa1;" horiz-adv-x="273" 
d="M193 325l-45 -325l-37 -175h-138l38 175l91 325h91zM236 388h-148l31 150h148z" />
    <glyph glyph-name="cent" unicode="&#xa2;" horiz-adv-x="575" 
d="M559 342h-130c0 44 -24 86 -77 97l-74 -344c56 4 105 37 128 97h131c-46 -153 -173 -205 -279 -205h-3l-16 -76h-50l17 80c-123 18 -188 116 -183 234c5 176 118 319 302 324l15 71h51l-16 -73c107 -16 179 -91 184 -205zM164 240c-3 -77 21 -123 65 -139l72 339
c-83 -13 -134 -99 -137 -200z" />
    <glyph glyph-name="sterling" unicode="&#xa3;" horiz-adv-x="589" 
d="M485 532c0 75 -53 102 -114 102c-68 0 -131 -37 -131 -122c0 -39 13 -76 26 -115h167l-15 -75h-133c1 -8 2 -16 2 -23c0 -75 -55 -132 -123 -176l1 -2c28 11 52 14 71 14c50 0 74 -26 132 -26c41 0 64 7 113 31l39 -111c-43 -21 -107 -42 -163 -42c-69 0 -135 44 -207 44
c-39 0 -72 -8 -129 -37l-41 91c85 37 170 99 170 210c0 4 0 8 -1 13l-2 14h-127l15 75h90c-12 35 -23 73 -23 114c0 145 123 227 275 227c144 0 244 -77 244 -197c0 -17 -2 -35 -6 -54h-135c4 16 5 30 5 45z" />
    <glyph glyph-name="currency" unicode="&#xa4;" horiz-adv-x="628" 
d="M309 110c-55 0 -103 17 -143 48l-69 -69l-49 49l69 70c-28 39 -44 86 -44 138s16 100 44 139l-69 70l49 49l68 -68c40 31 89 49 144 49c56 0 107 -19 147 -51l71 70l49 -49l-72 -72c27 -39 44 -86 44 -137s-16 -98 -44 -137l72 -71l-49 -49l-71 70
c-41 -31 -91 -49 -147 -49zM308 483c-73 0 -124 -60 -124 -137c0 -74 51 -133 124 -133c78 0 132 59 132 133c0 77 -54 137 -132 137z" />
    <glyph glyph-name="yen" unicode="&#xa5;" horiz-adv-x="675" 
d="M564 198l-24 -110h-187l-19 -88h-138l18 88h-182l24 110h181l12 58h-180l22 110h132l-137 359h154l106 -314l243 314h168l-293 -359h135l-23 -110h-187l-13 -58h188z" />
    <glyph glyph-name="brokenbar" unicode="&#xa6;" horiz-adv-x="239" 
d="M62 725h115v-305h-115v305zM62 216h115v-305h-115v305z" />
    <glyph glyph-name="section" unicode="&#xa7;" horiz-adv-x="610" 
d="M428 29c0 -147 -120 -218 -264 -218c-129 0 -197 67 -197 166c0 17 2 36 6 55h125c-2 -11 -3 -22 -3 -31c0 -52 27 -90 90 -90c49 0 93 25 104 76c1 5 2 9 2 14c0 27 -18 48 -55 76l-96 77c-51 40 -79 87 -79 142c0 85 63 146 163 182c-10 20 -15 42 -15 65
c0 130 115 197 239 197c112 0 203 -51 203 -159c0 -12 -1 -25 -3 -39h-125c2 9 3 17 3 25c0 51 -35 76 -91 76c-61 0 -93 -27 -93 -67c0 -25 18 -43 45 -64l104 -82c56 -43 89 -88 89 -143c0 -103 -85 -150 -174 -182c15 -24 22 -49 22 -76zM383 333l-98 76
c-44 -13 -89 -37 -89 -83c0 -31 21 -47 45 -68l100 -81l8 -7c35 14 91 44 91 85c0 27 -20 50 -57 78z" />
    <glyph glyph-name="dieresis" unicode="&#xa8;" horiz-adv-x="377" 
d="M21 725h115l-25 -119h-114zM261 725h115l-25 -119h-115z" />
    <glyph glyph-name="copyright" unicode="&#xa9;" horiz-adv-x="825" 
d="M411 -13c-208 0 -375 152 -375 374c0 223 167 377 375 377c207 0 374 -154 374 -377c0 -222 -167 -374 -374 -374zM411 662c-164 0 -292 -121 -292 -301c0 -176 128 -299 292 -299c167 0 291 123 291 299c0 180 -124 301 -291 301zM319 362c0 -76 37 -118 93 -118
c47 0 84 20 95 76l104 -23c-23 -83 -98 -141 -202 -141c-126 0 -201 87 -201 206c0 123 81 204 204 204c99 0 179 -60 195 -145l-103 -25c-7 47 -41 84 -92 84c-52 0 -93 -39 -93 -118z" />
    <glyph glyph-name="ordfeminine" unicode="&#xaa;" horiz-adv-x="344" 
d="M263 438l6 36c-27 -31 -56 -43 -100 -43c-52 0 -93 31 -93 80c0 85 97 106 222 119l1 3c1 7 2 12 2 17c0 25 -18 36 -47 36s-56 -15 -60 -44h-90c11 57 59 107 156 107c81 0 133 -31 133 -96c0 -9 -1 -19 -3 -29c0 1 -3 -16 -7 -33l-4 -22c-1 -5 -2 -8 -2 -9l-6 -27
c-6 -31 -13 -73 -13 -95h-95zM217 495c31 0 57 13 69 70l2 10c-93 -11 -110 -25 -110 -51c0 -16 12 -29 39 -29z" />
    <glyph glyph-name="guillemotleft" unicode="&#xab;" horiz-adv-x="537" 
d="M124 43l-116 230l202 229h129l-173 -229l75 -230h-117zM344 43l-116 230l202 229h129l-173 -229l75 -230h-117z" />
    <glyph glyph-name="logicalnot" unicode="&#xac;" 
d="M490 308h-431v120h556v-335h-125v215z" />
    <glyph glyph-name="uni00AD" unicode="&#xad;" horiz-adv-x="436" 
d="M369 207h-331l25 120h331z" />
    <glyph glyph-name="registered" unicode="&#xae;" horiz-adv-x="825" 
d="M411 -13c-208 0 -375 152 -375 374c0 223 167 377 375 377c207 0 374 -154 374 -377c0 -222 -167 -374 -374 -374zM411 662c-164 0 -292 -121 -292 -301c0 -176 128 -299 292 -299c167 0 291 123 291 299c0 180 -124 301 -291 301zM347 318v-143h-108v400h160
c107 0 186 -27 186 -131c0 -60 -30 -93 -73 -110l97 -159h-120l-84 143h-58zM347 401h79c36 0 51 19 51 43c0 23 -15 47 -51 47h-79v-90z" />
    <glyph glyph-name="macron" unicode="&#xaf;" horiz-adv-x="375" 
d="M78 611l20 95h314l-21 -95h-313z" />
    <glyph glyph-name="degree" unicode="&#xb0;" horiz-adv-x="336" 
d="M218 416c-88 0 -160 73 -160 161c0 89 72 161 160 161c91 0 162 -72 162 -161c0 -88 -71 -161 -162 -161zM218 656c-43 0 -73 -35 -73 -79c0 -43 30 -79 73 -79c44 0 76 36 76 79c0 44 -32 79 -76 79z" />
    <glyph glyph-name="plusminus" unicode="&#xb1;" 
d="M261 402v125h127v-125h214v-120h-214v-127h-127v127h-215v120h215zM602 0h-556v121h556v-121z" />
    <glyph glyph-name="twosuperior" unicode="&#xb2;" horiz-adv-x="363" 
d="M212 704h-94c8 77 59 149 175 149c84 0 145 -37 145 -105c0 -92 -110 -176 -226 -232h179l-16 -78h-317l16 76c120 64 263 144 263 220c0 36 -27 49 -54 49c-45 0 -67 -32 -71 -79z" />
    <glyph glyph-name="threesuperior" unicode="&#xb3;" horiz-adv-x="356" 
d="M73 570h97c0 -51 37 -68 68 -68c39 0 70 17 70 56c0 32 -30 50 -77 50h-28l17 80h28c43 0 83 10 83 47c0 33 -23 48 -54 48c-27 0 -68 -7 -76 -54h-92c20 72 72 124 179 124c76 0 145 -35 145 -102c0 -47 -19 -81 -70 -100c33 -20 45 -48 45 -77
c0 -97 -82 -143 -171 -143s-155 48 -164 139z" />
    <glyph glyph-name="acute" unicode="&#xb4;" horiz-adv-x="410" 
d="M334 725l-172 -127h-109l124 127h157z" />
    <glyph glyph-name="paragraph" unicode="&#xb6;" horiz-adv-x="491" 
d="M40 513c0 11 2 24 5 41c24 108 127 171 265 171h213l-173 -814h-82l157 738h-112l-157 -738h-82l102 473c-65 8 -136 40 -136 129z" />
    <glyph glyph-name="periodcentered" unicode="&#xb7;" horiz-adv-x="273" 
d="M195 194h-148l31 150h148z" />
    <glyph glyph-name="cedilla" unicode="&#xb8;" horiz-adv-x="306" 
d="M56 -80l69 83h52l-43 -51c8 2 17 3 27 3c36 0 78 -15 78 -59c0 -61 -71 -91 -132 -91c-33 0 -60 4 -89 15l19 48c15 -7 39 -14 64 -14c29 0 56 9 56 36c0 15 -14 22 -35 22c-11 0 -28 -2 -41 -9z" />
    <glyph glyph-name="onesuperior" unicode="&#xb9;" horiz-adv-x="241" 
d="M233 438h-96l57 268h-93l14 71c71 3 105 25 132 69h73z" />
    <glyph glyph-name="ordmasculine" unicode="&#xba;" horiz-adv-x="352" 
d="M182 578c0 -51 21 -73 57 -73c49 0 68 46 68 93c0 55 -22 77 -58 77c-48 0 -67 -50 -67 -97zM405 605c0 -97 -60 -174 -168 -174c-85 0 -153 44 -153 141c0 100 62 177 169 177c86 0 152 -51 152 -144z" />
    <glyph glyph-name="guillemotright" unicode="&#xbb;" horiz-adv-x="537" 
d="M303 273l-203 -230h-127l172 230l-64 229h112zM523 273l-203 -230h-127l172 230l-64 229h112z" />
    <glyph glyph-name="onequarter" unicode="&#xbc;" horiz-adv-x="857" 
d="M207 317h-96l57 268h-93l14 71c71 3 105 25 132 69h73zM203 0h-141l500 725h141zM700 284l-118 -115h94zM825 169l-18 -84h-53l-19 -85h-95l18 85h-198l16 75l259 248h88l-51 -239h53z" />
    <glyph glyph-name="onehalf" unicode="&#xbd;" horiz-adv-x="847" 
d="M207 317h-96l57 268h-93l14 71c71 3 105 25 132 69h73zM203 0h-141l500 725h141zM602 266h-94c8 77 59 149 175 149c84 0 145 -37 145 -105c0 -92 -110 -176 -226 -232h179l-16 -78h-317l16 76c120 64 263 144 263 220c0 36 -27 49 -54 49c-45 0 -67 -32 -71 -79z" />
    <glyph glyph-name="threequarters" unicode="&#xbe;" horiz-adv-x="971" 
d="M47 449h97c0 -51 37 -68 68 -68c39 0 70 17 70 56c0 32 -30 50 -77 50h-28l17 80h28c43 0 83 10 83 47c0 33 -23 48 -54 48c-27 0 -68 -7 -76 -54h-92c20 72 72 124 179 124c76 0 145 -35 145 -102c0 -47 -19 -81 -70 -100c33 -20 45 -48 45 -77
c0 -97 -82 -143 -171 -143s-155 48 -164 139zM317 0h-141l500 725h141zM814 284l-118 -115h94zM939 169l-18 -84h-53l-19 -85h-95l18 85h-198l16 75l259 248h88l-51 -239h53z" />
    <glyph glyph-name="questiondown" unicode="&#xbf;" horiz-adv-x="523" 
d="M345 58h130c-5 -160 -117 -247 -283 -247c-111 0 -227 46 -227 172c0 116 92 153 167 204c56 40 82 67 93 143h135c-16 -128 -76 -177 -148 -220c-56 -35 -105 -61 -105 -118c0 -52 46 -78 98 -78c72 0 135 37 140 144zM375 387h-148l31 150h148z" />
    <glyph glyph-name="Agrave" unicode="&#xc0;" horiz-adv-x="684" 
d="M-57 0l421 725h144l119 -725h-146l-21 147h-282l-81 -147h-154zM402 550l-159 -286h200zM391 773l-138 113h169l78 -113h-109z" />
    <glyph glyph-name="Aacute" unicode="&#xc1;" horiz-adv-x="684" 
d="M-57 0l421 725h144l119 -725h-146l-21 147h-282l-81 -147h-154zM402 550l-159 -286h200zM686 886l-181 -113h-116l128 113h169z" />
    <glyph glyph-name="Acircumflex" unicode="&#xc2;" horiz-adv-x="684" 
d="M-57 0l421 725h144l119 -725h-146l-21 147h-282l-81 -147h-154zM402 550l-159 -286h200zM531 886l112 -113h-128l-58 49l-77 -49h-133l165 113h119z" />
    <glyph glyph-name="Atilde" unicode="&#xc3;" horiz-adv-x="684" 
d="M-57 0l421 725h144l119 -725h-146l-21 147h-282l-81 -147h-154zM402 550l-159 -286h200zM503 853c29 0 43 15 50 40h93c-19 -109 -94 -127 -136 -127c-63 0 -85 41 -124 41c-29 0 -43 -14 -48 -41h-94c19 109 96 127 137 127c62 0 79 -40 122 -40z" />
    <glyph glyph-name="Adieresis" unicode="&#xc4;" horiz-adv-x="684" 
d="M-57 0l421 725h144l119 -725h-146l-21 147h-282l-81 -147h-154zM402 550l-159 -286h200zM292 886h115l-25 -113h-115zM532 886h115l-25 -113h-115z" />
    <glyph glyph-name="Aring" unicode="&#xc5;" horiz-adv-x="684" 
d="M-57 0l421 725h144l119 -725h-146l-21 147h-282l-81 -147h-154zM402 550l-159 -286h200zM446 935c51 0 91 -34 91 -85c0 -49 -40 -85 -91 -85s-90 36 -90 85c0 51 41 85 90 85zM446 893c-23 0 -43 -18 -43 -43s20 -42 43 -42s43 17 43 42s-20 43 -43 43z" />
    <glyph glyph-name="AE" unicode="&#xc6;" horiz-adv-x="1028" 
d="M557 725h528l-25 -116h-385l-38 -180h363l-24 -116h-363l-42 -197h385l-25 -116h-527l29 147h-227l-123 -147h-160zM505 505l-202 -241h154z" />
    <glyph glyph-name="Ccedilla" unicode="&#xc7;" horiz-adv-x="714" 
d="M549 233h139c-62 -166 -195 -246 -353 -246c-176 0 -294 106 -294 293c0 216 139 458 407 458c160 0 269 -85 282 -255h-141c-4 84 -54 140 -150 140c-173 0 -250 -199 -250 -335c0 -90 38 -186 161 -186c92 0 158 50 199 131zM202 -80l69 83h52l-43 -51c8 2 17 3 27 3
c36 0 78 -15 78 -59c0 -61 -71 -91 -132 -91c-33 0 -60 4 -89 15l19 48c15 -7 39 -14 64 -14c29 0 56 9 56 36c0 15 -14 22 -35 22c-11 0 -28 -2 -41 -9z" />
    <glyph glyph-name="Egrave" unicode="&#xc8;" horiz-adv-x="635" 
d="M11 0l154 725h527l-25 -116h-384l-38 -180h362l-24 -116h-362l-42 -197h384l-25 -116h-527zM423 773l-138 113h169l78 -113h-109z" />
    <glyph glyph-name="Eacute" unicode="&#xc9;" horiz-adv-x="635" 
d="M11 0l154 725h527l-25 -116h-384l-38 -180h362l-24 -116h-362l-42 -197h384l-25 -116h-527zM628 886l-181 -113h-116l128 113h169z" />
    <glyph glyph-name="Ecircumflex" unicode="&#xca;" horiz-adv-x="635" 
d="M11 0l154 725h527l-25 -116h-384l-38 -180h362l-24 -116h-362l-42 -197h384l-25 -116h-527zM518 886l112 -113h-128l-58 49l-77 -49h-133l165 113h119z" />
    <glyph glyph-name="Edieresis" unicode="&#xcb;" horiz-adv-x="635" 
d="M11 0l154 725h527l-25 -116h-384l-38 -180h362l-24 -116h-362l-42 -197h384l-25 -116h-527zM287 886h115l-25 -113h-115zM527 886h115l-25 -113h-115z" />
    <glyph glyph-name="Igrave" unicode="&#xcc;" horiz-adv-x="279" 
d="M308 725l-154 -725h-143l154 725h143zM190 773l-138 113h169l78 -113h-109z" />
    <glyph glyph-name="Iacute" unicode="&#xcd;" horiz-adv-x="279" 
d="M308 725l-154 -725h-143l154 725h143zM482 886l-181 -113h-116l128 113h169z" />
    <glyph glyph-name="Icircumflex" unicode="&#xce;" horiz-adv-x="279" 
d="M308 725l-154 -725h-143l154 725h143zM331 886l112 -113h-128l-58 49l-77 -49h-133l165 113h119z" />
    <glyph glyph-name="Idieresis" unicode="&#xcf;" horiz-adv-x="279" 
d="M308 725l-154 -725h-143l154 725h143zM92 886h115l-25 -113h-115zM332 886h115l-25 -113h-115z" />
    <glyph glyph-name="Eth" unicode="&#xd0;" horiz-adv-x="721" 
d="M194 725h205c185 0 318 -96 318 -300c0 -212 -134 -425 -418 -425h-259l65 308h-97l25 116h97zM393 609h-81l-39 -185h116l-25 -116h-116l-40 -192h106c180 0 256 164 256 307c0 107 -54 186 -177 186z" />
    <glyph glyph-name="Ntilde" unicode="&#xd1;" horiz-adv-x="746" 
d="M621 0h-190l-159 560l-119 -560h-142l154 725h189l159 -563l120 563h142zM541 853c29 0 43 15 50 40h93c-19 -109 -94 -127 -136 -127c-63 0 -85 41 -124 41c-29 0 -43 -14 -48 -41h-94c19 109 96 127 137 127c62 0 79 -40 122 -40z" />
    <glyph glyph-name="Ograve" unicode="&#xd2;" horiz-adv-x="755" 
d="M188 291c0 -92 45 -189 169 -189c184 0 252 212 252 332c0 92 -45 189 -168 189c-184 0 -253 -212 -253 -332zM756 444c0 -212 -139 -457 -414 -457c-179 0 -301 106 -301 294c0 212 140 457 414 457c178 0 301 -106 301 -294zM404 773l-138 113h169l78 -113h-109z" />
    <glyph glyph-name="Oacute" unicode="&#xd3;" horiz-adv-x="755" 
d="M188 291c0 -92 45 -189 169 -189c184 0 252 212 252 332c0 92 -45 189 -168 189c-184 0 -253 -212 -253 -332zM756 444c0 -212 -139 -457 -414 -457c-179 0 -301 106 -301 294c0 212 140 457 414 457c178 0 301 -106 301 -294zM693 886l-181 -113h-116l128 113h169z" />
    <glyph glyph-name="Ocircumflex" unicode="&#xd4;" horiz-adv-x="755" 
d="M188 291c0 -92 45 -189 169 -189c184 0 252 212 252 332c0 92 -45 189 -168 189c-184 0 -253 -212 -253 -332zM756 444c0 -212 -139 -457 -414 -457c-179 0 -301 106 -301 294c0 212 140 457 414 457c178 0 301 -106 301 -294zM565 886l112 -113h-128l-58 49l-77 -49
h-133l165 113h119z" />
    <glyph glyph-name="Otilde" unicode="&#xd5;" horiz-adv-x="755" 
d="M188 291c0 -92 45 -189 169 -189c184 0 252 212 252 332c0 92 -45 189 -168 189c-184 0 -253 -212 -253 -332zM756 444c0 -212 -139 -457 -414 -457c-179 0 -301 106 -301 294c0 212 140 457 414 457c178 0 301 -106 301 -294zM545 853c29 0 43 15 50 40h93
c-19 -109 -94 -127 -136 -127c-63 0 -85 41 -124 41c-29 0 -43 -14 -48 -41h-94c19 109 96 127 137 127c62 0 79 -40 122 -40z" />
    <glyph glyph-name="Odieresis" unicode="&#xd6;" horiz-adv-x="755" 
d="M188 291c0 -92 45 -189 169 -189c184 0 252 212 252 332c0 92 -45 189 -168 189c-184 0 -253 -212 -253 -332zM756 444c0 -212 -139 -457 -414 -457c-179 0 -301 106 -301 294c0 212 140 457 414 457c178 0 301 -106 301 -294zM320 886h115l-25 -113h-115zM560 886h115
l-25 -113h-115z" />
    <glyph glyph-name="multiply" unicode="&#xd7;" 
d="M574 111l-80 -81l-161 160l-159 -159l-73 72l159 161l-157 157l81 80l157 -157l160 160l72 -74l-159 -159z" />
    <glyph glyph-name="Oslash" unicode="&#xd8;" horiz-adv-x="756" 
d="M756 444c0 -212 -139 -457 -414 -457c-93 0 -166 26 -220 79l-91 -86l-44 47l95 89c-27 45 -41 100 -41 165c0 212 140 457 414 457c87 0 158 -24 212 -72l73 69l46 -46l-77 -72c31 -47 47 -104 47 -173zM609 434c0 26 -4 52 -12 77l-372 -349c27 -36 68 -60 132 -60
c184 0 252 212 252 332zM188 291c0 -23 1 -46 8 -67l369 346c-27 32 -67 53 -124 53c-184 0 -253 -212 -253 -332z" />
    <glyph glyph-name="Ugrave" unicode="&#xd9;" horiz-adv-x="708" 
d="M194 220c0 -76 35 -119 135 -119c131 0 163 77 190 205l89 419h143l-89 -418c-50 -239 -139 -320 -350 -320c-175 0 -262 68 -262 215c0 31 4 66 12 105l89 418h143l-89 -419c-7 -33 -11 -62 -11 -86zM409 773l-138 113h169l78 -113h-109z" />
    <glyph glyph-name="Uacute" unicode="&#xda;" horiz-adv-x="708" 
d="M194 220c0 -76 35 -119 135 -119c131 0 163 77 190 205l89 419h143l-89 -418c-50 -239 -139 -320 -350 -320c-175 0 -262 68 -262 215c0 31 4 66 12 105l89 418h143l-89 -419c-7 -33 -11 -62 -11 -86zM685 886l-181 -113h-116l128 113h169z" />
    <glyph glyph-name="Ucircumflex" unicode="&#xdb;" horiz-adv-x="708" 
d="M194 220c0 -76 35 -119 135 -119c131 0 163 77 190 205l89 419h143l-89 -418c-50 -239 -139 -320 -350 -320c-175 0 -262 68 -262 215c0 31 4 66 12 105l89 418h143l-89 -419c-7 -33 -11 -62 -11 -86zM545 886l112 -113h-128l-58 49l-77 -49h-133l165 113h119z" />
    <glyph glyph-name="Udieresis" unicode="&#xdc;" horiz-adv-x="708" 
d="M194 220c0 -76 35 -119 135 -119c131 0 163 77 190 205l89 419h143l-89 -418c-50 -239 -139 -320 -350 -320c-175 0 -262 68 -262 215c0 31 4 66 12 105l89 418h143l-89 -419c-7 -33 -11 -62 -11 -86zM307 886h115l-25 -113h-115zM547 886h115l-25 -113h-115z" />
    <glyph glyph-name="Yacute" unicode="&#xdd;" horiz-adv-x="641" 
d="M79 725h160l104 -314l237 314h170l-363 -456l-57 -269h-143l58 271zM644 886l-181 -113h-116l128 113h169z" />
    <glyph glyph-name="Thorn" unicode="&#xde;" horiz-adv-x="642" 
d="M283 598h79c144 0 284 -26 284 -205c0 -192 -156 -265 -361 -265h-102l-27 -128h-145l154 725h145zM347 482h-89l-50 -239h99c97 0 187 17 187 140c0 85 -77 99 -147 99z" />
    <glyph glyph-name="germandbls" unicode="&#xdf;" horiz-adv-x="646" 
d="M143 0h-137l103 492c37 181 135 246 305 246c123 0 226 -62 226 -174c0 -86 -65 -137 -112 -158c49 -28 88 -80 88 -161c0 -187 -135 -258 -305 -258c-35 0 -77 2 -112 9l24 114c26 -7 54 -11 85 -11c82 0 163 34 163 137c0 75 -60 107 -151 107h-19l22 110h14
c67 0 163 11 163 97c0 51 -43 84 -108 84c-71 0 -122 -34 -146 -147z" />
    <glyph glyph-name="agrave" unicode="&#xe0;" horiz-adv-x="580" 
d="M348 0l14 69c-51 -57 -109 -82 -181 -82c-91 0 -165 54 -165 145c1 60 28 106 92 139c61 33 156 53 295 65l4 17c3 13 4 25 4 36c0 52 -46 66 -95 66c-57 0 -110 -28 -118 -87h-129c24 106 122 184 260 184c124 0 218 -50 218 -163c0 -21 -3 -42 -9 -65l-34 -146
c-24 -103 -27 -144 -27 -161c0 -8 0 -14 1 -17h-130zM385 230l4 19c-173 -19 -229 -46 -229 -104c0 -41 28 -60 71 -60c89 0 135 58 154 145zM299 598l-127 127h157l66 -127h-96z" />
    <glyph glyph-name="aacute" unicode="&#xe1;" horiz-adv-x="580" 
d="M348 0l14 69c-51 -57 -109 -82 -181 -82c-91 0 -165 54 -165 145c1 60 28 106 92 139c61 33 156 53 295 65l4 17c3 13 4 25 4 36c0 52 -46 66 -95 66c-57 0 -110 -28 -118 -87h-129c24 106 122 184 260 184c124 0 218 -50 218 -163c0 -21 -3 -42 -9 -65l-34 -146
c-24 -103 -27 -144 -27 -161c0 -8 0 -14 1 -17h-130zM385 230l4 19c-173 -19 -229 -46 -229 -104c0 -41 28 -60 71 -60c89 0 135 58 154 145zM560 725l-172 -127h-109l124 127h157z" />
    <glyph glyph-name="acircumflex" unicode="&#xe2;" horiz-adv-x="580" 
d="M348 0l14 69c-51 -57 -109 -82 -181 -82c-91 0 -165 54 -165 145c1 60 28 106 92 139c61 33 156 53 295 65l4 17c3 13 4 25 4 36c0 52 -46 66 -95 66c-57 0 -110 -28 -118 -87h-129c24 106 122 184 260 184c124 0 218 -50 218 -163c0 -21 -3 -42 -9 -65l-34 -146
c-24 -103 -27 -144 -27 -161c0 -8 0 -14 1 -17h-130zM385 230l4 19c-173 -19 -229 -46 -229 -104c0 -41 28 -60 71 -60c89 0 135 58 154 145zM413 725l123 -127h-117l-67 53l-89 -53h-123l175 127h98z" />
    <glyph glyph-name="atilde" unicode="&#xe3;" horiz-adv-x="580" 
d="M348 0l14 69c-51 -57 -109 -82 -181 -82c-91 0 -165 54 -165 145c1 60 28 106 92 139c61 33 156 53 295 65l4 17c3 13 4 25 4 36c0 52 -46 66 -95 66c-57 0 -110 -28 -118 -87h-129c24 106 122 184 260 184c124 0 218 -50 218 -163c0 -21 -3 -42 -9 -65l-34 -146
c-24 -103 -27 -144 -27 -161c0 -8 0 -14 1 -17h-130zM385 230l4 19c-173 -19 -229 -46 -229 -104c0 -41 28 -60 71 -60c89 0 135 58 154 145zM274 725c74 0 95 -44 144 -44c35 0 52 21 55 44h95c-15 -89 -69 -127 -141 -127c-74 0 -103 44 -146 44c-35 0 -50 -20 -55 -44
h-95c11 86 76 127 143 127z" />
    <glyph glyph-name="adieresis" unicode="&#xe4;" horiz-adv-x="580" 
d="M348 0l14 69c-51 -57 -109 -82 -181 -82c-91 0 -165 54 -165 145c1 60 28 106 92 139c61 33 156 53 295 65l4 17c3 13 4 25 4 36c0 52 -46 66 -95 66c-57 0 -110 -28 -118 -87h-129c24 106 122 184 260 184c124 0 218 -50 218 -163c0 -21 -3 -42 -9 -65l-34 -146
c-24 -103 -27 -144 -27 -161c0 -8 0 -14 1 -17h-130zM385 230l4 19c-173 -19 -229 -46 -229 -104c0 -41 28 -60 71 -60c89 0 135 58 154 145zM199 725h115l-25 -119h-114zM439 725h115l-25 -119h-115z" />
    <glyph glyph-name="aring" unicode="&#xe5;" horiz-adv-x="580" 
d="M348 0l14 69c-51 -57 -109 -82 -181 -82c-91 0 -165 54 -165 145c1 60 28 106 92 139c61 33 156 53 295 65l4 17c3 13 4 25 4 36c0 52 -46 66 -95 66c-57 0 -110 -28 -118 -87h-129c24 106 122 184 260 184c124 0 218 -50 218 -163c0 -21 -3 -42 -9 -65l-34 -146
c-24 -103 -27 -144 -27 -161c0 -8 0 -14 1 -17h-130zM385 230l4 19c-173 -19 -229 -46 -229 -104c0 -41 28 -60 71 -60c89 0 135 58 154 145zM268 685c0 52 43 90 95 90c51 0 94 -39 94 -90s-42 -89 -94 -89c-53 0 -95 37 -95 89zM404 685c0 24 -18 41 -41 41
s-41 -17 -41 -41c0 -23 18 -39 41 -39s41 16 41 39z" />
    <glyph glyph-name="ae" unicode="&#xe6;" horiz-adv-x="941" 
d="M754 172h133c-48 -128 -156 -185 -271 -185c-100 0 -163 44 -196 108c-64 -85 -156 -108 -233 -108c-100 0 -171 52 -171 143c0 144 149 171 385 206l4 17c3 13 4 25 4 36c0 52 -46 66 -95 66c-57 0 -110 -28 -118 -87h-127c24 106 121 184 258 184c75 0 136 -16 171 -61
c47 37 107 59 186 59c140 0 232 -89 232 -228c0 -26 -4 -55 -11 -86h-394c-1 -4 -1 -8 -1 -12v-11c0 -68 37 -118 117 -118c56 0 104 21 127 77zM383 230l4 21c-161 -29 -229 -30 -229 -106c0 -41 28 -60 71 -60c89 0 135 58 154 145zM676 447c-51 0 -123 -17 -147 -118h254
v13c0 77 -52 105 -107 105z" />
    <glyph glyph-name="ccedilla" unicode="&#xe7;" horiz-adv-x="571" 
d="M559 342h-130c0 51 -32 100 -104 100c-97 0 -158 -90 -161 -202c-4 -99 37 -145 105 -145c60 0 114 33 137 97h131c-46 -153 -173 -205 -279 -205c-157 0 -240 105 -235 238c5 179 124 325 313 325c128 0 218 -80 223 -208zM140 -80l69 83h52l-43 -51c8 2 17 3 27 3
c36 0 78 -15 78 -59c0 -61 -71 -91 -132 -91c-33 0 -60 4 -89 15l19 48c15 -7 39 -14 64 -14c29 0 56 9 56 36c0 15 -14 22 -35 22c-11 0 -28 -2 -41 -9z" />
    <glyph glyph-name="egrave" unicode="&#xe8;" horiz-adv-x="590" 
d="M406 172h133c-51 -128 -167 -185 -281 -185c-156 0 -236 104 -236 225c0 168 110 338 321 338c166 0 262 -130 209 -314h-394c-1 -5 -1 -9 -1 -14v-12c0 -68 37 -115 116 -115c56 0 108 21 133 77zM331 447c-50 0 -123 -17 -150 -118h253c8 84 -38 118 -103 118zM275 598
l-127 127h157l66 -127h-96z" />
    <glyph glyph-name="eacute" unicode="&#xe9;" horiz-adv-x="590" 
d="M406 172h133c-51 -128 -167 -185 -281 -185c-156 0 -236 104 -236 225c0 168 110 338 321 338c166 0 262 -130 209 -314h-394c-1 -5 -1 -9 -1 -14v-12c0 -68 37 -115 116 -115c56 0 108 21 133 77zM331 447c-50 0 -123 -17 -150 -118h253c8 84 -38 118 -103 118zM554 725
l-172 -127h-109l124 127h157z" />
    <glyph glyph-name="ecircumflex" unicode="&#xea;" horiz-adv-x="590" 
d="M406 172h133c-51 -128 -167 -185 -281 -185c-156 0 -236 104 -236 225c0 168 110 338 321 338c166 0 262 -130 209 -314h-394c-1 -5 -1 -9 -1 -14v-12c0 -68 37 -115 116 -115c56 0 108 21 133 77zM331 447c-50 0 -123 -17 -150 -118h253c8 84 -38 118 -103 118zM437 725
l123 -127h-117l-67 53l-89 -53h-123l175 127h98z" />
    <glyph glyph-name="edieresis" unicode="&#xeb;" horiz-adv-x="590" 
d="M406 172h133c-51 -128 -167 -185 -281 -185c-156 0 -236 104 -236 225c0 168 110 338 321 338c166 0 262 -130 209 -314h-394c-1 -5 -1 -9 -1 -14v-12c0 -68 37 -115 116 -115c56 0 108 21 133 77zM331 447c-50 0 -123 -17 -150 -118h253c8 84 -38 118 -103 118zM208 725
h115l-25 -119h-114zM448 725h115l-25 -119h-115z" />
    <glyph glyph-name="igrave" unicode="&#xec;" horiz-adv-x="268" 
d="M122 538h138l-114 -538h-138zM158 598l-127 127h157l66 -127h-96z" />
    <glyph glyph-name="iacute" unicode="&#xed;" horiz-adv-x="268" 
d="M122 538h138l-114 -538h-138zM419 725l-172 -127h-109l124 127h157z" />
    <glyph glyph-name="icircumflex" unicode="&#xee;" horiz-adv-x="268" 
d="M122 538h138l-114 -538h-138zM277 725l123 -127h-117l-67 53l-89 -53h-123l175 127h98z" />
    <glyph glyph-name="idieresis" unicode="&#xef;" horiz-adv-x="268" 
d="M122 538h138l-114 -538h-138zM53 725h115l-25 -119h-114zM293 725h115l-25 -119h-115z" />
    <glyph glyph-name="eth" unicode="&#xf0;" horiz-adv-x="587" 
d="M420 705l68 37l51 -28l-78 -42c69 -65 115 -156 115 -292c0 -187 -111 -393 -316 -393c-175 0 -235 112 -235 227c0 173 104 325 277 325c68 0 120 -27 149 -74l1 1c-15 61 -51 110 -95 149l-73 -39l-51 27l82 44c-23 15 -47 28 -70 39l108 60c24 -13 46 -26 67 -41z
M311 434c-101 0 -146 -113 -146 -213c0 -83 31 -128 102 -128c101 0 149 114 149 213c0 81 -34 128 -105 128z" />
    <glyph glyph-name="ntilde" unicode="&#xf1;" horiz-adv-x="601" 
d="M122 538h138l-13 -63c33 40 87 75 162 75c99 0 157 -46 157 -150c0 -23 -3 -48 -9 -76l-69 -324h-138l67 313c4 20 7 38 7 55c0 43 -16 71 -71 71c-90 0 -129 -76 -148 -161l-59 -278h-138zM296 725c74 0 95 -44 144 -44c35 0 52 21 55 44h95c-15 -89 -69 -127 -141 -127
c-74 0 -103 44 -146 44c-35 0 -50 -20 -55 -44h-95c11 86 76 127 143 127z" />
    <glyph glyph-name="ograve" unicode="&#xf2;" horiz-adv-x="584" 
d="M323 442c-98 0 -161 -103 -161 -223c0 -69 25 -124 100 -124c99 0 162 103 162 223c0 69 -25 124 -101 124zM338 550c137 0 225 -77 225 -226c0 -157 -101 -337 -315 -337c-137 0 -225 77 -225 226c0 157 101 337 315 337zM290 598l-127 127h157l66 -127h-96z" />
    <glyph glyph-name="oacute" unicode="&#xf3;" horiz-adv-x="584" 
d="M323 442c-98 0 -161 -103 -161 -223c0 -69 25 -124 100 -124c99 0 162 103 162 223c0 69 -25 124 -101 124zM338 550c137 0 225 -77 225 -226c0 -157 -101 -337 -315 -337c-137 0 -225 77 -225 226c0 157 101 337 315 337zM559 725l-172 -127h-109l124 127h157z" />
    <glyph glyph-name="ocircumflex" unicode="&#xf4;" horiz-adv-x="584" 
d="M323 442c-98 0 -161 -103 -161 -223c0 -69 25 -124 100 -124c99 0 162 103 162 223c0 69 -25 124 -101 124zM338 550c137 0 225 -77 225 -226c0 -157 -101 -337 -315 -337c-137 0 -225 77 -225 226c0 157 101 337 315 337zM432 725l123 -127h-117l-67 53l-89 -53h-123
l175 127h98z" />
    <glyph glyph-name="otilde" unicode="&#xf5;" horiz-adv-x="584" 
d="M323 442c-98 0 -161 -103 -161 -223c0 -69 25 -124 100 -124c99 0 162 103 162 223c0 69 -25 124 -101 124zM338 550c137 0 225 -77 225 -226c0 -157 -101 -337 -315 -337c-137 0 -225 77 -225 226c0 157 101 337 315 337zM301 725c74 0 95 -44 144 -44c35 0 52 21 55 44
h95c-15 -89 -69 -127 -141 -127c-74 0 -103 44 -146 44c-35 0 -50 -20 -55 -44h-95c11 86 76 127 143 127z" />
    <glyph glyph-name="odieresis" unicode="&#xf6;" horiz-adv-x="584" 
d="M323 442c-98 0 -161 -103 -161 -223c0 -69 25 -124 100 -124c99 0 162 103 162 223c0 69 -25 124 -101 124zM338 550c137 0 225 -77 225 -226c0 -157 -101 -337 -315 -337c-137 0 -225 77 -225 226c0 157 101 337 315 337zM213 725h115l-25 -119h-114zM453 725h115
l-25 -119h-115z" />
    <glyph glyph-name="divide" unicode="&#xf7;" 
d="M264 22v139h148v-139h-148zM264 366v140h148v-140h-148zM607 207h-535v120h535v-120z" />
    <glyph glyph-name="oslash" unicode="&#xf8;" horiz-adv-x="584" 
d="M338 550c50 0 93 -10 129 -31l36 41l49 -44l-35 -40c29 -37 46 -88 46 -152c0 -157 -101 -337 -315 -337c-51 0 -94 10 -129 30l-46 -53l-48 45l44 51c-31 38 -46 89 -46 153c0 157 101 337 315 337zM323 442c-98 0 -161 -103 -161 -223c0 -19 1 -34 4 -47l219 252
c-15 11 -35 18 -62 18zM424 318c0 15 -2 30 -5 45l-217 -251c15 -11 35 -17 60 -17c99 0 162 103 162 223z" />
    <glyph glyph-name="ugrave" unicode="&#xf9;" horiz-adv-x="591" 
d="M331 0l13 63c-33 -40 -85 -76 -160 -76c-96 0 -155 46 -155 149c0 23 3 49 9 78l69 324h138l-66 -313c-4 -21 -7 -39 -7 -58c0 -40 16 -69 68 -69c91 0 128 78 146 162l59 278h138l-114 -538h-138zM312 598l-127 127h157l66 -127h-96z" />
    <glyph glyph-name="uacute" unicode="&#xfa;" horiz-adv-x="591" 
d="M331 0l13 63c-33 -40 -85 -76 -160 -76c-96 0 -155 46 -155 149c0 23 3 49 9 78l69 324h138l-66 -313c-4 -21 -7 -39 -7 -58c0 -40 16 -69 68 -69c91 0 128 78 146 162l59 278h138l-114 -538h-138zM565 725l-172 -127h-109l124 127h157z" />
    <glyph glyph-name="ucircumflex" unicode="&#xfb;" horiz-adv-x="591" 
d="M331 0l13 63c-33 -40 -85 -76 -160 -76c-96 0 -155 46 -155 149c0 23 3 49 9 78l69 324h138l-66 -313c-4 -21 -7 -39 -7 -58c0 -40 16 -69 68 -69c91 0 128 78 146 162l59 278h138l-114 -538h-138zM430 725l123 -127h-117l-67 53l-89 -53h-123l175 127h98z" />
    <glyph glyph-name="udieresis" unicode="&#xfc;" horiz-adv-x="591" 
d="M331 0l13 63c-33 -40 -85 -76 -160 -76c-96 0 -155 46 -155 149c0 23 3 49 9 78l69 324h138l-66 -313c-4 -21 -7 -39 -7 -58c0 -40 16 -69 68 -69c91 0 128 78 146 162l59 278h138l-114 -538h-138zM208 725h115l-25 -119h-114zM448 725h115l-25 -119h-115z" />
    <glyph glyph-name="yacute" unicode="&#xfd;" horiz-adv-x="524" 
d="M248 148l190 390h143l-283 -522c-85 -159 -125 -191 -278 -191h-57l23 108h53c43 0 66 10 94 57l9 15l-85 533h136zM546 725l-172 -127h-109l124 127h157z" />
    <glyph glyph-name="thorn" unicode="&#xfe;" horiz-adv-x="607" 
d="M298 725l-52 -245c37 47 97 70 157 70c132 0 184 -102 184 -212c0 -155 -87 -351 -285 -351c-73 0 -120 36 -141 81l-52 -243h-138l191 900h136zM194 231c0 -72 19 -138 95 -138c119 0 157 138 157 229c0 76 -26 122 -93 122c-101 0 -159 -114 -159 -213z" />
    <glyph glyph-name="ydieresis" unicode="&#xff;" horiz-adv-x="524" 
d="M248 148l190 390h143l-283 -522c-85 -159 -125 -191 -278 -191h-57l23 108h53c43 0 66 10 94 57l9 15l-85 533h136zM174 725h115l-25 -119h-114zM414 725h115l-25 -119h-115z" />
    <glyph glyph-name="Abreve" unicode="&#x102;" horiz-adv-x="684" 
d="M-57 0l421 725h144l119 -725h-146l-21 147h-282l-81 -147h-154zM402 550l-159 -286h200zM525 886h97c-20 -81 -83 -117 -187 -117c-97 0 -152 33 -152 109v8h91v-4c0 -28 23 -42 68 -42c48 0 79 11 83 46z" />
    <glyph glyph-name="Amacron" unicode="&#x100;" horiz-adv-x="684" 
d="M-57 0l421 725h144l119 -725h-146l-21 147h-282l-81 -147h-154zM402 550l-159 -286h200zM593 782h-313l20 95h314z" />
    <glyph glyph-name="Aogonek" unicode="&#x104;" horiz-adv-x="684" 
d="M-57 0l421 725h144l119 -725c-26 -10 -116 -41 -116 -78c0 -23 31 -28 55 -28c19 0 38 4 53 8l-18 -82c-19 -4 -46 -8 -77 -8c-61 0 -146 15 -146 81c0 52 55 83 103 107l-21 147h-282l-81 -147h-154zM402 550l-159 -286h200z" />
    <glyph glyph-name="Cacute" unicode="&#x106;" horiz-adv-x="714" 
d="M549 233h139c-62 -166 -195 -246 -353 -246c-176 0 -294 106 -294 293c0 216 139 458 407 458c160 0 269 -85 282 -255h-141c-4 84 -54 140 -150 140c-173 0 -250 -199 -250 -335c0 -90 38 -186 161 -186c92 0 158 50 199 131zM685 886l-181 -113h-116l128 113h169z" />
    <glyph glyph-name="Ccaron" unicode="&#x10c;" horiz-adv-x="714" 
d="M549 233h139c-62 -166 -195 -246 -353 -246c-176 0 -294 106 -294 293c0 216 139 458 407 458c160 0 269 -85 282 -255h-141c-4 84 -54 140 -150 140c-173 0 -250 -199 -250 -335c0 -90 38 -186 161 -186c92 0 158 50 199 131zM407 773l-112 113h128l58 -50l77 50h133
l-165 -113h-119z" />
    <glyph glyph-name="Ccircumflex" unicode="&#x108;" horiz-adv-x="714" 
d="M549 233h139c-62 -166 -195 -246 -353 -246c-176 0 -294 106 -294 293c0 216 139 458 407 458c160 0 269 -85 282 -255h-141c-4 84 -54 140 -150 140c-173 0 -250 -199 -250 -335c0 -90 38 -186 161 -186c92 0 158 50 199 131zM559 886l112 -113h-128l-58 49l-77 -49
h-133l165 113h119z" />
    <glyph glyph-name="Cdotaccent" unicode="&#x10a;" horiz-adv-x="714" 
d="M549 233h139c-62 -166 -195 -246 -353 -246c-176 0 -294 106 -294 293c0 216 139 458 407 458c160 0 269 -85 282 -255h-141c-4 84 -54 140 -150 140c-173 0 -250 -199 -250 -335c0 -90 38 -186 161 -186c92 0 158 50 199 131zM416 886h143l-25 -113h-142z" />
    <glyph glyph-name="Dcaron" unicode="&#x10e;" horiz-adv-x="692" 
d="M541 423c0 107 -54 186 -177 186h-81l-104 -493h106c180 0 256 164 256 307zM165 725h205c185 0 318 -96 318 -300c0 -212 -134 -425 -418 -425h-259zM348 773l-112 113h128l58 -50l77 50h133l-165 -113h-119z" />
    <glyph glyph-name="Dcroat" unicode="&#x110;" horiz-adv-x="721" 
d="M194 725h205c185 0 318 -96 318 -300c0 -212 -134 -425 -418 -425h-259l65 308h-97l25 116h97zM393 609h-81l-39 -185h116l-25 -116h-116l-40 -192h106c180 0 256 164 256 307c0 107 -54 186 -177 186z" />
    <glyph glyph-name="Ebreve" unicode="&#x114;" horiz-adv-x="635" 
d="M11 0l154 725h527l-25 -116h-384l-38 -180h362l-24 -116h-362l-42 -197h384l-25 -116h-527zM531 886h97c-20 -81 -83 -117 -187 -117c-97 0 -152 33 -152 109v8h91v-4c0 -28 23 -42 68 -42c48 0 79 11 83 46z" />
    <glyph glyph-name="Ecaron" unicode="&#x11a;" horiz-adv-x="635" 
d="M11 0l154 725h527l-25 -116h-384l-38 -180h362l-24 -116h-362l-42 -197h384l-25 -116h-527zM375 773l-112 113h128l58 -50l77 50h133l-165 -113h-119z" />
    <glyph glyph-name="Emacron" unicode="&#x112;" horiz-adv-x="635" 
d="M11 0l154 725h527l-25 -116h-384l-38 -180h362l-24 -116h-362l-42 -197h384l-25 -116h-527zM593 782h-313l20 95h314z" />
    <glyph glyph-name="Eogonek" unicode="&#x118;" horiz-adv-x="635" 
d="M11 0l154 725h527l-25 -116h-384l-38 -180h362l-24 -116h-362l-42 -197h384l-25 -116h-527zM403 0h135c-25 -11 -103 -38 -103 -76c0 -23 19 -31 43 -31c12 0 25 2 38 5l-18 -81c-19 -3 -39 -5 -62 -5c-60 0 -127 16 -127 83c0 51 47 82 94 105z" />
    <glyph glyph-name="Edotaccent" unicode="&#x116;" horiz-adv-x="635" 
d="M11 0l154 725h527l-25 -116h-384l-38 -180h362l-24 -116h-362l-42 -197h384l-25 -116h-527zM395 886h143l-25 -113h-142z" />
    <glyph glyph-name="Gbreve" unicode="&#x11e;" horiz-adv-x="760" 
d="M528 0l10 66c-51 -53 -129 -79 -217 -79c-162 0 -280 106 -280 293c0 228 150 458 415 458c159 0 262 -77 281 -249h-140c-8 83 -55 134 -151 134c-165 0 -257 -168 -257 -335c0 -90 38 -186 161 -186c83 0 196 34 215 169h-208l25 117h347l-83 -388h-118zM560 886h97
c-20 -81 -83 -117 -187 -117c-97 0 -152 33 -152 109v8h91v-4c0 -28 23 -42 68 -42c48 0 79 11 83 46z" />
    <glyph glyph-name="Gcircumflex" unicode="&#x11c;" horiz-adv-x="760" 
d="M528 0l10 66c-51 -53 -129 -79 -217 -79c-162 0 -280 106 -280 293c0 228 150 458 415 458c159 0 262 -77 281 -249h-140c-8 83 -55 134 -151 134c-165 0 -257 -168 -257 -335c0 -90 38 -186 161 -186c83 0 196 34 215 169h-208l25 117h347l-83 -388h-118zM561 886
l112 -113h-128l-58 49l-77 -49h-133l165 113h119z" />
    <glyph glyph-name="uni0122" unicode="&#x122;" horiz-adv-x="760" 
d="M528 0l10 66c-51 -53 -129 -79 -217 -79c-162 0 -280 106 -280 293c0 228 150 458 415 458c159 0 262 -77 281 -249h-140c-8 83 -55 134 -151 134c-165 0 -257 -168 -257 -335c0 -90 38 -186 161 -186c83 0 196 34 215 169h-208l25 117h347l-83 -388h-118zM249 -136
l21 100h106l-23 -106l-63 -89h-65l59 95h-35z" />
    <glyph glyph-name="Gdotaccent" unicode="&#x120;" horiz-adv-x="760" 
d="M528 0l10 66c-51 -53 -129 -79 -217 -79c-162 0 -280 106 -280 293c0 228 150 458 415 458c159 0 262 -77 281 -249h-140c-8 83 -55 134 -151 134c-165 0 -257 -168 -257 -335c0 -90 38 -186 161 -186c83 0 196 34 215 169h-208l25 117h347l-83 -388h-118zM422 886h143
l-25 -113h-142z" />
    <glyph glyph-name="Hbar" unicode="&#x126;" horiz-adv-x="746" 
d="M632 725h143l-22 -100h56l-25 -116h-55l-108 -509h-143l65 308h-324l-65 -308h-143l108 509h-56l25 116h55l22 100h143l-22 -100h324zM244 424h324l18 85h-324z" />
    <glyph glyph-name="Hcircumflex" unicode="&#x124;" horiz-adv-x="746" 
d="M632 725h143l-154 -725h-143l65 308h-324l-65 -308h-143l154 725h143l-64 -301h324zM561 886l112 -113h-128l-58 49l-77 -49h-133l165 113h119z" />
    <glyph glyph-name="Ibreve" unicode="&#x12c;" horiz-adv-x="279" 
d="M308 725l-154 -725h-143l154 725h143zM338 886h97c-20 -81 -83 -117 -187 -117c-97 0 -152 33 -152 109v8h91v-4c0 -28 23 -42 68 -42c48 0 79 11 83 46z" />
    <glyph glyph-name="Idotaccent" unicode="&#x130;" horiz-adv-x="279" 
d="M308 725l-154 -725h-143l154 725h143zM197 886h143l-25 -113h-142z" />
    <glyph glyph-name="Imacron" unicode="&#x12a;" horiz-adv-x="279" 
d="M308 725l-154 -725h-143l154 725h143zM404 782h-313l20 95h314z" />
    <glyph glyph-name="Iogonek" unicode="&#x12e;" horiz-adv-x="279" 
d="M308 725l-154 -725c-25 -11 -104 -39 -104 -76c0 -23 19 -31 43 -31c12 0 25 2 38 5l-18 -81c-19 -3 -39 -5 -62 -5c-60 0 -127 16 -127 83c0 51 40 82 87 105l154 725h143z" />
    <glyph glyph-name="Itilde" unicode="&#x128;" horiz-adv-x="279" 
d="M308 725l-154 -725h-143l154 725h143zM316 853c29 0 43 15 50 40h93c-19 -109 -94 -127 -136 -127c-63 0 -85 41 -124 41c-29 0 -43 -14 -48 -41h-94c19 109 96 127 137 127c62 0 79 -40 122 -40z" />
    <glyph glyph-name="uni1ECA" unicode="&#x1eca;" horiz-adv-x="279" 
d="M18 -56h115l-25 -119h-115zM309 725l-154 -725h-143l154 725h143z" />
    <glyph glyph-name="Jcircumflex" unicode="&#x134;" horiz-adv-x="557" 
d="M606 886l112 -113h-128l-58 49l-77 -49h-133l165 113h119zM585 725l-104 -488c-37 -175 -130 -250 -289 -250c-137 0 -214 79 -214 195c0 19 1 36 5 55h142c-3 -19 -5 -32 -5 -47c0 -64 33 -86 85 -86c64 0 112 34 133 133l104 488h143z" />
    <glyph glyph-name="uni0136" unicode="&#x136;" horiz-adv-x="676" 
d="M308 725l-70 -327l340 327h178l-335 -313l201 -412h-157l-152 312l-116 -108l-43 -204h-143l154 725h143zM232 -136l21 100h106l-23 -106l-63 -89h-65l59 95h-35z" />
    <glyph glyph-name="Lacute" unicode="&#x139;" horiz-adv-x="563" 
d="M308 725l-129 -609h352l-25 -116h-495l154 725h143zM483 886l-181 -113h-116l128 113h169z" />
    <glyph glyph-name="Lcaron" unicode="&#x13d;" horiz-adv-x="563" 
d="M308 725l-129 -609h352l-25 -116h-495l154 725h143zM511 724l-105 -170h-91l66 170h130z" />
    <glyph glyph-name="uni013B" unicode="&#x13b;" horiz-adv-x="563" 
d="M308 725l-129 -609h352l-25 -116h-495l154 725h143zM194 -136l21 100h106l-23 -106l-63 -89h-65l59 95h-35z" />
    <glyph glyph-name="Ldot" unicode="&#x13f;" horiz-adv-x="563" 
d="M308 725l-129 -609h352l-25 -116h-495l154 725h143zM411 489h143l-25 -113h-142z" />
    <glyph glyph-name="Lslash" unicode="&#x141;" horiz-adv-x="568" 
d="M313 725l-52 -246l175 98l-27 -126l-175 -98l-50 -237h352l-25 -116h-495l56 263l-126 -70l27 125l125 70l72 337h143z" />
    <glyph glyph-name="Eng" unicode="&#x14a;" horiz-adv-x="747" 
d="M479 0l-208 549l-117 -549h-143l154 725h188l179 -481l102 481h142l-155 -729c-29 -143 -79 -171 -219 -171h-62l23 109h30c56 0 74 8 84 52z" />
    <glyph glyph-name="Nacute" unicode="&#x143;" horiz-adv-x="746" 
d="M621 0h-190l-159 560l-119 -560h-142l154 725h189l159 -563l120 563h142zM673 886l-181 -113h-116l128 113h169z" />
    <glyph glyph-name="Ncaron" unicode="&#x147;" horiz-adv-x="746" 
d="M621 0h-190l-159 560l-119 -560h-142l154 725h189l159 -563l120 563h142zM414 773l-112 113h128l58 -50l77 50h133l-165 -113h-119z" />
    <glyph glyph-name="uni0145" unicode="&#x145;" horiz-adv-x="746" 
d="M621 0h-190l-159 560l-119 -560h-142l154 725h189l159 -563l120 563h142zM242 -136l21 100h106l-23 -106l-63 -89h-65l59 95h-35z" />
    <glyph glyph-name="OE" unicode="&#x152;" horiz-adv-x="1142" 
d="M532 0l9 40c-51 -35 -109 -53 -180 -53c-184 0 -316 116 -316 320c0 223 139 431 387 431c106 0 184 -35 234 -105l19 92h514l-25 -116h-385l-38 -180h363l-24 -116h-364l-42 -197h386l-25 -116h-513zM606 423c0 108 -58 200 -181 200c-156 0 -233 -161 -233 -314
c0 -96 48 -207 179 -207c159 0 235 178 235 321z" />
    <glyph glyph-name="Obreve" unicode="&#x14e;" horiz-adv-x="755" 
d="M188 291c0 -92 45 -189 169 -189c184 0 252 212 252 332c0 92 -45 189 -168 189c-184 0 -253 -212 -253 -332zM756 444c0 -212 -139 -457 -414 -457c-179 0 -301 106 -301 294c0 212 140 457 414 457c178 0 301 -106 301 -294zM568 886h97c-20 -81 -83 -117 -187 -117
c-97 0 -152 33 -152 109v8h91v-4c0 -28 23 -42 68 -42c48 0 79 11 83 46z" />
    <glyph glyph-name="Ohungarumlaut" unicode="&#x150;" horiz-adv-x="755" 
d="M188 291c0 -92 45 -189 169 -189c184 0 252 212 252 332c0 92 -45 189 -168 189c-184 0 -253 -212 -253 -332zM756 444c0 -212 -139 -457 -414 -457c-179 0 -301 106 -301 294c0 212 140 457 414 457c178 0 301 -106 301 -294zM606 886l-184 -113h-112l127 113h169z
M795 886l-184 -113h-113l128 113h169z" />
    <glyph glyph-name="Omacron" unicode="&#x14c;" horiz-adv-x="755" 
d="M188 291c0 -92 45 -189 169 -189c184 0 252 212 252 332c0 92 -45 189 -168 189c-184 0 -253 -212 -253 -332zM756 444c0 -212 -139 -457 -414 -457c-179 0 -301 106 -301 294c0 212 140 457 414 457c178 0 301 -106 301 -294zM632 782h-313l20 95h314z" />
    <glyph glyph-name="uni1ECC" unicode="&#x1ecc;" horiz-adv-x="755" 
d="M250 -56h115l-25 -119h-115zM188 291c0 -92 45 -189 169 -189c184 0 252 212 252 332c0 92 -45 189 -168 189c-184 0 -253 -212 -253 -332zM756 444c0 -212 -139 -457 -414 -457c-179 0 -301 106 -301 294c0 212 140 457 414 457c178 0 301 -106 301 -294z" />
    <glyph glyph-name="Racute" unicode="&#x154;" horiz-adv-x="677" 
d="M438 0l-84 284h-140l-60 -284h-143l154 725h218c185 0 299 -47 299 -188c0 -124 -75 -197 -182 -229l92 -308h-154zM283 609l-44 -210h107c80 0 184 17 184 121c0 73 -62 89 -148 89h-99zM624 886l-181 -113h-116l128 113h169z" />
    <glyph glyph-name="Rcaron" unicode="&#x158;" horiz-adv-x="677" 
d="M438 0l-84 284h-140l-60 -284h-143l154 725h218c185 0 299 -47 299 -188c0 -124 -75 -197 -182 -229l92 -308h-154zM283 609l-44 -210h107c80 0 184 17 184 121c0 73 -62 89 -148 89h-99zM352 773l-112 113h128l58 -50l77 50h133l-165 -113h-119z" />
    <glyph glyph-name="uni0156" unicode="&#x156;" horiz-adv-x="677" 
d="M438 0l-84 284h-140l-60 -284h-143l154 725h218c185 0 299 -47 299 -188c0 -124 -75 -197 -182 -229l92 -308h-154zM283 609l-44 -210h107c80 0 184 17 184 121c0 73 -62 89 -148 89h-99zM205 -136l21 100h106l-23 -106l-63 -89h-65l59 95h-35z" />
    <glyph glyph-name="Sacute" unicode="&#x15a;" horiz-adv-x="655" 
d="M653 492h-140c-7 76 -63 132 -160 132c-53 0 -125 -20 -125 -83c0 -47 32 -73 87 -88l91 -25c109 -29 216 -84 216 -208c0 -149 -141 -234 -295 -234c-162 0 -301 92 -301 278h143c3 -93 51 -164 165 -164c66 0 142 25 142 97c0 60 -57 88 -126 109l-84 24
c-92 26 -182 87 -182 195c0 146 145 213 280 213c146 0 276 -71 289 -246zM611 886l-181 -113h-116l128 113h169z" />
    <glyph glyph-name="Scaron" unicode="&#x160;" horiz-adv-x="655" 
d="M653 492h-140c-7 76 -63 132 -160 132c-53 0 -125 -20 -125 -83c0 -47 32 -73 87 -88l91 -25c109 -29 216 -84 216 -208c0 -149 -141 -234 -295 -234c-162 0 -301 92 -301 278h143c3 -93 51 -164 165 -164c66 0 142 25 142 97c0 60 -57 88 -126 109l-84 24
c-92 26 -182 87 -182 195c0 146 145 213 280 213c146 0 276 -71 289 -246zM318 774l-112 113h128l58 -50l77 50h133l-165 -113h-119z" />
    <glyph glyph-name="Scedilla" unicode="&#x15e;" horiz-adv-x="655" 
d="M653 492h-140c-7 76 -63 132 -160 132c-53 0 -125 -20 -125 -83c0 -47 32 -73 87 -88l91 -25c109 -29 216 -84 216 -208c0 -149 -141 -234 -295 -234c-162 0 -301 92 -301 278h143c3 -93 51 -164 165 -164c66 0 142 25 142 97c0 60 -57 88 -126 109l-84 24
c-92 26 -182 87 -182 195c0 146 145 213 280 213c146 0 276 -71 289 -246zM232 -80l69 83h52l-43 -51c8 2 17 3 27 3c36 0 78 -15 78 -59c0 -61 -71 -91 -132 -91c-33 0 -60 4 -89 15l19 48c15 -7 39 -14 64 -14c29 0 56 9 56 36c0 15 -14 22 -35 22c-11 0 -28 -2 -41 -9z
" />
    <glyph glyph-name="Scircumflex" unicode="&#x15c;" horiz-adv-x="655" 
d="M653 492h-140c-7 76 -63 132 -160 132c-53 0 -125 -20 -125 -83c0 -47 32 -73 87 -88l91 -25c109 -29 216 -84 216 -208c0 -149 -141 -234 -295 -234c-162 0 -301 92 -301 278h143c3 -93 51 -164 165 -164c66 0 142 25 142 97c0 60 -57 88 -126 109l-84 24
c-92 26 -182 87 -182 195c0 146 145 213 280 213c146 0 276 -71 289 -246zM459 886l112 -113h-128l-58 49l-77 -49h-133l165 113h119z" />
    <glyph glyph-name="uni0218" unicode="&#x218;" horiz-adv-x="655" 
d="M653 492h-140c-7 76 -63 132 -160 132c-53 0 -125 -20 -125 -83c0 -47 32 -73 87 -88l91 -25c109 -29 216 -84 216 -208c0 -149 -141 -234 -295 -234c-162 0 -301 92 -301 278h143c3 -93 51 -164 165 -164c66 0 142 25 142 97c0 60 -57 88 -126 109l-84 24
c-92 26 -182 87 -182 195c0 146 145 213 280 213c146 0 276 -71 289 -246zM256 -136l21 100h106l-23 -106l-63 -89h-65l59 95h-35z" />
    <glyph glyph-name="Tbar" unicode="&#x166;" horiz-adv-x="589" 
d="M166 0l65 308h-154l25 116h153l40 185h-223l25 116h589l-25 -116h-223l-40 -185h191l-25 -116h-190l-65 -308h-143z" />
    <glyph glyph-name="Tcaron" unicode="&#x164;" horiz-adv-x="589" 
d="M166 0l129 609h-223l25 116h589l-25 -116h-223l-129 -609h-143zM338 773l-112 113h128l58 -50l77 50h133l-165 -113h-119z" />
    <glyph glyph-name="uni0162" unicode="&#x162;" horiz-adv-x="589" 
d="M166 0l129 609h-223l25 116h589l-25 -116h-223l-129 -609h-143zM155 -136l21 100h106l-23 -106l-63 -89h-65l59 95h-35z" />
    <glyph glyph-name="uni021A" unicode="&#x21a;" horiz-adv-x="589" 
d="M166 0l129 609h-223l25 116h589l-25 -116h-223l-129 -609h-143zM155 -136l21 100h106l-23 -106l-63 -89h-65l59 95h-35z" />
    <glyph glyph-name="Ubreve" unicode="&#x16c;" horiz-adv-x="708" 
d="M194 220c0 -76 35 -119 135 -119c131 0 163 77 190 205l89 419h143l-89 -418c-50 -239 -139 -320 -350 -320c-175 0 -262 68 -262 215c0 31 4 66 12 105l89 418h143l-89 -419c-7 -33 -11 -62 -11 -86zM559 886h97c-20 -81 -83 -117 -187 -117c-97 0 -152 33 -152 109v8
h91v-4c0 -28 23 -42 68 -42c48 0 79 11 83 46z" />
    <glyph glyph-name="Uhungarumlaut" unicode="&#x170;" horiz-adv-x="711" 
d="M194 220c0 -76 35 -119 135 -119c131 0 163 77 190 205l89 419h143l-89 -418c-50 -239 -139 -320 -350 -320c-175 0 -262 68 -262 215c0 31 4 66 12 105l89 418h143l-89 -419c-7 -33 -11 -62 -11 -86zM597 886l-184 -113h-112l127 113h169zM786 886l-184 -113h-113
l128 113h169z" />
    <glyph glyph-name="Umacron" unicode="&#x16a;" horiz-adv-x="708" 
d="M194 220c0 -76 35 -119 135 -119c131 0 163 77 190 205l89 419h143l-89 -418c-50 -239 -139 -320 -350 -320c-175 0 -262 68 -262 215c0 31 4 66 12 105l89 418h143l-89 -419c-7 -33 -11 -62 -11 -86zM620 782h-313l20 95h314z" />
    <glyph glyph-name="Uogonek" unicode="&#x172;" horiz-adv-x="708" 
d="M194 220c0 -76 35 -119 135 -119c131 0 163 77 190 205l89 419h143l-89 -418c-50 -239 -139 -320 -350 -320c-175 0 -262 68 -262 215c0 31 4 66 12 105l89 418h143l-89 -419c-7 -33 -11 -62 -11 -86zM262 0h135c-25 -11 -103 -38 -103 -76c0 -23 19 -31 43 -31
c12 0 25 2 38 5l-18 -81c-19 -3 -39 -5 -62 -5c-60 0 -127 16 -127 83c0 51 47 82 94 105z" />
    <glyph glyph-name="Uring" unicode="&#x16e;" horiz-adv-x="708" 
d="M194 220c0 -76 35 -119 135 -119c131 0 163 77 190 205l89 419h143l-89 -418c-50 -239 -139 -320 -350 -320c-175 0 -262 68 -262 215c0 31 4 66 12 105l89 418h143l-89 -419c-7 -33 -11 -62 -11 -86zM463 935c51 0 91 -34 91 -85c0 -49 -40 -85 -91 -85s-90 36 -90 85
c0 51 41 85 90 85zM463 893c-23 0 -43 -18 -43 -43s20 -42 43 -42s43 17 43 42s-20 43 -43 43z" />
    <glyph glyph-name="Utilde" unicode="&#x168;" horiz-adv-x="708" 
d="M194 220c0 -76 35 -119 135 -119c131 0 163 77 190 205l89 419h143l-89 -418c-50 -239 -139 -320 -350 -320c-175 0 -262 68 -262 215c0 31 4 66 12 105l89 418h143l-89 -419c-7 -33 -11 -62 -11 -86zM518 853c29 0 43 15 50 40h93c-19 -109 -94 -127 -136 -127
c-63 0 -85 41 -124 41c-29 0 -43 -14 -48 -41h-94c19 109 96 127 137 127c62 0 79 -40 122 -40z" />
    <glyph glyph-name="uni1EE4" unicode="&#x1ee4;" horiz-adv-x="708" 
d="M234 -56h115l-25 -119h-115zM194 220c0 -76 35 -119 135 -119c131 0 163 77 190 205l89 419h143l-89 -418c-50 -239 -139 -320 -350 -320c-175 0 -262 68 -262 215c0 31 4 66 12 105l89 418h143l-89 -419c-7 -33 -11 -62 -11 -86z" />
    <glyph glyph-name="Wacute" unicode="&#x1e82;" horiz-adv-x="900" 
d="M618 725l-3 -531l207 531h158l-315 -725h-169l4 540l-224 -540h-171l-5 725h148l-10 -528l213 528h167zM779 886l-181 -113h-116l128 113h169z" />
    <glyph glyph-name="Wcircumflex" unicode="&#x174;" horiz-adv-x="900" 
d="M618 725l-3 -531l207 531h158l-315 -725h-169l4 540l-224 -540h-171l-5 725h148l-10 -528l213 528h167zM626 886l112 -113h-128l-58 49l-77 -49h-133l165 113h119z" />
    <glyph glyph-name="Wdieresis" unicode="&#x1e84;" horiz-adv-x="900" 
d="M618 725l-3 -531l207 531h158l-315 -725h-169l4 540l-224 -540h-171l-5 725h148l-10 -528l213 528h167zM388 886h115l-25 -113h-115zM628 886h115l-25 -113h-115z" />
    <glyph glyph-name="Wgrave" unicode="&#x1e80;" horiz-adv-x="900" 
d="M618 725l-3 -531l207 531h158l-315 -725h-169l4 540l-224 -540h-171l-5 725h148l-10 -528l213 528h167zM487 773l-138 113h169l78 -113h-109z" />
    <glyph glyph-name="Ycircumflex" unicode="&#x176;" horiz-adv-x="641" 
d="M79 725h160l104 -314l237 314h170l-363 -456l-57 -269h-143l58 271zM504 886l112 -113h-128l-58 49l-77 -49h-133l165 113h119z" />
    <glyph glyph-name="Ydieresis" unicode="&#x178;" horiz-adv-x="641" 
d="M79 725h160l104 -314l237 314h170l-363 -456l-57 -269h-143l58 271zM266 886h115l-25 -113h-115zM506 886h115l-25 -113h-115z" />
    <glyph glyph-name="Ygrave" unicode="&#x1ef2;" horiz-adv-x="641" 
d="M79 725h160l104 -314l237 314h170l-363 -456l-57 -269h-143l58 271zM377 773l-138 113h169l78 -113h-109z" />
    <glyph glyph-name="uni0232" unicode="&#x232;" horiz-adv-x="641" 
d="M79 725h160l104 -314l237 314h170l-363 -456l-57 -269h-143l58 271zM575 782h-313l20 95h314z" />
    <glyph glyph-name="Zacute" unicode="&#x179;" horiz-adv-x="640" 
d="M689 725l-24 -112l-480 -491h391l-26 -122h-578l24 112l480 492h-346l26 121h533zM630 886l-181 -113h-116l128 113h169z" />
    <glyph glyph-name="Zcaron" unicode="&#x17d;" horiz-adv-x="640" 
d="M689 725l-24 -112l-480 -491h391l-26 -122h-578l24 112l480 492h-346l26 121h533zM360 773l-112 113h128l58 -50l77 50h133l-165 -113h-119z" />
    <glyph glyph-name="Zdotaccent" unicode="&#x17b;" horiz-adv-x="640" 
d="M689 725l-24 -112l-480 -491h391l-26 -122h-578l24 112l480 492h-346l26 121h533zM377 886h143l-25 -113h-142z" />
    <glyph glyph-name="uni018F" unicode="&#x18f;" horiz-adv-x="730" 
d="M396 623c-84 0 -154 -52 -182 -137h-142c48 161 182 252 334 252c191 0 318 -120 318 -323c0 -224 -135 -428 -382 -428c-239 0 -337 194 -281 431h515c3 108 -41 205 -180 205zM348 102c113 0 197 84 213 200h-377c-16 -137 60 -200 164 -200z" />
    <glyph glyph-name="abreve" unicode="&#x103;" horiz-adv-x="580" 
d="M348 0l14 69c-51 -57 -109 -82 -181 -82c-91 0 -165 54 -165 145c1 60 28 106 92 139c61 33 156 53 295 65l4 17c3 13 4 25 4 36c0 52 -46 66 -95 66c-57 0 -110 -28 -118 -87h-129c24 106 122 184 260 184c124 0 218 -50 218 -163c0 -21 -3 -42 -9 -65l-34 -146
c-24 -103 -27 -144 -27 -161c0 -8 0 -14 1 -17h-130zM385 230l4 19c-173 -19 -229 -46 -229 -104c0 -41 28 -60 71 -60c89 0 135 58 154 145zM456 725h98c-19 -84 -73 -130 -188 -130c-101 0 -152 48 -152 111v9c0 3 0 7 1 10h90c0 -3 -1 -6 -1 -9c0 -28 21 -50 68 -50
c43 0 79 10 84 59z" />
    <glyph glyph-name="amacron" unicode="&#x101;" horiz-adv-x="580" 
d="M348 0l14 69c-51 -57 -109 -82 -181 -82c-91 0 -165 54 -165 145c1 60 28 106 92 139c61 33 156 53 295 65l4 17c3 13 4 25 4 36c0 52 -46 66 -95 66c-57 0 -110 -28 -118 -87h-129c24 106 122 184 260 184c124 0 218 -50 218 -163c0 -21 -3 -42 -9 -65l-34 -146
c-24 -103 -27 -144 -27 -161c0 -8 0 -14 1 -17h-130zM385 230l4 19c-173 -19 -229 -46 -229 -104c0 -41 28 -60 71 -60c89 0 135 58 154 145zM197 611l20 95h314l-21 -95h-313z" />
    <glyph glyph-name="aogonek" unicode="&#x105;" horiz-adv-x="580" 
d="M348 0l14 69c-51 -57 -109 -82 -181 -82c-91 0 -165 54 -165 145c1 60 28 106 92 139c61 33 156 53 295 65l4 17c3 13 4 25 4 36c0 52 -46 66 -95 66c-57 0 -110 -28 -118 -87h-129c24 106 122 184 260 184c124 0 218 -50 218 -163c0 -21 -3 -42 -9 -65l-34 -146
c-24 -103 -27 -144 -27 -161c0 -8 0 -14 1 -17c-25 -11 -103 -38 -103 -76c0 -23 19 -31 43 -31c12 0 25 2 38 5l-17 -81c-19 -3 -40 -5 -63 -5c-60 0 -127 16 -127 83c0 51 52 82 99 105zM385 230l4 19c-173 -19 -229 -46 -229 -104c0 -41 28 -60 71 -60
c89 0 135 58 154 145z" />
    <glyph glyph-name="cacute" unicode="&#x107;" horiz-adv-x="571" 
d="M559 342h-130c0 51 -32 100 -104 100c-97 0 -158 -90 -161 -202c-4 -99 37 -145 105 -145c60 0 114 33 137 97h131c-46 -153 -173 -205 -279 -205c-157 0 -240 105 -235 238c5 179 124 325 313 325c128 0 218 -80 223 -208zM557 725l-172 -127h-109l124 127h157z" />
    <glyph glyph-name="ccaron" unicode="&#x10d;" horiz-adv-x="571" 
d="M559 342h-130c0 51 -32 100 -104 100c-97 0 -158 -90 -161 -202c-4 -99 37 -145 105 -145c60 0 114 33 137 97h131c-46 -153 -173 -205 -279 -205c-157 0 -240 105 -235 238c5 179 124 325 313 325c128 0 218 -80 223 -208zM309 598l-123 127h117l67 -52l89 52h123
l-175 -127h-98z" />
    <glyph glyph-name="ccircumflex" unicode="&#x109;" horiz-adv-x="571" 
d="M559 342h-130c0 51 -32 100 -104 100c-97 0 -158 -90 -161 -202c-4 -99 37 -145 105 -145c60 0 114 33 137 97h131c-46 -153 -173 -205 -279 -205c-157 0 -240 105 -235 238c5 179 124 325 313 325c128 0 218 -80 223 -208zM432 725l123 -127h-117l-67 53l-89 -53h-123
l175 127h98z" />
    <glyph glyph-name="cdotaccent" unicode="&#x10b;" horiz-adv-x="571" 
d="M559 342h-130c0 51 -32 100 -104 100c-97 0 -158 -90 -161 -202c-4 -99 37 -145 105 -145c60 0 114 33 137 97h131c-46 -153 -173 -205 -279 -205c-157 0 -240 105 -235 238c5 179 124 325 313 325c128 0 218 -80 223 -208zM319 725h115l-25 -118h-115z" />
    <glyph glyph-name="dcaron" unicode="&#x10f;" horiz-adv-x="720" 
d="M837 724l-105 -170h-91l66 170h130zM352 0l12 57c-36 -47 -94 -70 -154 -70c-132 0 -184 102 -184 212c0 152 87 351 285 351c73 0 120 -36 141 -81l54 256h138l-154 -725h-138zM419 320c0 75 -28 124 -95 124c-119 0 -157 -145 -157 -229c0 -76 26 -122 93 -122
c119 0 159 145 159 227z" />
    <glyph glyph-name="dcroat" unicode="&#x111;" horiz-adv-x="620" 
d="M352 0l12 57c-36 -47 -94 -70 -154 -70c-132 0 -184 102 -184 212c0 152 87 351 285 351c73 0 120 -36 141 -81l20 95h-124l16 81h125l17 80h138l-17 -80h84l-16 -81h-85l-120 -564h-138zM419 320c0 75 -28 124 -95 124c-119 0 -157 -145 -157 -229
c0 -76 26 -122 93 -122c119 0 159 145 159 227z" />
    <glyph glyph-name="ebreve" unicode="&#x115;" horiz-adv-x="590" 
d="M406 172h133c-51 -128 -167 -185 -281 -185c-156 0 -236 104 -236 225c0 168 110 338 321 338c166 0 262 -130 209 -314h-394c-1 -5 -1 -9 -1 -14v-12c0 -68 37 -115 116 -115c56 0 108 21 133 77zM331 447c-50 0 -123 -17 -150 -118h253c8 84 -38 118 -103 118zM454 725
h98c-19 -84 -73 -130 -188 -130c-101 0 -152 48 -152 111v9c0 3 0 7 1 10h90c0 -3 -1 -6 -1 -9c0 -28 21 -50 68 -50c43 0 79 10 84 59z" />
    <glyph glyph-name="ecaron" unicode="&#x11b;" horiz-adv-x="590" 
d="M406 172h133c-51 -128 -167 -185 -281 -185c-156 0 -236 104 -236 225c0 168 110 338 321 338c166 0 262 -130 209 -314h-394c-1 -5 -1 -9 -1 -14v-12c0 -68 37 -115 116 -115c56 0 108 21 133 77zM331 447c-50 0 -123 -17 -150 -118h253c8 84 -38 118 -103 118zM319 598
l-123 127h117l67 -52l89 52h123l-175 -127h-98z" />
    <glyph glyph-name="emacron" unicode="&#x113;" horiz-adv-x="590" 
d="M406 172h133c-51 -128 -167 -185 -281 -185c-156 0 -236 104 -236 225c0 168 110 338 321 338c166 0 262 -130 209 -314h-394c-1 -5 -1 -9 -1 -14v-12c0 -68 37 -115 116 -115c56 0 108 21 133 77zM331 447c-50 0 -123 -17 -150 -118h253c8 84 -38 118 -103 118zM212 611
l20 95h314l-21 -95h-313z" />
    <glyph glyph-name="eogonek" unicode="&#x119;" horiz-adv-x="590" 
d="M406 172h133c-51 -128 -167 -185 -281 -185c-156 0 -236 104 -236 225c0 168 110 338 321 338c166 0 262 -130 209 -314h-394c-1 -5 -1 -9 -1 -14v-12c0 -68 37 -115 116 -115c56 0 108 21 133 77zM331 447c-50 0 -123 -17 -150 -118h253c8 84 -38 118 -103 118zM225 0
h127c-25 -11 -103 -38 -103 -76c0 -23 19 -31 43 -31c12 0 25 2 38 5l-17 -81c-19 -3 -40 -5 -63 -5c-60 0 -127 16 -127 83c0 51 55 82 102 105z" />
    <glyph glyph-name="edotaccent" unicode="&#x117;" horiz-adv-x="590" 
d="M406 172h133c-51 -128 -167 -185 -281 -185c-156 0 -236 104 -236 225c0 168 110 338 321 338c166 0 262 -130 209 -314h-394c-1 -5 -1 -9 -1 -14v-12c0 -68 37 -115 116 -115c56 0 108 21 133 77zM331 447c-50 0 -123 -17 -150 -118h253c8 84 -38 118 -103 118zM326 725
h115l-25 -118h-115z" />
    <glyph glyph-name="gbreve" unicode="&#x11f;" horiz-adv-x="614" 
d="M423 329c0 72 -28 119 -95 119c-117 0 -156 -136 -156 -220c0 -73 27 -117 92 -117c119 0 159 139 159 218zM456 472l14 66h138l-101 -476c-37 -181 -123 -250 -282 -250c-115 0 -207 41 -220 172h125c5 -40 36 -67 104 -67c71 0 107 32 127 125l6 25
c-37 -39 -97 -58 -152 -58c-132 0 -184 98 -184 204c0 148 87 337 284 337c73 0 120 -35 141 -78zM478 725h98c-19 -84 -73 -130 -188 -130c-101 0 -152 48 -152 111v9c0 3 0 7 1 10h90c0 -3 -1 -6 -1 -9c0 -28 21 -50 68 -50c43 0 79 10 84 59z" />
    <glyph glyph-name="gcircumflex" unicode="&#x11d;" horiz-adv-x="614" 
d="M423 329c0 72 -28 119 -95 119c-117 0 -156 -136 -156 -220c0 -73 27 -117 92 -117c119 0 159 139 159 218zM456 472l14 66h138l-101 -476c-37 -181 -123 -250 -282 -250c-115 0 -207 41 -220 172h125c5 -40 36 -67 104 -67c71 0 107 32 127 125l6 25
c-37 -39 -97 -58 -152 -58c-132 0 -184 98 -184 204c0 148 87 337 284 337c73 0 120 -35 141 -78zM432 725l123 -127h-117l-67 53l-89 -53h-123l175 127h98z" />
    <glyph glyph-name="uni0123" unicode="&#x123;" horiz-adv-x="614" 
d="M432 677l-21 -100h-106l23 106l63 90h65l-59 -96h35zM423 329c0 72 -28 119 -95 119c-117 0 -156 -136 -156 -220c0 -73 27 -117 92 -117c119 0 159 139 159 218zM456 472l14 66h138l-101 -476c-37 -181 -123 -250 -282 -250c-115 0 -207 41 -220 172h125
c5 -40 36 -67 104 -67c71 0 107 32 127 125l6 25c-37 -39 -97 -58 -152 -58c-132 0 -184 98 -184 204c0 148 87 337 284 337c73 0 120 -35 141 -78z" />
    <glyph glyph-name="gdotaccent" unicode="&#x121;" horiz-adv-x="614" 
d="M423 329c0 72 -28 119 -95 119c-117 0 -156 -136 -156 -220c0 -73 27 -117 92 -117c119 0 159 139 159 218zM456 472l14 66h138l-101 -476c-37 -181 -123 -250 -282 -250c-115 0 -207 41 -220 172h125c5 -40 36 -67 104 -67c71 0 107 32 127 125l6 25
c-37 -39 -97 -58 -152 -58c-132 0 -184 98 -184 204c0 148 87 337 284 337c73 0 120 -35 141 -78zM308 725h115l-25 -118h-115z" />
    <glyph glyph-name="hbar" unicode="&#x127;" horiz-adv-x="600" 
d="M300 725l-17 -80h117l-16 -81h-118l-19 -89c33 40 87 75 162 75c97 0 156 -46 156 -149c0 -23 -3 -49 -9 -77l-69 -324h-138l67 313c4 20 7 39 7 56c0 41 -15 70 -70 70c-90 0 -129 -76 -148 -161l-59 -278h-138l120 564h-91l16 81h92l17 80h138z" />
    <glyph glyph-name="hcircumflex" unicode="&#x125;" horiz-adv-x="600" 
d="M300 725l-53 -250c33 40 87 75 162 75c97 0 156 -46 156 -149c0 -23 -3 -49 -9 -77l-69 -324h-138l67 313c4 20 7 39 7 56c0 41 -15 70 -70 70c-90 0 -129 -76 -148 -161l-59 -278h-138l154 725h138zM322 886l112 -113h-128l-58 49l-77 -49h-133l165 113h119z" />
    <glyph glyph-name="dotlessi" unicode="&#x131;" horiz-adv-x="268" 
d="M122 538h138l-114 -538h-138z" />
    <glyph glyph-name="ibreve" unicode="&#x12d;" horiz-adv-x="268" 
d="M122 538h138l-114 -538h-138zM300 725h98c-19 -84 -73 -130 -188 -130c-101 0 -152 48 -152 111v9c0 3 0 7 1 10h90c0 -3 -1 -6 -1 -9c0 -28 21 -50 68 -50c43 0 79 10 84 59z" />
    <glyph glyph-name="imacron" unicode="&#x12b;" horiz-adv-x="268" 
d="M122 538h138l-114 -538h-138zM51 611l20 95h314l-21 -95h-313z" />
    <glyph glyph-name="iogonek" unicode="&#x12f;" horiz-adv-x="268" 
d="M122 538h138l-114 -538h-2c-25 -11 -112 -38 -112 -76c0 -23 26 -31 50 -31c13 0 29 3 41 6l-17 -81c-19 -3 -41 -6 -66 -6c-60 0 -134 16 -134 83c0 51 55 82 102 105zM162 725h138l-27 -128h-138z" />
    <glyph glyph-name="itilde" unicode="&#x129;" horiz-adv-x="268" 
d="M122 538h138l-114 -538h-138zM127 725c74 0 95 -44 144 -44c35 0 52 21 55 44h95c-15 -89 -69 -127 -141 -127c-74 0 -103 44 -146 44c-35 0 -50 -20 -55 -44h-95c11 86 76 127 143 127z" />
    <glyph glyph-name="uni1ECB" unicode="&#x1ecb;" horiz-adv-x="268" 
d="M12 -56h115l-25 -119h-115zM162 725h138l-27 -128h-138zM122 538h138l-114 -538h-138z" />
    <glyph glyph-name="uni0237" unicode="&#x237;" horiz-adv-x="268" 
d="M8 -4l114 542h138l-115 -544c-32 -152 -79 -169 -222 -169h-47l19 100h24c64 0 79 13 89 71z" />
    <glyph glyph-name="jcircumflex" unicode="&#x135;" horiz-adv-x="268" 
d="M283 725l123 -127h-117l-67 53l-89 -53h-123l175 127h98zM8 -4l114 542h138l-115 -544c-32 -152 -79 -169 -222 -169h-47l19 100h24c64 0 79 13 89 71z" />
    <glyph glyph-name="uni0137" unicode="&#x137;" horiz-adv-x="555" 
d="M162 725h138l-82 -383l211 196h174l-251 -227l139 -311h-147l-94 218l-71 -64l-33 -154h-138zM161 -136l21 100h106l-23 -106l-63 -89h-65l59 95h-35z" />
    <glyph glyph-name="lacute" unicode="&#x13a;" horiz-adv-x="268" 
d="M300 725l-154 -725h-138l154 725h138zM465 886l-181 -113h-116l128 113h169z" />
    <glyph glyph-name="lcaron" unicode="&#x13e;" horiz-adv-x="374" 
d="M300 725l-154 -725h-138l154 725h138zM493 724l-105 -170h-91l66 170h130z" />
    <glyph glyph-name="uni013C" unicode="&#x13c;" horiz-adv-x="268" 
d="M300 725l-154 -725h-138l154 725h138zM-1 -136l21 100h106l-23 -106l-63 -89h-65l59 95h-35z" />
    <glyph glyph-name="ldot" unicode="&#x140;" horiz-adv-x="377" 
d="M300 726l-154 -725h-138l154 725h138zM309 481h115l-25 -118h-115z" />
    <glyph glyph-name="lslash" unicode="&#x142;" horiz-adv-x="268" 
d="M300 725l-52 -243l81 41l-24 -112l-81 -41l-78 -370h-138l62 291l-82 -41l24 112l82 41l68 322h138z" />
    <glyph glyph-name="eng" unicode="&#x14b;" horiz-adv-x="601" 
d="M350 -4l65 317c4 17 6 34 6 51c0 43 -17 75 -73 75c-93 0 -126 -74 -145 -159l-57 -280h-138l112 538h138l-14 -63c43 48 106 75 173 75c96 0 149 -47 149 -140c0 -21 -3 -44 -8 -71l-71 -345c-32 -151 -98 -180 -224 -180h-51l24 111h24c65 0 77 13 90 71z" />
    <glyph glyph-name="nacute" unicode="&#x144;" horiz-adv-x="601" 
d="M122 538h138l-13 -63c33 40 87 75 162 75c99 0 157 -46 157 -150c0 -23 -3 -48 -9 -76l-69 -324h-138l67 313c4 20 7 38 7 55c0 43 -16 71 -71 71c-90 0 -129 -76 -148 -161l-59 -278h-138zM584 725l-172 -127h-109l124 127h157z" />
    <glyph glyph-name="ncaron" unicode="&#x148;" horiz-adv-x="601" 
d="M122 538h138l-13 -63c33 40 87 75 162 75c99 0 157 -46 157 -150c0 -23 -3 -48 -9 -76l-69 -324h-138l67 313c4 20 7 38 7 55c0 43 -16 71 -71 71c-90 0 -129 -76 -148 -161l-59 -278h-138zM357 598l-123 127h117l67 -52l89 52h123l-175 -127h-98z" />
    <glyph glyph-name="uni0146" unicode="&#x146;" horiz-adv-x="601" 
d="M122 538h138l-13 -63c33 40 87 75 162 75c99 0 157 -46 157 -150c0 -23 -3 -48 -9 -76l-69 -324h-138l67 313c4 20 7 38 7 55c0 43 -16 71 -71 71c-90 0 -129 -76 -148 -161l-59 -278h-138zM176 -136l21 100h106l-23 -106l-63 -89h-65l59 95h-35z" />
    <glyph glyph-name="oe" unicode="&#x153;" horiz-adv-x="969" 
d="M777 172l129 -16c-48 -115 -151 -169 -267 -169c-91 0 -144 36 -175 89c-44 -55 -109 -89 -200 -89c-142 0 -237 87 -237 246c0 189 117 317 297 317c82 0 141 -29 176 -87c45 53 111 87 207 87c141 0 233 -91 233 -229c0 -25 -4 -54 -11 -85h-395c-1 -4 -1 -8 -1 -12
v-11c0 -69 37 -120 117 -120c56 0 104 23 127 79zM166 231c0 -75 27 -141 106 -141c84 0 149 92 149 225c0 72 -26 132 -106 132s-149 -75 -149 -216zM806 329v13c0 77 -51 108 -106 108c-50 0 -124 -20 -148 -121h254z" />
    <glyph glyph-name="obreve" unicode="&#x14f;" horiz-adv-x="584" 
d="M323 442c-98 0 -161 -103 -161 -223c0 -69 25 -124 100 -124c99 0 162 103 162 223c0 69 -25 124 -101 124zM338 550c137 0 225 -77 225 -226c0 -157 -101 -337 -315 -337c-137 0 -225 77 -225 226c0 157 101 337 315 337zM464 725h98c-19 -84 -73 -130 -188 -130
c-101 0 -152 48 -152 111v9c0 3 0 7 1 10h90c0 -3 -1 -6 -1 -9c0 -28 21 -50 68 -50c43 0 79 10 84 59z" />
    <glyph glyph-name="ohungarumlaut" unicode="&#x151;" horiz-adv-x="584" 
d="M486 725l-172 -127h-109l124 127h157zM680 725l-173 -127h-108l123 127h158zM323 442c-98 0 -161 -103 -161 -223c0 -69 25 -124 100 -124c99 0 162 103 162 223c0 69 -25 124 -101 124zM338 550c137 0 225 -77 225 -226c0 -157 -101 -337 -315 -337
c-137 0 -225 77 -225 226c0 157 101 337 315 337z" />
    <glyph glyph-name="omacron" unicode="&#x14d;" horiz-adv-x="584" 
d="M323 442c-98 0 -161 -103 -161 -223c0 -69 25 -124 100 -124c99 0 162 103 162 223c0 69 -25 124 -101 124zM338 550c137 0 225 -77 225 -226c0 -157 -101 -337 -315 -337c-137 0 -225 77 -225 226c0 157 101 337 315 337zM212 611l20 95h314l-21 -95h-313z" />
    <glyph glyph-name="uni1ECD" unicode="&#x1ecd;" horiz-adv-x="584" 
d="M178 -56h115l-25 -119h-115zM323 442c-98 0 -161 -103 -161 -223c0 -69 25 -124 100 -124c99 0 162 103 162 223c0 69 -25 124 -101 124zM338 550c137 0 225 -77 225 -226c0 -157 -101 -337 -315 -337c-137 0 -225 77 -225 226c0 157 101 337 315 337z" />
    <glyph glyph-name="racute" unicode="&#x155;" horiz-adv-x="400" 
d="M430 535l-28 -130c-18 2 -35 3 -50 3c-76 0 -127 -30 -148 -137l-58 -271h-138l115 538h136l-19 -83c44 54 99 81 164 81h13c4 0 8 0 13 -1zM416 725l-172 -127h-109l124 127h157z" />
    <glyph glyph-name="rcaron" unicode="&#x159;" horiz-adv-x="400" 
d="M430 535l-28 -130c-18 2 -35 3 -50 3c-76 0 -127 -30 -148 -137l-58 -271h-138l115 538h136l-19 -83c44 54 99 81 164 81h13c4 0 8 0 13 -1zM201 598l-123 127h117l67 -52l89 52h123l-175 -127h-98z" />
    <glyph glyph-name="uni0157" unicode="&#x157;" horiz-adv-x="400" 
d="M430 535l-28 -130c-18 2 -35 3 -50 3c-76 0 -127 -30 -148 -137l-58 -271h-138l115 538h136l-19 -83c44 54 99 81 164 81h13c4 0 8 0 13 -1zM-5 -136l21 100h106l-23 -106l-63 -89h-65l59 95h-35z" />
    <glyph glyph-name="sacute" unicode="&#x15b;" horiz-adv-x="535" 
d="M508 373h-128c-3 65 -62 79 -114 79c-48 0 -89 -16 -89 -51c0 -31 29 -48 70 -59l60 -16c108 -30 181 -69 181 -165c0 -118 -120 -174 -233 -174c-127 0 -249 66 -249 202h128c0 -68 48 -103 117 -103c39 0 102 14 102 62c0 39 -37 57 -84 70l-68 18
c-95 27 -152 69 -152 158c0 109 114 156 222 156c104 0 229 -52 237 -177zM510 725l-172 -127h-109l124 127h157z" />
    <glyph glyph-name="scaron" unicode="&#x161;" horiz-adv-x="535" 
d="M508 373h-128c-3 65 -62 79 -114 79c-48 0 -89 -16 -89 -51c0 -31 29 -48 70 -59l60 -16c108 -30 181 -69 181 -165c0 -118 -120 -174 -233 -174c-127 0 -249 66 -249 202h128c0 -68 48 -103 117 -103c39 0 102 14 102 62c0 39 -37 57 -84 70l-68 18
c-95 27 -152 69 -152 158c0 109 114 156 222 156c104 0 229 -52 237 -177zM225 598l-123 127h117l67 -52l89 52h123l-175 -127h-98z" />
    <glyph glyph-name="scedilla" unicode="&#x15f;" horiz-adv-x="535" 
d="M508 373h-128c-3 65 -62 79 -114 79c-48 0 -89 -16 -89 -51c0 -31 29 -48 70 -59l60 -16c108 -30 181 -69 181 -165c0 -118 -120 -174 -233 -174c-127 0 -249 66 -249 202h128c0 -68 48 -103 117 -103c39 0 102 14 102 62c0 39 -37 57 -84 70l-68 18
c-95 27 -152 69 -152 158c0 109 114 156 222 156c104 0 229 -52 237 -177zM113 -80l69 83h52l-43 -51c8 2 17 3 27 3c36 0 78 -15 78 -59c0 -61 -71 -91 -132 -91c-33 0 -60 4 -89 15l19 48c15 -7 39 -14 64 -14c29 0 56 9 56 36c0 15 -14 22 -35 22c-11 0 -28 -2 -41 -9z
" />
    <glyph glyph-name="scircumflex" unicode="&#x15d;" horiz-adv-x="535" 
d="M508 373h-128c-3 65 -62 79 -114 79c-48 0 -89 -16 -89 -51c0 -31 29 -48 70 -59l60 -16c108 -30 181 -69 181 -165c0 -118 -120 -174 -233 -174c-127 0 -249 66 -249 202h128c0 -68 48 -103 117 -103c39 0 102 14 102 62c0 39 -37 57 -84 70l-68 18
c-95 27 -152 69 -152 158c0 109 114 156 222 156c104 0 229 -52 237 -177zM392 725l123 -127h-117l-67 53l-89 -53h-123l175 127h98z" />
    <glyph glyph-name="uni0219" unicode="&#x219;" horiz-adv-x="535" 
d="M508 373h-128c-3 65 -62 79 -114 79c-48 0 -89 -16 -89 -51c0 -31 29 -48 70 -59l60 -16c108 -30 181 -69 181 -165c0 -118 -120 -174 -233 -174c-127 0 -249 66 -249 202h128c0 -68 48 -103 117 -103c39 0 102 14 102 62c0 39 -37 57 -84 70l-68 18
c-95 27 -152 69 -152 158c0 109 114 156 222 156c104 0 229 -52 237 -177zM126 -136l21 100h106l-23 -106l-63 -89h-65l59 95h-35z" />
    <glyph glyph-name="tbar" unicode="&#x167;" horiz-adv-x="372" 
d="M143 538l31 146h138l-31 -146h111l-20 -95h-111l-17 -77h112l-23 -102h-110l-21 -99c-3 -11 -4 -20 -4 -29c0 -31 18 -37 57 -37h42l-21 -99h-101c-93 0 -124 22 -124 78c0 19 3 41 9 67l25 119h-78l23 102h76l17 77h-77l20 95h77z" />
    <glyph glyph-name="tcaron" unicode="&#x165;" horiz-adv-x="419" 
d="M537 725l-106 -150h-90l66 150h130zM142 538l31 146h138l-31 -146h111l-20 -95h-111l-59 -278c-3 -11 -4 -20 -4 -29c0 -31 18 -37 57 -37h42l-21 -99h-101c-93 0 -124 22 -124 78c0 19 3 41 9 67l63 298h-77l20 95h77z" />
    <glyph glyph-name="uni0163" unicode="&#x163;" horiz-adv-x="372" 
d="M142 538l31 146h138l-31 -146h111l-20 -95h-111l-59 -278c-3 -11 -4 -20 -4 -29c0 -31 18 -37 57 -37h42l-21 -99h-101c-93 0 -124 22 -124 78c0 19 3 41 9 67l63 298h-77l20 95h77zM47 -136l21 100h106l-23 -106l-63 -89h-65l59 95h-35z" />
    <glyph glyph-name="uni021B" unicode="&#x21b;" horiz-adv-x="372" 
d="M142 538l31 146h138l-31 -146h111l-20 -95h-111l-59 -278c-3 -11 -4 -20 -4 -29c0 -31 18 -37 57 -37h42l-21 -99h-101c-93 0 -124 22 -124 78c0 19 3 41 9 67l63 298h-77l20 95h77zM47 -136l21 100h106l-23 -106l-63 -89h-65l59 95h-35z" />
    <glyph glyph-name="ubreve" unicode="&#x16d;" horiz-adv-x="591" 
d="M331 0l13 63c-33 -40 -85 -76 -160 -76c-96 0 -155 46 -155 149c0 23 3 49 9 78l69 324h138l-66 -313c-4 -21 -7 -39 -7 -58c0 -40 16 -69 68 -69c91 0 128 78 146 162l59 278h138l-114 -538h-138zM458 725h98c-19 -84 -73 -130 -188 -130c-101 0 -152 48 -152 111v9
c0 3 0 7 1 10h90c0 -3 -1 -6 -1 -9c0 -28 21 -50 68 -50c43 0 79 10 84 59z" />
    <glyph glyph-name="uhungarumlaut" unicode="&#x171;" horiz-adv-x="591" 
d="M331 0l13 63c-33 -40 -85 -76 -160 -76c-96 0 -155 46 -155 149c0 23 3 49 9 78l69 324h138l-66 -313c-4 -21 -7 -39 -7 -58c0 -40 16 -69 68 -69c91 0 128 78 146 162l59 278h138l-114 -538h-138zM456 725l-172 -127h-109l124 127h157zM650 725l-173 -127h-108l123 127
h158z" />
    <glyph glyph-name="umacron" unicode="&#x16b;" horiz-adv-x="591" 
d="M331 0l13 63c-33 -40 -85 -76 -160 -76c-96 0 -155 46 -155 149c0 23 3 49 9 78l69 324h138l-66 -313c-4 -21 -7 -39 -7 -58c0 -40 16 -69 68 -69c91 0 128 78 146 162l59 278h138l-114 -538h-138zM205 611l20 95h314l-21 -95h-313z" />
    <glyph glyph-name="uogonek" unicode="&#x173;" horiz-adv-x="591" 
d="M331 0l13 63c-33 -40 -85 -76 -160 -76c-96 0 -155 46 -155 149c0 23 3 49 9 78l69 324h138l-66 -313c-4 -21 -7 -39 -7 -58c0 -40 16 -69 68 -69c91 0 128 78 146 162l59 278h138l-114 -538c-25 -11 -103 -38 -103 -76c0 -23 19 -31 43 -31c12 0 25 2 38 5l-17 -81
c-19 -3 -40 -5 -63 -5c-60 0 -127 16 -127 83c0 51 44 82 91 105z" />
    <glyph glyph-name="uring" unicode="&#x16f;" horiz-adv-x="591" 
d="M331 0l13 63c-33 -40 -85 -76 -160 -76c-96 0 -155 46 -155 149c0 23 3 49 9 78l69 324h138l-66 -313c-4 -21 -7 -39 -7 -58c0 -40 16 -69 68 -69c91 0 128 78 146 162l59 278h138l-114 -538h-138zM271 685c0 52 43 90 95 90c51 0 94 -39 94 -90s-42 -89 -94 -89
c-53 0 -95 37 -95 89zM407 685c0 24 -18 41 -41 41s-41 -17 -41 -41c0 -23 18 -39 41 -39s41 16 41 39z" />
    <glyph glyph-name="utilde" unicode="&#x169;" horiz-adv-x="591" 
d="M331 0l13 63c-33 -40 -85 -76 -160 -76c-96 0 -155 46 -155 149c0 23 3 49 9 78l69 324h138l-66 -313c-4 -21 -7 -39 -7 -58c0 -40 16 -69 68 -69c91 0 128 78 146 162l59 278h138l-114 -538h-138zM297 725c74 0 95 -44 144 -44c35 0 52 21 55 44h95
c-15 -89 -69 -127 -141 -127c-74 0 -103 44 -146 44c-35 0 -50 -20 -55 -44h-95c11 86 76 127 143 127z" />
    <glyph glyph-name="uni1EE5" unicode="&#x1ee5;" horiz-adv-x="591" 
d="M166 -56h115l-25 -119h-115zM331 0l13 63c-33 -40 -85 -76 -160 -76c-96 0 -155 46 -155 149c0 23 3 49 9 78l69 324h138l-66 -313c-4 -21 -7 -39 -7 -58c0 -40 16 -69 68 -69c91 0 128 78 146 162l59 278h138l-114 -538h-138z" />
    <glyph glyph-name="wacute" unicode="&#x1e83;" horiz-adv-x="742" 
d="M200 166l162 372h140l8 -371l140 371h149l-234 -538h-150l-16 379l-169 -379h-150l-23 538h144zM656 725l-172 -127h-109l124 127h157z" />
    <glyph glyph-name="wcircumflex" unicode="&#x175;" horiz-adv-x="742" 
d="M200 166l162 372h140l8 -371l140 371h149l-234 -538h-150l-16 379l-169 -379h-150l-23 538h144zM512 725l123 -127h-117l-67 53l-89 -53h-123l175 127h98z" />
    <glyph glyph-name="wdieresis" unicode="&#x1e85;" horiz-adv-x="742" 
d="M200 166l162 372h140l8 -371l140 371h149l-234 -538h-150l-16 379l-169 -379h-150l-23 538h144zM283 725h115l-25 -119h-114zM523 725h115l-25 -119h-115z" />
    <glyph glyph-name="wgrave" unicode="&#x1e81;" horiz-adv-x="742" 
d="M200 166l162 372h140l8 -371l140 371h149l-234 -538h-150l-16 379l-169 -379h-150l-23 538h144zM389 598l-127 127h157l66 -127h-96z" />
    <glyph glyph-name="ycircumflex" unicode="&#x177;" horiz-adv-x="524" 
d="M248 148l190 390h143l-283 -522c-85 -159 -125 -191 -278 -191h-57l23 108h53c43 0 66 10 94 57l9 15l-85 533h136zM379 725l123 -127h-117l-67 53l-89 -53h-123l175 127h98z" />
    <glyph glyph-name="ygrave" unicode="&#x1ef3;" horiz-adv-x="524" 
d="M248 148l190 390h143l-283 -522c-85 -159 -125 -191 -278 -191h-57l23 108h53c43 0 66 10 94 57l9 15l-85 533h136zM287 598l-127 127h157l66 -127h-96z" />
    <glyph glyph-name="uni0233" unicode="&#x233;" horiz-adv-x="524" 
d="M248 148l190 390h143l-283 -522c-85 -159 -125 -191 -278 -191h-57l23 108h53c43 0 66 10 94 57l9 15l-85 533h136zM167 611l20 95h314l-21 -95h-313z" />
    <glyph glyph-name="zacute" unicode="&#x17a;" horiz-adv-x="498" 
d="M-35 0l23 109l351 320h-267l23 109h432l-23 -109l-351 -320h291l-23 -109h-456zM546 725l-172 -127h-109l124 127h157z" />
    <glyph glyph-name="zcaron" unicode="&#x17e;" horiz-adv-x="498" 
d="M-35 0l23 109l351 320h-267l23 109h432l-23 -109l-351 -320h291l-23 -109h-456zM284 598l-123 127h117l67 -52l89 52h123l-175 -127h-98z" />
    <glyph glyph-name="zdotaccent" unicode="&#x17c;" horiz-adv-x="498" 
d="M-35 0l23 109l351 320h-267l23 109h432l-23 -109l-351 -320h291l-23 -109h-456zM302 725h115l-25 -118h-115z" />
    <glyph glyph-name="uni0259" unicode="&#x259;" horiz-adv-x="590" 
d="M181 365h-133c48 128 160 185 275 185c161 0 244 -109 244 -234c0 -169 -104 -329 -309 -329c-140 0 -232 89 -232 228c0 26 4 55 11 86h394c1 3 1 7 1 10v11c0 69 -40 120 -120 120c-56 0 -108 -21 -131 -77zM266 90c50 0 122 17 146 118h-253v-13
c0 -77 52 -105 107 -105z" />
    <glyph glyph-name="uni0410" unicode="&#x410;" horiz-adv-x="684" 
d="M-57 0l421 725h144l119 -725h-146l-21 147h-282l-81 -147h-154zM402 550l-159 -286h200z" />
    <glyph glyph-name="uni0411" unicode="&#x411;" horiz-adv-x="654" 
d="M322 0h-309l152 725h510l-24 -116h-367l-34 -161h122c173 0 264 -49 264 -189c0 -154 -88 -259 -314 -259zM226 332l-46 -216h152c108 0 157 49 157 136c0 53 -41 80 -123 80h-140z" />
    <glyph glyph-name="uni0412" unicode="&#x412;" horiz-adv-x="669" 
d="M11 0l154 725h281c114 0 229 -45 229 -168c0 -69 -37 -147 -118 -179c39 -23 77 -68 77 -140c0 -172 -153 -238 -307 -238h-316zM221 313l-42 -197h153c87 0 154 27 154 115c0 51 -37 82 -113 82h-152zM283 609l-38 -180h148c67 0 130 27 130 103c0 45 -32 77 -93 77
h-147z" />
    <glyph glyph-name="uni0413" unicode="&#x413;" horiz-adv-x="580" 
d="M156 0h-143l152 725h495l-24 -116h-352z" />
    <glyph glyph-name="uni0414" unicode="&#x414;" horiz-adv-x="780" 
d="M61 -147h-125l54 263h39c65 0 131 118 195 331l83 278h459l-128 -609h95l-54 -263h-125l30 147h-493zM186 116h309l104 493h-194l-58 -195c-43 -140 -85 -237 -161 -298z" />
    <glyph glyph-name="uni0415" unicode="&#x415;" horiz-adv-x="635" 
d="M11 0l154 725h527l-25 -116h-384l-38 -180h362l-24 -116h-362l-42 -197h384l-25 -116h-527z" />
    <glyph glyph-name="uni0401" unicode="&#x401;" horiz-adv-x="635" 
d="M11 0l154 725h527l-25 -116h-384l-38 -180h362l-24 -116h-362l-42 -197h384l-25 -116h-527zM287 886h115l-25 -113h-115zM527 886h115l-25 -113h-115z" />
    <glyph glyph-name="uni0416" unicode="&#x416;" horiz-adv-x="933" 
d="M123 0h-182l317 383l-160 342h148l165 -344v-4l73 348h143l-72 -344h1l278 344h171l-295 -360l165 -365h-157l-166 364h-1l-76 -364h-143l75 358l-1 -3z" />
    <glyph glyph-name="uni0417" unicode="&#x417;" horiz-adv-x="651" 
d="M297 -13c-152 0 -265 99 -265 244h137c1 -85 59 -129 143 -129c88 0 144 40 153 112c8 64 -39 101 -127 101h-88l25 116h81c64 0 128 33 136 93c8 68 -29 103 -105 103c-84 0 -149 -51 -162 -134h-137c32 141 140 245 320 245c151 0 246 -86 230 -199
c-9 -79 -54 -131 -130 -154c68 -24 113 -89 100 -177c-24 -156 -152 -221 -311 -221z" />
    <glyph glyph-name="uni0418" unicode="&#x418;" horiz-adv-x="765" 
d="M153 0h-140l152 725h143l-107 -503l449 503h142l-152 -725h-143l105 503z" />
    <glyph glyph-name="uni0419" unicode="&#x419;" horiz-adv-x="749" 
d="M473 749c-117 0 -172 53 -172 129v8h90v-4c0 -29 25 -62 89 -62c68 0 98 31 102 66h98c-20 -81 -84 -137 -207 -137zM153 0h-140l152 725h143l-107 -503l449 503h142l-152 -725h-143l105 503z" />
    <glyph glyph-name="uni041A" unicode="&#x41a;" horiz-adv-x="639" 
d="M156 0h-143l152 725h143l-72 -349h1l313 349h168l-337 -365l195 -360h-153l-190 359h-1z" />
    <glyph glyph-name="uni041B" unicode="&#x41b;" horiz-adv-x="711" 
d="M24 0h-61l24 116h24c74 0 126 125 187 332l81 277h459l-152 -725h-143l128 609h-186l-55 -194c-75 -259 -170 -415 -306 -415z" />
    <glyph glyph-name="uni041C" unicode="&#x41c;" horiz-adv-x="900" 
d="M462 0h-142l-52 538l-114 -538h-143l154 725h213l50 -547l277 547h224l-154 -725h-143l114 538z" />
    <glyph glyph-name="uni041D" unicode="&#x41d;" horiz-adv-x="746" 
d="M632 725h143l-154 -725h-143l65 308h-324l-65 -308h-143l154 725h143l-64 -301h324z" />
    <glyph glyph-name="uni041E" unicode="&#x41e;" horiz-adv-x="755" 
d="M188 291c0 -92 45 -189 169 -189c184 0 252 212 252 332c0 92 -45 189 -168 189c-184 0 -253 -212 -253 -332zM756 444c0 -212 -139 -457 -414 -457c-179 0 -301 106 -301 294c0 212 140 457 414 457c178 0 301 -106 301 -294z" />
    <glyph glyph-name="uni041F" unicode="&#x41f;" horiz-adv-x="735" 
d="M156 0h-143l152 725h597l-152 -725h-143l128 609h-311z" />
    <glyph glyph-name="uni0420" unicode="&#x420;" horiz-adv-x="640" 
d="M165 725h222c191 0 284 -61 284 -206c0 -190 -149 -264 -354 -264h-109l-54 -255h-143zM283 609l-50 -239h99c98 0 186 21 186 138c0 88 -79 101 -147 101h-88z" />
    <glyph glyph-name="uni0421" unicode="&#x421;" horiz-adv-x="714" 
d="M549 233h139c-62 -166 -195 -246 -353 -246c-176 0 -294 106 -294 293c0 216 139 458 407 458c160 0 269 -85 282 -255h-141c-4 84 -54 140 -150 140c-173 0 -250 -199 -250 -335c0 -90 38 -186 161 -186c92 0 158 50 199 131z" />
    <glyph glyph-name="uni0422" unicode="&#x422;" horiz-adv-x="589" 
d="M166 0l129 609h-223l25 116h589l-25 -116h-223l-129 -609h-143z" />
    <glyph glyph-name="uni0423" unicode="&#x423;" horiz-adv-x="624" 
d="M145 -13h-83l24 116h55c39 0 62 3 87 39l38 54l-180 529h156l115 -389l216 389h158l-355 -587c-56 -93 -110 -151 -231 -151z" />
    <glyph glyph-name="uni0424" unicode="&#x424;" horiz-adv-x="831" 
d="M420 -30h-133l18 87c-170 11 -258 122 -258 268c0 195 153 347 388 352l18 88h133l-18 -88c171 -13 259 -120 259 -268c0 -197 -141 -344 -389 -352zM329 170l82 394c-131 -5 -220 -94 -220 -235c0 -75 34 -148 138 -159zM544 564l-82 -394c143 5 219 114 219 239
c0 77 -34 142 -137 155z" />
    <glyph glyph-name="uni0425" unicode="&#x425;" horiz-adv-x="703" 
d="M-57 0l348 378l-178 347h156l122 -238l219 238h168l-327 -355l190 -370h-156l-135 262l-241 -262h-166z" />
    <glyph glyph-name="uni0426" unicode="&#x426;" horiz-adv-x="763" 
d="M662 -147h-125l30 147h-554l152 725h143l-128 -609h297l128 609h143l-128 -609h96z" />
    <glyph glyph-name="uni0427" unicode="&#x427;" horiz-adv-x="689" 
d="M564 0h-143l56 268c-45 -11 -120 -22 -171 -22c-151 0 -217 67 -217 186c0 20 4 51 9 74l46 219h143l-44 -208c-4 -23 -7 -45 -7 -64c0 -67 28 -89 125 -89c39 0 96 4 140 15l72 346h143z" />
    <glyph glyph-name="uni0428" unicode="&#x428;" horiz-adv-x="1003" 
d="M878 0h-865l152 725h143l-128 -609h218l128 609h143l-128 -609h218l128 609h143z" />
    <glyph glyph-name="uni0429" unicode="&#x429;" horiz-adv-x="1046" 
d="M945 -147h-125l30 147h-837l152 725h143l-128 -609h218l128 609h143l-128 -609h218l128 609h143l-126 -600h97z" />
    <glyph glyph-name="uni042A" unicode="&#x42a;" horiz-adv-x="763" 
d="M386 0h-236l128 609h-205l24 116h344l-52 -252h55c181 0 288 -45 288 -208c0 -165 -109 -265 -346 -265zM365 357l-52 -241h80c125 0 194 36 194 143c0 84 -71 98 -153 98h-69z" />
    <glyph glyph-name="uni042B" unicode="&#x42b;" horiz-adv-x="915" 
d="M254 0h-241l152 725h143l-52 -252h56c181 0 288 -48 288 -208c0 -165 -109 -265 -346 -265zM232 357l-52 -241h81c125 0 194 36 194 143c0 84 -71 98 -153 98h-70zM790 0h-143l152 725h143z" />
    <glyph glyph-name="uni042C" unicode="&#x42c;" horiz-adv-x="649" 
d="M272 0h-259l152 725h143l-52 -252h74c181 0 288 -45 288 -208c0 -165 -109 -265 -346 -265zM232 357l-52 -241h99c125 0 194 36 194 143c0 84 -71 98 -153 98h-88z" />
    <glyph glyph-name="uni042D" unicode="&#x42d;" horiz-adv-x="745" 
d="M337 -13c-180 0 -306 102 -306 271h140v-4c3 -111 86 -151 174 -151c114 0 207 73 231 205h-306l26 116h300c1 4 1 8 1 12v12c1 108 -66 173 -174 173c-89 0 -177 -41 -214 -155h-140c40 161 178 271 354 271c213 0 318 -131 318 -308c0 -235 -133 -442 -404 -442z" />
    <glyph glyph-name="uni042E" unicode="&#x42e;" horiz-adv-x="1010" 
d="M616 -13c-179 0 -281 105 -281 294v17c0 6 0 12 1 17h-114l-66 -315h-143l152 725h143l-62 -294h112c51 162 161 307 371 307c179 0 281 -105 281 -294c0 -212 -119 -457 -394 -457zM631 102c184 0 232 212 232 332c0 92 -25 189 -148 189c-184 0 -233 -212 -233 -332
c0 -92 24 -189 149 -189z" />
    <glyph glyph-name="uni042F" unicode="&#x42f;" horiz-adv-x="677" 
d="M144 0h-169l239 300c-63 32 -104 83 -104 176c0 148 116 249 335 249h259l-152 -725h-143l54 255h-120zM387 371h100l50 238h-100c-129 0 -174 -53 -174 -136c0 -60 32 -102 124 -102z" />
    <glyph glyph-name="uni0402" unicode="&#x402;" horiz-adv-x="791" 
d="M470 -10c-48 0 -76 4 -105 11l37 115c23 -5 46 -8 81 -8c85 0 116 56 116 133c0 65 -45 93 -109 93c-43 0 -85 -9 -127 -26l-66 -308h-143l128 609h-209l24 116h602l-24 -116h-250l-41 -189c51 19 107 27 152 27c139 0 210 -91 210 -200c0 -168 -112 -257 -276 -257z" />
    <glyph glyph-name="uni0403" unicode="&#x403;" horiz-adv-x="580" 
d="M663 886l-181 -113h-116l128 113h169zM156 0h-143l152 725h495l-24 -116h-352z" />
    <glyph glyph-name="uni0404" unicode="&#x404;" horiz-adv-x="741" 
d="M361 -13c-205 0 -319 112 -319 291c0 244 157 459 410 459c183 0 306 -106 306 -271h-140c-3 109 -82 155 -172 155c-108 0 -199 -73 -231 -197h303l-26 -116h-301c-1 -5 -1 -10 -1 -15v-15c0 -112 65 -175 174 -175c98 0 180 41 217 155h140
c-43 -173 -192 -271 -360 -271z" />
    <glyph glyph-name="uni0405" unicode="&#x405;" horiz-adv-x="655" 
d="M653 492h-140c-7 76 -63 132 -160 132c-53 0 -125 -20 -125 -83c0 -47 32 -73 87 -88l91 -25c109 -29 216 -84 216 -208c0 -149 -141 -234 -295 -234c-162 0 -301 92 -301 278h143c3 -93 51 -164 165 -164c66 0 142 25 142 97c0 60 -57 88 -126 109l-84 24
c-92 26 -182 87 -182 195c0 146 145 213 280 213c146 0 276 -71 289 -246z" />
    <glyph glyph-name="uni0406" unicode="&#x406;" horiz-adv-x="279" 
d="M308 725l-154 -725h-143l154 725h143z" />
    <glyph glyph-name="uni0407" unicode="&#x407;" horiz-adv-x="279" 
d="M92 886h115l-25 -113h-115zM332 886h115l-25 -113h-115zM308 725l-154 -725h-143l154 725h143z" />
    <glyph glyph-name="uni0408" unicode="&#x408;" horiz-adv-x="557" 
d="M585 725l-104 -488c-37 -175 -130 -250 -289 -250c-137 0 -214 79 -214 195c0 19 1 36 5 55h142c-3 -19 -5 -32 -5 -47c0 -64 33 -86 85 -86c64 0 112 34 133 133l104 488h143z" />
    <glyph glyph-name="uni0409" unicode="&#x409;" horiz-adv-x="1036" 
d="M24 0h-61l24 116h24c74 0 126 125 187 332l81 277h439l-53 -252h52c175 0 288 -54 288 -208c0 -165 -109 -265 -346 -265h-238l130 609h-166l-55 -194c-75 -259 -170 -415 -306 -415zM641 357l-51 -241h76c125 0 194 36 194 143c0 84 -71 98 -153 98h-66z" />
    <glyph glyph-name="uni040A" unicode="&#x40a;" horiz-adv-x="1103" 
d="M156 0h-143l152 725h143l-62 -293h317l62 293h143l-58 -276h69c189 0 290 -50 290 -199c0 -156 -104 -250 -341 -250h-255l66 316h-317zM686 333l-46 -217h98c128 0 184 38 184 129c0 76 -63 88 -151 88h-85z" />
    <glyph glyph-name="uni040B" unicode="&#x40b;" horiz-adv-x="784" 
d="M297 0h-143l128 609h-209l24 116h602l-24 -116h-250l-40 -189c47 13 111 27 156 27c141 0 198 -67 198 -188c0 -26 -3 -53 -9 -82l-36 -177h-143l38 177c6 29 9 53 9 73c0 60 -29 83 -102 83c-52 0 -90 -8 -133 -19z" />
    <glyph glyph-name="uni040C" unicode="&#x40c;" horiz-adv-x="639" 
d="M645 886l-181 -113h-116l128 113h169zM156 0h-143l152 725h143l-72 -349h1l313 349h168l-337 -365l195 -360h-153l-190 359h-1z" />
    <glyph glyph-name="uni040E" unicode="&#x40e;" horiz-adv-x="624" 
d="M145 -13h-83l24 116h55c39 0 62 3 87 39l38 54l-180 529h156l115 -389l216 389h158l-355 -587c-56 -93 -110 -151 -231 -151zM412 749c-117 0 -172 53 -172 129v8h90v-4c0 -29 25 -62 89 -62c68 0 98 31 102 66h98c-20 -81 -84 -137 -207 -137z" />
    <glyph glyph-name="uni040F" unicode="&#x40f;" horiz-adv-x="721" 
d="M337 -147h-125l30 147h-229l152 725h143l-128 -609h297l128 609h143l-152 -725h-229z" />
    <glyph glyph-name="uni0490" unicode="&#x490;" horiz-adv-x="580" 
d="M156 0h-143l152 725h370l32 147h125l-56 -263h-352z" />
    <glyph glyph-name="uni0462" unicode="&#x462;" horiz-adv-x="694" 
d="M307 0h-220l110 525h-142l24 116h142l18 84h143l-18 -84h201l-24 -116h-201l-18 -87h47c189 0 290 -46 290 -193c0 -211 -196 -245 -352 -245zM298 322l-44 -206h75c128 0 180 41 180 122c0 68 -58 84 -146 84h-65z" />
    <glyph glyph-name="uni0472" unicode="&#x472;" horiz-adv-x="794" 
d="M372 -13c-207 0 -327 130 -327 311c0 256 171 439 417 439c205 0 329 -129 329 -309c0 -245 -163 -441 -419 -441zM376 101c116 0 233 72 254 216h-436c-1 -7 -2 -13 -2 -20v-18c0 -119 85 -178 184 -178zM214 433h429v12c0 116 -84 178 -185 178
c-103 0 -217 -67 -244 -190z" />
    <glyph glyph-name="uni0474" unicode="&#x474;" horiz-adv-x="695" 
d="M339 0h-146l-98 725h148l58 -546l185 355c64 125 129 191 244 191h54l-24 -116h-18c-54 0 -77 -21 -122 -104z" />
    <glyph glyph-name="uni0492" unicode="&#x492;" horiz-adv-x="610" 
d="M186 0h-143l68 325h-88l24 116h88l60 284h495l-24 -116h-352l-36 -168h191l-24 -116h-191z" />
    <glyph glyph-name="uni0496" unicode="&#x496;" horiz-adv-x="974" 
d="M883 -147h-125l30 147h-70l-166 364h-1l-76 -364h-143l75 358l-1 -3l-283 -355h-182l317 383l-160 342h148l165 -344v-4l73 348h143l-72 -344h1l278 344h171l-295 -360l113 -249h114z" />
    <glyph glyph-name="uni049A" unicode="&#x49a;" horiz-adv-x="679" 
d="M588 -147h-125l30 147h-70l-190 359h-1l-76 -359h-143l152 725h143l-72 -349h1l313 349h168l-329 -357l129 -252h124z" />
    <glyph glyph-name="uni04A2" unicode="&#x4a2;" horiz-adv-x="795" 
d="M694 -147h-125l30 147h-111l66 315h-332l-66 -315h-143l152 725h143l-62 -294h332l62 294h143l-128 -609h93z" />
    <glyph glyph-name="uni04AE" unicode="&#x4ae;" horiz-adv-x="641" 
d="M79 725h160l104 -314l237 314h170l-363 -456l-57 -269h-143l58 271z" />
    <glyph glyph-name="uni04B0" unicode="&#x4b0;" horiz-adv-x="641" 
d="M330 0h-143l41 192h-149l24 116h128l-152 417h160l104 -314l237 314h170l-332 -417h128l-24 -116h-151z" />
    <glyph glyph-name="uni04B2" unicode="&#x4b2;" horiz-adv-x="741" 
d="M650 -147h-125l30 147h-70l-135 262l-241 -262h-166l348 378l-178 347h156l122 -238l219 238h168l-327 -355l130 -254h123z" />
    <glyph glyph-name="uni04B6" unicode="&#x4b6;" horiz-adv-x="729" 
d="M628 -147h-125l30 147h-112l56 268c-45 -11 -120 -22 -171 -22c-151 0 -217 67 -217 186c0 20 4 51 9 74l46 219h143l-44 -208c-4 -23 -7 -45 -7 -64c0 -67 28 -89 125 -89c39 0 96 4 140 15l72 346h143l-126 -599h94z" />
    <glyph glyph-name="uni04BA" unicode="&#x4ba;" horiz-adv-x="676" 
d="M156 0h-143l152 725h143l-56 -269c57 12 124 23 175 23c144 0 213 -78 213 -194c0 -23 -4 -45 -9 -70l-45 -215h-143l44 208c5 27 9 45 9 64c0 65 -31 91 -115 91h-4c-48 0 -102 -4 -147 -15z" />
    <glyph glyph-name="uni04C0" unicode="&#x4c0;" horiz-adv-x="279" 
d="M308 725l-154 -725h-143l154 725h143z" />
    <glyph glyph-name="uni04D8" unicode="&#x4d8;" horiz-adv-x="748" 
d="M353 -13c-196 0 -305 108 -305 283c0 45 8 99 23 147h525c1 5 1 10 1 15v15c0 115 -69 176 -167 176c-88 0 -154 -36 -189 -123h-146c48 149 185 237 340 237c197 0 311 -120 311 -292c0 -249 -134 -458 -393 -458zM351 101c108 0 202 68 231 200h-392
c-2 -16 -3 -31 -3 -46c0 -104 77 -154 164 -154z" />
    <glyph glyph-name="uni04E2" unicode="&#x4e2;" horiz-adv-x="749" 
d="M153 0h-140l152 725h143l-107 -503l449 503h142l-152 -725h-143l105 503zM638 782h-313l20 95h314z" />
    <glyph glyph-name="uni04E8" unicode="&#x4e8;" horiz-adv-x="794" 
d="M372 -13c-207 0 -327 130 -327 311c0 256 171 439 417 439c205 0 329 -129 329 -309c0 -245 -163 -441 -419 -441zM376 101c116 0 233 72 254 216h-436c-1 -7 -2 -13 -2 -20v-18c0 -119 85 -178 184 -178zM214 433h429v12c0 116 -84 178 -185 178
c-103 0 -217 -67 -244 -190z" />
    <glyph glyph-name="uni04EE" unicode="&#x4ee;" horiz-adv-x="624" 
d="M145 -13h-83l24 116h55c39 0 62 3 87 39l38 54l-180 529h156l115 -389l216 389h158l-355 -587c-56 -93 -110 -151 -231 -151zM593 782h-313l20 95h314z" />
    <glyph glyph-name="uni0430" unicode="&#x430;" horiz-adv-x="580" 
d="M348 0l14 69c-51 -57 -109 -82 -181 -82c-91 0 -165 54 -165 145c1 60 28 106 92 139c61 33 156 53 295 65l4 17c3 13 4 25 4 36c0 52 -46 66 -95 66c-57 0 -110 -28 -118 -87h-129c24 106 122 184 260 184c124 0 218 -50 218 -163c0 -21 -3 -42 -9 -65l-34 -146
c-24 -103 -27 -144 -27 -161c0 -8 0 -14 1 -17h-130zM385 230l4 19c-173 -19 -229 -46 -229 -104c0 -41 28 -60 71 -60c89 0 135 58 154 145z" />
    <glyph glyph-name="uni0431" unicode="&#x431;" horiz-adv-x="586" 
d="M269 95c84 0 149 73 149 197c0 71 -33 114 -98 114c-99 0 -165 -84 -165 -191c0 -80 43 -120 114 -120zM352 506c117 0 204 -71 204 -210c0 -177 -125 -309 -293 -309c-139 0 -239 78 -239 225c0 29 4 58 11 93l8 38c45 215 126 345 362 366l192 19l-24 -115l-172 -19
c-142 -13 -189 -47 -231 -169c45 59 118 81 182 81z" />
    <glyph glyph-name="uni0432" unicode="&#x432;" horiz-adv-x="592" 
d="M295 0h-287l114 538h235c143 0 210 -45 210 -129c0 -64 -48 -110 -94 -129c39 -19 70 -51 70 -99c0 -128 -101 -181 -248 -181zM190 231l-27 -126h139c80 0 102 36 102 73c0 39 -29 53 -86 53h-128zM233 433l-23 -112h130c69 0 87 31 87 66c0 31 -28 46 -84 46h-110z" />
    <glyph glyph-name="uni0433" unicode="&#x433;" horiz-adv-x="457" 
d="M146 0h-138l114 538h379l-24 -109h-241z" />
    <glyph glyph-name="uni0434" unicode="&#x434;" horiz-adv-x="626" 
d="M58 -125h-130l48 234h31c43 0 89 66 134 234l53 195h403l-91 -429h81l-48 -234h-130l26 125h-351zM152 109h216l67 320h-146l-23 -84c-32 -115 -58 -187 -114 -236z" />
    <glyph glyph-name="uni0435" unicode="&#x435;" horiz-adv-x="590" 
d="M406 172h133c-51 -128 -167 -185 -281 -185c-156 0 -236 104 -236 225c0 168 110 338 321 338c166 0 262 -130 209 -314h-394c-1 -5 -1 -9 -1 -14v-12c0 -68 37 -115 116 -115c56 0 108 21 133 77zM331 447c-50 0 -123 -17 -150 -118h253c8 84 -38 118 -103 118z" />
    <glyph glyph-name="uni0451" unicode="&#x451;" horiz-adv-x="590" 
d="M208 725h115l-25 -119h-114zM448 725h115l-25 -119h-115zM406 172h133c-51 -128 -167 -185 -281 -185c-156 0 -236 104 -236 225c0 168 110 338 321 338c166 0 262 -130 209 -314h-394c-1 -5 -1 -9 -1 -14v-12c0 -68 37 -115 116 -115c56 0 108 21 133 77zM331 447
c-50 0 -123 -17 -150 -118h253c8 84 -38 118 -103 118z" />
    <glyph glyph-name="uni0436" unicode="&#x436;" horiz-adv-x="816" 
d="M118 0h-176l241 293l-122 245h145l122 -252h2l54 252h138l-54 -252h1l208 252h166l-234 -264l133 -274h-152l-123 273h-1l-58 -273h-138l58 273h-1z" />
    <glyph glyph-name="uni0437" unicode="&#x437;" horiz-adv-x="553" 
d="M252 -13c-115 0 -241 57 -241 194l138 -1c0 -51 47 -85 120 -85c77 0 108 30 108 74c0 36 -24 60 -92 60h-86l21 95h87c59 0 84 26 84 66c0 39 -29 58 -84 58c-56 0 -100 -23 -123 -83l-132 1c40 133 139 187 271 187c128 -1 204 -63 205 -147c0 -52 -35 -105 -94 -125
c52 -23 78 -59 77 -107c0 -111 -107 -187 -259 -187z" />
    <glyph glyph-name="uni0438" unicode="&#x438;" horiz-adv-x="630" 
d="M146 0h-138l114 538h138l-78 -354l300 354h140l-114 -538h-138l75 351z" />
    <glyph glyph-name="uni0439" unicode="&#x439;" horiz-adv-x="630" 
d="M375 595c-108 0 -162 48 -162 111v9c0 3 0 7 1 10h90c0 -3 -1 -6 -1 -9c0 -28 25 -50 78 -50c48 0 89 10 94 59h98c-19 -84 -78 -130 -198 -130zM146 0h-138l114 538h138l-78 -354l300 354h140l-114 -538h-138l75 351z" />
    <glyph glyph-name="uni043A" unicode="&#x43a;" horiz-adv-x="577" 
d="M147 0h-139l114 538h139l-56 -261h1l225 261h162l-241 -270l149 -268h-151l-146 264h-1z" />
    <glyph glyph-name="uni043B" unicode="&#x43b;" horiz-adv-x="603" 
d="M-9 0h-30l22 109h13c44 0 102 46 158 251l49 178h392l-114 -538h-138l90 429h-133l-22 -84c-67 -245 -153 -345 -287 -345z" />
    <glyph glyph-name="uni043C" unicode="&#x43c;" horiz-adv-x="781" 
d="M140 0h-132l114 538h193l50 -371l197 371h211l-114 -538h-132l90 426l-235 -426h-97l-55 426z" />
    <glyph glyph-name="uni043D" unicode="&#x43d;" horiz-adv-x="630" 
d="M146 0h-138l114 538h138l-44 -208h224l44 208h138l-114 -538h-138l46 221h-224z" />
    <glyph glyph-name="uni043E" unicode="&#x43e;" horiz-adv-x="584" 
d="M323 442c-98 0 -161 -103 -161 -223c0 -69 25 -124 100 -124c99 0 162 103 162 223c0 69 -25 124 -101 124zM338 550c137 0 225 -77 225 -226c0 -157 -101 -337 -315 -337c-137 0 -225 77 -225 226c0 157 101 337 315 337z" />
    <glyph glyph-name="uni043F" unicode="&#x43f;" horiz-adv-x="611" 
d="M146 0h-138l114 538h481l-114 -538h-138l90 429h-205z" />
    <glyph glyph-name="uni0440" unicode="&#x440;" horiz-adv-x="607" 
d="M257 538l-11 -58c37 47 97 70 157 70c132 0 184 -102 184 -212c0 -155 -87 -351 -285 -351c-73 0 -120 36 -141 81l-52 -243h-138l152 713h134zM194 231c0 -72 19 -138 95 -138c119 0 157 138 157 229c0 76 -26 122 -93 122c-101 0 -159 -114 -159 -213z" />
    <glyph glyph-name="uni0441" unicode="&#x441;" horiz-adv-x="571" 
d="M559 342h-130c0 51 -32 100 -104 100c-97 0 -158 -90 -161 -202c-4 -99 37 -145 105 -145c60 0 114 33 137 97h131c-46 -153 -173 -205 -279 -205c-157 0 -240 105 -235 238c5 179 124 325 313 325c128 0 218 -80 223 -208z" />
    <glyph glyph-name="uni0442" unicode="&#x442;" horiz-adv-x="488" 
d="M259 0h-138l90 429h-170l24 109h477l-24 -109h-169z" />
    <glyph glyph-name="uni0443" unicode="&#x443;" horiz-adv-x="524" 
d="M20 -175h-57l23 108h53c43 0 66 10 94 57l9 15l-85 533h136l55 -390l190 390h143l-283 -522c-85 -159 -125 -191 -278 -191z" />
    <glyph glyph-name="uni0444" unicode="&#x444;" horiz-adv-x="736" 
d="M340 -175h-128l34 168c-124 0 -224 80 -224 221c0 203 161 324 340 324l38 187h128l-38 -187c124 0 223 -87 223 -225c0 -209 -166 -320 -339 -320zM270 100l68 331c-109 0 -178 -96 -178 -211c0 -91 56 -120 110 -120zM466 431l-68 -331c112 0 175 74 175 206
c0 90 -48 125 -107 125z" />
    <glyph glyph-name="uni0445" unicode="&#x445;" horiz-adv-x="562" 
d="M600 538l-246 -266l131 -272h-149l-80 166l-154 -166h-159l258 280l-123 258h148l73 -152l141 152h160z" />
    <glyph glyph-name="uni0446" unicode="&#x446;" horiz-adv-x="615" 
d="M528 -125h-130l26 125h-416l114 538h138l-92 -429h187l92 429h138l-92 -435h83z" />
    <glyph glyph-name="uni0447" unicode="&#x447;" horiz-adv-x="566" 
d="M444 0h-138l42 201c-47 -12 -90 -20 -139 -20c-93 0 -157 47 -157 139c0 19 3 37 8 58l34 160h138l-34 -161c-3 -13 -4 -25 -4 -34c0 -40 25 -53 82 -53c27 0 59 4 94 13l50 235h138z" />
    <glyph glyph-name="uni0448" unicode="&#x448;" horiz-adv-x="864" 
d="M742 0h-734l114 538h138l-92 -429h160l92 429h138l-92 -429h160l92 429h138z" />
    <glyph glyph-name="uni0449" unicode="&#x449;" horiz-adv-x="886" 
d="M799 -125h-130l26 125h-687l114 538h138l-92 -429h160l92 429h138l-92 -429h160l92 429h138l-92 -435h83z" />
    <glyph glyph-name="uni044A" unicode="&#x44a;" horiz-adv-x="616" 
d="M326 0h-229l91 439h-145l24 99h277l-38 -175h61c147 0 207 -63 207 -156c0 -124 -72 -207 -248 -207zM284 258l-32 -153h75c71 0 111 30 111 94c0 39 -21 59 -82 59h-72z" />
    <glyph glyph-name="uni044B" unicode="&#x44b;" horiz-adv-x="777" 
d="M235 0h-227l114 538h138l-38 -175h54c147 0 207 -63 207 -156c0 -124 -72 -207 -248 -207zM201 258l-33 -153h68c71 0 111 30 111 94c0 39 -20 59 -81 59h-65zM655 0h-139l114 538h139z" />
    <glyph glyph-name="uni044C" unicode="&#x44c;" horiz-adv-x="544" 
d="M254 0h-246l114 538h138l-38 -175h73c147 0 207 -63 207 -156c0 -124 -72 -207 -248 -207zM201 258l-33 -153h87c71 0 111 30 111 94c0 39 -20 59 -81 59h-84z" />
    <glyph glyph-name="uni044D" unicode="&#x44d;" horiz-adv-x="582" 
d="M246 -15c-111 0 -228 55 -231 204h125c3 -59 38 -98 110 -99c64 0 138 36 160 125h-207l20 103h204c0 84 -31 129 -118 129c-59 0 -124 -32 -142 -103h-125c40 139 163 207 275 207c156 0 239 -93 239 -229c0 -172 -92 -337 -310 -337z" />
    <glyph glyph-name="uni044E" unicode="&#x44e;" horiz-adv-x="829" 
d="M498 -13c-129 0 -212 77 -212 226v8h-94l-46 -221h-138l114 538h138l-44 -208h88c35 117 130 220 284 220c135 0 220 -77 220 -226c0 -157 -99 -337 -310 -337zM512 95c96 0 157 103 157 223c0 69 -24 124 -96 124c-90 0 -148 -103 -148 -223c0 -69 22 -124 87 -124z" />
    <glyph glyph-name="uni044F" unicode="&#x44f;" horiz-adv-x="575" 
d="M126 0h-158l175 225c-47 32 -68 71 -69 127c0 102 80 186 237 186h256l-114 -538h-138l38 177h-94zM294 285h81l30 145h-102c-68 0 -100 -40 -100 -79s28 -66 91 -66z" />
    <glyph glyph-name="uni0452" unicode="&#x452;" horiz-adv-x="608" 
d="M292 -175h-47l19 100h24c64 0 79 13 89 71l37 174c4 19 7 38 7 55c0 43 -16 71 -71 71c-91 0 -129 -77 -148 -161l-29 -135h-138l99 474h-83l22 104h83l31 147h138l-30 -147h173l-22 -104h-173l-29 -142c33 40 87 75 162 75c99 0 157 -46 157 -150c0 -24 -3 -49 -9 -76
l-40 -187c-32 -152 -79 -169 -222 -169z" />
    <glyph glyph-name="uni0453" unicode="&#x453;" horiz-adv-x="457" 
d="M538 725l-172 -127h-109l124 127h157zM146 0h-138l114 538h379l-24 -109h-241z" />
    <glyph glyph-name="uni0454" unicode="&#x454;" horiz-adv-x="578" 
d="M270 -13c-168 0 -247 93 -247 226c0 179 122 340 314 340c114 0 233 -62 233 -207h-129c0 67 -44 102 -109 102s-133 -40 -154 -128h203l-22 -103h-196c0 -85 44 -125 115 -125c72 0 122 43 137 99h129c-45 -140 -163 -204 -274 -204z" />
    <glyph glyph-name="uni0455" unicode="&#x455;" horiz-adv-x="535" 
d="M508 373h-128c-3 65 -62 79 -114 79c-48 0 -89 -16 -89 -51c0 -31 29 -48 70 -59l60 -16c108 -30 181 -69 181 -165c0 -118 -120 -174 -233 -174c-127 0 -249 66 -249 202h128c0 -68 48 -103 117 -103c39 0 102 14 102 62c0 39 -37 57 -84 70l-68 18
c-95 27 -152 69 -152 158c0 109 114 156 222 156c104 0 229 -52 237 -177z" />
    <glyph glyph-name="uni0456" unicode="&#x456;" horiz-adv-x="268" 
d="M122 538h138l-114 -538h-138zM162 725h138l-27 -128h-138z" />
    <glyph glyph-name="uni0457" unicode="&#x457;" horiz-adv-x="268" 
d="M53 725h115l-25 -119h-114zM293 725h115l-25 -119h-115zM122 538h138l-114 -538h-138z" />
    <glyph glyph-name="uni0458" unicode="&#x458;" horiz-adv-x="268" 
d="M8 -4l114 542h138l-115 -544c-32 -152 -79 -169 -222 -169h-47l19 100h24c64 0 79 13 89 71zM162 725h138l-27 -128h-138z" />
    <glyph glyph-name="uni0459" unicode="&#x459;" horiz-adv-x="851" 
d="M-9 0h-30l22 109h13c44 0 102 46 158 251l49 178h383l-38 -175h54c147 0 207 -63 207 -156c0 -124 -72 -207 -248 -207h-228l90 429h-123l-22 -84c-67 -245 -153 -345 -287 -345zM526 258l-32 -153h68c71 0 111 30 111 94c0 39 -21 59 -82 59h-65z" />
    <glyph glyph-name="uni045A" unicode="&#x45a;" horiz-adv-x="877" 
d="M146 0h-138l114 538h138l-44 -208h214l44 208h138l-37 -175h53c147 0 207 -63 207 -156c0 -124 -72 -207 -248 -207h-227l46 221h-214zM552 258l-31 -153h67c71 0 111 30 111 94c0 39 -21 59 -82 59h-65z" />
    <glyph glyph-name="uni045B" unicode="&#x45b;" horiz-adv-x="608" 
d="M173 0h-138l99 474h-83l22 104h83l31 147h138l-30 -147h173l-22 -104h-173l-29 -142c33 40 87 75 162 75c99 0 157 -46 157 -150c0 -24 -3 -49 -9 -76l-39 -181h-138l37 170c4 19 7 38 7 55c0 43 -16 71 -71 71c-91 0 -129 -77 -148 -161z" />
    <glyph glyph-name="uni045C" unicode="&#x45c;" horiz-adv-x="577" 
d="M550 725l-172 -127h-109l124 127h157zM147 0h-139l114 538h139l-56 -261h1l225 261h162l-241 -270l149 -268h-151l-146 264h-1z" />
    <glyph glyph-name="uni045E" unicode="&#x45e;" horiz-adv-x="524" 
d="M324 595c-108 0 -162 48 -162 111v9c0 3 0 7 1 10h90c0 -3 -1 -6 -1 -9c0 -28 25 -50 78 -50c48 0 89 10 94 59h98c-19 -84 -78 -130 -198 -130zM20 -175h-57l23 108h53c43 0 66 10 94 57l9 15l-85 533h136l55 -390l190 390h143l-283 -522c-85 -159 -125 -191 -278 -191z
" />
    <glyph glyph-name="uni045F" unicode="&#x45f;" horiz-adv-x="594" 
d="M274 -125h-120l26 125h-172l114 538h138l-92 -429h188l92 429h138l-114 -538h-172z" />
    <glyph glyph-name="uni0491" unicode="&#x491;" horiz-adv-x="456" 
d="M146 0h-138l114 538h249l24 123h130l-48 -232h-241z" />
    <glyph glyph-name="uni0463" unicode="&#x463;" horiz-adv-x="583" 
d="M295 0h-250l100 474h-94l22 104h94l30 147h138l-30 -147h150l-22 -104h-150l-24 -108h77c141 0 205 -53 205 -160c0 -143 -97 -206 -246 -206zM237 258l-32 -150h91c84 0 107 39 107 90c0 47 -30 60 -86 60h-80z" />
    <glyph glyph-name="uni0473" unicode="&#x473;" horiz-adv-x="609" 
d="M274 -13c-145 0 -250 78 -250 230c0 203 143 336 314 336c145 0 250 -78 250 -227c0 -205 -142 -339 -314 -339zM181 318h265c1 3 1 7 1 10v10c0 72 -50 106 -114 106c-63 0 -131 -35 -152 -126zM279 95c65 0 129 37 150 124h-264c0 -5 -1 -10 -1 -15
c0 -72 48 -109 115 -109z" />
    <glyph glyph-name="uni0475" unicode="&#x475;" horiz-adv-x="544" 
d="M278 0h-136l-85 538h132l52 -371l115 226c59 115 106 145 211 145h34l-24 -109h-12c-44 0 -61 -15 -96 -82z" />
    <glyph glyph-name="uni0493" unicode="&#x493;" horiz-adv-x="474" 
d="M163 0h-138l46 220h-63l24 109h63l44 209h379l-24 -109h-241l-20 -100h149l-24 -109h-149z" />
    <glyph glyph-name="uni0497" unicode="&#x497;" horiz-adv-x="826" 
d="M734 -125h-120l26 125h-50l-123 273h-1l-58 -273h-138l58 273h-1l-219 -273h-166l242 285l-123 253h145l123 -252h1l54 252h138l-54 -252h1l208 252h161l-229 -264l79 -165h94z" />
    <glyph glyph-name="uni049B" unicode="&#x49b;" horiz-adv-x="586" 
d="M494 -125h-120l26 125h-50l-146 264h-1l-56 -264h-139l119 538h139l-61 -261h1l225 261h162l-241 -270l90 -161h100z" />
    <glyph glyph-name="uni04A3" unicode="&#x4a3;" horiz-adv-x="642" 
d="M555 -125h-120l26 125h-100l46 221h-215l-46 -221h-138l114 538h138l-44 -208h215l44 208h138l-92 -429h82z" />
    <glyph glyph-name="uni04AF" unicode="&#x4af;" horiz-adv-x="547" 
d="M252 -175h-138l30 151l-87 562h134l55 -398l207 398h151l-320 -556z" />
    <glyph glyph-name="uni04B1" unicode="&#x4b1;" horiz-adv-x="547" 
d="M252 -175h-138l19 94h-104l24 109h83l-79 510h134l55 -398l207 398h151l-294 -510h84l-24 -109h-99z" />
    <glyph glyph-name="uni04B3" unicode="&#x4b3;" horiz-adv-x="582" 
d="M490 -125h-120l26 125h-60l-80 166l-154 -166h-159l258 280l-123 258h148l73 -152l141 152h160l-246 -266l79 -163h105z" />
    <glyph glyph-name="uni04B7" unicode="&#x4b7;" horiz-adv-x="591" 
d="M504 -125h-120l26 125h-104l42 201c-47 -12 -90 -20 -139 -20c-93 0 -157 47 -157 139c0 19 3 37 8 58l34 160h138l-34 -161c-3 -13 -4 -25 -4 -34c0 -40 25 -53 82 -53c27 0 59 4 94 13l50 235h138l-91 -429h85z" />
    <glyph glyph-name="uni04BB" unicode="&#x4bb;" horiz-adv-x="600" 
d="M300 725l-53 -250c33 40 87 75 162 75c97 0 156 -46 156 -149c0 -23 -3 -49 -9 -77l-69 -324h-138l67 313c4 20 7 39 7 56c0 41 -15 70 -70 70c-90 0 -129 -76 -148 -161l-59 -278h-138l154 725h138z" />
    <glyph glyph-name="uni04CF" unicode="&#x4cf;" horiz-adv-x="268" 
d="M300 725l-154 -725h-138l154 725h138z" />
    <glyph glyph-name="uni04D9" unicode="&#x4d9;" horiz-adv-x="592" 
d="M264 -13c-137 0 -232 77 -232 221c0 35 5 65 13 98h390c2 12 3 23 3 33c0 63 -40 104 -115 104c-44 0 -90 -14 -114 -62h-142c34 95 119 169 267 169c157 0 235 -106 235 -232c0 -180 -108 -331 -305 -331zM269 88c77 0 135 39 150 123h-254c-2 -11 -3 -21 -3 -30
c0 -68 55 -93 107 -93z" />
    <glyph glyph-name="uni04E3" unicode="&#x4e3;" horiz-adv-x="630" 
d="M146 0h-138l114 538h138l-78 -354l300 354h140l-114 -538h-138l75 351zM223 611l20 95h314l-21 -95h-313z" />
    <glyph glyph-name="uni04E9" unicode="&#x4e9;" horiz-adv-x="609" 
d="M274 -13c-145 0 -250 78 -250 230c0 203 143 336 314 336c145 0 250 -78 250 -227c0 -205 -142 -339 -314 -339zM181 318h265c1 3 1 7 1 10v10c0 72 -50 106 -114 106c-63 0 -131 -35 -152 -126zM279 95c65 0 129 37 150 124h-264c0 -5 -1 -10 -1 -15
c0 -72 48 -109 115 -109z" />
    <glyph glyph-name="uni04EF" unicode="&#x4ef;" horiz-adv-x="524" 
d="M164 611l20 95h314l-21 -95h-313zM20 -175h-57l23 108h53c43 0 66 10 94 57l9 15l-85 533h136l55 -390l190 390h143l-283 -522c-85 -159 -125 -191 -278 -191z" />
    <glyph glyph-name="uni0414.locl" horiz-adv-x="778" 
d="M74 -148h-135l56 265h79l341 608h155l87 -608h76l-56 -265h-135l32 149h-468zM458 546l-232 -429h286z" />
    <glyph glyph-name="uni041B.locl" horiz-adv-x="655" 
d="M98 0h-155l401 725h155l99 -725h-148l-63 546z" />
    <glyph glyph-name="uni0432.locl" horiz-adv-x="561" 
d="M273 -12h-30c-112 0 -193 58 -193 160c0 19 3 31 7 51l61 319c32 159 120 217 241 217c123 0 194 -74 194 -165c0 -72 -44 -128 -100 -163c48 -23 84 -66 84 -151c0 -139 -91 -268 -264 -268zM265 83c97 0 126 88 126 177c0 69 -16 90 -71 90h-97l-33 -158
c-3 -12 -4 -22 -4 -33c0 -49 19 -76 79 -76zM261 549l-20 -104h85c74 0 91 61 91 118c0 43 -21 73 -68 73s-76 -29 -88 -87z" />
    <glyph glyph-name="uni0433.locl" horiz-adv-x="506" 
d="M228 -13c-143 0 -209 63 -212 154c-5 86 73 136 180 165l104 30c55 16 64 36 63 64c-1 35 -34 51 -85 51c-64 0 -89 -22 -109 -67h-117c24 117 116 167 236 167c121 0 195 -55 198 -146c3 -92 -60 -137 -172 -166l-73 -21c-79 -20 -100 -44 -99 -76s32 -55 89 -55
c68 0 100 20 121 84h120c-21 -121 -111 -184 -244 -184z" />
    <glyph glyph-name="uni0434.locl" horiz-adv-x="614" 
d="M423 329c0 72 -28 119 -95 119c-117 0 -156 -136 -156 -220c0 -73 27 -117 92 -117c119 0 159 139 159 218zM456 472l14 66h138l-101 -476c-37 -181 -123 -250 -282 -250c-115 0 -207 41 -220 172h125c5 -40 36 -67 104 -67c71 0 107 32 127 125l6 25
c-37 -39 -97 -58 -152 -58c-132 0 -184 98 -184 204c0 148 87 337 284 337c73 0 120 -35 141 -78z" />
    <glyph glyph-name="uni0436.locl" horiz-adv-x="816" 
d="M118 0h-176l241 293l-122 245h145l122 -252h2l94 439h138l-94 -439h1l208 252h166l-234 -264l133 -274h-152l-123 273h-1l-58 -273h-138l58 273h-1z" />
    <glyph glyph-name="uni0437.locl" horiz-adv-x="491" 
d="M200 -177c-115 0 -220 50 -231 194h126c0 -60 45 -96 118 -96c68 0 110 45 110 125c0 47 -25 96 -105 96h-56l22 109h58c65 0 107 50 107 118c0 57 -34 77 -75 78c-45 1 -88 -26 -104 -89h-124c29 135 132 195 237 195c114 0 178 -70 178 -165c0 -92 -44 -156 -120 -192
c59 -19 106 -79 106 -140c0 -133 -90 -233 -247 -233z" />
    <glyph glyph-name="uni0438.locl" horiz-adv-x="591" 
d="M331 0l13 63c-33 -40 -85 -76 -160 -76c-96 0 -155 46 -155 149c0 23 3 49 9 78l69 324h138l-66 -313c-4 -21 -7 -39 -7 -58c0 -40 16 -69 68 -69c91 0 128 78 146 162l59 278h138l-114 -538h-138z" />
    <glyph glyph-name="_475" horiz-adv-x="591" 
d="M346 595c-108 0 -162 48 -162 111v9c0 3 0 7 1 10h90c0 -3 -1 -6 -1 -9c0 -28 25 -50 78 -50c48 0 89 10 94 59h98c-19 -84 -78 -130 -198 -130zM331 0l13 63c-33 -40 -85 -76 -160 -76c-96 0 -155 46 -155 149c0 23 3 49 9 78l69 324h138l-66 -313c-4 -21 -7 -39 -7 -58
c0 -40 16 -69 68 -69c91 0 128 78 146 162l59 278h138l-114 -538h-138z" />
    <glyph glyph-name="uni043A.locl" horiz-adv-x="577" 
d="M147 0h-139l154 725h139l-96 -448h1l225 261h162l-241 -270l149 -268h-151l-146 264h-1z" />
    <glyph glyph-name="uni043B.locl" horiz-adv-x="518" 
d="M88 0h-145l297 538h136l85 -538h-132l-52 371z" />
    <glyph glyph-name="_478" horiz-adv-x="601" 
d="M122 538h138l-13 -63c33 40 87 75 162 75c99 0 157 -46 157 -150c0 -23 -3 -48 -9 -76l-69 -324h-138l67 313c4 20 7 38 7 55c0 43 -16 71 -71 71c-90 0 -129 -76 -148 -161l-59 -278h-138z" />
    <glyph glyph-name="_479" horiz-adv-x="921" 
d="M414 550c87 0 122 -42 135 -82c53 56 105 82 185 82c96 0 151 -45 151 -145c0 -25 -3 -52 -10 -81l-69 -324h-137l67 313c4 21 8 41 8 60c0 39 -15 66 -68 66c-93 0 -121 -75 -139 -157l-60 -282h-138l67 313c4 21 8 41 8 60c0 39 -15 66 -67 66
c-92 0 -125 -75 -141 -157l-60 -282h-138l114 538h138l-13 -63c41 51 100 75 167 75z" />
    <glyph glyph-name="_480" horiz-adv-x="633" 
d="M544 -125h-130l26 125c-47 0 -82 26 -87 75c-35 -51 -92 -88 -169 -88c-96 0 -155 46 -155 149c0 23 3 49 9 78l69 324h138l-66 -313c-4 -21 -7 -39 -7 -58c0 -40 16 -69 68 -69c91 0 128 78 146 162l59 278h138l-78 -368c-11 -51 2 -71 63 -71h22z" />
    <glyph glyph-name="_481" horiz-adv-x="915" 
d="M180 -13c-92 0 -151 46 -151 149c0 23 3 49 9 78l69 324h138l-66 -313c-4 -21 -7 -39 -7 -58c0 -40 16 -69 64 -69c82 0 122 69 140 148l62 292h138l-66 -313c-4 -21 -7 -39 -7 -58c0 -40 16 -69 64 -69c87 0 125 78 143 162l59 278h138l-114 -538h-138l13 63
c-33 -40 -85 -76 -157 -76c-76 0 -129 31 -145 99c-35 -46 -97 -99 -186 -99z" />
    <glyph glyph-name="_482" horiz-adv-x="957" 
d="M868 -125h-130l26 125c-47 0 -82 26 -87 75c-33 -51 -94 -88 -166 -88c-76 0 -129 31 -145 99c-35 -46 -97 -99 -186 -99c-92 0 -151 46 -151 149c0 23 3 49 9 78l69 324h138l-66 -313c-4 -21 -7 -39 -7 -58c0 -40 16 -69 64 -69c82 0 122 69 140 148l62 292h138
l-66 -313c-4 -21 -7 -39 -7 -58c0 -40 16 -69 64 -69c87 0 125 78 143 162l59 278h138l-78 -368c-11 -51 2 -71 63 -71h22z" />
    <glyph glyph-name="uni044E.locl" horiz-adv-x="829" 
d="M498 -13c-129 0 -212 77 -212 226v8h-94l-46 -221h-138l154 725h138l-84 -395h88c35 117 130 220 284 220c135 0 220 -77 220 -226c0 -157 -99 -337 -310 -337zM512 95c96 0 157 103 157 223c0 69 -24 124 -96 124c-90 0 -148 -103 -148 -223c0 -69 22 -124 87 -124z" />
    <glyph glyph-name="_484" horiz-adv-x="543" 
d="M238 -11c-113 0 -197 48 -197 145c0 16 3 33 7 52l74 352h138l-38 -175h76c143 0 203 -64 203 -164c0 -114 -74 -210 -263 -210zM249 96c76 0 114 40 114 96c0 49 -29 63 -77 63h-86l-14 -69c-3 -11 -4 -21 -4 -32c0 -41 20 -58 67 -58z" />
    <glyph glyph-name="_485" horiz-adv-x="623" 
d="M318 -11c-106 0 -197 48 -197 145c0 16 3 33 7 52l53 253h-138l22 99h275l-38 -175h76c143 0 203 -64 203 -164c0 -114 -74 -210 -263 -210zM329 96c76 0 114 40 114 96c0 49 -29 63 -77 63h-86l-14 -69c-3 -11 -4 -21 -4 -32c0 -41 27 -58 67 -58z" />
    <glyph glyph-name="uni0431.locl" horiz-adv-x="568" 
d="M258 -13c-124 0 -240 58 -240 216c0 129 92 241 173 271c-39 23 -72 53 -72 104c0 92 50 147 187 147c203 0 236 1 280 9l-22 -109c-38 -8 -111 -9 -258 -9c-43 0 -75 -12 -75 -49c0 -19 15 -61 81 -61h4c124 0 236 -63 236 -212c0 -188 -135 -307 -294 -307zM261 95
c92 0 150 78 150 194c0 71 -41 113 -101 112c-101 -3 -152 -88 -152 -191c0 -69 36 -115 103 -115z" />
    <glyph glyph-name="_487" horiz-adv-x="268" 
d="M122 538h138l-114 -538h-138zM51 611l20 95h314l-21 -95h-313z" />
    <glyph glyph-name="_488" horiz-adv-x="592" 
d="M423 329c0 72 -28 119 -95 119c-117 0 -156 -136 -156 -220c0 -73 27 -117 92 -117c119 0 159 139 159 218zM456 472l14 66h138l-101 -476c-37 -181 -123 -250 -282 -250c-115 0 -207 41 -220 172h125c5 -40 36 -67 104 -67c71 0 107 32 127 125l6 25
c-37 -39 -97 -58 -152 -58c-132 0 -184 98 -184 204c0 148 87 337 284 337c73 0 120 -35 141 -78z" />
    <glyph glyph-name="uni043F.locl" horiz-adv-x="591" 
d="M331 0l13 63c-33 -40 -85 -76 -160 -76c-96 0 -155 46 -155 149c0 23 3 49 9 78l69 324h138l-66 -313c-4 -21 -7 -39 -7 -58c0 -40 16 -69 68 -69c91 0 128 78 146 162l59 278h138l-114 -538h-138zM205 611l20 95h314l-21 -95h-313z" />
    <glyph glyph-name="uni0442.locl" horiz-adv-x="914" 
d="M180 -12c-96 0 -151 45 -151 145c0 25 3 52 10 81l69 324h137l-67 -313c-4 -21 -8 -41 -8 -60c0 -39 15 -66 68 -66c92 0 120 74 139 157l60 282h138l-67 -313c-4 -21 -8 -41 -8 -60c0 -39 15 -66 67 -66c92 0 125 74 141 157l60 282h138l-114 -538h-138l13 63
c-41 -51 -100 -75 -167 -75c-88 0 -122 42 -135 82c-53 -56 -105 -82 -185 -82zM815 614h-583l20 92h584z" />
    <glyph glyph-name="uniF6D4" unicode="&#xf6d4;" horiz-adv-x="427" 
d="M202 595c-108 0 -162 48 -162 111v9c0 3 0 7 1 10h90c0 -3 -1 -6 -1 -9c0 -28 25 -50 78 -50c48 0 89 10 94 59h98c-19 -84 -78 -130 -198 -130z" />
    <glyph glyph-name="uniF6D1" unicode="&#xf6d1;" horiz-adv-x="481" 
d="M230 749c-117 0 -172 53 -172 129v8h90v-4c0 -29 25 -62 89 -62c68 0 98 31 102 66h98c-20 -81 -84 -137 -207 -137z" />
    <glyph glyph-name="uni20BD" unicode="&#x20bd;" horiz-adv-x="717" 
d="M231 0h-143l21 116h-87l19 75h88l13 64h-88l25 115h88l75 355h222c191 0 284 -61 284 -206c0 -190 -149 -264 -354 -264h-109l-14 -64h204l-20 -75h-203zM360 609l-50 -239h99c98 0 186 21 186 138c0 88 -79 101 -147 101h-88z" />
    <glyph glyph-name="uni20B4" unicode="&#x20b4;" horiz-adv-x="650" 
d="M302 -13c-144 0 -258 70 -242 212c3 21 5 43 16 63h-63l16 76h618l-16 -76h-400c-17 -15 -27 -33 -30 -60c-5 -81 58 -102 117 -102c75 0 125 34 144 114h137c-19 -126 -144 -227 -297 -227zM658 391h-618l16 76h411c23 15 36 36 39 67c4 65 -40 88 -104 88
c-62 0 -135 -41 -151 -96h-139c21 108 139 212 301 212c147 0 243 -74 235 -190c-2 -29 -11 -56 -28 -81h54z" />
    <glyph glyph-name="pi" unicode="&#x3c0;" horiz-adv-x="673" 
d="M175 0h-125l90 416h-85l26 121h610l-26 -121h-85l-52 -243c-4 -17 -6 -30 -6 -39c0 -19 9 -24 40 -24h38l-24 -110h-54c-93 0 -132 15 -132 84c0 21 3 47 10 76l56 256h-191z" />
    <glyph glyph-name="mu" unicode="&#xb5;" horiz-adv-x="591" 
d="M119 538h124l-59 -279c-5 -25 -8 -47 -8 -66c0 -57 21 -99 81 -99c80 0 125 79 144 165l59 279h124l-114 -538h-124l12 58c-43 -53 -83 -64 -122 -64c-36 0 -75 11 -96 64l-25 -119c-12 -56 -21 -83 -30 -114h-123c11 31 18 61 25 92z" />
    <glyph glyph-name="mu" unicode="&#x3bc;" horiz-adv-x="591" 
d="M119 538h124l-59 -279c-5 -25 -8 -47 -8 -66c0 -57 21 -99 81 -99c80 0 125 79 144 165l59 279h124l-114 -538h-124l12 58c-43 -53 -83 -64 -122 -64c-36 0 -75 11 -96 64l-25 -119c-12 -56 -21 -83 -30 -114h-123c11 31 18 61 25 92z" />
    <glyph glyph-name="ellipsis" unicode="&#x2026;" horiz-adv-x="819" 
d="M699 0h-148l31 150h148zM426 0h-148l31 150h148zM153 0h-148l31 150h148z" />
    <glyph glyph-name="endash" unicode="&#x2013;" horiz-adv-x="532" 
d="M476 207h-448l25 120h447z" />
    <glyph glyph-name="emdash" unicode="&#x2014;" horiz-adv-x="749" 
d="M692 207h-664l25 120h664z" />
    <glyph glyph-name="guilsinglleft" unicode="&#x2039;" horiz-adv-x="317" 
d="M124 43l-116 230l202 229h129l-173 -229l75 -230h-117z" />
    <glyph glyph-name="guilsinglright" unicode="&#x203a;" horiz-adv-x="317" 
d="M303 273l-203 -230h-127l172 230l-64 229h112z" />
    <glyph glyph-name="quoteleft" unicode="&#x2018;" horiz-adv-x="273" 
d="M272 563l-32 -150h-147l34 161l106 151h79l-109 -162h69z" />
    <glyph glyph-name="quoteright" unicode="&#x2019;" horiz-adv-x="273" 
d="M127 575l32 150h147l-34 -161l-106 -151h-79l109 162h-69z" />
    <glyph glyph-name="quotedblleft" unicode="&#x201c;" horiz-adv-x="471" 
d="M470 563l-32 -150h-147l34 161l106 151h79l-109 -162h69zM272 563l-32 -150h-147l34 161l106 151h79l-109 -162h69z" />
    <glyph glyph-name="quotedblright" unicode="&#x201d;" horiz-adv-x="471" 
d="M325 575l32 150h147l-34 -161l-106 -151h-79l109 162h-69zM127 575l32 150h147l-34 -161l-106 -151h-79l109 162h-69z" />
    <glyph glyph-name="quotesinglbase" unicode="&#x201a;" horiz-adv-x="273" 
d="M5 0l32 150h147l-34 -161l-106 -151h-79l109 162h-69z" />
    <glyph glyph-name="quotedblbase" unicode="&#x201e;" horiz-adv-x="471" 
d="M203 0l32 150h147l-34 -161l-106 -151h-79l109 162h-69zM5 0l32 150h147l-34 -161l-106 -151h-79l109 162h-69z" />
    <glyph glyph-name="bullet" unicode="&#x2022;" horiz-adv-x="440" 
d="M214 96c-96 0 -176 79 -176 183c0 98 80 177 176 177c105 0 184 -79 184 -177c0 -104 -79 -183 -184 -183z" />
    <glyph glyph-name="dagger" unicode="&#x2020;" horiz-adv-x="598" 
d="M296 0h-125l84 397h-216l26 121h216l44 207h125l-44 -207h215l-26 -121h-215z" />
    <glyph glyph-name="daggerdbl" unicode="&#x2021;" horiz-adv-x="602" 
d="M285 0h-125l39 181h-215l24 120h217l28 128h-216l24 121h217l37 175h125l-37 -175h215l-25 -121h-215l-28 -128h214l-25 -120h-215z" />
    <glyph glyph-name="perthousand" unicode="&#x2030;" horiz-adv-x="1401" 
d="M1114 169c0 -64 24 -105 69 -105c74 0 91 113 91 174c0 64 -24 107 -68 107c-74 0 -92 -112 -92 -176zM1372 239c0 -120 -48 -246 -195 -246c-110 0 -161 72 -161 175c0 120 49 247 193 247c112 0 163 -73 163 -176zM167 486c0 -64 24 -105 69 -105c74 0 91 113 91 174
c0 64 -24 107 -68 107c-74 0 -92 -112 -92 -176zM425 556c0 -120 -48 -246 -195 -246c-110 0 -161 72 -161 175c0 120 49 247 193 247c112 0 163 -73 163 -176zM348 0h-141l500 725h141zM728 169c0 -64 24 -105 69 -105c74 0 91 113 91 174c0 64 -24 107 -68 107
c-74 0 -92 -112 -92 -176zM986 239c0 -120 -48 -246 -195 -246c-110 0 -161 72 -161 175c0 120 49 247 193 247c112 0 163 -73 163 -176z" />
    <glyph glyph-name="uni2113" unicode="&#x2113;" horiz-adv-x="503" 
d="M118 176l1 8l-83 -56l-35 79l142 95l45 229c28 143 98 207 214 207c84 0 146 -43 146 -124c0 -13 -1 -25 -4 -38c-24 -122 -119 -188 -255 -279l-12 -8l-23 -108c-3 -15 -4 -26 -4 -37c0 -36 16 -50 51 -50c37 0 68 16 99 36l31 -82c-39 -29 -96 -61 -176 -61
c-96 0 -145 32 -145 120c0 20 3 42 8 69zM334 554l-31 -145l3 2c65 43 104 92 119 165c2 10 3 19 3 26c0 27 -11 40 -33 40c-35 0 -48 -25 -61 -88z" />
    <glyph glyph-name="uni2116" unicode="&#x2116;" horiz-adv-x="1094" 
d="M969 461c51 0 83 49 83 137c0 35 -13 58 -42 58c-55 0 -85 -72 -85 -140c0 -33 12 -55 44 -55zM1167 612c0 -157 -79 -239 -204 -239c-89 0 -152 48 -152 133c0 156 83 236 198 236c83 0 158 -42 158 -130zM1085 218h-332l26 122h331zM621 0h-190l-159 560l-119 -560
h-142l154 725h189l159 -563l120 563h142z" />
    <glyph glyph-name="uni2117" unicode="&#x2117;" horiz-adv-x="825" 
d="M411 -13c-208 0 -375 152 -375 374c0 223 167 377 375 377c207 0 374 -154 374 -377c0 -222 -167 -374 -374 -374zM411 662c-164 0 -292 -121 -292 -301c0 -176 128 -299 292 -299c167 0 291 123 291 299c0 180 -124 301 -291 301zM429 318h-52v-143h-108v400h160
c107 0 186 -27 186 -131c0 -105 -93 -126 -186 -126zM377 401h79c36 0 51 19 51 43c0 23 -15 47 -51 47h-79v-90z" />
    <glyph glyph-name="trademark" unicode="&#x2122;" horiz-adv-x="966" 
d="M139 326v299h-131v100h381v-100h-132v-299h-118zM727 326h-105l-92 278v-278h-116v399h188l73 -256l83 256h176v-399h-116v280z" />
    <glyph glyph-name="lozenge" unicode="&#x25ca;" horiz-adv-x="574" 
d="M289 561l-146 -225l146 -225l146 225zM0 336l288 438l282 -438l-282 -439z" />
    <glyph glyph-name="_519" horiz-adv-x="440" 
d="M214 96c-96 0 -176 79 -176 183c0 98 80 177 176 177c105 0 184 -79 184 -177c0 -104 -79 -183 -184 -183z" />
    <glyph glyph-name="estimated" unicode="&#x212e;" horiz-adv-x="576" 
d="M494 147h40c-32 -89 -109 -160 -241 -160c-176 0 -270 128 -270 282c0 160 105 281 265 281c168 0 257 -133 260 -280h-410v-195c31 -32 96 -55 163 -55c95 0 161 48 193 127zM138 465v-163h294v162c-29 29 -81 52 -145 52c-63 0 -117 -18 -149 -51z" />
    <glyph glyph-name="minus" unicode="&#x2212;" 
d="M72 327h535v-120h-535v120z" />
    <glyph glyph-name="lessequal" unicode="&#x2264;" 
d="M225 337l367 -79v-123l-535 145v114l535 145v-124zM57 0v121h535v-121h-535z" />
    <glyph glyph-name="greaterequal" unicode="&#x2265;" 
d="M439 337l-367 78v124l535 -145v-114l-535 -145v123zM607 0h-535v121h535v-121z" />
    <glyph glyph-name="notequal" unicode="&#x2260;" 
d="M189 99h-105v121h168l46 90h-214v120h276l66 126l101 -51l-39 -75h104v-120h-166l-47 -90h213v-121h-275l-73 -141l-101 52z" />
    <glyph glyph-name="approxequal" unicode="&#x2248;" 
d="M235 473c92 0 146 -68 205 -68c37 0 61 16 62 68h107c-4 -115 -52 -187 -163 -187c-80 0 -134 69 -204 69c-37 0 -61 -16 -62 -69h-107c4 115 51 187 162 187zM235 269c92 0 146 -69 205 -69c37 0 61 16 62 69h107c-4 -115 -52 -187 -163 -187c-80 0 -134 69 -204 69
c-37 0 -61 -16 -62 -69h-107c4 115 51 187 162 187z" />
    <glyph glyph-name="partialdiff" unicode="&#x2202;" horiz-adv-x="602" 
d="M22 235c0 153 113 238 251 238c73 0 129 -29 160 -68l1 1c-8 125 -115 218 -284 226v106h2c276 0 418 -189 418 -399c0 -201 -83 -352 -277 -352c-156 0 -271 104 -271 248zM292 368c-76 0 -130 -54 -130 -138c0 -85 54 -140 130 -140c75 0 132 56 132 140
c0 83 -57 138 -132 138z" />
    <glyph glyph-name="product" unicode="&#x220f;" horiz-adv-x="694" 
d="M181 -175h-125v900h578v-900h-125v780h-328v-780z" />
    <glyph glyph-name="radical" unicode="&#x221a;" horiz-adv-x="570" 
d="M-2 146l178 92l108 -232l149 719h135l-193 -900h-128l-128 255l-72 -38z" />
    <glyph glyph-name="summation" unicode="&#x2211;" horiz-adv-x="598" 
d="M18 -63l274 337l-270 338v112h554v-120h-388l266 -330l-270 -329h392v-120h-558v112z" />
    <glyph glyph-name="integral" unicode="&#x222b;" horiz-adv-x="363" 
d="M110 207v215c0 255 91 313 179 313c53 0 102 -29 102 -87c0 -36 -24 -62 -60 -62c-24 0 -55 17 -55 62c0 7 1 15 3 25c-27 -7 -41 -46 -41 -119c0 -72 11 -101 11 -259v-172c0 -255 -86 -313 -173 -313c-53 0 -108 29 -108 87c0 35 25 61 60 61c24 0 55 -16 55 -60
c0 -7 -1 -16 -3 -26c29 7 39 45 39 118c0 51 -9 125 -9 217z" />
    <glyph glyph-name="infinity" unicode="&#x221e;" horiz-adv-x="768" 
d="M552 90c-69 0 -122 36 -169 87c-47 -48 -98 -86 -170 -86c-112 0 -185 71 -185 172c0 100 75 171 186 171c72 0 124 -36 168 -81c43 47 95 81 168 81c111 0 186 -71 186 -171c0 -102 -72 -173 -184 -173zM214 207c39 0 68 25 95 56c-25 28 -54 55 -93 55
c-37 0 -66 -22 -66 -54c0 -33 25 -57 64 -57zM615 263c0 32 -26 55 -65 55s-68 -27 -93 -55c27 -31 56 -56 95 -56c37 0 63 23 63 56z" />
    <glyph glyph-name="uni0394" unicode="&#x394;" horiz-adv-x="693" 
d="M-2 0l346 738l347 -738h-693zM514 114l-170 358l-170 -358h340z" />
    <glyph glyph-name="uni0394" unicode="&#x2206;" horiz-adv-x="693" 
d="M-2 0l346 738l347 -738h-693zM514 114l-170 358l-170 -358h340z" />
    <glyph glyph-name="uni03A9" unicode="&#x3a9;" horiz-adv-x="794" 
d="M193 121l12 47c-92 43 -150 141 -150 246c0 204 173 324 369 324c186 0 340 -113 340 -288c0 -148 -95 -254 -236 -294l-9 -35h192l-25 -121h-316l49 228c123 11 213 101 213 207c0 133 -101 199 -209 199c-140 0 -235 -81 -235 -217c0 -85 55 -165 155 -189l-50 -228
h-314l25 121h189z" />
    <glyph glyph-name="uni03A9" unicode="&#x2126;" horiz-adv-x="794" 
d="M193 121l12 47c-92 43 -150 141 -150 246c0 204 173 324 369 324c186 0 340 -113 340 -288c0 -148 -95 -254 -236 -294l-9 -35h192l-25 -121h-316l49 228c123 11 213 101 213 207c0 133 -101 199 -209 199c-140 0 -235 -81 -235 -217c0 -85 55 -165 155 -189l-50 -228
h-314l25 121h189z" />
    <glyph glyph-name="Euro" unicode="&#x20ac;" horiz-adv-x="755" 
d="M5 391l70 81h73c53 144 171 266 358 266c189 0 258 -127 258 -234v-11h-125c-3 88 -55 141 -147 141c-120 0 -186 -77 -218 -162h285l-71 -81h-236c-5 -23 -7 -46 -8 -65h198l-71 -82h-126c11 -96 55 -154 156 -154c84 0 157 43 188 128h131
c-40 -136 -168 -231 -333 -231c-156 0 -252 88 -268 257h-145l70 82h74c1 21 4 42 8 65h-121z" />
    <glyph glyph-name="fi" unicode="&#xfb01;" horiz-adv-x="614" 
d="M468 538h138l-114 -538h-138zM136 538l6 30c29 136 97 157 233 157h47l-22 -102h-27c-68 0 -82 -8 -93 -59l-5 -26h107l-20 -95h-107l-94 -443h-138l94 443h-77l20 95h76zM508 725h138l-27 -128h-138z" />
    <glyph glyph-name="fl" unicode="&#xfb02;" horiz-adv-x="614" 
d="M136 538l6 30c29 136 97 157 233 157h47l-22 -102h-27c-68 0 -82 -8 -93 -59l-5 -26h107l-20 -95h-107l-94 -443h-138l94 443h-77l20 95h76zM646 725l-154 -725h-138l154 725h138z" />
    <glyph glyph-name="_537" horiz-adv-x="268" 
d="M162 725h138l-27 -128h-138z" />
    <glyph glyph-name="breve" unicode="&#x2d8;" horiz-adv-x="359" 
d="M323 725h98c-19 -84 -73 -130 -188 -130c-101 0 -152 48 -152 111v9c0 3 0 7 1 10h90c0 -3 -1 -6 -1 -9c0 -28 21 -50 68 -50c43 0 79 10 84 59z" />
    <glyph glyph-name="caron" unicode="&#x2c7;" horiz-adv-x="436" 
d="M218 598l-123 127h117l67 -52l89 52h123l-175 -127h-98z" />
    <glyph glyph-name="circumflex" unicode="&#x2c6;" horiz-adv-x="335" 
d="M291 725l123 -127h-117l-67 53l-89 -53h-123l175 127h98z" />
    <glyph glyph-name="dotaccent" unicode="&#x2d9;" horiz-adv-x="157" 
d="M101 725h115l-25 -118h-115z" />
    <glyph glyph-name="_542" horiz-adv-x="159" 
d="M45 -56h115l-25 -119h-115z" />
    <glyph glyph-name="hungarumlaut" unicode="&#x2dd;" horiz-adv-x="488" 
d="M346 725l-172 -127h-109l124 127h157zM540 725l-173 -127h-108l123 127h158z" />
    <glyph glyph-name="ogonek" unicode="&#x2db;" horiz-adv-x="306" 
d="M92 0h127c-25 -11 -103 -38 -103 -76c0 -23 19 -31 43 -31c12 0 25 2 38 5l-17 -81c-19 -3 -40 -5 -63 -5c-60 0 -127 16 -127 83c0 51 55 82 102 105z" />
    <glyph glyph-name="ring" unicode="&#x2da;" horiz-adv-x="270" 
d="M95 685c0 52 43 90 95 90c51 0 94 -39 94 -90s-42 -89 -94 -89c-53 0 -95 37 -95 89zM231 685c0 24 -18 41 -41 41s-41 -17 -41 -41c0 -23 18 -39 41 -39s41 16 41 39z" />
    <glyph glyph-name="tilde" unicode="&#x2dc;" horiz-adv-x="425" 
d="M191 725c74 0 95 -44 144 -44c35 0 52 21 55 44h95c-15 -89 -69 -127 -141 -127c-74 0 -103 44 -146 44c-35 0 -50 -20 -55 -44h-95c11 86 76 127 143 127z" />
    <glyph glyph-name="uni032C" unicode="&#x32c;" horiz-adv-x="436" 
d="M108 -138l-129 138h118l68 -52l88 52h122l-190 -138h-77z" />
    <glyph glyph-name="_548" horiz-adv-x="209" 
d="M261 724l-105 -170h-91l66 170h130z" />
    <glyph glyph-name="uni0326" unicode="&#x326;" horiz-adv-x="152" 
d="M22 -136l21 100h106l-23 -106l-63 -89h-65l59 95h-35z" />
    <glyph glyph-name="zero.zero" horiz-adv-x="652" 
d="M641 455c0 -192 -95 -468 -355 -468c-159 0 -241 111 -241 284c0 203 101 467 348 467c165 0 248 -106 248 -283zM380 634c-121 0 -176 -166 -192 -289l313 137c-5 96 -45 152 -121 152zM297 90c124 0 183 156 199 287l-312 -138c7 -92 48 -149 113 -149z" />
    <glyph glyph-name="one.onum" horiz-adv-x="357" 
d="M227 0h-138l104 467h-150l20 95c105 3 154 18 203 91h104z" />
    <glyph glyph-name="two.onum" horiz-adv-x="569" 
d="M207 431l-131 2c11 135 105 230 273 230c136 0 228 -55 228 -171c0 -154 -174 -278 -373 -376h300l-25 -116h-501l24 110c265 139 432 246 432 363c0 61 -41 85 -98 85c-69 0 -122 -35 -129 -127z" />
    <glyph glyph-name="three.onum" horiz-adv-x="590" 
d="M18 196l135 6c4 -72 47 -108 123 -108c84 1 126 39 126 100c0 66 -66 90 -141 90h-36l22 108h20c76 0 170 13 170 91c0 51 -47 73 -103 73c-73 0 -117 -26 -132 -98l-129 10c23 125 113 195 270 195c133 0 236 -57 236 -162c0 -76 -41 -130 -117 -159
c53 -27 80 -72 80 -134c0 -143 -124 -220 -272 -220c-165 0 -247 88 -252 208z" />
    <glyph glyph-name="four.onum" horiz-adv-x="603" 
d="M396 475l-227 -211h178zM596 264l-26 -119h-111l-31 -145h-139l33 145h-334l23 108l428 399h132l-85 -388h110z" />
    <glyph glyph-name="five.onum" horiz-adv-x="577" 
d="M256 536l-41 -121c31 16 70 27 118 27c121 0 215 -73 215 -212c0 -144 -115 -242 -272 -242c-142 0 -246 67 -257 209l132 7c7 -64 50 -110 126 -110c87 0 130 57 130 129c0 68 -49 114 -121 114c-49 0 -94 -24 -114 -57l-113 32l107 340h420l-25 -116h-305z" />
    <glyph glyph-name="six.onum" horiz-adv-x="600" 
d="M417 222c0 59 -35 107 -108 107c-76 0 -132 -46 -132 -126c0 -63 42 -109 113 -109c76 0 127 53 127 128zM589 472l-128 -5c-4 56 -39 89 -99 89c-81 0 -139 -59 -159 -168c35 27 79 47 142 47c109 0 213 -73 213 -200c0 -145 -109 -247 -268 -247
c-164 0 -245 99 -245 262c0 192 95 413 323 413c122 0 213 -63 221 -191z" />
    <glyph glyph-name="seven.onum" horiz-adv-x="499" 
d="M59 536l25 116h505l-24 -113c-234 -146 -368 -274 -397 -539h-150c24 276 210 424 386 536h-345z" />
    <glyph glyph-name="eight.onum" horiz-adv-x="590" 
d="M478 338c55 -39 74 -86 74 -137c0 -150 -138 -213 -271 -213c-131 0 -253 60 -253 193c0 83 48 144 128 179c-37 31 -56 76 -56 124c0 125 130 180 246 180c124 0 237 -56 237 -171c0 -71 -45 -124 -105 -155zM169 192c0 -63 54 -97 118 -97c73 0 126 42 126 102
c0 61 -55 96 -119 96c-73 0 -125 -41 -125 -101zM231 478c0 -47 35 -84 104 -84c64 0 110 31 110 84c0 45 -40 78 -105 78c-63 0 -109 -29 -109 -78z" />
    <glyph glyph-name="nine.onum" horiz-adv-x="590" 
d="M206 429c0 -59 37 -108 109 -108c75 0 131 47 131 127c0 63 -42 109 -113 109c-75 0 -127 -56 -127 -128zM33 176l130 7c3 -55 38 -89 98 -89c83 0 140 59 159 167c-33 -27 -78 -46 -142 -46c-108 0 -213 73 -213 201c0 144 110 247 268 247c165 0 246 -97 246 -262
c0 -192 -95 -413 -323 -413c-123 0 -215 57 -223 188z" />
    <glyph glyph-name="zero.onum" horiz-adv-x="626" 
d="M183 251c0 -100 40 -157 109 -157c139 0 184 194 184 308c0 99 -37 155 -116 155c-134 0 -177 -201 -177 -306zM615 400c0 -180 -88 -412 -332 -412c-159 0 -238 106 -238 263c0 185 91 412 326 412c165 0 244 -102 244 -263z" />
    <glyph glyph-name="zero.onum_zero" horiz-adv-x="626" 
d="M615 400c0 -180 -88 -412 -332 -412c-159 0 -238 106 -238 263c0 185 91 412 326 412c165 0 244 -102 244 -263zM292 94c117 0 167 136 180 248l-288 -126c9 -79 47 -122 108 -122zM360 557c-109 0 -156 -130 -172 -237l285 126c-11 72 -48 111 -113 111z" />
    <glyph glyph-name="one.tnum" 
d="M400 113h166l-24 -113h-470l24 113h166l91 430h-169l20 93c106 3 174 10 222 89h104z" />
    <glyph glyph-name="two.tnum" 
d="M256 491h-130c8 155 118 247 283 247c140 0 237 -57 237 -188c0 -173 -183 -319 -395 -434h319l-25 -116h-522l23 109c305 169 457 298 457 427c0 69 -42 99 -107 99c-72 0 -135 -37 -140 -144z" />
    <glyph glyph-name="three.tnum" 
d="M58 222h132c8 -81 45 -132 136 -132c100 0 136 61 136 124c0 83 -76 110 -154 110h-35l22 110h12c80 0 190 13 190 108c0 60 -52 92 -113 92c-88 0 -126 -39 -141 -124h-130c19 145 120 228 277 228c144 0 248 -61 248 -180c0 -83 -47 -144 -123 -175
c56 -29 86 -80 86 -156c0 -156 -121 -240 -282 -240c-179 0 -258 115 -261 235z" />
    <glyph glyph-name="four.tnum" 
d="M444 538l-253 -255h197zM650 283l-25 -119h-124l-35 -164h-138l34 164h-355l24 110l455 451h134l-93 -442h123z" />
    <glyph glyph-name="five.tnum" 
d="M298 609l-48 -155c27 15 72 28 123 28c131 0 230 -82 230 -235c0 -147 -118 -260 -282 -260c-157 0 -257 84 -269 233h131c8 -73 53 -130 137 -130c97 0 142 74 142 156c0 75 -52 134 -132 134c-52 0 -103 -29 -122 -69l-113 30l114 384h444l-24 -116h-331z" />
    <glyph glyph-name="six.tnum" 
d="M479 243c0 69 -38 136 -119 136c-79 0 -144 -56 -144 -155c0 -76 48 -134 125 -134c83 0 138 69 138 153zM652 525h-126c-4 72 -44 109 -105 109c-92 0 -157 -81 -180 -212c36 33 86 58 155 58c111 0 224 -79 224 -220c0 -159 -111 -273 -279 -273
c-172 0 -256 111 -256 286c0 217 95 465 336 465c126 0 223 -65 231 -213z" />
    <glyph glyph-name="seven.tnum" 
d="M145 609l25 116h532l-23 -110c-252 -166 -383 -319 -423 -615h-152c37 299 226 486 422 609h-381z" />
    <glyph glyph-name="eight.tnum" 
d="M519 374c60 -43 82 -101 82 -158c0 -161 -143 -229 -285 -229c-141 0 -266 70 -266 212c0 96 52 165 140 202c-41 33 -63 89 -63 142c0 139 138 195 261 195c128 0 247 -64 247 -188c0 -81 -48 -141 -116 -176zM190 210c0 -80 62 -120 133 -120c88 0 141 53 141 125
c0 80 -65 120 -134 120c-85 0 -140 -53 -140 -125zM258 534c0 -52 36 -104 117 -104c73 0 124 40 124 103c0 59 -47 101 -119 101s-122 -40 -122 -100z" />
    <glyph glyph-name="nine.tnum" 
d="M238 482c0 -69 38 -136 119 -136c79 0 144 56 144 155c0 76 -48 134 -125 134c-83 0 -138 -69 -138 -153zM65 200h126c4 -72 44 -109 105 -109c92 0 157 81 180 212c-35 -33 -86 -58 -155 -58c-111 0 -224 79 -224 220c0 159 111 273 279 273c172 0 256 -111 256 -286
c0 -216 -96 -465 -336 -465c-126 0 -223 66 -231 213z" />
    <glyph glyph-name="zero.tnum" 
d="M199 269c0 -109 42 -179 114 -179c153 0 205 234 205 368c0 109 -39 176 -122 176c-148 0 -197 -247 -197 -365zM657 455c0 -192 -95 -468 -355 -468c-159 0 -241 111 -241 284c0 203 101 467 348 467c165 0 248 -106 248 -283z" />
    <glyph glyph-name="zero.tnum_zero" 
d="M657 455c0 -192 -95 -468 -355 -468c-159 0 -241 111 -241 284c0 203 101 467 348 467c165 0 248 -106 248 -283zM396 634c-121 0 -176 -166 -192 -289l313 137c-5 96 -45 152 -121 152zM313 90c124 0 183 156 199 287l-312 -138c7 -92 48 -149 113 -149z" />
    <glyph glyph-name="one.case" horiz-adv-x="381" 
d="M242 0h-143l111 524h-156l22 103c107 3 161 19 211 98h109z" />
    <glyph glyph-name="two.case" horiz-adv-x="602" 
d="M219 481h-137c11 150 114 257 288 257c142 0 240 -65 240 -193c0 -170 -184 -310 -395 -419h319l-27 -126h-529l25 119c290 154 458 279 458 407c0 67 -42 99 -105 99c-71 0 -134 -44 -137 -144z" />
    <glyph glyph-name="three.case" horiz-adv-x="619" 
d="M18 222h139c7 -76 48 -121 133 -121c92 1 134 49 134 116c0 73 -71 102 -151 102h-38l25 117h16c80 0 184 17 184 102c0 56 -48 85 -111 85c-80 0 -124 -33 -139 -106h-134c23 145 120 221 283 221c141 0 249 -64 249 -179c0 -84 -47 -144 -123 -176
c56 -31 85 -84 85 -152c0 -157 -131 -244 -288 -244c-177 0 -259 103 -264 235z" />
    <glyph glyph-name="four.case" horiz-adv-x="640" 
d="M423 535l-246 -243h194zM633 292l-27 -128h-118l-35 -164h-142l35 164h-358l25 117l453 444h139l-92 -433h120z" />
    <glyph glyph-name="five.case" horiz-adv-x="608" 
d="M268 600l-43 -137c27 16 73 30 122 30c129 0 229 -88 229 -238c0 -155 -121 -268 -286 -268c-152 0 -260 78 -271 235h137c8 -67 52 -121 134 -121c94 0 140 69 140 146c0 75 -51 129 -130 129c-52 0 -99 -26 -122 -63l-116 35l112 377h444l-26 -125h-324z" />
    <glyph glyph-name="six.case" horiz-adv-x="630" 
d="M440 245c0 65 -37 124 -117 124s-141 -56 -141 -143c0 -71 45 -125 121 -125c82 0 137 63 137 144zM619 525h-133c-4 56 -41 99 -104 99c-91 0 -153 -73 -173 -193c35 29 83 52 151 52c114 0 226 -83 226 -223c0 -157 -114 -273 -283 -273c-173 0 -258 113 -258 289
c0 211 97 462 340 462c128 0 226 -69 234 -213z" />
    <glyph glyph-name="seven.case" horiz-adv-x="544" 
d="M73 600l26 125h536l-26 -121c-256 -160 -377 -307 -420 -604h-159c37 299 207 477 415 600h-372z" />
    <glyph glyph-name="eight.case" horiz-adv-x="619" 
d="M499 377c57 -43 80 -98 80 -153c0 -164 -143 -237 -285 -237c-139 0 -266 70 -266 215c0 91 51 161 138 200c-40 32 -62 86 -62 139c0 137 137 197 261 197c129 0 247 -64 247 -188c0 -77 -48 -141 -113 -173zM174 213c0 -69 60 -111 127 -111c79 0 135 52 135 117
c0 69 -61 110 -128 110c-80 0 -134 -51 -134 -116zM241 533c0 -51 36 -95 111 -95c68 0 118 36 118 95c0 52 -45 90 -113 90c-67 0 -116 -34 -116 -90z" />
    <glyph glyph-name="nine.case" horiz-adv-x="619" 
d="M213 480c0 -64 37 -123 117 -123c79 0 140 56 140 143c0 71 -46 124 -122 124c-80 0 -135 -65 -135 -144zM33 199h133c4 -56 41 -98 105 -98c88 0 152 73 173 193c-35 -29 -85 -51 -153 -51c-115 0 -225 82 -225 222c0 157 114 273 282 273c175 0 260 -108 260 -289
c0 -211 -97 -462 -340 -462c-128 0 -227 68 -235 212z" />
    <glyph glyph-name="zero.case" horiz-adv-x="657" 
d="M188 279c0 -108 42 -178 115 -178c149 0 199 221 199 347c0 109 -41 175 -122 175c-146 0 -192 -228 -192 -344zM646 447c0 -197 -95 -460 -354 -460c-164 0 -247 120 -247 293c0 203 98 458 346 458c173 0 255 -118 255 -291z" />
    <glyph glyph-name="zero.case_zero" horiz-adv-x="657" 
d="M646 447c0 -197 -95 -460 -354 -460c-164 0 -247 120 -247 293c0 203 98 458 346 458c173 0 255 -118 255 -291zM380 623c-121 0 -172 -158 -188 -277l309 135c-8 89 -49 142 -121 142zM303 101c125 0 178 152 194 276l-307 -136c9 -87 49 -140 113 -140z" />
    <glyph glyph-name="uni21B2" unicode="&#x21b2;" horiz-adv-x="800" 
d="M15 271l311 312l83 -86l-175 -168h414v396h120v-516h-530l171 -165l-83 -86z" />
    <glyph glyph-name="uni21B3" unicode="&#x21b3;" horiz-adv-x="800" 
d="M474 583l311 -312l-311 -313l-83 86l171 165h-530v516h120v-396h413l-174 168z" />
    <glyph glyph-name="uni21B0" unicode="&#x21b0;" horiz-adv-x="800" 
d="M768 -175h-120v384h-410l171 -165l-83 -86l-311 313l311 312l83 -86l-175 -168h534v-504z" />
    <glyph glyph-name="uni21B1" unicode="&#x21b1;" horiz-adv-x="800" 
d="M152 -175h-120v504h533l-174 168l83 86l311 -312l-311 -313l-83 86l171 165h-410v-384z" />
    <glyph glyph-name="arrowleft" unicode="&#x2190;" horiz-adv-x="800" 
d="M15 271l311 312l83 -86l-175 -168h534v-120h-530l171 -165l-83 -86z" />
    <glyph glyph-name="arrowup" unicode="&#x2191;" horiz-adv-x="800" 
d="M400 734l313 -313l-84 -82l-170 174v-513h-119v512l-169 -173l-83 82z" />
    <glyph glyph-name="arrowright" unicode="&#x2192;" horiz-adv-x="800" 
d="M474 583l311 -312l-311 -313l-83 86l171 165h-530v120h533l-174 168z" />
    <glyph glyph-name="arrowdown" unicode="&#x2193;" horiz-adv-x="800" 
d="M713 287l-313 -312l-312 312l83 83l169 -173v528h119v-529l170 174z" />
    <glyph glyph-name="uni2196" unicode="&#x2196;" horiz-adv-x="800" 
d="M138 538h440v-116h-238l373 -375l-83 -83l-376 371v-238h-116v441z" />
    <glyph glyph-name="uni2197" unicode="&#x2197;" horiz-adv-x="800" 
d="M224 538h441v-441h-117v238l-374 -371l-85 83l373 375h-238v116z" />
    <glyph glyph-name="uni2198" unicode="&#x2198;" horiz-adv-x="800" 
d="M671 441v-441h-441v115h240l-375 376l85 85l374 -373v238h117z" />
    <glyph glyph-name="uni2199" unicode="&#x2199;" horiz-adv-x="800" 
d="M129 0v441h116v-238l376 373l83 -85l-375 -376h240v-115h-440z" />
    <glyph glyph-name="uni219E" unicode="&#x219e;" horiz-adv-x="800" 
d="M15 271l311 312l83 -86l-175 -168h97l252 252l83 -86l-173 -166h275v-120h-275l173 -167l-83 -86l-252 253h-93l171 -165l-83 -86z" />
    <glyph glyph-name="uni219F" unicode="&#x219f;" horiz-adv-x="800" 
d="M400 734l313 -313l-84 -82l-170 174v-94l253 -253l-84 -82l-169 169v-253h-119v254l-170 -170l-83 82l253 254v92l-169 -173l-83 82z" />
    <glyph glyph-name="uni21A0" unicode="&#x21a0;" horiz-adv-x="800" 
d="M474 583l311 -312l-311 -313l-83 86l171 165h-93l-252 -253l-82 86l172 167h-275v120h275l-172 166l82 86l252 -252h96l-174 168z" />
    <glyph glyph-name="uni21A1" unicode="&#x21a1;" horiz-adv-x="800" 
d="M713 287l-313 -312l-312 312l83 83l169 -173v91l-253 253l83 83l170 -171v272h119v-271l169 170l84 -83l-253 -252v-93l170 174z" />
    <glyph glyph-name="uni21A2" unicode="&#x21a2;" horiz-adv-x="800" 
d="M329 -44l-313 313l313 312l82 -86l-174 -168h197l255 254l81 -86l-227 -226l227 -227l-81 -86l-251 251h-197l170 -165z" />
    <glyph glyph-name="uni21A3" unicode="&#x21a3;" horiz-adv-x="800" 
d="M471 581l313 -312l-313 -313l-82 86l170 165h-197l-251 -251l-81 86l227 227l-227 226l81 86l255 -254h197l-174 168z" />
    <glyph glyph-name="uni21A4" unicode="&#x21a4;" horiz-adv-x="800" 
d="M15 271l311 312l83 -86l-175 -168h409v209h125v-538h-125v209h-405l171 -165l-83 -86z" />
    <glyph glyph-name="uni21A5" unicode="&#x21a5;" horiz-adv-x="800" 
d="M400 734l313 -313l-84 -82l-170 174v-391h199v-122h-527v122h209v390l-169 -173l-83 82z" />
    <glyph glyph-name="uni21A6" unicode="&#x21a6;" horiz-adv-x="800" 
d="M474 583l311 -312l-311 -313l-83 86l171 165h-405v-209h-125v527h125v-198h408l-174 168z" />
    <glyph glyph-name="uni21A7" unicode="&#x21a7;" horiz-adv-x="800" 
d="M713 287l-313 -312l-312 312l83 83l169 -173v407h-209v121h527v-121h-199v-408l170 174z" />
    <glyph glyph-name="filledbox" unicode="&#x25a0;" horiz-adv-x="624" 
d="M41 0v538h538v-538h-538z" />
    <glyph glyph-name="H22073" unicode="&#x25a1;" horiz-adv-x="624" 
d="M41 0v538h538v-538h-538zM160 419v-300h300v300h-300z" />
    <glyph glyph-name="H18533" unicode="&#x25cf;" horiz-adv-x="602" 
d="M16 269c0 154 120 281 283 281s283 -127 283 -281c0 -155 -120 -282 -283 -282s-283 127 -283 282z" />
    <glyph glyph-name="onethird" unicode="&#x2153;" horiz-adv-x="840" 
d="M207 317h-96l57 268h-93l14 71c71 3 105 25 132 69h73zM203 0h-141l500 725h141zM463 132h97c0 -51 37 -68 68 -68c39 0 70 17 70 56c0 32 -30 50 -77 50h-28l17 80h28c43 0 83 10 83 47c0 33 -23 48 -54 48c-27 0 -68 -7 -76 -54h-92c20 72 72 124 179 124
c76 0 145 -35 145 -102c0 -47 -19 -81 -70 -100c33 -20 45 -48 45 -77c0 -97 -82 -143 -171 -143s-155 48 -164 139z" />
    <glyph glyph-name="twothirds" unicode="&#x2154;" horiz-adv-x="962" 
d="M186 583h-94c8 77 59 149 175 149c84 0 145 -37 145 -105c0 -92 -110 -176 -226 -232h179l-16 -78h-317l16 76c120 64 263 144 263 220c0 36 -27 49 -54 49c-45 0 -67 -32 -71 -79zM324 0h-141l500 725h141zM584 132h97c0 -51 37 -68 68 -68c39 0 70 17 70 56
c0 32 -30 50 -77 50h-28l17 80h28c43 0 83 10 83 47c0 33 -23 48 -54 48c-27 0 -68 -7 -76 -54h-92c20 72 72 124 179 124c76 0 145 -35 145 -102c0 -47 -19 -81 -70 -100c33 -20 45 -48 45 -77c0 -97 -82 -143 -171 -143s-155 48 -164 139z" />
    <glyph glyph-name="uni2155" unicode="&#x2155;" horiz-adv-x="844" 
d="M207 317h-96l57 268h-93l14 71c71 3 105 25 132 69h73zM203 0h-141l500 725h141zM627 331l-23 -74c17 11 42 17 75 17c68 0 126 -43 126 -126c0 -101 -74 -155 -173 -155c-75 0 -156 39 -161 136h93c3 -44 31 -65 71 -65c43 0 71 24 71 71c0 48 -30 69 -67 69
c-28 0 -52 -10 -67 -37l-77 26l70 215h260l-16 -77h-182z" />
    <glyph glyph-name="uni2159" unicode="&#x2159;" horiz-adv-x="857" 
d="M207 317h-96l57 268h-93l14 71c71 3 105 25 132 69h73zM203 0h-141l500 725h141zM708 144c0 39 -21 63 -60 63c-43 0 -69 -31 -69 -78c0 -39 23 -66 60 -66c39 0 69 30 69 81zM826 292h-94c-3 31 -18 54 -57 54s-70 -30 -77 -94c20 19 45 26 76 26c72 0 132 -50 132 -129
c0 -91 -76 -156 -167 -156c-104 0 -154 61 -154 169c0 119 63 253 202 253c79 0 135 -42 139 -123z" />
    <glyph glyph-name="oneeighth" unicode="&#x215b;" horiz-adv-x="855" 
d="M207 317h-96l57 268h-93l14 71c71 3 105 25 132 69h73zM203 0h-141l500 725h141zM771 213c29 -24 39 -48 39 -77c0 -102 -91 -144 -171 -144c-75 0 -161 33 -161 125c0 45 24 85 69 108c-19 17 -29 43 -29 71c0 83 86 119 157 119c77 0 152 -34 152 -108
c0 -43 -25 -75 -56 -94zM577 123c0 -35 21 -59 65 -59c35 0 69 21 69 64c0 35 -18 55 -65 55c-39 0 -69 -24 -69 -60zM611 295c0 -32 22 -48 57 -48s63 13 63 50c0 28 -21 48 -60 48c-33 0 -60 -17 -60 -50z" />
    <glyph glyph-name="uni2156" unicode="&#x2156;" horiz-adv-x="966" 
d="M186 583h-94c8 77 59 149 175 149c84 0 145 -37 145 -105c0 -92 -110 -176 -226 -232h179l-16 -78h-317l16 76c120 64 263 144 263 220c0 36 -27 49 -54 49c-45 0 -67 -32 -71 -79zM324 0h-141l500 725h141zM748 331l-23 -74c17 11 42 17 75 17c68 0 126 -43 126 -126
c0 -101 -74 -155 -173 -155c-75 0 -156 39 -161 136h93c3 -44 31 -65 71 -65c43 0 71 24 71 71c0 48 -30 69 -67 69c-28 0 -52 -10 -67 -37l-77 26l70 215h260l-16 -77h-182z" />
    <glyph glyph-name="uni2157" unicode="&#x2157;" horiz-adv-x="959" 
d="M47 449h97c0 -51 37 -68 68 -68c39 0 70 17 70 56c0 32 -30 50 -77 50h-28l17 80h28c43 0 83 10 83 47c0 33 -23 48 -54 48c-27 0 -68 -7 -76 -54h-92c20 72 72 124 179 124c76 0 145 -35 145 -102c0 -47 -19 -81 -70 -100c33 -20 45 -48 45 -77
c0 -97 -82 -143 -171 -143s-155 48 -164 139zM317 0h-141l500 725h141zM741 331l-23 -74c17 11 42 17 75 17c68 0 126 -43 126 -126c0 -101 -74 -155 -173 -155c-75 0 -156 39 -161 136h93c3 -44 31 -65 71 -65c43 0 71 24 71 71c0 48 -30 69 -67 69c-28 0 -52 -10 -67 -37
l-77 26l70 215h260l-16 -77h-182z" />
    <glyph glyph-name="threeeighths" unicode="&#x215c;" horiz-adv-x="969" 
d="M47 449h97c0 -51 37 -68 68 -68c39 0 70 17 70 56c0 32 -30 50 -77 50h-28l17 80h28c43 0 83 10 83 47c0 33 -23 48 -54 48c-27 0 -68 -7 -76 -54h-92c20 72 72 124 179 124c76 0 145 -35 145 -102c0 -47 -19 -81 -70 -100c33 -20 45 -48 45 -77
c0 -97 -82 -143 -171 -143s-155 48 -164 139zM317 0h-141l500 725h141zM885 213c29 -24 39 -48 39 -77c0 -102 -91 -144 -171 -144c-75 0 -161 33 -161 125c0 45 24 85 69 108c-19 17 -29 43 -29 71c0 83 86 119 157 119c77 0 152 -34 152 -108c0 -43 -25 -75 -56 -94z
M691 123c0 -35 21 -59 65 -59c35 0 69 21 69 64c0 35 -18 55 -65 55c-39 0 -69 -24 -69 -60zM725 295c0 -32 22 -48 57 -48s63 13 63 50c0 28 -21 48 -60 48c-33 0 -60 -17 -60 -50z" />
    <glyph glyph-name="uni2158" unicode="&#x2158;" horiz-adv-x="976" 
d="M284 601l-118 -115h94zM409 486l-18 -84h-53l-19 -85h-95l18 85h-198l16 75l259 248h88l-51 -239h53zM334 0h-141l500 725h141zM758 331l-23 -74c17 11 42 17 75 17c68 0 126 -43 126 -126c0 -101 -74 -155 -173 -155c-75 0 -156 39 -161 136h93c3 -44 31 -65 71 -65
c43 0 71 24 71 71c0 48 -30 69 -67 69c-28 0 -52 -10 -67 -37l-77 26l70 215h260l-16 -77h-182z" />
    <glyph glyph-name="uni215A" unicode="&#x215a;" horiz-adv-x="975" 
d="M211 648l-23 -74c17 11 42 17 75 17c68 0 126 -43 126 -126c0 -101 -74 -155 -173 -155c-75 0 -156 39 -161 136h93c3 -44 31 -65 71 -65c43 0 71 24 71 71c0 48 -30 69 -67 69c-28 0 -52 -10 -67 -37l-77 26l70 215h260l-16 -77h-182zM321 0h-141l500 725h141zM826 144
c0 39 -21 63 -60 63c-43 0 -69 -31 -69 -78c0 -39 23 -66 60 -66c39 0 69 30 69 81zM944 292h-94c-3 31 -18 54 -57 54s-70 -30 -77 -94c20 19 45 26 76 26c72 0 132 -50 132 -129c0 -91 -76 -156 -167 -156c-104 0 -154 61 -154 169c0 119 63 253 202 253
c79 0 135 -42 139 -123z" />
    <glyph glyph-name="fiveeighths" unicode="&#x215d;" horiz-adv-x="974" 
d="M211 648l-23 -74c17 11 42 17 75 17c68 0 126 -43 126 -126c0 -101 -74 -155 -173 -155c-75 0 -156 39 -161 136h93c3 -44 31 -65 71 -65c43 0 71 24 71 71c0 48 -30 69 -67 69c-28 0 -52 -10 -67 -37l-77 26l70 215h260l-16 -77h-182zM321 0h-141l500 725h141zM889 213
c29 -24 39 -48 39 -77c0 -102 -91 -144 -171 -144c-75 0 -161 33 -161 125c0 45 24 85 69 108c-19 17 -29 43 -29 71c0 83 86 119 157 119c77 0 152 -34 152 -108c0 -43 -25 -75 -56 -94zM695 123c0 -35 21 -59 65 -59c35 0 69 21 69 64c0 35 -18 55 -65 55
c-39 0 -69 -24 -69 -60zM729 295c0 -32 22 -48 57 -48s63 13 63 50c0 28 -21 48 -60 48c-33 0 -60 -17 -60 -50z" />
    <glyph glyph-name="seveneighths" unicode="&#x215e;" horiz-adv-x="927" 
d="M84 648l16 77h307l-16 -78c-137 -86 -204 -161 -236 -330h-101c24 166 114 259 237 331h-207zM275 0h-141l500 725h141zM843 213c29 -24 39 -48 39 -77c0 -102 -91 -144 -171 -144c-75 0 -161 33 -161 125c0 45 24 85 69 108c-19 17 -29 43 -29 71c0 83 86 119 157 119
c77 0 152 -34 152 -108c0 -43 -25 -75 -56 -94zM649 123c0 -35 21 -59 65 -59c35 0 69 21 69 64c0 35 -18 55 -65 55c-39 0 -69 -24 -69 -60zM683 295c0 -32 22 -48 57 -48s63 13 63 50c0 28 -21 48 -60 48c-33 0 -60 -17 -60 -50z" />
    <glyph glyph-name="uni215F" unicode="&#x215f;" horiz-adv-x="484" 
d="M207 317h-96l57 268h-93l14 71c71 3 105 25 132 69h73zM203 0h-141l500 725h141z" />
    <glyph glyph-name="fraction" unicode="&#x2044;" horiz-adv-x="243" 
d="M-38 0h-141l500 725h141z" />
    <glyph glyph-name="a.sups" horiz-adv-x="344" 
d="M263 438l6 36c-27 -31 -56 -43 -100 -43c-52 0 -93 31 -93 80c0 85 97 106 222 119l1 3c1 7 2 12 2 17c0 25 -18 36 -47 36s-56 -15 -60 -44h-90c11 57 59 107 156 107c81 0 133 -31 133 -96c0 -9 -1 -19 -3 -29c0 1 -3 -16 -7 -33l-4 -22c-1 -5 -2 -8 -2 -9l-6 -27
c-6 -31 -13 -73 -13 -95h-95zM217 495c31 0 57 13 69 70l2 10c-93 -11 -110 -25 -110 -51c0 -16 12 -29 39 -29z" />
    <glyph glyph-name="b.sups" horiz-adv-x="367" 
d="M181 485l-10 -47h-97l87 408h96l-30 -142c27 35 61 44 88 44c64 0 112 -48 112 -124c0 -95 -58 -193 -159 -193c-48 0 -74 27 -87 54zM194 568c0 -33 20 -62 55 -62c57 0 78 51 78 102c0 37 -17 66 -52 66c-59 0 -81 -66 -81 -106z" />
    <glyph glyph-name="c.sups" horiz-adv-x="335" 
d="M401 630h-87c-1 27 -17 45 -50 45c-64 0 -81 -71 -81 -114c0 -37 17 -56 51 -56c32 0 54 15 65 45h91c-24 -81 -87 -119 -170 -119c-85 0 -136 56 -136 132c0 70 48 186 189 186c72 0 127 -42 128 -119z" />
    <glyph glyph-name="d.sups" horiz-adv-x="368" 
d="M271 438l7 35c-27 -33 -60 -42 -87 -42c-64 0 -112 48 -112 124c0 95 57 193 159 193c48 0 75 -27 87 -54l33 152h96l-87 -408h-96zM312 611c0 33 -20 62 -55 62c-57 0 -78 -51 -78 -102c0 -37 17 -66 52 -66c59 0 81 66 81 106z" />
    <glyph glyph-name="e.sups" horiz-adv-x="354" 
d="M311 533h86c-29 -72 -100 -102 -168 -102c-91 0 -144 51 -144 134c0 63 43 184 183 184c85 0 142 -53 142 -130c0 -19 -1 -35 -8 -54h-222v-10c0 -31 26 -50 61 -50c31 0 55 8 70 28zM267 676c-33 0 -66 -14 -78 -54h132c1 2 1 5 1 10c0 29 -26 44 -55 44z" />
    <glyph glyph-name="f.sups" horiz-adv-x="221" 
d="M147 741l4 19c16 71 49 86 131 86h52l-14 -67h-29c-32 0 -40 -2 -45 -23l-3 -15h69l-15 -68h-68l-50 -235h-96l50 235h-42l15 68h41z" />
    <glyph glyph-name="g.sups" horiz-adv-x="367" 
d="M326 698l9 43h96l-55 -261c-27 -125 -97 -148 -174 -148c-88 0 -136 50 -136 106h87c3 -27 26 -35 57 -35c37 0 59 19 67 57l7 33c-27 -31 -63 -40 -90 -40c-64 0 -110 44 -110 116c0 88 55 179 156 179c47 0 74 -25 86 -50zM313 621c0 31 -19 56 -54 56
c-56 0 -77 -46 -77 -94c0 -35 17 -59 52 -59c56 0 79 60 79 97z" />
    <glyph glyph-name="h.sups" horiz-adv-x="364" 
d="M257 846l-31 -147c21 27 50 48 102 48c56 0 87 -29 87 -89c0 -16 -2 -33 -6 -52l-36 -168h-96l33 154c4 15 6 28 6 39c0 29 -13 43 -38 43c-35 0 -62 -22 -74 -78l-33 -158h-96l86 408h96z" />
    <glyph glyph-name="i.sups" horiz-adv-x="169" 
d="M139 741h96l-64 -303h-96zM161 846h96l-16 -75h-96z" />
    <glyph glyph-name="j.sups" horiz-adv-x="173" 
d="M78 440l65 301h96l-65 -305c-16 -76 -51 -97 -119 -97h-36l15 70h10c24 0 30 7 34 31zM163 846h96l-16 -75h-96z" />
    <glyph glyph-name="k.sups" horiz-adv-x="350" 
d="M161 846h96l-44 -208l112 103h122l-140 -122l83 -181h-108l-51 115l-44 -38l-16 -77h-96z" />
    <glyph glyph-name="l.sups" horiz-adv-x="171" 
d="M257 846l-86 -408h-96l86 408h96z" />
    <glyph glyph-name="m.sups" horiz-adv-x="555" 
d="M323 747c40 0 71 -15 82 -52c24 33 65 52 116 52c55 0 85 -28 85 -88c0 -15 -3 -33 -7 -53l-35 -168h-96l33 154c3 16 5 29 5 40c0 28 -12 42 -36 42c-35 0 -58 -23 -70 -79l-34 -157h-96l33 154c4 16 6 29 6 40c0 28 -12 42 -36 42c-35 0 -58 -23 -69 -79l-34 -157h-96
l64 303h93l-8 -40c21 24 47 46 100 46z" />
    <glyph glyph-name="uni207F" unicode="&#x207f;" horiz-adv-x="364" 
d="M139 741h94l-9 -42c21 27 52 48 104 48c56 0 87 -29 87 -89c0 -16 -2 -33 -6 -52l-36 -168h-96l33 154c4 15 6 28 6 40c0 28 -13 42 -38 42c-33 0 -62 -22 -74 -78l-33 -158h-96z" />
    <glyph glyph-name="o.sups" horiz-adv-x="352" 
d="M182 578c0 -51 21 -73 57 -73c49 0 68 46 68 93c0 55 -22 77 -58 77c-48 0 -67 -50 -67 -97zM405 605c0 -97 -60 -174 -168 -174c-85 0 -153 44 -153 141c0 100 62 177 169 177c86 0 152 -51 152 -144z" />
    <glyph glyph-name="p.sups" horiz-adv-x="368" 
d="M236 741l-7 -37c27 35 60 44 87 44c65 0 112 -48 112 -124c0 -95 -57 -193 -158 -193c-48 0 -75 27 -88 54l-30 -146h-96l85 402h95zM195 566c0 -33 20 -60 55 -60c57 0 78 52 78 102c0 37 -17 66 -52 66c-60 0 -81 -70 -81 -108z" />
    <glyph glyph-name="q.sups" horiz-adv-x="366" 
d="M250 339l29 136c-27 -35 -60 -44 -88 -44c-64 0 -112 48 -112 124c0 95 57 193 159 193c48 0 75 -27 87 -54l10 47h96l-85 -402h-96zM312 611c0 33 -20 62 -55 62c-57 0 -78 -51 -78 -102c0 -37 17 -66 52 -66c59 0 81 66 81 106z" />
    <glyph glyph-name="r.sups" horiz-adv-x="241" 
d="M332 745l-21 -101c-12 2 -23 3 -33 3c-39 0 -66 -12 -75 -55l-32 -154h-96l64 303h93l-13 -58c21 35 56 62 104 62h9z" />
    <glyph glyph-name="s.sups" horiz-adv-x="319" 
d="M378 643h-84c-4 27 -31 35 -63 35c-28 0 -40 -11 -40 -23c0 -9 8 -17 31 -24l46 -13c61 -19 93 -39 93 -84c0 -72 -69 -103 -137 -103c-78 0 -145 35 -153 113h83c4 -32 35 -42 72 -42c27 0 44 7 44 22c0 8 -7 16 -40 27l-45 13c-47 15 -84 40 -84 87c0 68 68 97 130 97
c68 0 134 -28 147 -105z" />
    <glyph glyph-name="t.sups" horiz-adv-x="239" 
d="M153 741l19 83h96l-19 -83h68l-14 -68h-68l-28 -132c-1 -7 -2 -10 -2 -15c0 -15 10 -19 35 -19h28l-15 -69h-61c-61 0 -89 8 -89 51c0 11 1 20 4 35l32 149h-49l15 68h48z" />
    <glyph glyph-name="u.sups" horiz-adv-x="362" 
d="M270 438l9 40c-20 -25 -50 -47 -105 -47c-56 0 -88 28 -88 88c0 16 3 33 7 52l35 170h96l-33 -155c-3 -16 -5 -28 -5 -39c0 -29 13 -44 38 -44c35 0 62 23 74 79l33 159h96l-64 -303h-93z" />
    <glyph glyph-name="v.sups" horiz-adv-x="313" 
d="M186 741l19 -214l98 214h100l-160 -303h-114l-39 303h96z" />
    <glyph glyph-name="w.sups" horiz-adv-x="469" 
d="M186 544l83 197h113l-3 -197l78 197h101l-132 -303h-118l1 218l-91 -218h-123l4 303h97z" />
    <glyph glyph-name="x.sups" horiz-adv-x="346" 
d="M438 741l-145 -152l87 -151h-98l-51 86l-82 -86h-108l150 157l-85 146h100l46 -81l78 81h108z" />
    <glyph glyph-name="y.sups" horiz-adv-x="321" 
d="M217 537l96 204h99l-160 -305c-48 -93 -63 -97 -143 -97h-50l14 69h24c36 0 33 2 47 24l4 7l-58 302h98z" />
    <glyph glyph-name="z.sups" horiz-adv-x="330" 
d="M58 438l16 74l189 155h-147l15 74h272l-15 -74l-190 -155h166l-16 -74h-290z" />
    <glyph glyph-name="uni2074" unicode="&#x2074;" horiz-adv-x="373" 
d="M310 722l-118 -115h94zM435 607l-18 -84h-53l-19 -85h-95l18 85h-198l16 75l259 248h88l-51 -239h53z" />
    <glyph glyph-name="uni2075" unicode="&#x2075;" horiz-adv-x="360" 
d="M237 769l-23 -74c17 11 42 17 75 17c68 0 126 -43 126 -126c0 -101 -74 -155 -173 -155c-75 0 -156 39 -161 136h93c3 -44 31 -65 71 -65c43 0 71 24 71 71c0 48 -30 69 -67 69c-28 0 -52 -10 -67 -37l-77 26l70 215h260l-16 -77h-182z" />
    <glyph glyph-name="uni2076" unicode="&#x2076;" horiz-adv-x="372" 
d="M318 582c0 39 -21 63 -60 63c-43 0 -69 -31 -69 -78c0 -39 23 -66 60 -66c39 0 69 30 69 81zM436 730h-94c-3 31 -18 54 -57 54s-70 -30 -77 -94c20 19 45 26 76 26c72 0 132 -50 132 -129c0 -91 -76 -156 -167 -156c-104 0 -154 61 -154 169c0 119 63 253 202 253
c79 0 135 -42 139 -123z" />
    <glyph glyph-name="uni2077" unicode="&#x2077;" horiz-adv-x="314" 
d="M110 769l16 77h307l-16 -78c-137 -86 -204 -161 -236 -330h-101c24 166 114 259 237 331h-207z" />
    <glyph glyph-name="uni2078" unicode="&#x2078;" horiz-adv-x="371" 
d="M381 651c29 -24 39 -48 39 -77c0 -102 -91 -144 -171 -144c-75 0 -161 33 -161 125c0 45 24 85 69 108c-19 17 -29 43 -29 71c0 83 86 119 157 119c77 0 152 -34 152 -108c0 -43 -25 -75 -56 -94zM187 561c0 -35 21 -59 65 -59c35 0 69 21 69 64c0 35 -18 55 -65 55
c-39 0 -69 -24 -69 -60zM221 733c0 -32 22 -48 57 -48s63 13 63 50c0 28 -21 48 -60 48c-33 0 -60 -17 -60 -50z" />
    <glyph glyph-name="uni2079" unicode="&#x2079;" horiz-adv-x="367" 
d="M208 702c0 -39 20 -64 59 -64c43 0 70 31 70 78c0 39 -23 67 -60 67c-39 0 -69 -32 -69 -81zM89 555h95c3 -33 18 -55 57 -55c40 0 70 30 78 93c-21 -19 -46 -26 -77 -26c-72 0 -132 50 -132 130c0 91 76 156 167 156c104 0 153 -61 153 -169c0 -119 -61 -253 -201 -253
c-77 0 -135 41 -140 124z" />
    <glyph glyph-name="uni2070" unicode="&#x2070;" horiz-adv-x="386" 
d="M193 607c0 -64 24 -105 69 -105c74 0 91 113 91 174c0 64 -24 107 -68 107c-74 0 -92 -112 -92 -176zM451 677c0 -120 -48 -246 -195 -246c-110 0 -161 72 -161 175c0 120 49 247 193 247c112 0 163 -73 163 -176z" />
    <glyph glyph-name="uni2070.zero" horiz-adv-x="399" 
d="M451 677c0 -120 -48 -246 -195 -246c-110 0 -161 72 -161 175c0 120 49 247 193 247c112 0 163 -73 163 -176zM262 502c57 0 80 68 88 127l-157 -39c4 -53 28 -88 69 -88zM285 783c-55 0 -80 -61 -88 -118l154 38c-7 49 -29 80 -66 80z" />
    <glyph glyph-name="period.sups" horiz-adv-x="167" 
d="M-18 438l21 100h104l-21 -100h-104z" />
    <glyph glyph-name="hyphen.sups" horiz-adv-x="235" 
d="M188 549h-199l17 84h199z" />
    <glyph glyph-name="comma.sups" horiz-adv-x="177" 
d="M-12 436l21 102h107l-23 -109l-68 -87h-63l61 94h-35z" />
    <glyph glyph-name="uni207C" unicode="&#x207c;" horiz-adv-x="371" 
d="M317 485h-305v84h305v-84zM317 612h-305v84h305v-84z" />
    <glyph glyph-name="uni207A" unicode="&#x207a;" horiz-adv-x="377" 
d="M215 438h-93v111h-116v84h116v110h93v-110h116v-84h-116v-111z" />
    <glyph glyph-name="uni207B" unicode="&#x207b;" horiz-adv-x="369" 
d="M6 633h320v-84h-320v84z" />
    <glyph glyph-name="uni207D" unicode="&#x207d;" horiz-adv-x="199" 
d="M126 331h-88c-19 40 -42 115 -42 198c0 117 53 229 129 317h95c-77 -99 -128 -206 -128 -331c0 -68 15 -133 34 -184z" />
    <glyph glyph-name="uni207E" unicode="&#x207e;" horiz-adv-x="201" 
d="M33 846h88c19 -40 43 -114 43 -197c0 -116 -54 -230 -130 -318h-94c76 100 128 207 128 332c0 68 -15 134 -35 183z" />
    <glyph glyph-name="a.subs" horiz-adv-x="344" 
d="M144 -128l6 36c-27 -31 -56 -43 -100 -43c-52 0 -93 31 -93 80c0 85 97 106 222 119l1 3c1 7 2 12 2 17c0 25 -18 36 -47 36s-56 -15 -60 -44h-90c11 57 59 107 156 107c81 0 133 -31 133 -96c0 -9 -1 -19 -3 -29c0 1 -3 -16 -7 -33l-4 -22c-1 -5 -2 -8 -2 -9l-6 -27
c-6 -31 -13 -73 -13 -95h-95zM98 -71c31 0 57 13 69 70l2 10c-93 -11 -110 -25 -110 -51c0 -16 12 -29 39 -29z" />
    <glyph glyph-name="b.subs" horiz-adv-x="367" 
d="M62 -81l-10 -47h-97l87 408h96l-30 -142c27 35 61 44 88 44c64 0 112 -48 112 -124c0 -95 -58 -193 -159 -193c-48 0 -74 27 -87 54zM75 2c0 -33 20 -62 55 -62c57 0 78 51 78 102c0 37 -17 66 -52 66c-59 0 -81 -66 -81 -106z" />
    <glyph glyph-name="c.subs" horiz-adv-x="335" 
d="M282 64h-87c-1 27 -17 45 -50 45c-64 0 -81 -71 -81 -114c0 -37 17 -56 51 -56c32 0 54 15 65 45h91c-24 -81 -87 -119 -170 -119c-85 0 -136 56 -136 132c0 70 48 186 189 186c72 0 127 -42 128 -119z" />
    <glyph glyph-name="d.subs" horiz-adv-x="368" 
d="M152 -128l7 35c-27 -33 -60 -42 -87 -42c-64 0 -112 48 -112 124c0 95 57 193 159 193c48 0 75 -27 87 -54l33 152h96l-87 -408h-96zM193 45c0 33 -20 62 -55 62c-57 0 -78 -51 -78 -102c0 -37 17 -66 52 -66c59 0 81 66 81 106z" />
    <glyph glyph-name="e.subs" horiz-adv-x="354" 
d="M192 -33h86c-29 -72 -100 -102 -168 -102c-91 0 -144 51 -144 134c0 63 43 184 183 184c85 0 142 -53 142 -130c0 -19 -1 -35 -8 -54h-222v-10c0 -31 26 -50 61 -50c31 0 55 8 70 28zM148 110c-33 0 -66 -14 -78 -54h132c1 2 1 5 1 10c0 29 -26 44 -55 44z" />
    <glyph glyph-name="f.subs" horiz-adv-x="221" 
d="M28 175l4 19c16 71 49 86 131 86h52l-14 -67h-29c-32 0 -40 -2 -45 -23l-3 -15h69l-15 -68h-68l-50 -235h-96l50 235h-42l15 68h41z" />
    <glyph glyph-name="g.subs" horiz-adv-x="367" 
d="M207 132l9 43h96l-55 -261c-27 -125 -97 -148 -174 -148c-88 0 -136 50 -136 106h87c3 -27 26 -35 57 -35c37 0 59 19 67 57l7 33c-27 -31 -63 -40 -90 -40c-64 0 -110 44 -110 116c0 88 55 179 156 179c47 0 74 -25 86 -50zM194 55c0 31 -19 56 -54 56
c-56 0 -77 -46 -77 -94c0 -35 17 -59 52 -59c56 0 79 60 79 97z" />
    <glyph glyph-name="h.subs" horiz-adv-x="364" 
d="M138 280l-31 -147c21 27 50 48 102 48c56 0 87 -29 87 -89c0 -16 -2 -33 -6 -52l-36 -168h-96l33 154c4 15 6 28 6 39c0 29 -13 43 -38 43c-35 0 -62 -22 -74 -78l-33 -158h-96l86 408h96z" />
    <glyph glyph-name="i.subs" horiz-adv-x="169" 
d="M20 175h96l-64 -303h-96zM42 280h96l-16 -75h-96z" />
    <glyph glyph-name="j.subs" horiz-adv-x="173" 
d="M-41 -126l65 301h96l-65 -305c-16 -76 -51 -97 -119 -97h-36l15 70h10c24 0 30 7 34 31zM44 280h96l-16 -75h-96z" />
    <glyph glyph-name="k.subs" horiz-adv-x="350" 
d="M42 280h96l-44 -208l112 103h122l-140 -122l83 -181h-108l-51 115l-44 -38l-16 -77h-96z" />
    <glyph glyph-name="l.subs" horiz-adv-x="171" 
d="M138 280l-86 -408h-96l86 408h96z" />
    <glyph glyph-name="m.subs" horiz-adv-x="555" 
d="M204 181c40 0 71 -15 82 -52c24 33 65 52 116 52c55 0 85 -28 85 -88c0 -15 -3 -33 -7 -53l-35 -168h-96l33 154c3 16 5 29 5 40c0 28 -12 42 -36 42c-35 0 -58 -23 -70 -79l-34 -157h-96l33 154c4 16 6 29 6 40c0 28 -12 42 -36 42c-35 0 -58 -23 -69 -79l-34 -157h-96
l64 303h93l-8 -40c21 24 47 46 100 46z" />
    <glyph glyph-name="n.subs" horiz-adv-x="364" 
d="M20 175h94l-9 -42c21 27 52 48 104 48c56 0 87 -29 87 -89c0 -16 -2 -33 -6 -52l-36 -168h-96l33 154c4 15 6 28 6 40c0 28 -13 42 -38 42c-33 0 -62 -22 -74 -78l-33 -158h-96z" />
    <glyph glyph-name="o.subs" horiz-adv-x="352" 
d="M63 12c0 -51 21 -73 57 -73c49 0 68 46 68 93c0 55 -22 77 -58 77c-48 0 -67 -50 -67 -97zM286 39c0 -97 -60 -174 -168 -174c-85 0 -153 44 -153 141c0 100 62 177 169 177c86 0 152 -51 152 -144z" />
    <glyph glyph-name="p.subs" horiz-adv-x="368" 
d="M117 175l-7 -37c27 35 60 44 87 44c65 0 112 -48 112 -124c0 -95 -57 -193 -158 -193c-48 0 -75 27 -88 54l-30 -146h-96l85 402h95zM76 0c0 -33 20 -60 55 -60c57 0 78 52 78 102c0 37 -17 66 -52 66c-60 0 -81 -70 -81 -108z" />
    <glyph glyph-name="q.subs" horiz-adv-x="366" 
d="M131 -227l29 136c-27 -35 -60 -44 -88 -44c-64 0 -112 48 -112 124c0 95 57 193 159 193c48 0 75 -27 87 -54l10 47h96l-85 -402h-96zM193 45c0 33 -20 62 -55 62c-57 0 -78 -51 -78 -102c0 -37 17 -66 52 -66c59 0 81 66 81 106z" />
    <glyph glyph-name="r.subs" horiz-adv-x="241" 
d="M213 179l-21 -101c-12 2 -23 3 -33 3c-39 0 -66 -12 -75 -55l-32 -154h-96l64 303h93l-13 -58c21 35 56 62 104 62h9z" />
    <glyph glyph-name="s.subs" horiz-adv-x="319" 
d="M259 77h-84c-4 27 -31 35 -63 35c-28 0 -40 -11 -40 -23c0 -9 8 -17 31 -24l46 -13c61 -19 93 -39 93 -84c0 -72 -69 -103 -137 -103c-78 0 -145 35 -153 113h83c4 -32 35 -42 72 -42c27 0 44 7 44 22c0 8 -7 16 -40 27l-45 13c-47 15 -84 40 -84 87c0 68 68 97 130 97
c68 0 134 -28 147 -105z" />
    <glyph glyph-name="t.subs" horiz-adv-x="239" 
d="M34 175l19 83h96l-19 -83h68l-14 -68h-68l-28 -132c-1 -7 -2 -10 -2 -15c0 -15 10 -19 35 -19h28l-15 -69h-61c-61 0 -89 8 -89 51c0 11 1 20 4 35l32 149h-49l15 68h48z" />
    <glyph glyph-name="u.subs" horiz-adv-x="362" 
d="M151 -128l9 40c-20 -25 -50 -47 -105 -47c-56 0 -88 28 -88 88c0 16 3 33 7 52l35 170h96l-33 -155c-3 -16 -5 -28 -5 -39c0 -29 13 -44 38 -44c35 0 62 23 74 79l33 159h96l-64 -303h-93z" />
    <glyph glyph-name="v.subs" horiz-adv-x="313" 
d="M67 175l19 -214l98 214h100l-160 -303h-114l-39 303h96z" />
    <glyph glyph-name="w.subs" horiz-adv-x="469" 
d="M67 -22l83 197h113l-3 -197l78 197h101l-132 -303h-118l1 218l-91 -218h-123l4 303h97z" />
    <glyph glyph-name="x.subs" horiz-adv-x="346" 
d="M319 175l-145 -152l87 -151h-98l-51 86l-82 -86h-108l150 157l-85 146h100l46 -81l78 81h108z" />
    <glyph glyph-name="y.subs" horiz-adv-x="321" 
d="M98 -29l96 204h99l-160 -305c-48 -93 -63 -97 -143 -97h-50l14 69h24c36 0 33 2 47 24l4 7l-58 302h98z" />
    <glyph glyph-name="z.subs" horiz-adv-x="330" 
d="M-61 -128l16 74l189 155h-147l15 74h272l-15 -74l-190 -155h166l-16 -74h-290z" />
    <glyph glyph-name="uni2081" unicode="&#x2081;" horiz-adv-x="241" 
d="M114 -128h-96l57 268h-93l14 71c71 3 105 25 132 69h73z" />
    <glyph glyph-name="uni2082" unicode="&#x2082;" horiz-adv-x="363" 
d="M93 138h-94c8 77 59 149 175 149c84 0 145 -37 145 -105c0 -92 -110 -176 -226 -232h179l-16 -78h-317l16 76c120 64 263 144 263 220c0 36 -27 49 -54 49c-45 0 -67 -32 -71 -79z" />
    <glyph glyph-name="uni2083" unicode="&#x2083;" horiz-adv-x="356" 
d="M-46 4h97c0 -51 37 -68 68 -68c39 0 70 17 70 56c0 32 -30 50 -77 50h-28l17 80h28c43 0 83 10 83 47c0 33 -23 48 -54 48c-27 0 -68 -7 -76 -54h-92c20 72 72 124 179 124c76 0 145 -35 145 -102c0 -47 -19 -81 -70 -100c33 -20 45 -48 45 -77c0 -97 -82 -143 -171 -143
s-155 48 -164 139z" />
    <glyph glyph-name="uni2084" unicode="&#x2084;" horiz-adv-x="373" 
d="M191 156l-118 -115h94zM316 41l-18 -84h-53l-19 -85h-95l18 85h-198l16 75l259 248h88l-51 -239h53z" />
    <glyph glyph-name="uni2085" unicode="&#x2085;" horiz-adv-x="360" 
d="M118 203l-23 -74c17 11 42 17 75 17c68 0 126 -43 126 -126c0 -101 -74 -155 -173 -155c-75 0 -156 39 -161 136h93c3 -44 31 -65 71 -65c43 0 71 24 71 71c0 48 -30 69 -67 69c-28 0 -52 -10 -67 -37l-77 26l70 215h260l-16 -77h-182z" />
    <glyph glyph-name="uni2086" unicode="&#x2086;" horiz-adv-x="372" 
d="M199 16c0 39 -21 63 -60 63c-43 0 -69 -31 -69 -78c0 -39 23 -66 60 -66c39 0 69 30 69 81zM317 164h-94c-3 31 -18 54 -57 54s-70 -30 -77 -94c20 19 45 26 76 26c72 0 132 -50 132 -129c0 -91 -76 -156 -167 -156c-104 0 -154 61 -154 169c0 119 63 253 202 253
c79 0 135 -42 139 -123z" />
    <glyph glyph-name="uni2087" unicode="&#x2087;" horiz-adv-x="314" 
d="M-9 203l16 77h307l-16 -78c-137 -86 -204 -161 -236 -330h-101c24 166 114 259 237 331h-207z" />
    <glyph glyph-name="uni2088" unicode="&#x2088;" horiz-adv-x="371" 
d="M262 85c29 -24 39 -48 39 -77c0 -102 -91 -144 -171 -144c-75 0 -161 33 -161 125c0 45 24 85 69 108c-19 17 -29 43 -29 71c0 83 86 119 157 119c77 0 152 -34 152 -108c0 -43 -25 -75 -56 -94zM68 -5c0 -35 21 -59 65 -59c35 0 69 21 69 64c0 35 -18 55 -65 55
c-39 0 -69 -24 -69 -60zM102 167c0 -32 22 -48 57 -48s63 13 63 50c0 28 -21 48 -60 48c-33 0 -60 -17 -60 -50z" />
    <glyph glyph-name="uni2089" unicode="&#x2089;" horiz-adv-x="367" 
d="M89 136c0 -39 20 -64 59 -64c43 0 70 31 70 78c0 39 -23 67 -60 67c-39 0 -69 -32 -69 -81zM-30 -11h95c3 -33 18 -55 57 -55c40 0 70 30 78 93c-21 -19 -46 -26 -77 -26c-72 0 -132 50 -132 130c0 91 76 156 167 156c104 0 153 -61 153 -169c0 -119 -61 -253 -201 -253
c-77 0 -135 41 -140 124z" />
    <glyph glyph-name="uni2080" unicode="&#x2080;" horiz-adv-x="386" 
d="M74 41c0 -64 24 -105 69 -105c74 0 91 113 91 174c0 64 -24 107 -68 107c-74 0 -92 -112 -92 -176zM332 111c0 -120 -48 -246 -195 -246c-110 0 -161 72 -161 175c0 120 49 247 193 247c112 0 163 -73 163 -176z" />
    <glyph glyph-name="uni2080.zero" horiz-adv-x="399" 
d="M332 111c0 -120 -48 -246 -195 -246c-110 0 -161 72 -161 175c0 120 49 247 193 247c112 0 163 -73 163 -176zM143 -64c57 0 80 68 88 127l-157 -39c4 -53 28 -88 69 -88zM166 217c-55 0 -80 -61 -88 -118l154 38c-7 49 -29 80 -66 80z" />
    <glyph glyph-name="period.subs" horiz-adv-x="167" 
d="M-137 -128l21 100h104l-21 -100h-104z" />
    <glyph glyph-name="hyphen.subs" horiz-adv-x="235" 
d="M69 -17h-199l17 84h199z" />
    <glyph glyph-name="comma.subs" horiz-adv-x="177" 
d="M-131 -130l21 102h107l-23 -109l-68 -87h-63l61 94h-35z" />
    <glyph glyph-name="equal.subs" horiz-adv-x="371" 
d="M198 -81h-305v84h305v-84zM198 46h-305v84h305v-84z" />
    <glyph glyph-name="plus.subs" horiz-adv-x="377" 
d="M96 -128h-93v111h-116v84h116v110h93v-110h116v-84h-116v-111z" />
    <glyph glyph-name="minus.subs" horiz-adv-x="369" 
d="M-113 67h320v-84h-320v84z" />
    <glyph glyph-name="uni208D" unicode="&#x208d;" horiz-adv-x="199" 
d="M7 -235h-88c-19 40 -42 115 -42 198c0 117 53 229 129 317h95c-77 -99 -128 -206 -128 -331c0 -68 15 -133 34 -184z" />
    <glyph glyph-name="uni208E" unicode="&#x208e;" horiz-adv-x="201" 
d="M-86 280h88c19 -40 43 -114 43 -197c0 -116 -54 -230 -130 -318h-94c76 100 128 207 128 332c0 68 -15 134 -35 183z" />
    <glyph glyph-name="one.frac" horiz-adv-x="241" 
d="M207 317h-96l57 268h-93l14 71c71 3 105 25 132 69h73z" />
    <glyph glyph-name="two.frac" horiz-adv-x="363" 
d="M186 583h-94c8 77 59 149 175 149c84 0 145 -37 145 -105c0 -92 -110 -176 -226 -232h179l-16 -78h-317l16 76c120 64 263 144 263 220c0 36 -27 49 -54 49c-45 0 -67 -32 -71 -79z" />
    <glyph glyph-name="three.frac" horiz-adv-x="356" 
d="M47 449h97c0 -51 37 -68 68 -68c39 0 70 17 70 56c0 32 -30 50 -77 50h-28l17 80h28c43 0 83 10 83 47c0 33 -23 48 -54 48c-27 0 -68 -7 -76 -54h-92c20 72 72 124 179 124c76 0 145 -35 145 -102c0 -47 -19 -81 -70 -100c33 -20 45 -48 45 -77
c0 -97 -82 -143 -171 -143s-155 48 -164 139z" />
    <glyph glyph-name="four.frac" horiz-adv-x="373" 
d="M284 601l-118 -115h94zM409 486l-18 -84h-53l-19 -85h-95l18 85h-198l16 75l259 248h88l-51 -239h53z" />
    <glyph glyph-name="five.frac" horiz-adv-x="360" 
d="M211 648l-23 -74c17 11 42 17 75 17c68 0 126 -43 126 -126c0 -101 -74 -155 -173 -155c-75 0 -156 39 -161 136h93c3 -44 31 -65 71 -65c43 0 71 24 71 71c0 48 -30 69 -67 69c-28 0 -52 -10 -67 -37l-77 26l70 215h260l-16 -77h-182z" />
    <glyph glyph-name="six.frac" horiz-adv-x="372" 
d="M292 461c0 39 -21 63 -60 63c-43 0 -69 -31 -69 -78c0 -39 23 -66 60 -66c39 0 69 30 69 81zM410 609h-94c-3 31 -18 54 -57 54s-70 -30 -77 -94c20 19 45 26 76 26c72 0 132 -50 132 -129c0 -91 -76 -156 -167 -156c-104 0 -154 61 -154 169c0 119 63 253 202 253
c79 0 135 -42 139 -123z" />
    <glyph glyph-name="seven.frac" horiz-adv-x="314" 
d="M84 648l16 77h307l-16 -78c-137 -86 -204 -161 -236 -330h-101c24 166 114 259 237 331h-207z" />
    <glyph glyph-name="eight.frac" horiz-adv-x="371" 
d="M355 530c29 -24 39 -48 39 -77c0 -102 -91 -144 -171 -144c-75 0 -161 33 -161 125c0 45 24 85 69 108c-19 17 -29 43 -29 71c0 83 86 119 157 119c77 0 152 -34 152 -108c0 -43 -25 -75 -56 -94zM161 440c0 -35 21 -59 65 -59c35 0 69 21 69 64c0 35 -18 55 -65 55
c-39 0 -69 -24 -69 -60zM195 612c0 -32 22 -48 57 -48s63 13 63 50c0 28 -21 48 -60 48c-33 0 -60 -17 -60 -50z" />
    <glyph glyph-name="nine.frac" horiz-adv-x="367" 
d="M182 581c0 -39 20 -64 59 -64c43 0 70 31 70 78c0 39 -23 67 -60 67c-39 0 -69 -32 -69 -81zM63 434h95c3 -33 18 -55 57 -55c40 0 70 30 78 93c-21 -19 -46 -26 -77 -26c-72 0 -132 50 -132 130c0 91 76 156 167 156c104 0 153 -61 153 -169c0 -119 -61 -253 -201 -253
c-77 0 -135 41 -140 124z" />
    <glyph glyph-name="zero.frac" horiz-adv-x="386" 
d="M167 486c0 -64 24 -105 69 -105c74 0 91 113 91 174c0 64 -24 107 -68 107c-74 0 -92 -112 -92 -176zM425 556c0 -120 -48 -246 -195 -246c-110 0 -161 72 -161 175c0 120 49 247 193 247c112 0 163 -73 163 -176z" />
    <glyph glyph-name="zero.frac_zero" horiz-adv-x="399" 
d="M425 556c0 -120 -48 -246 -195 -246c-110 0 -161 72 -161 175c0 120 49 247 193 247c112 0 163 -73 163 -176zM236 381c57 0 80 68 88 127l-157 -39c4 -53 28 -88 69 -88zM259 662c-55 0 -80 -61 -88 -118l154 38c-7 49 -29 80 -66 80z" />
    <glyph glyph-name="one.dnom" horiz-adv-x="241" 
d="M139 0h-96l57 268h-93l14 71c71 3 105 25 132 69h73z" />
    <glyph glyph-name="two.dnom" horiz-adv-x="363" 
d="M118 266h-94c8 77 59 149 175 149c84 0 145 -37 145 -105c0 -92 -110 -176 -226 -232h179l-16 -78h-317l16 76c120 64 263 144 263 220c0 36 -27 49 -54 49c-45 0 -67 -32 -71 -79z" />
    <glyph glyph-name="three.dnom" horiz-adv-x="356" 
d="M-21 132h97c0 -51 37 -68 68 -68c39 0 70 17 70 56c0 32 -30 50 -77 50h-28l17 80h28c43 0 83 10 83 47c0 33 -23 48 -54 48c-27 0 -68 -7 -76 -54h-92c20 72 72 124 179 124c76 0 145 -35 145 -102c0 -47 -19 -81 -70 -100c33 -20 45 -48 45 -77
c0 -97 -82 -143 -171 -143s-155 48 -164 139z" />
    <glyph glyph-name="four.dnom" horiz-adv-x="373" 
d="M216 284l-118 -115h94zM341 169l-18 -84h-53l-19 -85h-95l18 85h-198l16 75l259 248h88l-51 -239h53z" />
    <glyph glyph-name="five.dnom" horiz-adv-x="360" 
d="M143 331l-23 -74c17 11 42 17 75 17c68 0 126 -43 126 -126c0 -101 -74 -155 -173 -155c-75 0 -156 39 -161 136h93c3 -44 31 -65 71 -65c43 0 71 24 71 71c0 48 -30 69 -67 69c-28 0 -52 -10 -67 -37l-77 26l70 215h260l-16 -77h-182z" />
    <glyph glyph-name="six.dnom" horiz-adv-x="372" 
d="M224 144c0 39 -21 63 -60 63c-43 0 -69 -31 -69 -78c0 -39 23 -66 60 -66c39 0 69 30 69 81zM342 292h-94c-3 31 -18 54 -57 54s-70 -30 -77 -94c20 19 45 26 76 26c72 0 132 -50 132 -129c0 -91 -76 -156 -167 -156c-104 0 -154 61 -154 169c0 119 63 253 202 253
c79 0 135 -42 139 -123z" />
    <glyph glyph-name="seven.dnom" horiz-adv-x="314" 
d="M16 331l16 77h307l-16 -78c-137 -86 -204 -161 -236 -330h-101c24 166 114 259 237 331h-207z" />
    <glyph glyph-name="eight.dnom" horiz-adv-x="371" 
d="M287 213c29 -24 39 -48 39 -77c0 -102 -91 -144 -171 -144c-75 0 -161 33 -161 125c0 45 24 85 69 108c-19 17 -29 43 -29 71c0 83 86 119 157 119c77 0 152 -34 152 -108c0 -43 -25 -75 -56 -94zM93 123c0 -35 21 -59 65 -59c35 0 69 21 69 64c0 35 -18 55 -65 55
c-39 0 -69 -24 -69 -60zM127 295c0 -32 22 -48 57 -48s63 13 63 50c0 28 -21 48 -60 48c-33 0 -60 -17 -60 -50z" />
    <glyph glyph-name="nine.dnom" horiz-adv-x="367" 
d="M114 264c0 -39 20 -64 59 -64c43 0 70 31 70 78c0 39 -23 67 -60 67c-39 0 -69 -32 -69 -81zM-5 117h95c3 -33 18 -55 57 -55c40 0 70 30 78 93c-21 -19 -46 -26 -77 -26c-72 0 -132 50 -132 130c0 91 76 156 167 156c104 0 153 -61 153 -169c0 -119 -61 -253 -201 -253
c-77 0 -135 41 -140 124z" />
    <glyph glyph-name="zero.dnom" horiz-adv-x="386" 
d="M99 169c0 -64 24 -105 69 -105c74 0 91 113 91 174c0 64 -24 107 -68 107c-74 0 -92 -112 -92 -176zM357 239c0 -120 -48 -246 -195 -246c-110 0 -161 72 -161 175c0 120 49 247 193 247c112 0 163 -73 163 -176z" />
    <glyph glyph-name="zero.dnom_zero" horiz-adv-x="399" 
d="M357 239c0 -120 -48 -246 -195 -246c-110 0 -161 72 -161 175c0 120 49 247 193 247c112 0 163 -73 163 -176zM168 64c57 0 80 68 88 127l-157 -39c4 -53 28 -88 69 -88zM191 345c-55 0 -80 -61 -88 -118l154 38c-7 49 -29 80 -66 80z" />
    <glyph glyph-name="ampersand.case" horiz-adv-x="701" 
d="M-13 186c0 116 75 170 197 215c-35 43 -68 101 -68 169c0 101 96 168 227 168c96 0 208 -36 208 -156c0 -81 -50 -151 -174 -211l99 -116c21 43 37 90 49 145h128c-11 -67 -41 -157 -98 -237l139 -163h-168l-59 69c-63 -49 -139 -82 -235 -82c-152 0 -245 87 -245 199z
M129 198c0 -59 41 -108 126 -108c56 0 104 21 144 58l-150 176c-72 -28 -120 -58 -120 -126zM413 567c0 45 -32 71 -76 71c-40 0 -82 -20 -82 -73c0 -50 35 -92 58 -118c72 28 100 69 100 120z" />
    <glyph glyph-name="hyphen.case" horiz-adv-x="436" 
d="M389 302h-331l25 120h331z" />
    <glyph glyph-name="endash.case" horiz-adv-x="532" 
d="M496 302h-448l25 120h447z" />
    <glyph glyph-name="emdash.case" horiz-adv-x="749" 
d="M712 302h-664l25 120h664z" />
    <glyph glyph-name="question.case" horiz-adv-x="525" 
d="M185 489h-140c5 148 113 249 279 249c126 0 265 -51 265 -179c0 -88 -72 -148 -157 -191c-72 -37 -119 -60 -135 -142l-5 -18h-140l4 23c18 111 72 163 148 203c43 24 132 55 132 115c0 43 -41 75 -108 75c-80 0 -136 -42 -143 -135zM251 0h-148l31 150h148z" />
    <glyph glyph-name="questiondown.case" horiz-adv-x="525" 
d="M380 233h139c-5 -149 -113 -246 -278 -246c-125 0 -266 42 -266 170c0 88 61 146 157 189c75 35 120 60 136 143l4 18h141l-4 -24c-21 -110 -69 -158 -149 -198c-45 -21 -131 -56 -131 -114c0 -43 42 -70 107 -70c80 0 137 40 144 132zM431 575h-148l31 150h148z" />
    <glyph glyph-name="exclam.case" horiz-adv-x="291" 
d="M180 214h-91l34 325l39 186h159l-39 -186zM162 0h-148l31 150h148z" />
    <glyph glyph-name="exclamdown.case" horiz-adv-x="291" 
d="M147 500h90l-33 -325l-37 -175h-159l37 175zM283 575h-148l31 150h148z" />
    <glyph glyph-name="guilsinglleft.case" horiz-adv-x="317" 
d="M144 138l-116 230l202 229h129l-173 -229l75 -230h-117z" />
    <glyph glyph-name="guilsinglright.case" horiz-adv-x="317" 
d="M323 368l-203 -230h-127l172 230l-64 229h112z" />
    <glyph glyph-name="guillemotleft.case" horiz-adv-x="537" 
d="M144 138l-116 230l202 229h129l-173 -229l75 -230h-117zM364 138l-116 230l202 229h129l-173 -229l75 -230h-117z" />
    <glyph glyph-name="guillemotright.case" horiz-adv-x="537" 
d="M323 368l-203 -230h-127l172 230l-64 229h112zM543 368l-203 -230h-127l172 230l-64 229h112z" />
    <glyph glyph-name="parenleft.case" horiz-adv-x="272" 
d="M217 0h-131c-25 63 -53 162 -53 271c0 167 76 313 199 454h142c-113 -137 -197 -291 -197 -462c0 -96 15 -191 40 -263z" />
    <glyph glyph-name="parenright.case" horiz-adv-x="272" 
d="M83 725h131c25 -63 53 -162 53 -271c0 -167 -76 -313 -199 -454h-142c113 137 197 292 197 463c0 96 -15 190 -40 262z" />
    <glyph glyph-name="bracketleft.case" horiz-adv-x="316" 
d="M170 725h256l-21 -100h-134l-112 -524h134l-21 -101h-256z" />
    <glyph glyph-name="bracketright.case" horiz-adv-x="316" 
d="M83 725h255l-154 -725h-255l21 101h133l112 524h-133z" />
    <glyph glyph-name="braceleft.case" horiz-adv-x="317" 
d="M273 0h-35c-117 0 -169 38 -169 122c0 15 2 32 6 51l7 33c4 19 7 36 7 51c0 32 -13 52 -60 52l23 110c67 0 85 39 98 103l6 30c29 139 66 173 236 173h34l-23 -110h-16c-66 0 -83 -20 -94 -71l-10 -43c-21 -91 -68 -123 -124 -136v-2c41 -11 71 -34 71 -91
c0 -13 -1 -29 -5 -46l-10 -45c-3 -11 -4 -21 -4 -30c0 -29 17 -41 70 -41h15z" />
    <glyph glyph-name="braceright.case" horiz-adv-x="317" 
d="M81 725h36c117 0 167 -38 167 -122c0 -15 -2 -32 -5 -51l-6 -32c-4 -19 -6 -36 -6 -51c0 -33 13 -53 60 -53l-23 -109c-68 0 -86 -41 -99 -104l-6 -30c-29 -139 -64 -173 -235 -173h-36l23 110h17c68 0 83 20 96 71l10 43c22 92 67 123 122 136v3c-41 11 -71 33 -71 90
c0 13 1 29 5 46l10 45c3 11 4 21 4 30c0 29 -17 41 -70 41h-16z" />
    <glyph glyph-name="bar.case" horiz-adv-x="245" 
d="M65 725h115v-725h-115v725z" />
    <glyph glyph-name="brokenbar.case" horiz-adv-x="239" 
d="M62 725h115v-260h-115v260zM62 260h115v-260h-115v260z" />
    <glyph glyph-name="periodcentered.case" horiz-adv-x="273" 
d="M215 288h-148l31 150h148z" />
    <glyph glyph-name="bullet.case" horiz-adv-x="440" 
d="M234 191c-96 0 -176 79 -176 183c0 98 80 177 176 177c105 0 184 -79 184 -177c0 -104 -79 -183 -184 -183z" />
    <glyph glyph-name="plus.case" 
d="M422 95h-125v207h-216v120h216v212h125v-212h215v-120h-215v-207z" />
    <glyph glyph-name="minus.case" 
d="M92 422h535v-120h-535v120z" />
    <glyph glyph-name="divide.case" 
d="M284 117v139h148v-139h-148zM284 461v140h148v-140h-148zM627 302h-535v120h535v-120z" />
    <glyph glyph-name="multiply.case" 
d="M594 206l-80 -81l-161 160l-159 -159l-73 72l159 161l-157 157l81 80l157 -157l160 160l72 -74l-159 -159z" />
    <glyph glyph-name="equal.case" 
d="M612 405h-508v120h508v-120zM612 194h-508v121h508v-121z" />
    <glyph glyph-name="plusminus.case" 
d="M281 497v125h127v-125h214v-120h-214v-127h-127v127h-215v120h215zM622 95h-556v121h556v-121z" />
    <glyph glyph-name="less.case" 
d="M78 419l516 220v-134l-364 -143l364 -143v-135l-516 221v114z" />
    <glyph glyph-name="greater.case" 
d="M631 419v-114l-516 -221v135l365 143l-365 143v134z" />
    <glyph glyph-name="lessequal.case" 
d="M245 432l367 -79v-123l-535 145v114l535 145v-124zM77 95v121h535v-121h-535z" />
    <glyph glyph-name="greaterequal.case" 
d="M459 432l-367 78v124l535 -145v-114l-535 -145v123zM627 95h-535v121h535v-121z" />
    <glyph glyph-name="notequal.case" 
d="M209 194h-105v121h168l46 90h-214v120h276l66 126l101 -51l-39 -75h104v-120h-166l-47 -90h213v-121h-275l-73 -141l-101 52z" />
    <glyph glyph-name="acute.case" horiz-adv-x="314" 
d="M425 886l-181 -113h-116l128 113h169z" />
    <glyph glyph-name="breve.case" horiz-adv-x="379" 
d="M371 886h97c-20 -81 -83 -117 -187 -117c-97 0 -152 33 -152 109v8h91v-4c0 -28 23 -42 68 -42c48 0 79 11 83 46z" />
    <glyph glyph-name="caron.case" horiz-adv-x="436" 
d="M233 773l-112 113h128l58 -50l77 50h133l-165 -113h-119z" />
    <glyph glyph-name="cedilla.case" horiz-adv-x="253" 
d="M6 -80l69 83h52l-43 -51c8 2 17 3 27 3c36 0 78 -15 78 -59c0 -61 -71 -91 -132 -91c-33 0 -60 4 -89 15l19 48c15 -7 39 -14 64 -14c29 0 56 9 56 36c0 15 -14 22 -35 22c-11 0 -28 -2 -41 -9z" />
    <glyph glyph-name="circumflex.case" horiz-adv-x="436" 
d="M391 886l112 -113h-128l-58 49l-77 -49h-133l165 113h119z" />
    <glyph glyph-name="dieresis.case" horiz-adv-x="397" 
d="M121 886h115l-25 -113h-115zM361 886h115l-25 -113h-115z" />
    <glyph glyph-name="dotaccent.case" horiz-adv-x="159" 
d="M120 886h143l-25 -113h-142z" />
    <glyph glyph-name="grave.case" horiz-adv-x="310" 
d="M237 773l-138 113h169l78 -113h-109z" />
    <glyph glyph-name="hungarumlaut.case" horiz-adv-x="433" 
d="M395 886l-184 -113h-112l127 113h169zM584 886l-184 -113h-113l128 113h169z" />
    <glyph glyph-name="macron.case" horiz-adv-x="375" 
d="M422 782h-313l20 95h314z" />
    <glyph glyph-name="ogonek.case" horiz-adv-x="316" 
d="M84 0h135c-25 -11 -103 -38 -103 -76c0 -23 19 -31 43 -31c12 0 25 2 38 5l-18 -81c-19 -3 -39 -5 -62 -5c-60 0 -127 16 -127 83c0 51 47 82 94 105z" />
    <glyph glyph-name="ring.case" horiz-adv-x="280" 
d="M224 935c51 0 91 -34 91 -85c0 -49 -40 -85 -91 -85s-90 36 -90 85c0 51 41 85 90 85zM224 893c-23 0 -43 -18 -43 -43s20 -42 43 -42s43 17 43 42s-20 43 -43 43z" />
    <glyph glyph-name="tilde.case" horiz-adv-x="437" 
d="M352 853c29 0 43 15 50 40h93c-19 -109 -94 -127 -136 -127c-63 0 -85 41 -124 41c-29 0 -43 -14 -48 -41h-94c19 109 96 127 137 127c62 0 79 -40 122 -40z" />
    <glyph glyph-name="a.salt" horiz-adv-x="616" 
d="M361 0l9 53c-33 -45 -88 -66 -148 -66c-140 0 -195 117 -195 235c0 180 103 328 271 328c75 0 125 -30 153 -85l15 73h138l-114 -538h-129zM415 306c0 81 -31 138 -102 138c-101 0 -146 -107 -146 -213c0 -85 29 -138 100 -138c101 0 148 114 148 213z" />
    <glyph glyph-name="aacute.salt" horiz-adv-x="616" 
d="M361 0l9 53c-33 -45 -88 -66 -148 -66c-140 0 -195 117 -195 235c0 180 103 328 271 328c75 0 125 -30 153 -85l15 73h138l-114 -538h-129zM415 306c0 81 -31 138 -102 138c-101 0 -146 -107 -146 -213c0 -85 29 -138 100 -138c101 0 148 114 148 213zM570 725l-172 -127
h-109l124 127h157z" />
    <glyph glyph-name="abreve.salt" horiz-adv-x="616" 
d="M361 0l9 53c-33 -45 -88 -66 -148 -66c-140 0 -195 117 -195 235c0 180 103 328 271 328c75 0 125 -30 153 -85l15 73h138l-114 -538h-129zM415 306c0 81 -31 138 -102 138c-101 0 -146 -107 -146 -213c0 -85 29 -138 100 -138c101 0 148 114 148 213zM448 725h98
c-19 -84 -73 -130 -188 -130c-101 0 -152 48 -152 111v9c0 3 0 7 1 10h90c0 -3 -1 -6 -1 -9c0 -28 21 -50 68 -50c43 0 79 10 84 59z" />
    <glyph glyph-name="acircumflex.salt" horiz-adv-x="616" 
d="M361 0l9 53c-33 -45 -88 -66 -148 -66c-140 0 -195 117 -195 235c0 180 103 328 271 328c75 0 125 -30 153 -85l15 73h138l-114 -538h-129zM415 306c0 81 -31 138 -102 138c-101 0 -146 -107 -146 -213c0 -85 29 -138 100 -138c101 0 148 114 148 213zM434 725l123 -127
h-117l-67 53l-89 -53h-123l175 127h98z" />
    <glyph glyph-name="adieresis.salt" horiz-adv-x="616" 
d="M361 0l9 53c-33 -45 -88 -66 -148 -66c-140 0 -195 117 -195 235c0 180 103 328 271 328c75 0 125 -30 153 -85l15 73h138l-114 -538h-129zM415 306c0 81 -31 138 -102 138c-101 0 -146 -107 -146 -213c0 -85 29 -138 100 -138c101 0 148 114 148 213zM209 725h115
l-25 -119h-114zM449 725h115l-25 -119h-115z" />
    <glyph glyph-name="agrave.salt" horiz-adv-x="616" 
d="M361 0l9 53c-33 -45 -88 -66 -148 -66c-140 0 -195 117 -195 235c0 180 103 328 271 328c75 0 125 -30 153 -85l15 73h138l-114 -538h-129zM415 306c0 81 -31 138 -102 138c-101 0 -146 -107 -146 -213c0 -85 29 -138 100 -138c101 0 148 114 148 213zM290 598l-127 127
h157l66 -127h-96z" />
    <glyph glyph-name="amacron.salt" horiz-adv-x="616" 
d="M361 0l9 53c-33 -45 -88 -66 -148 -66c-140 0 -195 117 -195 235c0 180 103 328 271 328c75 0 125 -30 153 -85l15 73h138l-114 -538h-129zM415 306c0 81 -31 138 -102 138c-101 0 -146 -107 -146 -213c0 -85 29 -138 100 -138c101 0 148 114 148 213zM204 611l20 95h314
l-21 -95h-313z" />
    <glyph glyph-name="aogonek.salt" horiz-adv-x="616" 
d="M361 0l9 53c-33 -45 -88 -66 -148 -66c-140 0 -195 117 -195 235c0 180 103 328 271 328c75 0 125 -30 153 -85l15 73h138l-114 -538c-25 -11 -103 -38 -103 -76c0 -23 19 -31 43 -31c12 0 25 2 38 5l-17 -81c-19 -3 -40 -5 -63 -5c-60 0 -127 16 -127 83
c0 51 53 82 100 105zM415 306c0 81 -31 138 -102 138c-101 0 -146 -107 -146 -213c0 -85 29 -138 100 -138c101 0 148 114 148 213z" />
    <glyph glyph-name="aring.salt" horiz-adv-x="616" 
d="M361 0l9 53c-33 -45 -88 -66 -148 -66c-140 0 -195 117 -195 235c0 180 103 328 271 328c75 0 125 -30 153 -85l15 73h138l-114 -538h-129zM415 306c0 81 -31 138 -102 138c-101 0 -146 -107 -146 -213c0 -85 29 -138 100 -138c101 0 148 114 148 213zM260 685
c0 52 43 90 95 90c51 0 94 -39 94 -90s-42 -89 -94 -89c-53 0 -95 37 -95 89zM396 685c0 24 -18 41 -41 41s-41 -17 -41 -41c0 -23 18 -39 41 -39s41 16 41 39z" />
    <glyph glyph-name="atilde.salt" horiz-adv-x="616" 
d="M361 0l9 53c-33 -45 -88 -66 -148 -66c-140 0 -195 117 -195 235c0 180 103 328 271 328c75 0 125 -30 153 -85l15 73h138l-114 -538h-129zM415 306c0 81 -31 138 -102 138c-101 0 -146 -107 -146 -213c0 -85 29 -138 100 -138c101 0 148 114 148 213zM308 725
c74 0 95 -44 144 -44c35 0 52 21 55 44h95c-15 -89 -69 -127 -141 -127c-74 0 -103 44 -146 44c-35 0 -50 -20 -55 -44h-95c11 86 76 127 143 127z" />
    <glyph glyph-name="l.ss02" horiz-adv-x="292" 
d="M36 145l125 580h138l-120 -553c-3 -15 -5 -27 -5 -34c0 -25 15 -31 59 -31h20l-23 -107h-79c-93 0 -124 22 -124 78c0 19 3 41 9 67z" />
    <glyph glyph-name="lacute.ss02" horiz-adv-x="292" 
d="M36 145l125 580h138l-120 -553c-3 -15 -5 -27 -5 -34c0 -25 15 -31 59 -31h20l-23 -107h-79c-93 0 -124 22 -124 78c0 19 3 41 9 67zM463 886l-181 -113h-116l128 113h169z" />
    <glyph glyph-name="lcaron.ss02" horiz-adv-x="374" 
d="M36 145l125 580h138l-120 -553c-3 -15 -5 -27 -5 -34c0 -25 15 -31 59 -31h20l-23 -107h-79c-93 0 -124 22 -124 78c0 19 3 41 9 67zM491 724l-105 -170h-91l66 170h130z" />
    <glyph glyph-name="uni013C.ss02" horiz-adv-x="292" 
d="M36 145l125 580h138l-120 -553c-3 -15 -5 -27 -5 -34c0 -25 15 -31 59 -31h20l-23 -107h-79c-93 0 -124 22 -124 78c0 19 3 41 9 67zM12 -136l21 100h106l-23 -106l-63 -89h-65l59 95h-35z" />
    <glyph glyph-name="ldot.ss02" horiz-adv-x="376" 
d="M308 481h115l-25 -118h-115zM36 145l125 580h138l-120 -553c-3 -15 -5 -27 -5 -34c0 -25 15 -31 59 -31h20l-23 -107h-79c-93 0 -124 22 -124 78c0 19 3 41 9 67z" />
    </font>
</defs>
</svg>
