<?xml version="1.0" standalone="no"?>
<!DOCTYPE svg PUBLIC "-//W3C//DTD SVG 1.1//EN" "http://www.w3.org/Graphics/SVG/1.1/DTD/svg11.dtd" >
<svg xmlns="http://www.w3.org/2000/svg" xmlns:xlink="http://www.w3.org/1999/xlink" version="1.1">
<metadata>
Created by FontForge 20170812 at Sun Aug 19 17:21:11 2018
 By root
Copyright \(c\) 2016 Swiss Typefaces Sarl. All rights reserved. |DCNT
</metadata>
<defs>
<font id="SuisseIntl-BlackItalic" horiz-adv-x="678" >
  <font-face 
    font-family="Suisse Intl Black"
    font-weight="900"
    font-style="italic"
    font-stretch="normal"
    units-per-em="1000"
    panose-1="2 11 5 4 0 0 0 0 0 0"
    ascent="750"
    descent="-250"
    x-height="538"
    cap-height="725"
    bbox="-180 -234 1411 935"
    underline-thickness="70"
    underline-position="-110"
    stemh="190"
    stemv="200"
    unicode-range="U+0020-FB02"
  />
<missing-glyph horiz-adv-x="500" 
d="M0 0v725h500v-725h-500zM239 362l-220 334v-667zM260 362l221 -333v667zM250 346l-217 -327h433zM33 706l217 -328l216 328h-433z" />
    <glyph glyph-name="uni0407_uni0407" unicode="&#x407;&#x407;" horiz-adv-x="661" 
d="M374 725l-154 -725h-209l154 725h209zM690 725l-154 -725h-209l154 725h209zM671 886h171l-25 -113h-170zM375 886h171l-25 -113h-170zM79 886h171l-25 -113h-170z" />
    <glyph glyph-name="uni0457_uni0457" unicode="&#x457;&#x457;" horiz-adv-x="664" 
d="M454 538h200l-114 -538h-199zM123 538h200l-114 -538h-199zM66 725h166l-25 -116h-166zM618 725h166l-25 -116h-166zM342 725h166l-25 -116h-166z" />
    <glyph glyph-name=".notdef" horiz-adv-x="500" 
d="M0 0v725h500v-725h-500zM239 362l-220 334v-667zM260 362l221 -333v667zM250 346l-217 -327h433zM33 706l217 -328l216 328h-433z" />
    <glyph glyph-name="NULL" horiz-adv-x="500" 
 />
    <glyph glyph-name="NULL" horiz-adv-x="500" 
 />
    <glyph glyph-name="CR" horiz-adv-x="200" 
 />
    <glyph glyph-name="space" unicode=" " horiz-adv-x="200" 
 />
    <glyph glyph-name="exclam" unicode="!" horiz-adv-x="354" 
d="M155 725h243l-33 -156l-115 -332h-153l25 332zM231 0h-217l45 210h217z" />
    <glyph glyph-name="quotedbl" unicode="&#x22;" horiz-adv-x="413" 
d="M281 725h166l-22 -254h-122zM76 725h166l-22 -254h-122z" />
    <glyph glyph-name="numbersign" unicode="#" horiz-adv-x="826" 
d="M59 562h147l24 163h157l-24 -163h153l24 163h157l-24 -163h150l-18 -138h-152l-20 -140h149l-17 -138h-152l-21 -146h-157l21 146h-153l-21 -146h-157l21 146h-145l18 138h147l20 140h-144zM343 424l-20 -140h153l20 140h-153z" />
    <glyph glyph-name="dollar" unicode="$" horiz-adv-x="674" 
d="M636 230c0 -156 -135 -243 -295 -243c-16 0 -31 1 -46 2l-22 -103h-52l23 111c-122 26 -208 106 -216 255h188c1 -64 20 -96 59 -111l32 148l-54 20c-91 32 -181 90 -181 217c0 137 131 216 288 216c15 0 28 -1 43 -2l17 78h52l-18 -85c112 -24 209 -92 209 -234h-188
c0 45 -21 71 -53 86l-28 -133l21 -7c108 -38 221 -85 221 -215zM436 194c0 33 -26 56 -81 77l-30 -140h19c42 0 92 22 92 63zM271 542c0 -27 16 -51 59 -66l15 -6l27 126c-3 1 -7 1 -10 1h-10c-43 0 -81 -18 -81 -55z" />
    <glyph glyph-name="percent" unicode="%" horiz-adv-x="1050" 
d="M378 0h-166l500 725h166zM185 473c0 -55 19 -78 50 -78c61 0 80 108 80 177c0 53 -20 78 -51 78c-62 0 -79 -108 -79 -177zM430 560c0 -117 -56 -250 -196 -250c-101 0 -165 61 -165 174c0 117 55 250 195 250c103 0 166 -61 166 -174zM775 156c0 -55 19 -78 50 -78
c61 0 80 108 80 177c0 53 -20 78 -51 78c-62 0 -79 -108 -79 -177zM1020 243c0 -117 -56 -250 -196 -250c-101 0 -165 61 -165 174c0 117 55 250 195 250c103 0 166 -61 166 -174z" />
    <glyph glyph-name="ampersand" unicode="&#x26;" horiz-adv-x="818" 
d="M-23 204c0 116 92 177 199 209c-31 47 -48 88 -48 139c0 125 113 190 253 190c152 0 229 -79 229 -167c0 -84 -65 -158 -144 -190l69 -77c16 27 28 55 39 83h211c-17 -57 -65 -136 -136 -211l161 -180h-281l-43 50c-69 -39 -145 -63 -226 -63c-188 0 -283 96 -283 217z
M200 212c0 -45 33 -74 89 -74c33 0 66 8 98 25l-119 138c-35 -19 -68 -48 -68 -89zM430 555c0 29 -20 51 -48 51c-23 0 -45 -14 -45 -49c0 -20 15 -44 42 -75c27 15 51 44 51 73z" />
    <glyph glyph-name="quotesingle" unicode="'" horiz-adv-x="208" 
d="M76 725h166l-22 -254h-122z" />
    <glyph glyph-name="parenleft" unicode="(" horiz-adv-x="361" 
d="M294 -175h-193c-35 72 -82 218 -82 367c0 191 88 383 211 533h204c-128 -169 -216 -343 -216 -538c0 -128 33 -261 76 -362z" />
    <glyph glyph-name="parenright" unicode=")" horiz-adv-x="367" 
d="M71 725h194c35 -72 81 -219 81 -367c0 -191 -88 -383 -211 -533h-204c127 167 216 344 216 538c0 128 -33 261 -76 362z" />
    <glyph glyph-name="asterisk" unicode="*" horiz-adv-x="357" 
d="M276 725v-100l94 36l36 -94l-96 -34l58 -81l-80 -59l-61 84l-57 -84l-85 57l59 83l-97 34l36 94l92 -36v100h101z" />
    <glyph glyph-name="plus" unicode="+" 
d="M439 0h-200v182h-194v174h194v182h200v-182h193v-174h-193v-182z" />
    <glyph glyph-name="comma" unicode="," horiz-adv-x="354" 
d="M13 0l45 210h218l-48 -222l-121 -155h-146l108 167h-56z" />
    <glyph glyph-name="hyphen" unicode="-" horiz-adv-x="486" 
d="M407 181h-368l37 174h368z" />
    <glyph glyph-name="period" unicode="." horiz-adv-x="354" 
d="M231 0h-217l45 210h217z" />
    <glyph glyph-name="slash" unicode="/" horiz-adv-x="460" 
d="M207 0h-208l292 725h208z" />
    <glyph glyph-name="zero" unicode="0" horiz-adv-x="695" 
d="M248 278c0 -96 35 -142 91 -142c111 0 144 192 144 315c0 96 -36 142 -92 142c-112 0 -143 -193 -143 -315zM685 431c0 -207 -97 -444 -348 -444c-180 0 -291 112 -291 310c0 208 97 444 345 444c184 0 294 -112 294 -310z" />
    <glyph glyph-name="one" unicode="1" horiz-adv-x="453" 
d="M315 0h-200l100 471h-159l31 146c126 3 182 34 225 107h157z" />
    <glyph glyph-name="two" unicode="2" horiz-adv-x="664" 
d="M258 463h-191c5 147 106 279 325 279c152 0 281 -51 281 -187c0 -159 -170 -286 -354 -385h273l-36 -170h-577l32 152c247 127 453 267 453 369c0 51 -39 73 -90 73c-56 0 -113 -27 -116 -131z" />
    <glyph glyph-name="three" unicode="3" horiz-adv-x="659" 
d="M11 259h196c0 -81 42 -123 113 -123c47 0 96 27 96 79c0 47 -42 79 -127 82h-28l28 159h32c49 0 131 9 131 77c0 36 -34 61 -85 61c-45 0 -99 -9 -115 -76h-189c24 136 145 224 307 224c112 0 290 -36 290 -193c0 -77 -50 -153 -125 -182c56 -25 87 -83 87 -152
c0 -145 -148 -228 -295 -228c-168 0 -313 84 -316 272z" />
    <glyph glyph-name="four" unicode="4" horiz-adv-x="700" 
d="M419 486l-182 -177h145zM693 309l-36 -170h-111l-30 -139h-200l30 139h-342l31 150l458 436h177l-88 -416h111z" />
    <glyph glyph-name="five" unicode="5" 
d="M325 556l-41 -113c36 29 88 43 140 43c123 0 223 -73 223 -221c0 -180 -140 -278 -316 -278c-154 0 -306 72 -311 253h194c3 -51 30 -104 109 -104c71 0 117 39 117 108c0 59 -34 99 -109 99c-39 0 -84 -18 -109 -57l-168 38l138 401h500l-36 -169h-331z" />
    <glyph glyph-name="six" unicode="6" horiz-adv-x="680" 
d="M439 253c0 51 -33 89 -93 89c-59 0 -107 -45 -107 -116c0 -47 28 -91 93 -91c60 0 107 50 107 118zM670 525h-181c-1 52 -42 69 -93 69c-67 0 -110 -51 -125 -146c35 28 81 39 130 39c128 0 243 -82 243 -226c0 -168 -130 -274 -311 -274c-184 0 -287 115 -287 308
c0 220 117 447 365 447c127 0 256 -65 259 -217z" />
    <glyph glyph-name="seven" unicode="7" horiz-adv-x="605" 
d="M75 556l36 169h585l-36 -169c-225 -131 -382 -296 -409 -556h-220c32 247 213 449 421 556h-377z" />
    <glyph glyph-name="eight" unicode="8" horiz-adv-x="687" 
d="M579 376c49 -39 74 -89 74 -148c0 -168 -167 -241 -316 -241c-161 0 -308 74 -308 231c0 84 51 153 123 190c-35 31 -53 77 -53 128c0 144 151 206 295 206c129 0 284 -56 284 -195c0 -71 -42 -138 -99 -171zM236 226c0 -60 53 -89 106 -89c64 0 108 41 108 94
c0 51 -37 87 -105 87c-60 0 -109 -32 -109 -92zM295 518c0 -41 30 -74 86 -74s93 31 93 78c0 41 -31 70 -86 70c-52 0 -93 -27 -93 -74z" />
    <glyph glyph-name="nine" unicode="9" horiz-adv-x="668" 
d="M266 477c0 -51 33 -90 93 -90c59 0 107 48 107 117c0 47 -27 91 -93 91c-60 0 -107 -51 -107 -118zM35 204h181c1 -51 42 -68 93 -68c67 0 110 50 125 146c-35 -28 -81 -40 -130 -40c-128 0 -243 85 -243 226c0 169 130 274 311 274c184 0 287 -115 287 -307
c0 -221 -117 -448 -365 -448c-127 0 -256 65 -259 217z" />
    <glyph glyph-name="colon" unicode=":" horiz-adv-x="359" 
d="M300 328h-217l45 210h217zM231 0h-217l45 210h217z" />
    <glyph glyph-name="semicolon" unicode=";" horiz-adv-x="363" 
d="M300 328h-217l45 210h217zM13 0l45 210h218l-48 -222l-121 -155h-146l108 167h-56z" />
    <glyph glyph-name="less" unicode="&#x3c;" 
d="M44 355l567 198v-194l-317 -91l317 -92v-193l-567 198v174z" />
    <glyph glyph-name="equal" unicode="=" horiz-adv-x="679" 
d="M623 298h-566v175h566v-175zM623 65h-566v174h566v-174z" />
    <glyph glyph-name="greater" unicode="&#x3e;" 
d="M634 355v-174l-567 -198v193l317 92l-317 91v194z" />
    <glyph glyph-name="question" unicode="?" horiz-adv-x="644" 
d="M251 489h-197c13 179 153 253 340 253c152 0 277 -63 277 -181c0 -116 -111 -172 -180 -204c-93 -43 -105 -61 -116 -120h-203c9 108 57 179 169 224c85 33 122 54 122 85c0 28 -35 48 -86 48c-57 0 -126 -28 -126 -105zM336 0h-217l45 210h217z" />
    <glyph glyph-name="at" unicode="@" horiz-adv-x="826" 
d="M426 459c-56 0 -92 -57 -92 -122c0 -50 21 -75 62 -75c57 0 90 58 90 127c0 43 -23 70 -60 70zM626 152c-56 0 -103 23 -122 78c-31 -53 -75 -79 -134 -79c-87 0 -165 58 -165 186c0 137 109 235 210 235c43 0 86 -13 113 -60l8 44h109l-39 -224c-8 -53 -9 -99 34 -99
c47 0 92 64 92 169c0 165 -114 254 -278 254c-185 0 -311 -134 -311 -310c0 -171 112 -288 277 -288c65 0 127 16 188 47l29 -69c-72 -35 -150 -49 -218 -49c-211 0 -356 149 -356 362c0 211 169 376 393 376c186 0 353 -100 353 -319c0 -162 -87 -254 -183 -254z" />
    <glyph glyph-name="A" unicode="A" horiz-adv-x="739" 
d="M-51 0l413 725h229l112 -725h-222l-14 121h-228l-64 -121h-226zM428 478l-107 -201h129z" />
    <glyph glyph-name="B" unicode="B" horiz-adv-x="723" 
d="M11 0l154 725h313c146 0 252 -36 252 -156c0 -71 -28 -130 -93 -177c35 -24 56 -66 56 -122c0 -193 -168 -270 -352 -270h-330zM282 294l-26 -125h126c40 0 88 23 88 74c0 29 -20 51 -61 51h-127zM338 556l-25 -117h114c36 0 76 25 76 69c0 27 -16 48 -51 48h-114z" />
    <glyph glyph-name="C" unicode="C" horiz-adv-x="766" 
d="M546 278h210c-50 -199 -218 -291 -387 -291c-189 0 -327 103 -327 322c0 208 136 433 409 433c170 0 324 -95 332 -290h-208c-8 67 -39 114 -134 114c-125 0 -180 -144 -180 -248c0 -97 45 -156 137 -156c67 0 121 41 148 116z" />
    <glyph glyph-name="D" unicode="D" horiz-adv-x="759" 
d="M532 399c0 124 -85 157 -185 157h-9l-82 -387h12c150 0 264 72 264 230zM165 725h185c232 0 405 -90 405 -312c0 -272 -200 -413 -511 -413h-233z" />
    <glyph glyph-name="E" unicode="E" horiz-adv-x="686" 
d="M11 0l154 725h562l-38 -179h-353l-19 -92h334l-39 -180h-334l-20 -94h357l-38 -180h-566z" />
    <glyph glyph-name="F" unicode="F" horiz-adv-x="604" 
d="M11 0l154 725h525l-38 -179h-316l-19 -92h297l-39 -180h-297l-58 -274h-209z" />
    <glyph glyph-name="G" unicode="G" horiz-adv-x="842" 
d="M559 0l7 77c-52 -57 -129 -90 -229 -90c-156 0 -295 107 -295 320c0 232 154 435 430 435c211 0 333 -113 346 -264h-206c-11 56 -69 88 -145 88c-148 0 -206 -137 -206 -244c0 -100 48 -160 149 -160c77 0 144 35 167 94l2 7h-174l33 150h378l-89 -413h-168z" />
    <glyph glyph-name="H" unicode="H" horiz-adv-x="803" 
d="M623 725h209l-154 -725h-209l58 274h-249l-58 -274h-209l154 725h209l-57 -271h249z" />
    <glyph glyph-name="I" unicode="I" horiz-adv-x="345" 
d="M374 725l-154 -725h-209l154 725h209z" />
    <glyph glyph-name="J" unicode="J" horiz-adv-x="649" 
d="M678 725l-96 -453c-45 -205 -133 -285 -334 -285c-160 0 -258 72 -258 212c0 24 3 50 9 78h207c-5 -25 -7 -46 -7 -65c0 -56 22 -77 65 -77c55 0 86 33 109 137l96 453h209z" />
    <glyph glyph-name="K" unicode="K" horiz-adv-x="749" 
d="M374 725l-57 -267l280 267h233l-313 -297l174 -428h-216l-109 284l-107 -102l-39 -182h-209l154 725h209z" />
    <glyph glyph-name="L" unicode="L" horiz-adv-x="625" 
d="M374 725l-116 -545h337l-38 -180h-546l154 725h209z" />
    <glyph glyph-name="M" unicode="M" horiz-adv-x="988" 
d="M531 0h-178l-50 489l-104 -489h-188l154 725h282l46 -465l213 465h311l-154 -725h-188l105 492z" />
    <glyph glyph-name="N" unicode="N" horiz-adv-x="803" 
d="M678 0h-246l-122 451l-96 -451h-203l154 725h246l123 -440l93 440h205z" />
    <glyph glyph-name="O" unicode="O" horiz-adv-x="805" 
d="M260 334c-3 -113 52 -172 140 -172c117 0 179 112 187 233c3 113 -52 172 -140 172c-117 0 -179 -112 -187 -233zM805 401c-16 -238 -172 -414 -424 -414c-192 0 -352 114 -339 341c16 238 172 414 424 414c194 0 350 -115 339 -341z" />
    <glyph glyph-name="P" unicode="P" horiz-adv-x="701" 
d="M165 725h269c175 0 298 -43 298 -192c0 -224 -175 -297 -392 -297h-70l-50 -236h-209zM338 556l-32 -151h90c55 0 113 19 113 87c0 41 -29 64 -81 64h-90z" />
    <glyph glyph-name="Q" unicode="Q" horiz-adv-x="806" 
d="M805 401c-11 -153 -78 -280 -194 -352l45 -89l-117 -57l-49 96c-34 -8 -70 -12 -109 -12c-192 0 -352 114 -339 341c16 238 172 414 424 414c194 0 350 -115 339 -341zM362 249l119 60l44 -88c36 44 57 106 62 174c3 113 -52 172 -140 172c-117 0 -179 -112 -187 -233
c-3 -113 52 -172 140 -172h6z" />
    <glyph glyph-name="R" unicode="R" horiz-adv-x="732" 
d="M456 0l-95 255h-86l-54 -255h-209l154 725h269c175 0 298 -43 298 -192c0 -137 -77 -210 -178 -247l114 -286h-213zM339 556l-30 -143h90c55 0 111 16 111 83c0 41 -29 60 -81 60h-90z" />
    <glyph glyph-name="S" unicode="S" horiz-adv-x="707" 
d="M722 640l-108 -161c-88 60 -175 82 -238 82c-53 0 -88 -13 -88 -37c0 -23 25 -42 62 -53l104 -30c120 -35 222 -90 222 -210c0 -162 -147 -244 -314 -244c-161 0 -280 52 -363 117l115 158c79 -67 163 -96 259 -96c49 0 88 14 88 43c0 31 -40 47 -104 64l-78 23
c-101 29 -197 94 -197 211c0 136 113 235 303 235c159 0 281 -62 337 -102z" />
    <glyph glyph-name="T" unicode="T" horiz-adv-x="657" 
d="M172 0l116 546h-215l38 179h642l-38 -179h-218l-116 -546h-209z" />
    <glyph glyph-name="U" unicode="U" horiz-adv-x="775" 
d="M270 242c0 -53 26 -80 95 -80c89 0 128 53 147 138l90 425h208l-86 -404c-48 -226 -147 -334 -383 -334c-181 0 -286 60 -286 220c0 31 5 67 13 107l87 411h212l-90 -425c-5 -21 -7 -40 -7 -58z" />
    <glyph glyph-name="V" unicode="V" horiz-adv-x="697" 
d="M308 725l31 -478l231 478h228l-395 -725h-233l-84 725h222z" />
    <glyph glyph-name="W" unicode="W" horiz-adv-x="994" 
d="M705 725l-6 -457l153 457h222l-284 -725h-254l4 463l-196 -463h-245l10 725h211l-21 -451l179 451h227z" />
    <glyph glyph-name="X" unicode="X" horiz-adv-x="778" 
d="M-58 0l343 377l-163 348h229l85 -182l165 182h255l-334 -366l168 -359h-228l-91 193l-176 -193h-253z" />
    <glyph glyph-name="Y" unicode="Y" horiz-adv-x="733" 
d="M81 725h231l93 -253l191 253h248l-377 -448l-59 -277h-209l60 282z" />
    <glyph glyph-name="Z" unicode="Z" horiz-adv-x="689" 
d="M738 725l-38 -177l-426 -368h362l-38 -180h-625l38 178l424 368h-320l38 179h585z" />
    <glyph glyph-name="bracketleft" unicode="[" horiz-adv-x="368" 
d="M154 725h297l-33 -157h-114l-125 -586h115l-33 -157h-298z" />
    <glyph glyph-name="backslash" unicode="\" horiz-adv-x="530" 
d="M239 725l291 -725h-207l-293 725h209z" />
    <glyph glyph-name="bracketright" unicode="]" horiz-adv-x="368" 
d="M107 725h300l-191 -900h-298l33 157h114l125 586h-116z" />
    <glyph glyph-name="asciicircum" unicode="^" horiz-adv-x="597" 
d="M417 725l189 -387h-189l-100 228l-100 -228h-188l188 387h200z" />
    <glyph glyph-name="underscore" unicode="_" horiz-adv-x="523" 
d="M424 -174h-499l37 174h499z" />
    <glyph glyph-name="grave" unicode="`" horiz-adv-x="360" 
d="M160 598l-118 127h208l65 -127h-155z" />
    <glyph glyph-name="a" unicode="a" horiz-adv-x="635" 
d="M408 347l3 15c1 3 1 5 1 7v7c0 41 -38 55 -79 55c-51 0 -87 -22 -99 -73h-172c16 101 109 199 289 199c137 0 248 -47 248 -187c0 -22 -3 -46 -9 -72l-17 -82c-13 -64 -33 -157 -36 -216h-184l15 70c-45 -60 -107 -83 -183 -83c-106 0 -171 66 -171 150
c0 121 121 183 394 210zM385 225l4 20c-126 -13 -166 -35 -166 -78c0 -27 16 -46 51 -46c52 0 92 21 111 104z" />
    <glyph glyph-name="b" unicode="b" horiz-adv-x="669" 
d="M248 241c0 -60 29 -105 77 -105c80 0 111 107 111 164s-20 101 -71 101c-77 0 -117 -100 -117 -160zM362 725l-53 -249c32 41 97 74 169 74c93 0 170 -75 170 -227c0 -153 -90 -336 -277 -336c-72 0 -128 43 -147 86l-16 -73h-200l154 725h200z" />
    <glyph glyph-name="c" unicode="c" horiz-adv-x="617" 
d="M604 330h-186c3 37 -18 78 -73 78c-88 0 -119 -115 -119 -185c0 -48 20 -87 76 -87c47 0 79 22 98 75h185c-51 -149 -166 -224 -311 -224c-133 0 -251 68 -251 223c0 180 125 347 330 347c160 0 254 -103 251 -227z" />
    <glyph glyph-name="d" unicode="d" horiz-adv-x="670" 
d="M345 0l13 63c-32 -41 -97 -76 -169 -76c-93 0 -170 77 -170 228c0 152 90 335 277 335c71 0 130 -43 148 -85l55 260h200l-154 -725h-200zM419 297c0 60 -29 104 -77 104c-80 0 -111 -106 -111 -163s20 -102 71 -102c77 0 117 104 117 161z" />
    <glyph glyph-name="e" unicode="e" horiz-adv-x="638" 
d="M400 181h190c-37 -101 -138 -194 -305 -194c-134 0 -262 70 -262 229s116 340 337 340c204 0 295 -144 234 -335h-375c-1 -8 0 -10 0 -17c0 -39 34 -69 85 -69c49 0 81 15 96 46zM357 419c-47 0 -92 -24 -113 -87h192c8 57 -26 87 -79 87z" />
    <glyph glyph-name="f" unicode="f" horiz-adv-x="414" 
d="M44 412l24 115h68l5 19c38 145 62 179 236 179h107l-27 -127h-68c-33 0 -38 -6 -45 -37l-7 -34h105l-24 -115h-106l-88 -412h-200l88 412h-68z" />
    <glyph glyph-name="g" unicode="g" horiz-adv-x="665" 
d="M424 309c0 56 -30 100 -79 100c-82 0 -114 -103 -114 -154c0 -56 22 -98 73 -98c80 0 120 98 120 152zM445 476l13 62h200l-111 -523c-34 -164 -138 -203 -301 -203c-168 0 -244 64 -251 172h184c3 -31 28 -47 76 -47c52 0 84 28 96 85l14 66c-39 -51 -105 -72 -170 -72
c-101 0 -181 73 -181 217c0 146 100 317 284 317c73 0 128 -39 147 -74z" />
    <glyph glyph-name="h" unicode="h" horiz-adv-x="665" 
d="M363 725l-53 -248c37 47 103 73 167 73c109 0 152 -59 152 -152c0 -26 -4 -56 -11 -91l-65 -307h-200l62 292c4 18 6 33 6 46c0 41 -18 56 -49 56c-47 0 -87 -34 -102 -102l-62 -292h-200l154 725h201z" />
    <glyph glyph-name="i" unicode="i" horiz-adv-x="333" 
d="M122 538h200l-114 -538h-199zM163 725h200l-32 -153h-200z" />
    <glyph glyph-name="j" unicode="j" horiz-adv-x="333" 
d="M9 -3v3l113 538h200l-115 -544c-32 -148 -75 -169 -237 -169h-75l30 134h32c36 0 45 7 52 38zM163 725h200l-32 -153h-200z" />
    <glyph glyph-name="k" unicode="k" horiz-adv-x="686" 
d="M163 725h200l-80 -377l216 190h227l-262 -225l143 -313h-207l-81 189l-86 -73l-24 -116h-200z" />
    <glyph glyph-name="l" unicode="l" horiz-adv-x="333" 
d="M363 725l-154 -725h-200l154 725h200z" />
    <glyph glyph-name="m" unicode="m" horiz-adv-x="989" 
d="M470 550c87 0 130 -37 143 -94c57 71 123 94 191 94c108 0 149 -57 149 -149c0 -27 -4 -59 -11 -94l-65 -307h-200l62 292c4 20 6 36 6 49c0 39 -15 53 -46 53c-45 0 -79 -34 -94 -102l-62 -292h-200l62 292c4 19 6 35 6 48c0 39 -16 54 -47 54c-45 0 -78 -34 -93 -102
l-62 -292h-200l114 538h200l-13 -61c37 47 96 73 160 73z" />
    <glyph glyph-name="n" unicode="n" horiz-adv-x="665" 
d="M123 538h200l-13 -61c37 47 103 73 167 73c109 0 152 -59 152 -152c0 -26 -4 -56 -11 -91l-65 -307h-200l62 292c4 18 6 33 6 46c0 41 -18 56 -49 56c-47 0 -86 -34 -101 -102l-62 -292h-200z" />
    <glyph glyph-name="o" unicode="o" horiz-adv-x="640" 
d="M353 558c142 0 263 -67 263 -230c0 -172 -110 -341 -330 -341c-142 0 -263 67 -263 230c0 172 110 341 330 341zM301 136c82 0 112 118 112 178c0 52 -20 95 -75 95c-82 0 -112 -118 -112 -178c0 -52 20 -95 75 -95z" />
    <glyph glyph-name="p" unicode="p" horiz-adv-x="672" 
d="M251 241c0 -60 29 -105 77 -105c80 0 111 106 111 164c0 57 -20 101 -71 101c-77 0 -117 -100 -117 -160zM325 538l-13 -62c32 41 97 74 169 74c93 0 170 -75 170 -227c0 -151 -90 -336 -277 -336c-72 0 -128 43 -147 86l-53 -248h-200l151 713h200z" />
    <glyph glyph-name="q" unicode="q" horiz-adv-x="667" 
d="M419 297c0 60 -29 104 -77 104c-80 0 -111 -106 -111 -163s20 -102 71 -102c77 0 117 104 117 161zM308 -175l50 238c-32 -41 -97 -76 -169 -76c-93 0 -170 77 -170 228c0 152 90 335 277 335c71 0 129 -43 147 -85l16 73h200l-151 -713h-200z" />
    <glyph glyph-name="r" unicode="r" horiz-adv-x="452" 
d="M488 541l-41 -193c-17 3 -38 4 -59 4c-47 0 -109 -14 -125 -96l-54 -256h-200l114 538h192l-19 -92c35 56 113 95 180 95h12z" />
    <glyph glyph-name="s" unicode="s" horiz-adv-x="553" 
d="M540 479l-76 -136c-55 39 -122 65 -179 65c-29 0 -60 -4 -60 -19c0 -12 5 -19 50 -32l66 -19c101 -29 174 -69 174 -162c0 -125 -124 -189 -248 -189c-96 0 -197 21 -284 85l88 140c64 -56 149 -78 206 -78c40 0 62 9 62 24s-14 23 -70 38l-54 15
c-96 27 -163 74 -163 172c0 115 116 170 236 170c88 0 176 -23 252 -74z" />
    <glyph glyph-name="t" unicode="t" horiz-adv-x="448" 
d="M152 538l32 148h200l-32 -148h106l-26 -126h-104c-53 -245 -55 -252 -55 -256c0 -17 11 -21 32 -21h69l-29 -135h-108c-119 0 -173 10 -173 90c0 20 3 43 63 322h-90l26 126h89z" />
    <glyph glyph-name="u" unicode="u" horiz-adv-x="649" 
d="M328 0l13 60c-37 -47 -96 -73 -160 -73c-108 0 -150 58 -150 150c0 27 4 58 11 93l65 308h200l-62 -293c-4 -19 -6 -35 -6 -48c0 -39 16 -50 47 -50c45 0 79 29 94 98l62 293h200l-114 -538h-200z" />
    <glyph glyph-name="v" unicode="v" horiz-adv-x="588" 
d="M225 538l38 -351l161 351h201l-294 -538h-222l-73 538h189z" />
    <glyph glyph-name="w" unicode="w" horiz-adv-x="894" 
d="M260 199l128 339h200l-4 -339l134 339h210l-258 -538h-231l4 312l-123 -312h-223l-48 538h207z" />
    <glyph glyph-name="x" unicode="x" horiz-adv-x="665" 
d="M705 538l-266 -273l143 -265h-214l-68 123l-120 -123h-231l269 276l-142 262h216l64 -120l118 120h231z" />
    <glyph glyph-name="y" unicode="y" horiz-adv-x="587" 
d="M265 160l156 378h203l-285 -541c-77 -149 -107 -172 -274 -172h-100l28 133h39c55 0 80 0 95 27l7 12l-98 541h192z" />
    <glyph glyph-name="z" unicode="z" horiz-adv-x="604" 
d="M-21 0l29 136l326 266h-251l29 136h502l-29 -136l-327 -266h283l-29 -136h-533z" />
    <glyph glyph-name="braceleft" unicode="{" horiz-adv-x="389" 
d="M288 -175h-86c-112 0 -167 24 -167 116c0 24 4 51 11 86l15 72c4 19 7 34 7 49c0 35 -15 54 -62 54l31 147c67 0 85 42 98 103l25 116c27 128 68 157 232 157h87l-31 -145h-46c-27 0 -40 -6 -47 -38l-24 -116c-24 -118 -76 -141 -132 -149l-1 -3c41 -11 77 -33 77 -94
c0 -17 -2 -35 -7 -54l-25 -118c-1 -7 -2 -12 -2 -17c0 -17 10 -21 31 -21h47z" />
    <glyph glyph-name="bar" unicode="|" horiz-adv-x="310" 
d="M65 725h180v-815h-180v815z" />
    <glyph glyph-name="braceright" unicode="}" horiz-adv-x="389" 
d="M-88 -175l31 145h45c27 0 40 6 47 38l24 116c24 118 78 141 133 149l1 2c-43 11 -77 33 -77 95c0 17 2 35 7 54l25 118c1 7 2 11 2 15c0 19 -11 23 -31 23h-47l31 145h86c112 0 165 -26 165 -118c0 -25 -3 -53 -10 -84l-15 -72c-3 -19 -6 -34 -6 -49c0 -35 14 -54 61 -54
l-31 -147c-67 0 -85 -42 -98 -103l-25 -116c-27 -128 -66 -157 -232 -157h-86z" />
    <glyph glyph-name="asciitilde" unicode="~" 
d="M218 379c90 0 183 -61 215 -61c23 0 30 14 31 61h147c0 -139 -40 -225 -148 -225c-88 0 -172 61 -215 61c-24 0 -33 -14 -34 -61h-147c0 139 41 225 151 225z" />
    <glyph glyph-name="uni00A0" unicode="&#xa0;" horiz-adv-x="200" 
 />
    <glyph glyph-name="exclamdown" unicode="&#xa1;" horiz-adv-x="354" 
d="M265 302l-26 -332l-31 -145h-242l31 145l114 332h154zM301 328h-217l45 210h217z" />
    <glyph glyph-name="cent" unicode="&#xa2;" horiz-adv-x="617" 
d="M604 330h-186c1 31 -11 63 -46 74l-57 -268c39 4 68 27 85 75h185c-51 -147 -161 -221 -302 -224l-20 -94h-54l20 97c-115 13 -206 83 -206 220c0 180 124 344 327 347l17 76h54l-17 -80c128 -19 203 -114 200 -223zM226 223c0 -35 9 -64 36 -79l56 260
c-68 -21 -92 -119 -92 -181z" />
    <glyph glyph-name="sterling" unicode="&#xa3;" horiz-adv-x="676" 
d="M511 495c0 68 -40 98 -100 98c-49 0 -95 -27 -95 -84c0 -39 19 -80 34 -123h163l-17 -75h-134c-5 -58 -66 -113 -116 -145l1 -1c28 11 59 16 78 16c72 0 101 -24 146 -24c37 0 63 11 98 30l47 -157c-61 -28 -118 -43 -194 -43c-74 0 -151 39 -226 39
c-30 0 -60 -6 -143 -44l-59 149c69 29 168 82 168 174v6h-123l16 75h87c-15 39 -30 84 -30 137c0 147 144 218 301 218c168 0 290 -81 290 -229c0 -17 -1 -33 -4 -48h-191c2 11 3 21 3 31z" />
    <glyph glyph-name="currency" unicode="&#xa4;" horiz-adv-x="628" 
d="M310 110c-55 0 -103 17 -143 48l-69 -69l-49 49l69 70c-28 39 -44 86 -44 138s16 100 44 139l-69 70l49 49l68 -68c40 31 89 49 144 49c56 0 107 -19 147 -51l71 70l49 -49l-72 -72c27 -39 44 -86 44 -137s-16 -98 -44 -137l72 -71l-49 -49l-71 70
c-41 -31 -91 -49 -147 -49zM310 437c-48 0 -81 -38 -81 -91c0 -51 33 -87 81 -87c52 0 87 36 87 87c0 53 -35 91 -87 91z" />
    <glyph glyph-name="yen" unicode="&#xa5;" horiz-adv-x="713" 
d="M554 147l-16 -78h-141l-14 -69h-200l14 69h-139l16 78h140l13 65h-139l17 80h133l-153 433h215l80 -263l193 263h223l-345 -433h134l-17 -80h-141l-13 -65h140z" />
    <glyph glyph-name="brokenbar" unicode="&#xa6;" horiz-adv-x="298" 
d="M59 215h180v-305h-180v305zM59 725h180v-305h-180v305z" />
    <glyph glyph-name="section" unicode="&#xa7;" horiz-adv-x="671" 
d="M506 25c0 -173 -142 -229 -289 -229c-132 0 -247 60 -247 200c0 15 1 30 4 46h192c-1 -9 -2 -18 -2 -26c0 -51 25 -72 76 -72c39 0 68 16 68 43c0 23 -30 45 -62 68l-101 72c-65 47 -101 99 -101 159c0 90 71 149 155 186c-7 19 -11 38 -11 58c0 155 116 216 264 216
c125 0 256 -49 256 -187v-14c0 -4 0 -9 -1 -14h-195c-2 45 -27 68 -74 68c-35 0 -56 -15 -56 -31c0 -19 21 -27 52 -50l106 -78c72 -52 118 -108 118 -169c0 -86 -77 -149 -165 -186c9 -19 13 -40 13 -60zM399 294l-109 78c-25 -11 -39 -24 -42 -39c0 -3 -1 -3 -1 -6
c0 -19 20 -34 48 -57l103 -77l5 -4c23 8 47 23 47 46c0 16 -15 32 -51 59z" />
    <glyph glyph-name="dieresis" unicode="&#xa8;" horiz-adv-x="444" 
d="M24 725h171l-27 -127h-170zM276 725h170l-27 -127h-170z" />
    <glyph glyph-name="copyright" unicode="&#xa9;" horiz-adv-x="825" 
d="M412 -13c-208 0 -375 152 -375 374c0 223 167 377 375 377c207 0 374 -154 374 -377c0 -222 -167 -374 -374 -374zM412 662c-164 0 -292 -121 -292 -301c0 -176 128 -299 292 -299c167 0 291 123 291 299c0 180 -124 301 -291 301zM320 362c0 -76 37 -118 93 -118
c47 0 84 20 95 76l104 -23c-23 -83 -98 -141 -202 -141c-126 0 -201 87 -201 206c0 123 81 204 204 204c99 0 179 -60 195 -145l-103 -25c-7 47 -41 84 -92 84c-52 0 -93 -39 -93 -118z" />
    <glyph glyph-name="ordfeminine" unicode="&#xaa;" horiz-adv-x="359" 
d="M225 507c28 0 50 11 61 58l3 11c-71 -8 -92 -19 -92 -43c0 -15 8 -26 28 -26zM269 438l8 40c-25 -35 -60 -47 -103 -47c-60 0 -96 37 -96 84c0 68 65 103 221 119l2 8c1 2 1 5 1 8c0 23 -22 30 -45 30c-28 0 -48 -13 -55 -41h-98c8 57 64 113 164 113
c77 0 141 -27 141 -106c0 -13 -2 -27 -6 -41l-9 -45c-8 -34 -18 -89 -21 -122h-104z" />
    <glyph glyph-name="guillemotleft" unicode="&#xab;" horiz-adv-x="638" 
d="M115 41l-118 233l210 231h182l-168 -232l62 -232h-168zM398 41l-118 233l210 231h182l-168 -232l62 -232h-168z" />
    <glyph glyph-name="logicalnot" unicode="&#xac;" 
d="M418 274h-366v175h566v-346h-200v171z" />
    <glyph glyph-name="uni00AD" unicode="&#xad;" horiz-adv-x="486" 
d="M407 181h-368l37 174h368z" />
    <glyph glyph-name="registered" unicode="&#xae;" horiz-adv-x="825" 
d="M412 -13c-208 0 -375 152 -375 374c0 223 167 377 375 377c207 0 374 -154 374 -377c0 -222 -167 -374 -374 -374zM412 662c-164 0 -292 -121 -292 -301c0 -176 128 -299 292 -299c167 0 291 123 291 299c0 180 -124 301 -291 301zM348 318v-143h-108v400h160
c107 0 186 -27 186 -131c0 -60 -30 -93 -73 -110l97 -159h-120l-84 143h-58zM348 401h79c36 0 51 19 51 43c0 23 -15 47 -51 47h-79v-90z" />
    <glyph glyph-name="macron" unicode="&#xaf;" horiz-adv-x="355" 
d="M13 628l19 90h313l-19 -90h-313z" />
    <glyph glyph-name="degree" unicode="&#xb0;" horiz-adv-x="372" 
d="M241 385c-96 0 -175 80 -175 176c0 99 79 176 175 176c98 0 177 -77 177 -176c0 -96 -79 -176 -177 -176zM241 640c-43 0 -73 -35 -73 -79c0 -43 30 -79 73 -79c45 0 76 36 76 79c0 44 -31 79 -76 79z" />
    <glyph glyph-name="plusminus" unicode="&#xb1;" 
d="M230 443v95h200v-95h193v-175h-193v-75h-200v75h-194v175h194zM623 0h-587v174h587v-174z" />
    <glyph glyph-name="twosuperior" unicode="&#xb2;" horiz-adv-x="375" 
d="M215 698h-108c3 83 60 158 183 158c85 0 160 -28 160 -105c0 -90 -95 -161 -198 -216h151l-20 -97h-325l17 86c140 72 255 151 255 207c0 28 -22 41 -50 41c-31 0 -62 -15 -65 -74z" />
    <glyph glyph-name="threesuperior" unicode="&#xb3;" horiz-adv-x="372" 
d="M76 585h111c0 -45 24 -69 64 -69c25 0 52 15 52 43c0 25 -23 45 -71 46h-14l15 90h18c26 0 73 6 73 43c0 20 -20 34 -48 34c-25 0 -55 -6 -64 -42h-107c11 76 84 126 172 126c62 0 165 -19 165 -109c0 -43 -29 -86 -70 -103c31 -15 49 -47 49 -86
c0 -81 -84 -127 -166 -127c-94 0 -179 47 -179 154z" />
    <glyph glyph-name="acute" unicode="&#xb4;" horiz-adv-x="364" 
d="M346 725l-165 -127h-166l124 127h207z" />
    <glyph glyph-name="paragraph" unicode="&#xb6;" horiz-adv-x="513" 
d="M60 513c0 147 113 212 270 212h212l-173 -814h-82l157 738h-112l-157 -738h-82l101 473c-64 8 -134 40 -134 129z" />
    <glyph glyph-name="periodcentered" unicode="&#xb7;" horiz-adv-x="354" 
d="M265 164h-217l45 210h217z" />
    <glyph glyph-name="cedilla" unicode="&#xb8;" horiz-adv-x="317" 
d="M66 -84l70 85h62l-43 -52c10 3 21 4 33 4c53 0 85 -23 85 -60c0 -68 -75 -94 -149 -94c-34 0 -64 5 -91 14l16 52c13 -5 39 -11 64 -11c31 0 57 8 57 31c0 16 -16 25 -37 25c-12 0 -27 -2 -39 -9z" />
    <glyph glyph-name="onesuperior" unicode="&#xb9;" horiz-adv-x="256" 
d="M248 438h-114l57 265h-90l18 83c71 1 103 19 127 60h90z" />
    <glyph glyph-name="ordmasculine" unicode="&#xba;" horiz-adv-x="361" 
d="M200 574c0 -31 11 -59 43 -59c43 0 57 57 57 95c0 29 -11 58 -43 58c-43 0 -57 -57 -57 -94zM416 611c0 -104 -66 -180 -175 -180c-83 0 -157 38 -157 139c0 104 64 182 178 182c77 0 154 -39 154 -141z" />
    <glyph glyph-name="guillemotright" unicode="&#xbb;" horiz-adv-x="638" 
d="M639 271l-210 -230h-182l170 231l-65 233h168zM356 271l-210 -230h-182l170 231l-65 233h168z" />
    <glyph glyph-name="onequarter" unicode="&#xbc;" horiz-adv-x="918" 
d="M222 317h-114l57 265h-90l18 83c71 1 103 19 127 60h90zM242 0h-166l500 725h166zM732 273l-100 -99h81zM890 174l-21 -96h-63l-17 -78h-114l17 78h-192l18 85l257 245h100l-48 -234h63z" />
    <glyph glyph-name="onehalf" unicode="&#xbd;" horiz-adv-x="897" 
d="M222 317h-114l57 265h-90l18 83c71 1 103 19 127 60h90zM242 0h-166l500 725h166zM643 260h-108c3 83 60 158 183 158c85 0 160 -28 160 -105c0 -90 -95 -161 -198 -216h151l-20 -97h-325l17 86c140 72 255 151 255 207c0 28 -22 41 -50 41c-31 0 -62 -15 -65 -74z" />
    <glyph glyph-name="threequarters" unicode="&#xbe;" horiz-adv-x="1034" 
d="M50 464h111c0 -45 24 -69 64 -69c25 0 52 15 52 43c0 25 -23 45 -71 46h-14l15 90h18c26 0 73 6 73 43c0 20 -20 34 -48 34c-25 0 -55 -6 -64 -42h-107c11 76 84 126 172 126c62 0 165 -19 165 -109c0 -43 -29 -86 -70 -103c31 -15 49 -47 49 -86
c0 -81 -84 -127 -166 -127c-94 0 -179 47 -179 154zM358 0h-166l500 725h166zM848 273l-100 -99h81zM1006 174l-21 -96h-63l-17 -78h-114l17 78h-192l18 85l257 245h100l-48 -234h63z" />
    <glyph glyph-name="questiondown" unicode="&#xbf;" horiz-adv-x="644" 
d="M389 61h197c-13 -180 -155 -249 -340 -249c-152 0 -277 59 -277 176c0 123 112 169 180 198c66 29 109 56 109 115h209c-8 -108 -57 -177 -169 -218c-85 -31 -121 -51 -121 -80c0 -28 38 -43 86 -43c57 0 126 24 126 101zM474 328h-217l45 210h217z" />
    <glyph glyph-name="Agrave" unicode="&#xc0;" horiz-adv-x="739" 
d="M-51 0l413 725h229l112 -725h-222l-14 121h-228l-64 -121h-226zM428 478l-107 -201h129zM421 773l-140 113h233l79 -113h-172z" />
    <glyph glyph-name="Aacute" unicode="&#xc1;" horiz-adv-x="739" 
d="M-51 0l413 725h229l112 -725h-222l-14 121h-228l-64 -121h-226zM428 478l-107 -201h129zM727 886l-178 -113h-182l127 113h233z" />
    <glyph glyph-name="Acircumflex" unicode="&#xc2;" horiz-adv-x="739" 
d="M-51 0l413 725h229l112 -725h-222l-14 121h-228l-64 -121h-226zM428 478l-107 -201h129zM616 886l112 -113h-193l-47 49l-66 -49h-198l160 113h232z" />
    <glyph glyph-name="Atilde" unicode="&#xc3;" horiz-adv-x="739" 
d="M-51 0l413 725h229l112 -725h-222l-14 121h-228l-64 -121h-226zM428 478l-107 -201h129zM409 886c62 0 82 -36 124 -36c28 0 54 9 59 36h92c-15 -75 -67 -113 -147 -113c-64 0 -89 35 -129 35c-28 0 -50 -10 -57 -35h-93c12 71 72 113 151 113z" />
    <glyph glyph-name="Adieresis" unicode="&#xc4;" horiz-adv-x="739" 
d="M-51 0l413 725h229l112 -725h-222l-14 121h-228l-64 -121h-226zM428 478l-107 -201h129zM302 886h169l-25 -113h-168zM531 886h169l-25 -113h-169z" />
    <glyph glyph-name="Aring" unicode="&#xc5;" horiz-adv-x="739" 
d="M-51 0l413 725h229l112 -725h-222l-14 121h-228l-64 -121h-226zM428 478l-107 -201h129zM483 893c-23 0 -43 -18 -43 -43s20 -42 43 -42s43 17 43 42s-20 43 -43 43zM483 935c51 0 91 -36 91 -85c0 -51 -40 -85 -91 -85s-90 34 -90 85c0 49 41 85 90 85z" />
    <glyph glyph-name="AE" unicode="&#xc6;" horiz-adv-x="1202" 
d="M682 725h563l-38 -179h-357l-19 -92h336l-39 -180h-336l-20 -94h359l-38 -180h-567l29 121h-264l-122 -121h-250zM639 464l-203 -200h154z" />
    <glyph glyph-name="Ccedilla" unicode="&#xc7;" horiz-adv-x="766" 
d="M546 278h210c-50 -199 -218 -291 -387 -291c-189 0 -327 103 -327 322c0 208 136 433 409 433c170 0 324 -95 332 -290h-208c-8 67 -39 114 -134 114c-125 0 -180 -144 -180 -248c0 -97 45 -156 137 -156c67 0 121 41 148 116zM248 -84l70 85h62l-43 -52c10 3 21 4 33 4
c53 0 85 -23 85 -60c0 -68 -75 -94 -149 -94c-34 0 -64 5 -91 14l16 52c13 -5 39 -11 64 -11c31 0 57 8 57 31c0 16 -16 25 -37 25c-12 0 -27 -2 -39 -9z" />
    <glyph glyph-name="Egrave" unicode="&#xc8;" horiz-adv-x="686" 
d="M11 0l154 725h562l-38 -179h-353l-19 -92h334l-39 -180h-334l-20 -94h357l-38 -180h-566zM398 773l-140 113h233l79 -113h-172z" />
    <glyph glyph-name="Eacute" unicode="&#xc9;" horiz-adv-x="686" 
d="M11 0l154 725h562l-38 -179h-353l-19 -92h334l-39 -180h-334l-20 -94h357l-38 -180h-566zM677 886l-178 -113h-182l127 113h233z" />
    <glyph glyph-name="Ecircumflex" unicode="&#xca;" horiz-adv-x="686" 
d="M11 0l154 725h562l-38 -179h-353l-19 -92h334l-39 -180h-334l-20 -94h357l-38 -180h-566zM597 886l112 -113h-193l-47 49l-66 -49h-198l160 113h232z" />
    <glyph glyph-name="Edieresis" unicode="&#xcb;" horiz-adv-x="686" 
d="M11 0l154 725h562l-38 -179h-353l-19 -92h334l-39 -180h-334l-20 -94h357l-38 -180h-566zM273 886h169l-25 -113h-168zM502 886h169l-25 -113h-169z" />
    <glyph glyph-name="Igrave" unicode="&#xcc;" horiz-adv-x="345" 
d="M374 725l-154 -725h-209l154 725h209zM193 773l-140 113h233l79 -113h-172z" />
    <glyph glyph-name="Iacute" unicode="&#xcd;" horiz-adv-x="345" 
d="M545 886l-178 -113h-182l127 113h233zM374 725l-154 -725h-209l154 725h209z" />
    <glyph glyph-name="Icircumflex" unicode="&#xce;" horiz-adv-x="345" 
d="M417 886l112 -113h-193l-47 49l-66 -49h-198l160 113h232zM374 725l-154 -725h-209l154 725h209z" />
    <glyph glyph-name="Idieresis" unicode="&#xcf;" horiz-adv-x="345" 
d="M103 886h169l-25 -113h-168zM332 886h169l-25 -113h-169zM374 725l-154 -725h-209l154 725h209z" />
    <glyph glyph-name="Eth" unicode="&#xd0;" horiz-adv-x="789" 
d="M195 725h185c232 0 405 -90 405 -312c0 -272 -200 -413 -511 -413h-233l62 294h-87l32 147h86zM377 556h-9l-25 -115h104l-32 -147h-103l-26 -125h12c150 0 264 72 264 230c0 124 -85 157 -185 157z" />
    <glyph glyph-name="Ntilde" unicode="&#xd1;" horiz-adv-x="803" 
d="M678 0h-246l-122 451l-96 -451h-203l154 725h246l123 -440l93 440h205zM457 886c62 0 82 -36 124 -36c28 0 54 9 59 36h92c-15 -75 -67 -113 -147 -113c-64 0 -89 35 -129 35c-28 0 -50 -10 -57 -35h-93c12 71 72 113 151 113z" />
    <glyph glyph-name="Ograve" unicode="&#xd2;" horiz-adv-x="805" 
d="M260 334c-3 -113 52 -172 140 -172c117 0 179 112 187 233c3 113 -52 172 -140 172c-117 0 -179 -112 -187 -233zM805 401c-16 -238 -172 -414 -424 -414c-192 0 -352 114 -339 341c16 238 172 414 424 414c194 0 350 -115 339 -341zM403 773l-140 113h233l79 -113h-172z
" />
    <glyph glyph-name="Oacute" unicode="&#xd3;" horiz-adv-x="805" 
d="M260 334c-3 -113 52 -172 140 -172c117 0 179 112 187 233c3 113 -52 172 -140 172c-117 0 -179 -112 -187 -233zM805 401c-16 -238 -172 -414 -424 -414c-192 0 -352 114 -339 341c16 238 172 414 424 414c194 0 350 -115 339 -341zM747 886l-178 -113h-182l127 113h233
z" />
    <glyph glyph-name="Ocircumflex" unicode="&#xd4;" horiz-adv-x="805" 
d="M260 334c-3 -113 52 -172 140 -172c117 0 179 112 187 233c3 113 -52 172 -140 172c-117 0 -179 -112 -187 -233zM805 401c-16 -238 -172 -414 -424 -414c-192 0 -352 114 -339 341c16 238 172 414 424 414c194 0 350 -115 339 -341zM627 886l112 -113h-193l-47 49
l-66 -49h-198l160 113h232z" />
    <glyph glyph-name="Otilde" unicode="&#xd5;" horiz-adv-x="805" 
d="M260 334c-3 -113 52 -172 140 -172c117 0 179 112 187 233c3 113 -52 172 -140 172c-117 0 -179 -112 -187 -233zM805 401c-16 -238 -172 -414 -424 -414c-192 0 -352 114 -339 341c16 238 172 414 424 414c194 0 350 -115 339 -341zM450 886c62 0 82 -36 124 -36
c28 0 54 9 59 36h92c-15 -75 -67 -113 -147 -113c-64 0 -89 35 -129 35c-28 0 -50 -10 -57 -35h-93c12 71 72 113 151 113z" />
    <glyph glyph-name="Odieresis" unicode="&#xd6;" horiz-adv-x="805" 
d="M260 334c-3 -113 52 -172 140 -172c117 0 179 112 187 233c3 113 -52 172 -140 172c-117 0 -179 -112 -187 -233zM805 401c-16 -238 -172 -414 -424 -414c-192 0 -352 114 -339 341c16 238 172 414 424 414c194 0 350 -115 339 -341zM315 886h169l-25 -113h-168zM544 886
h169l-25 -113h-169z" />
    <glyph glyph-name="multiply" unicode="&#xd7;" 
d="M603 128l-115 -110l-147 140l-156 -147l-114 108l155 149l-150 141l116 109l149 -142l154 148l115 -110l-155 -146z" />
    <glyph glyph-name="Oslash" unicode="&#xd8;" horiz-adv-x="805" 
d="M805 401c-16 -238 -172 -414 -424 -414c-72 0 -138 16 -194 48l-76 -90l-55 47l73 86c-60 57 -94 139 -87 250c16 238 172 414 424 414c70 0 132 -15 187 -44l67 80l56 -46l-64 -76c63 -57 100 -142 93 -255zM587 395c1 36 -5 67 -16 94l-255 -302c23 -17 51 -25 84 -25
c117 0 179 112 187 233zM260 334c-1 -33 3 -62 12 -86l252 298c-21 14 -47 21 -77 21c-117 0 -179 -112 -187 -233z" />
    <glyph glyph-name="Ugrave" unicode="&#xd9;" horiz-adv-x="775" 
d="M270 242c0 -53 26 -80 95 -80c89 0 128 53 147 138l90 425h208l-86 -404c-48 -226 -147 -334 -383 -334c-181 0 -286 60 -286 220c0 31 5 67 13 107l87 411h212l-90 -425c-5 -21 -7 -40 -7 -58zM407 773l-140 113h233l79 -113h-172z" />
    <glyph glyph-name="Uacute" unicode="&#xda;" horiz-adv-x="775" 
d="M270 242c0 -53 26 -80 95 -80c89 0 128 53 147 138l90 425h208l-86 -404c-48 -226 -147 -334 -383 -334c-181 0 -286 60 -286 220c0 31 5 67 13 107l87 411h212l-90 -425c-5 -21 -7 -40 -7 -58zM747 886l-178 -113h-182l127 113h233z" />
    <glyph glyph-name="Ucircumflex" unicode="&#xdb;" horiz-adv-x="775" 
d="M270 242c0 -53 26 -80 95 -80c89 0 128 53 147 138l90 425h208l-86 -404c-48 -226 -147 -334 -383 -334c-181 0 -286 60 -286 220c0 31 5 67 13 107l87 411h212l-90 -425c-5 -21 -7 -40 -7 -58zM619 886l112 -113h-193l-47 49l-66 -49h-198l160 113h232z" />
    <glyph glyph-name="Udieresis" unicode="&#xdc;" horiz-adv-x="775" 
d="M270 242c0 -53 26 -80 95 -80c89 0 128 53 147 138l90 425h208l-86 -404c-48 -226 -147 -334 -383 -334c-181 0 -286 60 -286 220c0 31 5 67 13 107l87 411h212l-90 -425c-5 -21 -7 -40 -7 -58zM307 886h169l-25 -113h-168zM536 886h169l-25 -113h-169z" />
    <glyph glyph-name="Yacute" unicode="&#xdd;" horiz-adv-x="733" 
d="M81 725h231l93 -253l191 253h248l-377 -448l-59 -277h-209l60 282zM706 886l-178 -113h-182l127 113h233z" />
    <glyph glyph-name="Thorn" unicode="&#xde;" horiz-adv-x="701" 
d="M350 612h75c165 0 287 -42 287 -200c0 -216 -175 -289 -391 -289h-75l-26 -123h-208l154 725h208zM397 433h-85l-28 -131h83c76 0 123 20 123 76c0 45 -29 55 -93 55z" />
    <glyph glyph-name="germandbls" unicode="&#xdf;" horiz-adv-x="739" 
d="M208 0h-199l100 477c39 185 149 264 338 264c152 0 271 -55 271 -180c0 -68 -40 -123 -88 -151c41 -27 68 -76 68 -153c0 -180 -151 -270 -304 -270c-51 0 -92 5 -133 12l34 156c24 -4 51 -8 79 -8c59 0 117 25 117 93c0 55 -40 76 -111 76h-43l34 148h43
c44 0 104 20 104 73c0 33 -29 56 -82 56c-60 0 -109 -31 -126 -111z" />
    <glyph glyph-name="agrave" unicode="&#xe0;" horiz-adv-x="635" 
d="M408 347l3 15c1 3 1 5 1 7v7c0 41 -38 55 -79 55c-51 0 -87 -22 -99 -73h-172c16 101 109 199 289 199c137 0 248 -47 248 -187c0 -22 -3 -46 -9 -72l-17 -82c-13 -64 -33 -157 -36 -216h-184l15 70c-45 -60 -107 -83 -183 -83c-106 0 -171 66 -171 150
c0 121 121 183 394 210zM385 225l4 20c-126 -13 -166 -35 -166 -78c0 -27 16 -46 51 -46c52 0 92 21 111 104zM303 598l-118 127h208l65 -127h-155z" />
    <glyph glyph-name="aacute" unicode="&#xe1;" horiz-adv-x="635" 
d="M619 725l-165 -127h-166l124 127h207zM408 347l3 15c1 3 1 5 1 7v7c0 41 -38 55 -79 55c-51 0 -87 -22 -99 -73h-172c16 101 109 199 289 199c137 0 248 -47 248 -187c0 -22 -3 -46 -9 -72l-17 -82c-13 -64 -33 -157 -36 -216h-184l15 70c-45 -60 -107 -83 -183 -83
c-106 0 -171 66 -171 150c0 121 121 183 394 210zM385 225l4 20c-126 -13 -166 -35 -166 -78c0 -27 16 -46 51 -46c52 0 92 21 111 104z" />
    <glyph glyph-name="acircumflex" unicode="&#xe2;" horiz-adv-x="635" 
d="M408 347l3 15c1 3 1 5 1 7v7c0 41 -38 55 -79 55c-51 0 -87 -22 -99 -73h-172c16 101 109 199 289 199c137 0 248 -47 248 -187c0 -22 -3 -46 -9 -72l-17 -82c-13 -64 -33 -157 -36 -216h-184l15 70c-45 -60 -107 -83 -183 -83c-106 0 -171 66 -171 150
c0 121 121 183 394 210zM385 225l4 20c-126 -13 -166 -35 -166 -78c0 -27 16 -46 51 -46c52 0 92 21 111 104zM491 725l108 -127h-165l-41 57l-62 -57h-180l165 127h175z" />
    <glyph glyph-name="atilde" unicode="&#xe3;" horiz-adv-x="635" 
d="M306 724c80 0 100 -44 144 -44c29 0 56 12 60 44h95c-15 -89 -69 -126 -138 -126c-77 0 -106 44 -145 44c-29 0 -52 -13 -59 -44h-95c11 85 76 126 138 126zM408 347l3 15c1 3 1 5 1 7v7c0 41 -38 55 -79 55c-51 0 -87 -22 -99 -73h-172c16 101 109 199 289 199
c137 0 248 -47 248 -187c0 -22 -3 -46 -9 -72l-17 -82c-13 -64 -33 -157 -36 -216h-184l15 70c-45 -60 -107 -83 -183 -83c-106 0 -171 66 -171 150c0 121 121 183 394 210zM385 225l4 20c-126 -13 -166 -35 -166 -78c0 -27 16 -46 51 -46c52 0 92 21 111 104z" />
    <glyph glyph-name="adieresis" unicode="&#xe4;" horiz-adv-x="635" 
d="M185 725h171l-27 -127h-170zM437 725h170l-27 -127h-170zM408 347l3 15c1 3 1 5 1 7v7c0 41 -38 55 -79 55c-51 0 -87 -22 -99 -73h-172c16 101 109 199 289 199c137 0 248 -47 248 -187c0 -22 -3 -46 -9 -72l-17 -82c-13 -64 -33 -157 -36 -216h-184l15 70
c-45 -60 -107 -83 -183 -83c-106 0 -171 66 -171 150c0 121 121 183 394 210zM385 225l4 20c-126 -13 -166 -35 -166 -78c0 -27 16 -46 51 -46c52 0 92 21 111 104z" />
    <glyph glyph-name="aring" unicode="&#xe5;" horiz-adv-x="635" 
d="M408 347l3 15c1 3 1 5 1 7v7c0 41 -38 55 -79 55c-51 0 -87 -22 -99 -73h-172c16 101 109 199 289 199c137 0 248 -47 248 -187c0 -22 -3 -46 -9 -72l-17 -82c-13 -64 -33 -157 -36 -216h-184l15 70c-45 -60 -107 -83 -183 -83c-106 0 -171 66 -171 150
c0 121 121 183 394 210zM385 225l4 20c-126 -13 -166 -35 -166 -78c0 -27 16 -46 51 -46c52 0 92 21 111 104zM390 785c51 0 94 -37 94 -89c0 -51 -42 -89 -94 -89c-53 0 -95 37 -95 89s43 89 95 89zM390 737c-23 0 -41 -17 -41 -41c0 -23 18 -40 41 -40s41 17 41 40
c0 24 -18 41 -41 41z" />
    <glyph glyph-name="ae" unicode="&#xe6;" horiz-adv-x="988" 
d="M637 -13c-92 0 -164 31 -207 102c-61 -77 -152 -102 -227 -102c-124 0 -189 66 -189 150c0 121 121 183 394 210v1l3 14c1 3 1 5 1 7v7c0 41 -38 55 -79 55c-51 0 -87 -22 -99 -73h-172c16 101 109 199 289 199c72 0 132 -18 175 -63c45 35 106 62 174 62
c165 0 261 -95 261 -234c0 -33 -5 -66 -15 -101h-374c-1 -2 -1 -4 -1 -7v-6c0 -43 36 -73 87 -73c49 0 81 15 96 46h190c-37 -101 -138 -194 -307 -194zM385 225l4 20c-126 -13 -166 -35 -166 -78c0 -27 16 -46 51 -46c52 0 92 21 111 104zM701 419c-45 0 -88 -24 -108 -87
h191c1 3 1 8 1 13c0 51 -39 74 -84 74z" />
    <glyph glyph-name="ccedilla" unicode="&#xe7;" horiz-adv-x="617" 
d="M604 330h-186c3 37 -18 78 -73 78c-88 0 -119 -115 -119 -185c0 -48 20 -87 76 -87c47 0 79 22 98 75h185c-51 -149 -166 -224 -311 -224c-133 0 -251 68 -251 223c0 180 125 347 330 347c160 0 254 -103 251 -227zM149 -84l70 85h62l-43 -52c10 3 21 4 33 4
c53 0 85 -23 85 -60c0 -68 -75 -94 -149 -94c-34 0 -64 5 -91 14l16 52c13 -5 39 -11 64 -11c31 0 57 8 57 31c0 16 -16 25 -37 25c-12 0 -27 -2 -39 -9z" />
    <glyph glyph-name="egrave" unicode="&#xe8;" horiz-adv-x="638" 
d="M400 181h190c-37 -101 -138 -194 -305 -194c-134 0 -262 70 -262 229s116 340 337 340c204 0 295 -144 234 -335h-375c-1 -8 0 -10 0 -17c0 -39 34 -69 85 -69c49 0 81 15 96 46zM357 419c-47 0 -92 -24 -113 -87h192c8 57 -26 87 -79 87zM282 598l-118 127h208l65 -127
h-155z" />
    <glyph glyph-name="eacute" unicode="&#xe9;" horiz-adv-x="638" 
d="M400 181h190c-37 -101 -138 -194 -305 -194c-134 0 -262 70 -262 229s116 340 337 340c204 0 295 -144 234 -335h-375c-1 -8 0 -10 0 -17c0 -39 34 -69 85 -69c49 0 81 15 96 46zM357 419c-47 0 -92 -24 -113 -87h192c8 57 -26 87 -79 87zM609 725l-165 -127h-166
l124 127h207z" />
    <glyph glyph-name="ecircumflex" unicode="&#xea;" horiz-adv-x="638" 
d="M400 181h190c-37 -101 -138 -194 -305 -194c-134 0 -262 70 -262 229s116 340 337 340c204 0 295 -144 234 -335h-375c-1 -8 0 -10 0 -17c0 -39 34 -69 85 -69c49 0 81 15 96 46zM357 419c-47 0 -92 -24 -113 -87h192c8 57 -26 87 -79 87zM510 725l108 -127h-165l-41 57
l-62 -57h-180l165 127h175z" />
    <glyph glyph-name="edieresis" unicode="&#xeb;" horiz-adv-x="638" 
d="M400 181h190c-37 -101 -138 -194 -305 -194c-134 0 -262 70 -262 229s116 340 337 340c204 0 295 -144 234 -335h-375c-1 -8 0 -10 0 -17c0 -39 34 -69 85 -69c49 0 81 15 96 46zM357 419c-47 0 -92 -24 -113 -87h192c8 57 -26 87 -79 87zM207 725h171l-27 -127h-170z
M459 725h170l-27 -127h-170z" />
    <glyph glyph-name="igrave" unicode="&#xec;" horiz-adv-x="333" 
d="M122 538h200l-114 -538h-199zM158 598l-118 127h208l65 -127h-155z" />
    <glyph glyph-name="iacute" unicode="&#xed;" horiz-adv-x="333" 
d="M481 725l-165 -127h-166l124 127h207zM122 538h200l-114 -538h-199z" />
    <glyph glyph-name="icircumflex" unicode="&#xee;" horiz-adv-x="333" 
d="M350 725l108 -127h-165l-41 57l-62 -57h-180l165 127h175zM122 538h200l-114 -538h-199z" />
    <glyph glyph-name="idieresis" unicode="&#xef;" horiz-adv-x="333" 
d="M53 725h171l-27 -127h-170zM305 725h170l-27 -127h-170zM122 538h200l-114 -538h-199z" />
    <glyph glyph-name="eth" unicode="&#xf0;" horiz-adv-x="629" 
d="M437 707l79 43l51 -28l-89 -48c83 -73 141 -175 141 -311c0 -205 -112 -376 -323 -376c-171 0 -270 93 -270 256c0 152 96 296 252 296c59 0 115 -19 147 -67l1 1c-16 49 -47 92 -84 128l-65 -34l-52 27l77 41c-31 25 -64 46 -96 63l170 48c21 -12 41 -24 61 -39z
M327 391c-73 0 -97 -103 -97 -155s20 -100 73 -100c77 0 102 95 102 158c0 59 -26 97 -78 97z" />
    <glyph glyph-name="ntilde" unicode="&#xf1;" horiz-adv-x="665" 
d="M123 538h200l-13 -61c37 47 103 73 167 73c109 0 152 -59 152 -152c0 -26 -4 -56 -11 -91l-65 -307h-200l62 292c4 18 6 33 6 46c0 41 -18 56 -49 56c-47 0 -86 -34 -101 -102l-62 -292h-200zM325 724c80 0 100 -44 144 -44c29 0 56 12 60 44h95
c-15 -89 -69 -126 -138 -126c-77 0 -106 44 -145 44c-29 0 -52 -13 -59 -44h-95c11 85 76 126 138 126z" />
    <glyph glyph-name="ograve" unicode="&#xf2;" horiz-adv-x="640" 
d="M353 558c142 0 263 -67 263 -230c0 -172 -110 -341 -330 -341c-142 0 -263 67 -263 230c0 172 110 341 330 341zM301 136c82 0 112 118 112 178c0 52 -20 95 -75 95c-82 0 -112 -118 -112 -178c0 -52 20 -95 75 -95zM277 598l-118 127h208l65 -127h-155z" />
    <glyph glyph-name="oacute" unicode="&#xf3;" horiz-adv-x="640" 
d="M353 558c142 0 263 -67 263 -230c0 -172 -110 -341 -330 -341c-142 0 -263 67 -263 230c0 172 110 341 330 341zM301 136c82 0 112 118 112 178c0 52 -20 95 -75 95c-82 0 -112 -118 -112 -178c0 -52 20 -95 75 -95zM618 725l-165 -127h-166l124 127h207z" />
    <glyph glyph-name="ocircumflex" unicode="&#xf4;" horiz-adv-x="640" 
d="M353 558c142 0 263 -67 263 -230c0 -172 -110 -341 -330 -341c-142 0 -263 67 -263 230c0 172 110 341 330 341zM301 136c82 0 112 118 112 178c0 52 -20 95 -75 95c-82 0 -112 -118 -112 -178c0 -52 20 -95 75 -95zM498 725l108 -127h-165l-41 57l-62 -57h-180l165 127
h175z" />
    <glyph glyph-name="otilde" unicode="&#xf5;" horiz-adv-x="640" 
d="M353 558c142 0 263 -67 263 -230c0 -172 -110 -341 -330 -341c-142 0 -263 67 -263 230c0 172 110 341 330 341zM301 136c82 0 112 118 112 178c0 52 -20 95 -75 95c-82 0 -112 -118 -112 -178c0 -52 20 -95 75 -95zM313 724c80 0 100 -44 144 -44c29 0 56 12 60 44h95
c-15 -89 -69 -126 -138 -126c-77 0 -106 44 -145 44c-29 0 -52 -13 -59 -44h-95c11 85 76 126 138 126z" />
    <glyph glyph-name="odieresis" unicode="&#xf6;" horiz-adv-x="640" 
d="M353 558c142 0 263 -67 263 -230c0 -172 -110 -341 -330 -341c-142 0 -263 67 -263 230c0 172 110 341 330 341zM301 136c82 0 112 118 112 178c0 52 -20 95 -75 95c-82 0 -112 -118 -112 -178c0 -52 20 -95 75 -95zM204 725h171l-27 -127h-170zM456 725h170l-27 -127
h-170z" />
    <glyph glyph-name="divide" unicode="&#xf7;" 
d="M230 0v145h217v-145h-217zM230 393v145h217v-145h-217zM632 182h-587v174h587v-174z" />
    <glyph glyph-name="oslash" unicode="&#xf8;" horiz-adv-x="640" 
d="M353 558c53 0 100 -10 143 -29l40 46l50 -43l-35 -40c40 -37 65 -91 65 -164c0 -172 -110 -341 -330 -341c-55 0 -104 10 -146 30l-46 -53l-49 45l40 46c-39 37 -62 90 -62 162c0 172 110 341 330 341zM301 136c82 0 112 118 112 178v8c0 3 0 6 -1 9l-156 -181
c11 -9 26 -14 45 -14zM226 231v-13l155 178c-12 9 -26 13 -43 13c-82 0 -112 -118 -112 -178z" />
    <glyph glyph-name="ugrave" unicode="&#xf9;" horiz-adv-x="649" 
d="M328 0l13 60c-37 -47 -96 -73 -160 -73c-108 0 -150 58 -150 150c0 27 4 58 11 93l65 308h200l-62 -293c-4 -19 -6 -35 -6 -48c0 -39 16 -50 47 -50c45 0 79 29 94 98l62 293h200l-114 -538h-200zM311 598l-118 127h208l65 -127h-155z" />
    <glyph glyph-name="uacute" unicode="&#xfa;" horiz-adv-x="649" 
d="M328 0l13 60c-37 -47 -96 -73 -160 -73c-108 0 -150 58 -150 150c0 27 4 58 11 93l65 308h200l-62 -293c-4 -19 -6 -35 -6 -48c0 -39 16 -50 47 -50c45 0 79 29 94 98l62 293h200l-114 -538h-200zM630 725l-165 -127h-166l124 127h207z" />
    <glyph glyph-name="ucircumflex" unicode="&#xfb;" horiz-adv-x="649" 
d="M328 0l13 60c-37 -47 -96 -73 -160 -73c-108 0 -150 58 -150 150c0 27 4 58 11 93l65 308h200l-62 -293c-4 -19 -6 -35 -6 -48c0 -39 16 -50 47 -50c45 0 79 29 94 98l62 293h200l-114 -538h-200zM494 725l108 -127h-165l-41 57l-62 -57h-180l165 127h175z" />
    <glyph glyph-name="udieresis" unicode="&#xfc;" horiz-adv-x="649" 
d="M328 0l13 60c-37 -47 -96 -73 -160 -73c-108 0 -150 58 -150 150c0 27 4 58 11 93l65 308h200l-62 -293c-4 -19 -6 -35 -6 -48c0 -39 16 -50 47 -50c45 0 79 29 94 98l62 293h200l-114 -538h-200zM202 725h171l-27 -127h-170zM454 725h170l-27 -127h-170z" />
    <glyph glyph-name="yacute" unicode="&#xfd;" horiz-adv-x="587" 
d="M265 160l156 378h203l-285 -541c-77 -149 -107 -172 -274 -172h-100l28 133h39c55 0 80 0 95 27l7 12l-98 541h192zM567 725l-165 -127h-166l124 127h207z" />
    <glyph glyph-name="thorn" unicode="&#xfe;" horiz-adv-x="672" 
d="M174 -175h-200l189 900h200l-51 -249c32 41 97 74 169 74c93 0 170 -75 170 -227c0 -151 -90 -336 -277 -336c-72 0 -128 43 -147 86zM368 401c-77 0 -117 -100 -117 -160s29 -105 77 -105c80 0 111 106 111 164c0 57 -20 101 -71 101z" />
    <glyph glyph-name="ydieresis" unicode="&#xff;" horiz-adv-x="587" 
d="M265 160l156 378h203l-285 -541c-77 -149 -107 -172 -274 -172h-100l28 133h39c55 0 80 0 95 27l7 12l-98 541h192zM159 725h171l-27 -127h-170zM411 725h170l-27 -127h-170z" />
    <glyph glyph-name="Abreve" unicode="&#x102;" horiz-adv-x="739" 
d="M-51 0l413 725h229l112 -725h-222l-14 121h-228l-64 -121h-226zM428 478l-107 -201h129zM570 886h118c-22 -78 -91 -117 -206 -117c-117 0 -176 36 -176 108v9h118c0 -36 31 -46 67 -46c37 0 72 9 79 46z" />
    <glyph glyph-name="Amacron" unicode="&#x100;" horiz-adv-x="739" 
d="M-51 0l413 725h229l112 -725h-222l-14 121h-228l-64 -121h-226zM428 478l-107 -201h129zM655 782h-356l20 95h357z" />
    <glyph glyph-name="Aogonek" unicode="&#x104;" horiz-adv-x="739" 
d="M-51 0l413 725h229l112 -725c-28 -13 -132 -38 -132 -75c0 -25 28 -32 56 -32c21 0 43 4 54 7l-17 -79c-23 -5 -74 -9 -104 -9c-73 0 -169 18 -169 85c0 39 31 78 90 103l-14 121h-228l-64 -121h-226zM428 478l-107 -201h129z" />
    <glyph glyph-name="Cacute" unicode="&#x106;" horiz-adv-x="766" 
d="M546 278h210c-50 -199 -218 -291 -387 -291c-189 0 -327 103 -327 322c0 208 136 433 409 433c170 0 324 -95 332 -290h-208c-8 67 -39 114 -134 114c-125 0 -180 -144 -180 -248c0 -97 45 -156 137 -156c67 0 121 41 148 116zM728 886l-178 -113h-182l127 113h233z" />
    <glyph glyph-name="Ccaron" unicode="&#x10c;" horiz-adv-x="766" 
d="M546 278h210c-50 -199 -218 -291 -387 -291c-189 0 -327 103 -327 322c0 208 136 433 409 433c170 0 324 -95 332 -290h-208c-8 67 -39 114 -134 114c-125 0 -180 -144 -180 -248c0 -97 45 -156 137 -156c67 0 121 41 148 116zM364 773l-112 113h193l47 -50l66 50h198
l-161 -113h-231z" />
    <glyph glyph-name="Ccircumflex" unicode="&#x108;" horiz-adv-x="766" 
d="M546 278h210c-50 -199 -218 -291 -387 -291c-189 0 -327 103 -327 322c0 208 136 433 409 433c170 0 324 -95 332 -290h-208c-8 67 -39 114 -134 114c-125 0 -180 -144 -180 -248c0 -97 45 -156 137 -156c67 0 121 41 148 116zM619 886l112 -113h-193l-47 49l-66 -49
h-198l160 113h232z" />
    <glyph glyph-name="Cdotaccent" unicode="&#x10a;" horiz-adv-x="766" 
d="M546 278h210c-50 -199 -218 -291 -387 -291c-189 0 -327 103 -327 322c0 208 136 433 409 433c170 0 324 -95 332 -290h-208c-8 67 -39 114 -134 114c-125 0 -180 -144 -180 -248c0 -97 45 -156 137 -156c67 0 121 41 148 116zM412 886h171l-25 -113h-170z" />
    <glyph glyph-name="Dcaron" unicode="&#x10e;" horiz-adv-x="759" 
d="M532 399c0 124 -85 157 -185 157h-9l-82 -387h12c150 0 264 72 264 230zM165 725h185c232 0 405 -90 405 -312c0 -272 -200 -413 -511 -413h-233zM257 773l-112 113h193l47 -50l66 50h198l-161 -113h-231z" />
    <glyph glyph-name="Dcroat" unicode="&#x110;" horiz-adv-x="789" 
d="M195 725h185c232 0 405 -90 405 -312c0 -272 -200 -413 -511 -413h-233l62 294h-87l32 147h86zM377 556h-9l-25 -115h104l-32 -147h-103l-26 -125h12c150 0 264 72 264 230c0 124 -85 157 -185 157z" />
    <glyph glyph-name="Ebreve" unicode="&#x114;" horiz-adv-x="686" 
d="M11 0l154 725h562l-38 -179h-353l-19 -92h334l-39 -180h-334l-20 -94h357l-38 -180h-566zM545 886h118c-22 -78 -91 -117 -206 -117c-117 0 -176 36 -176 108v9h118c0 -36 31 -46 67 -46c37 0 72 9 79 46z" />
    <glyph glyph-name="Ecaron" unicode="&#x11a;" horiz-adv-x="686" 
d="M11 0l154 725h562l-38 -179h-353l-19 -92h334l-39 -180h-334l-20 -94h357l-38 -180h-566zM338 773l-112 113h193l47 -50l66 50h198l-161 -113h-231z" />
    <glyph glyph-name="Emacron" unicode="&#x112;" horiz-adv-x="686" 
d="M11 0l154 725h562l-38 -179h-353l-19 -92h334l-39 -180h-334l-20 -94h357l-38 -180h-566zM632 782h-356l20 95h357z" />
    <glyph glyph-name="Eogonek" unicode="&#x118;" horiz-adv-x="686" 
d="M11 0l154 725h562l-38 -179h-353l-19 -92h334l-39 -180h-334l-20 -94h357l-38 -180h-566zM418 0h160c-28 -13 -104 -41 -104 -78c0 -21 21 -27 44 -27c15 0 29 1 38 4l-17 -78c-21 -5 -47 -9 -78 -9c-64 0 -132 18 -132 85c0 39 32 78 89 103z" />
    <glyph glyph-name="Edotaccent" unicode="&#x116;" horiz-adv-x="686" 
d="M11 0l154 725h562l-38 -179h-353l-19 -92h334l-39 -180h-334l-20 -94h357l-38 -180h-566zM388 886h171l-25 -113h-170z" />
    <glyph glyph-name="Gbreve" unicode="&#x11e;" horiz-adv-x="842" 
d="M559 0l7 77c-52 -57 -129 -90 -229 -90c-156 0 -295 107 -295 320c0 232 154 435 430 435c211 0 333 -113 346 -264h-206c-11 56 -69 88 -145 88c-148 0 -206 -137 -206 -244c0 -100 48 -160 149 -160c77 0 144 35 167 94l2 7h-174l33 150h378l-89 -413h-168zM591 886
h118c-22 -78 -91 -117 -206 -117c-117 0 -176 36 -176 108v9h118c0 -36 31 -46 67 -46c37 0 72 9 79 46z" />
    <glyph glyph-name="Gcircumflex" unicode="&#x11c;" horiz-adv-x="842" 
d="M559 0l7 77c-52 -57 -129 -90 -229 -90c-156 0 -295 107 -295 320c0 232 154 435 430 435c211 0 333 -113 346 -264h-206c-11 56 -69 88 -145 88c-148 0 -206 -137 -206 -244c0 -100 48 -160 149 -160c77 0 144 35 167 94l2 7h-174l33 150h378l-89 -413h-168zM629 886
l112 -113h-193l-47 49l-66 -49h-198l160 113h232z" />
    <glyph glyph-name="uni0122" unicode="&#x122;" horiz-adv-x="842" 
d="M559 0l7 77c-52 -57 -129 -90 -229 -90c-156 0 -295 107 -295 320c0 232 154 435 430 435c211 0 333 -113 346 -264h-206c-11 56 -69 88 -145 88c-148 0 -206 -137 -206 -244c0 -100 48 -160 149 -160c77 0 144 35 167 94l2 7h-174l33 150h378l-89 -413h-168zM255 -136
l21 100h149l-23 -106l-74 -89h-97l59 95h-35z" />
    <glyph glyph-name="Gdotaccent" unicode="&#x120;" horiz-adv-x="842" 
d="M559 0l7 77c-52 -57 -129 -90 -229 -90c-156 0 -295 107 -295 320c0 232 154 435 430 435c211 0 333 -113 346 -264h-206c-11 56 -69 88 -145 88c-148 0 -206 -137 -206 -244c0 -100 48 -160 149 -160c77 0 144 35 167 94l2 7h-174l33 150h378l-89 -413h-168zM432 886
h171l-25 -113h-170z" />
    <glyph glyph-name="Hbar" unicode="&#x126;" horiz-adv-x="803" 
d="M623 725h209l-16 -75h53l-27 -126h-53l-111 -524h-209l58 274h-249l-58 -274h-209l111 524h-55l27 126h55l16 75h209l-16 -75h249zM317 454h249l14 70h-249z" />
    <glyph glyph-name="Hcircumflex" unicode="&#x124;" horiz-adv-x="803" 
d="M623 725h209l-154 -725h-209l58 274h-249l-58 -274h-209l154 725h209l-57 -271h249zM641 886l112 -113h-193l-47 49l-66 -49h-198l160 113h232z" />
    <glyph glyph-name="Ibreve" unicode="&#x12c;" horiz-adv-x="345" 
d="M369 886h118c-22 -78 -91 -117 -206 -117c-117 0 -176 36 -176 108v9h118c0 -36 31 -46 67 -46c37 0 72 9 79 46zM374 725l-154 -725h-209l154 725h209z" />
    <glyph glyph-name="Idotaccent" unicode="&#x130;" horiz-adv-x="345" 
d="M374 725l-154 -725h-209l154 725h209zM216 886h171l-25 -113h-170z" />
    <glyph glyph-name="Imacron" unicode="&#x12a;" horiz-adv-x="345" 
d="M459 782h-356l20 95h357zM374 725l-154 -725h-209l154 725h209z" />
    <glyph glyph-name="Iogonek" unicode="&#x12e;" horiz-adv-x="345" 
d="M374 725l-154 -725c-28 -13 -132 -38 -132 -75c0 -25 28 -32 56 -32c21 0 43 3 54 6l-16 -78c-24 -5 -75 -9 -105 -9c-72 0 -154 18 -154 85c0 39 32 78 89 103h-1l154 725h209z" />
    <glyph glyph-name="Itilde" unicode="&#x128;" horiz-adv-x="345" 
d="M227 886c62 0 82 -36 124 -36c28 0 54 9 59 36h92c-15 -75 -67 -113 -147 -113c-64 0 -89 35 -129 35c-28 0 -50 -10 -57 -35h-93c12 71 72 113 151 113zM374 725l-154 -725h-209l154 725h209z" />
    <glyph glyph-name="uni1ECA" unicode="&#x1eca;" horiz-adv-x="345" 
d="M374 725l-154 -725h-209l154 725h209zM203 -56l-25 -119h-166l25 119h166z" />
    <glyph glyph-name="Jcircumflex" unicode="&#x134;" horiz-adv-x="649" 
d="M715 886l112 -113h-193l-47 49l-66 -49h-198l160 113h232zM678 725l-96 -453c-45 -205 -133 -285 -334 -285c-160 0 -258 72 -258 212c0 24 3 50 9 78h207c-5 -25 -7 -46 -7 -65c0 -56 22 -77 65 -77c55 0 86 33 109 137l96 453h209z" />
    <glyph glyph-name="uni0136" unicode="&#x136;" horiz-adv-x="749" 
d="M374 725l-57 -267l280 267h233l-313 -297l174 -428h-216l-109 284l-107 -102l-39 -182h-209l154 725h209zM247 -136l21 100h149l-23 -106l-74 -89h-97l59 95h-35z" />
    <glyph glyph-name="Lacute" unicode="&#x139;" horiz-adv-x="625" 
d="M374 725l-116 -545h337l-38 -180h-546l154 725h209zM541 886l-178 -113h-182l127 113h233z" />
    <glyph glyph-name="Lcaron" unicode="&#x13d;" horiz-adv-x="625" 
d="M374 725l-116 -545h337l-38 -180h-546l154 725h209zM623 725l-95 -170h-133l55 170h173z" />
    <glyph glyph-name="uni013B" unicode="&#x13b;" horiz-adv-x="625" 
d="M374 725l-116 -545h337l-38 -180h-546l154 725h209zM188 -136l21 100h149l-23 -106l-74 -89h-97l59 95h-35z" />
    <glyph glyph-name="Ldot" unicode="&#x13f;" horiz-adv-x="625" 
d="M374 725l-116 -545h337l-38 -180h-546l154 725h209zM443 510h171l-25 -113h-170z" />
    <glyph glyph-name="Lslash" unicode="&#x141;" horiz-adv-x="630" 
d="M378 725l-40 -187l148 71l-38 -180l-148 -71l-38 -178h337l-38 -180h-546l52 247l-114 -54l38 179l114 55l64 298h209z" />
    <glyph glyph-name="Eng" unicode="&#x14a;" horiz-adv-x="803" 
d="M475 18l-164 433l-96 -451h-203l154 725h246l133 -389l83 389h205l-152 -716c-37 -168 -92 -184 -253 -184h-91l32 151h38c36 0 59 9 66 34z" />
    <glyph glyph-name="Nacute" unicode="&#x143;" horiz-adv-x="803" 
d="M678 0h-246l-122 451l-96 -451h-203l154 725h246l123 -440l93 440h205zM770 886l-178 -113h-182l127 113h233z" />
    <glyph glyph-name="Ncaron" unicode="&#x147;" horiz-adv-x="803" 
d="M678 0h-246l-122 451l-96 -451h-203l154 725h246l123 -440l93 440h205zM390 773l-112 113h193l47 -50l66 50h198l-161 -113h-231z" />
    <glyph glyph-name="uni0145" unicode="&#x145;" horiz-adv-x="803" 
d="M678 0h-246l-122 451l-96 -451h-203l154 725h246l123 -440l93 440h205zM239 -136l21 100h149l-23 -106l-74 -89h-97l59 95h-35z" />
    <glyph glyph-name="OE" unicode="&#x152;" horiz-adv-x="1177" 
d="M523 0l9 41c-43 -35 -95 -54 -171 -54c-155 0 -315 114 -315 341c0 238 145 414 396 414c95 0 169 -25 222 -76l12 59h542l-38 -179h-354l-19 -92h336l-39 -180h-336l-20 -94h358l-38 -180h-545zM585 397c0 113 -63 170 -151 170c-118 0 -174 -112 -174 -233
c0 -112 64 -172 151 -172c118 0 174 112 174 235z" />
    <glyph glyph-name="Obreve" unicode="&#x14e;" horiz-adv-x="805" 
d="M260 334c-3 -113 52 -172 140 -172c117 0 179 112 187 233c3 113 -52 172 -140 172c-117 0 -179 -112 -187 -233zM805 401c-16 -238 -172 -414 -424 -414c-192 0 -352 114 -339 341c16 238 172 414 424 414c194 0 350 -115 339 -341zM597 886h118
c-22 -78 -91 -117 -206 -117c-117 0 -176 36 -176 108v9h118c0 -36 31 -46 67 -46c37 0 72 9 79 46z" />
    <glyph glyph-name="Ohungarumlaut" unicode="&#x150;" horiz-adv-x="805" 
d="M638 886l-178 -113h-182l127 113h233zM898 886l-179 -113h-183l128 113h234zM260 334c-3 -113 52 -172 140 -172c117 0 179 112 187 233c3 113 -52 172 -140 172c-117 0 -179 -112 -187 -233zM805 401c-16 -238 -172 -414 -424 -414c-192 0 -352 114 -339 341
c16 238 172 414 424 414c194 0 350 -115 339 -341z" />
    <glyph glyph-name="Omacron" unicode="&#x14c;" horiz-adv-x="805" 
d="M260 334c-3 -113 52 -172 140 -172c117 0 179 112 187 233c3 113 -52 172 -140 172c-117 0 -179 -112 -187 -233zM805 401c-16 -238 -172 -414 -424 -414c-192 0 -352 114 -339 341c16 238 172 414 424 414c194 0 350 -115 339 -341zM670 782h-356l20 95h357z" />
    <glyph glyph-name="uni1ECC" unicode="&#x1ecc;" horiz-adv-x="805" 
d="M260 334c-3 -113 52 -172 140 -172c117 0 179 112 187 233c3 113 -52 172 -140 172c-117 0 -179 -112 -187 -233zM805 401c-16 -238 -172 -414 -424 -414c-192 0 -352 114 -339 341c16 238 172 414 424 414c194 0 350 -115 339 -341zM435 -56l-25 -119h-166l25 119h166z
" />
    <glyph glyph-name="Racute" unicode="&#x154;" horiz-adv-x="732" 
d="M456 0l-95 255h-86l-54 -255h-209l154 725h269c175 0 298 -43 298 -192c0 -137 -77 -210 -178 -247l114 -286h-213zM339 556l-30 -143h90c55 0 111 16 111 83c0 41 -29 60 -81 60h-90zM707 886l-178 -113h-182l127 113h233z" />
    <glyph glyph-name="Rcaron" unicode="&#x158;" horiz-adv-x="732" 
d="M456 0l-95 255h-86l-54 -255h-209l154 725h269c175 0 298 -43 298 -192c0 -137 -77 -210 -178 -247l114 -286h-213zM339 556l-30 -143h90c55 0 111 16 111 83c0 41 -29 60 -81 60h-90zM322 773l-112 113h193l47 -50l66 50h198l-161 -113h-231z" />
    <glyph glyph-name="uni0156" unicode="&#x156;" horiz-adv-x="732" 
d="M456 0l-95 255h-86l-54 -255h-209l154 725h269c175 0 298 -43 298 -192c0 -137 -77 -210 -178 -247l114 -286h-213zM339 556l-30 -143h90c55 0 111 16 111 83c0 41 -29 60 -81 60h-90zM235 -136l21 100h149l-23 -106l-74 -89h-97l59 95h-35z" />
    <glyph glyph-name="Sacute" unicode="&#x15a;" horiz-adv-x="707" 
d="M722 640l-108 -161c-88 60 -175 82 -238 82c-53 0 -88 -13 -88 -37c0 -23 25 -42 62 -53l104 -30c120 -35 222 -90 222 -210c0 -162 -147 -244 -314 -244c-161 0 -280 52 -363 117l115 158c79 -67 163 -96 259 -96c49 0 88 14 88 43c0 31 -40 47 -104 64l-78 23
c-101 29 -197 94 -197 211c0 136 113 235 303 235c159 0 281 -62 337 -102zM664 886l-178 -113h-182l127 113h233z" />
    <glyph glyph-name="Scaron" unicode="&#x160;" horiz-adv-x="707" 
d="M722 640l-108 -161c-88 60 -175 82 -238 82c-53 0 -88 -13 -88 -37c0 -23 25 -42 62 -53l104 -30c120 -35 222 -90 222 -210c0 -162 -147 -244 -314 -244c-161 0 -280 52 -363 117l115 158c79 -67 163 -96 259 -96c49 0 88 14 88 43c0 31 -40 47 -104 64l-78 23
c-101 29 -197 94 -197 211c0 136 113 235 303 235c159 0 281 -62 337 -102zM323 773l-112 113h193l47 -50l66 50h198l-161 -113h-231z" />
    <glyph glyph-name="Scedilla" unicode="&#x15e;" horiz-adv-x="707" 
d="M722 640l-108 -161c-88 60 -175 82 -238 82c-53 0 -88 -13 -88 -37c0 -23 25 -42 62 -53l104 -30c120 -35 222 -90 222 -210c0 -162 -147 -244 -314 -244c-161 0 -280 52 -363 117l115 158c79 -67 163 -96 259 -96c49 0 88 14 88 43c0 31 -40 47 -104 64l-78 23
c-101 29 -197 94 -197 211c0 136 113 235 303 235c159 0 281 -62 337 -102zM234 -84l70 85h62l-43 -52c10 3 21 4 33 4c53 0 85 -23 85 -60c0 -68 -75 -94 -149 -94c-34 0 -64 5 -91 14l16 52c13 -5 39 -11 64 -11c31 0 57 8 57 31c0 16 -16 25 -37 25c-12 0 -27 -2 -39 -9z
" />
    <glyph glyph-name="Scircumflex" unicode="&#x15c;" horiz-adv-x="707" 
d="M722 640l-108 -161c-88 60 -175 82 -238 82c-53 0 -88 -13 -88 -37c0 -23 25 -42 62 -53l104 -30c120 -35 222 -90 222 -210c0 -162 -147 -244 -314 -244c-161 0 -280 52 -363 117l115 158c79 -67 163 -96 259 -96c49 0 88 14 88 43c0 31 -40 47 -104 64l-78 23
c-101 29 -197 94 -197 211c0 136 113 235 303 235c159 0 281 -62 337 -102zM557 886l112 -113h-193l-47 49l-66 -49h-198l160 113h232z" />
    <glyph glyph-name="uni0218" unicode="&#x218;" horiz-adv-x="707" 
d="M722 640l-108 -161c-88 60 -175 82 -238 82c-53 0 -88 -13 -88 -37c0 -23 25 -42 62 -53l104 -30c120 -35 222 -90 222 -210c0 -162 -147 -244 -314 -244c-161 0 -280 52 -363 117l115 158c79 -67 163 -96 259 -96c49 0 88 14 88 43c0 31 -40 47 -104 64l-78 23
c-101 29 -197 94 -197 211c0 136 113 235 303 235c159 0 281 -62 337 -102zM248 -136l21 100h149l-23 -106l-74 -89h-97l59 95h-35z" />
    <glyph glyph-name="Tbar" unicode="&#x166;" horiz-adv-x="657" 
d="M172 0l57 269h-104l38 180h104l21 97h-215l38 179h642l-38 -179h-218l-21 -97h111l-38 -180h-111l-57 -269h-209z" />
    <glyph glyph-name="Tcaron" unicode="&#x164;" horiz-adv-x="657" 
d="M172 0l116 546h-215l38 179h642l-38 -179h-218l-116 -546h-209zM326 773l-112 113h193l47 -50l66 50h198l-161 -113h-231z" />
    <glyph glyph-name="uni0162" unicode="&#x162;" horiz-adv-x="657" 
d="M172 0l116 546h-215l38 179h642l-38 -179h-218l-116 -546h-209zM179 -136l21 100h149l-23 -106l-74 -89h-97l59 95h-35z" />
    <glyph glyph-name="uni021A" unicode="&#x21a;" horiz-adv-x="657" 
d="M172 0l116 546h-215l38 179h642l-38 -179h-218l-116 -546h-209zM179 -136l21 100h149l-23 -106l-74 -89h-97l59 95h-35z" />
    <glyph glyph-name="Ubreve" unicode="&#x16c;" horiz-adv-x="775" 
d="M270 242c0 -53 26 -80 95 -80c89 0 128 53 147 138l90 425h208l-86 -404c-48 -226 -147 -334 -383 -334c-181 0 -286 60 -286 220c0 31 5 67 13 107l87 411h212l-90 -425c-5 -21 -7 -40 -7 -58zM578 886h118c-22 -78 -91 -117 -206 -117c-117 0 -176 36 -176 108v9h118
c0 -36 31 -46 67 -46c37 0 72 9 79 46z" />
    <glyph glyph-name="Uhungarumlaut" unicode="&#x170;" horiz-adv-x="775" 
d="M615 886l-178 -113h-182l127 113h233zM875 886l-179 -113h-183l128 113h234zM270 242c0 -53 26 -80 95 -80c89 0 128 53 147 138l90 425h208l-86 -404c-48 -226 -147 -334 -383 -334c-181 0 -286 60 -286 220c0 31 5 67 13 107l87 411h212l-90 -425c-5 -21 -7 -40 -7 -58
z" />
    <glyph glyph-name="Umacron" unicode="&#x16a;" horiz-adv-x="775" 
d="M270 242c0 -53 26 -80 95 -80c89 0 128 53 147 138l90 425h208l-86 -404c-48 -226 -147 -334 -383 -334c-181 0 -286 60 -286 220c0 31 5 67 13 107l87 411h212l-90 -425c-5 -21 -7 -40 -7 -58zM670 782h-356l20 95h357z" />
    <glyph glyph-name="Uogonek" unicode="&#x172;" horiz-adv-x="775" 
d="M270 242c0 -53 26 -80 95 -80c89 0 128 53 147 138l90 425h208l-86 -404c-48 -226 -147 -334 -383 -334c-181 0 -286 60 -286 220c0 31 5 67 13 107l87 411h212l-90 -425c-5 -21 -7 -40 -7 -58zM272 0h160c-28 -13 -104 -41 -104 -78c0 -21 21 -27 44 -27c15 0 29 1 38 4
l-17 -78c-21 -5 -47 -9 -78 -9c-64 0 -132 18 -132 85c0 39 32 78 89 103z" />
    <glyph glyph-name="Uring" unicode="&#x16e;" horiz-adv-x="775" 
d="M270 242c0 -53 26 -80 95 -80c89 0 128 53 147 138l90 425h208l-86 -404c-48 -226 -147 -334 -383 -334c-181 0 -286 60 -286 220c0 31 5 67 13 107l87 411h212l-90 -425c-5 -21 -7 -40 -7 -58zM484 893c-23 0 -43 -18 -43 -43s20 -42 43 -42s43 17 43 42s-20 43 -43 43z
M484 935c51 0 91 -36 91 -85c0 -51 -40 -85 -91 -85s-90 34 -90 85c0 49 41 85 90 85z" />
    <glyph glyph-name="Utilde" unicode="&#x168;" horiz-adv-x="775" 
d="M270 242c0 -53 26 -80 95 -80c89 0 128 53 147 138l90 425h208l-86 -404c-48 -226 -147 -334 -383 -334c-181 0 -286 60 -286 220c0 31 5 67 13 107l87 411h212l-90 -425c-5 -21 -7 -40 -7 -58zM437 886c62 0 82 -36 124 -36c28 0 54 9 59 36h92
c-15 -75 -67 -113 -147 -113c-64 0 -89 35 -129 35c-28 0 -50 -10 -57 -35h-93c12 71 72 113 151 113z" />
    <glyph glyph-name="uni1EE4" unicode="&#x1ee4;" horiz-adv-x="775" 
d="M270 242c0 -53 26 -80 95 -80c89 0 128 53 147 138l90 425h208l-86 -404c-48 -226 -147 -334 -383 -334c-181 0 -286 60 -286 220c0 31 5 67 13 107l87 411h212l-90 -425c-5 -21 -7 -40 -7 -58zM419 -56l-25 -119h-166l25 119h166z" />
    <glyph glyph-name="Wacute" unicode="&#x1e82;" horiz-adv-x="994" 
d="M705 725l-6 -457l153 457h222l-284 -725h-254l4 463l-196 -463h-245l10 725h211l-21 -451l179 451h227zM867 886l-178 -113h-182l127 113h233z" />
    <glyph glyph-name="Wcircumflex" unicode="&#x174;" horiz-adv-x="994" 
d="M705 725l-6 -457l153 457h222l-284 -725h-254l4 463l-196 -463h-245l10 725h211l-21 -451l179 451h227zM726 886l112 -113h-193l-47 49l-66 -49h-198l160 113h232z" />
    <glyph glyph-name="Wdieresis" unicode="&#x1e84;" horiz-adv-x="994" 
d="M705 725l-6 -457l153 457h222l-284 -725h-254l4 463l-196 -463h-245l10 725h211l-21 -451l179 451h227zM412 886h169l-25 -113h-168zM641 886h169l-25 -113h-169z" />
    <glyph glyph-name="Wgrave" unicode="&#x1e80;" horiz-adv-x="994" 
d="M705 725l-6 -457l153 457h222l-284 -725h-254l4 463l-196 -463h-245l10 725h211l-21 -451l179 451h227zM503 773l-140 113h233l79 -113h-172z" />
    <glyph glyph-name="Ycircumflex" unicode="&#x176;" horiz-adv-x="733" 
d="M81 725h231l93 -253l191 253h248l-377 -448l-59 -277h-209l60 282zM592 886l112 -113h-193l-47 49l-66 -49h-198l160 113h232z" />
    <glyph glyph-name="Ydieresis" unicode="&#x178;" horiz-adv-x="733" 
d="M81 725h231l93 -253l191 253h248l-377 -448l-59 -277h-209l60 282zM275 886h169l-25 -113h-168zM504 886h169l-25 -113h-169z" />
    <glyph glyph-name="Ygrave" unicode="&#x1ef2;" horiz-adv-x="733" 
d="M81 725h231l93 -253l191 253h248l-377 -448l-59 -277h-209l60 282zM368 773l-140 113h233l79 -113h-172z" />
    <glyph glyph-name="uni0232" unicode="&#x232;" horiz-adv-x="733" 
d="M81 725h231l93 -253l191 253h248l-377 -448l-59 -277h-209l60 282zM635 782h-356l20 95h357z" />
    <glyph glyph-name="Zacute" unicode="&#x179;" horiz-adv-x="689" 
d="M738 725l-38 -177l-426 -368h362l-38 -180h-625l38 178l424 368h-320l38 179h585zM709 886l-178 -113h-182l127 113h233z" />
    <glyph glyph-name="Zcaron" unicode="&#x17d;" horiz-adv-x="689" 
d="M738 725l-38 -177l-426 -368h362l-38 -180h-625l38 178l424 368h-320l38 179h585zM334 773l-112 113h193l47 -50l66 50h198l-161 -113h-231z" />
    <glyph glyph-name="Zdotaccent" unicode="&#x17b;" horiz-adv-x="689" 
d="M738 725l-38 -177l-426 -368h362l-38 -180h-625l38 178l424 368h-320l38 179h585zM384 886h171l-25 -113h-170z" />
    <glyph glyph-name="uni018F" unicode="&#x18f;" horiz-adv-x="782" 
d="M415 562c-68 0 -114 -31 -138 -84h-214c32 139 155 260 371 260c197 0 345 -116 345 -336c0 -227 -135 -415 -385 -415c-260 0 -387 197 -334 425h499c3 92 -54 150 -144 150zM386 164c76 0 133 31 152 90h-272c8 -58 63 -90 120 -90z" />
    <glyph glyph-name="abreve" unicode="&#x103;" horiz-adv-x="635" 
d="M408 347l3 15c1 3 1 5 1 7v7c0 41 -38 55 -79 55c-51 0 -87 -22 -99 -73h-172c16 101 109 199 289 199c137 0 248 -47 248 -187c0 -22 -3 -46 -9 -72l-17 -82c-13 -64 -33 -157 -36 -216h-184l15 70c-45 -60 -107 -83 -183 -83c-106 0 -171 66 -171 150
c0 121 121 183 394 210zM385 225l4 20c-126 -13 -166 -35 -166 -78c0 -27 16 -46 51 -46c52 0 92 21 111 104zM462 725h111c-19 -72 -72 -132 -186 -132c-101 0 -154 50 -154 114v9c0 3 0 6 1 9h104c0 -3 -1 -6 -1 -9c0 -27 21 -41 53 -41c41 0 61 15 72 50z" />
    <glyph glyph-name="amacron" unicode="&#x101;" horiz-adv-x="635" 
d="M408 347l3 15c1 3 1 5 1 7v7c0 41 -38 55 -79 55c-51 0 -87 -22 -99 -73h-172c16 101 109 199 289 199c137 0 248 -47 248 -187c0 -22 -3 -46 -9 -72l-17 -82c-13 -64 -33 -157 -36 -216h-184l15 70c-45 -60 -107 -83 -183 -83c-106 0 -171 66 -171 150
c0 121 121 183 394 210zM385 225l4 20c-126 -13 -166 -35 -166 -78c0 -27 16 -46 51 -46c52 0 92 21 111 104zM225 628l19 90h313l-19 -90h-313z" />
    <glyph glyph-name="aogonek" unicode="&#x105;" horiz-adv-x="635" 
d="M408 347l3 15c1 3 1 5 1 7v7c0 41 -38 55 -79 55c-51 0 -87 -22 -99 -73h-172c16 101 109 199 289 199c137 0 248 -47 248 -187c0 -22 -3 -46 -9 -72l-17 -82c-13 -64 -33 -157 -36 -216c-43 -13 -129 -41 -129 -78c0 -20 40 -27 62 -27c15 0 36 2 45 5l-17 -78
c-21 -5 -53 -10 -85 -10c-64 0 -150 18 -150 85c0 39 31 78 90 103l15 70c-45 -60 -107 -83 -183 -83c-106 0 -171 66 -171 150c0 121 121 183 394 210zM385 225l4 20c-126 -13 -166 -35 -166 -78c0 -27 16 -46 51 -46c52 0 92 21 111 104z" />
    <glyph glyph-name="cacute" unicode="&#x107;" horiz-adv-x="617" 
d="M604 330h-186c3 37 -18 78 -73 78c-88 0 -119 -115 -119 -185c0 -48 20 -87 76 -87c47 0 79 22 98 75h185c-51 -149 -166 -224 -311 -224c-133 0 -251 68 -251 223c0 180 125 347 330 347c160 0 254 -103 251 -227zM596 725l-165 -127h-166l124 127h207z" />
    <glyph glyph-name="ccaron" unicode="&#x10d;" horiz-adv-x="617" 
d="M604 330h-186c3 37 -18 78 -73 78c-88 0 -119 -115 -119 -185c0 -48 20 -87 76 -87c47 0 79 22 98 75h185c-51 -149 -166 -224 -311 -224c-133 0 -251 68 -251 223c0 180 125 347 330 347c160 0 254 -103 251 -227zM286 598l-108 127h165l41 -57l62 57h180l-165 -127
h-175z" />
    <glyph glyph-name="ccircumflex" unicode="&#x109;" horiz-adv-x="617" 
d="M604 330h-186c3 37 -18 78 -73 78c-88 0 -119 -115 -119 -185c0 -48 20 -87 76 -87c47 0 79 22 98 75h185c-51 -149 -166 -224 -311 -224c-133 0 -251 68 -251 223c0 180 125 347 330 347c160 0 254 -103 251 -227zM488 725l108 -127h-165l-41 57l-62 -57h-180l165 127
h175z" />
    <glyph glyph-name="cdotaccent" unicode="&#x10b;" horiz-adv-x="617" 
d="M604 330h-186c3 37 -18 78 -73 78c-88 0 -119 -115 -119 -185c0 -48 20 -87 76 -87c47 0 79 22 98 75h185c-51 -149 -166 -224 -311 -224c-133 0 -251 68 -251 223c0 180 125 347 330 347c160 0 254 -103 251 -227zM315 725h166l-25 -116h-166z" />
    <glyph glyph-name="dcaron" unicode="&#x10f;" horiz-adv-x="796" 
d="M931 725l-95 -170h-133l55 170h173zM345 0l13 63c-32 -41 -97 -76 -169 -76c-93 0 -170 77 -170 228c0 152 90 335 277 335c71 0 130 -43 148 -85l55 260h200l-154 -725h-200zM419 297c0 60 -29 104 -77 104c-80 0 -111 -106 -111 -163s20 -102 71 -102
c77 0 117 104 117 161z" />
    <glyph glyph-name="dcroat" unicode="&#x111;" horiz-adv-x="669" 
d="M345 0l13 63c-32 -41 -97 -76 -169 -76c-93 0 -170 77 -170 228c0 152 90 335 277 335c71 0 130 -43 148 -85l25 120h-104l18 87h105l11 53h200l-11 -53h64l-18 -87h-65l-124 -585h-200zM419 297c0 60 -29 104 -77 104c-80 0 -111 -106 -111 -163s20 -102 71 -102
c77 0 117 104 117 161z" />
    <glyph glyph-name="ebreve" unicode="&#x115;" horiz-adv-x="638" 
d="M400 181h190c-37 -101 -138 -194 -305 -194c-134 0 -262 70 -262 229s116 340 337 340c204 0 295 -144 234 -335h-375c-1 -8 0 -10 0 -17c0 -39 34 -69 85 -69c49 0 81 15 96 46zM357 419c-47 0 -92 -24 -113 -87h192c8 57 -26 87 -79 87zM454 725h111
c-19 -72 -72 -132 -186 -132c-101 0 -154 50 -154 114v9c0 3 0 6 1 9h104c0 -3 -1 -6 -1 -9c0 -27 21 -41 53 -41c41 0 61 15 72 50z" />
    <glyph glyph-name="ecaron" unicode="&#x11b;" horiz-adv-x="638" 
d="M400 181h190c-37 -101 -138 -194 -305 -194c-134 0 -262 70 -262 229s116 340 337 340c204 0 295 -144 234 -335h-375c-1 -8 0 -10 0 -17c0 -39 34 -69 85 -69c49 0 81 15 96 46zM357 419c-47 0 -92 -24 -113 -87h192c8 57 -26 87 -79 87zM293 598l-108 127h165l41 -57
l62 57h180l-165 -127h-175z" />
    <glyph glyph-name="emacron" unicode="&#x113;" horiz-adv-x="638" 
d="M400 181h190c-37 -101 -138 -194 -305 -194c-134 0 -262 70 -262 229s116 340 337 340c204 0 295 -144 234 -335h-375c-1 -8 0 -10 0 -17c0 -39 34 -69 85 -69c49 0 81 15 96 46zM357 419c-47 0 -92 -24 -113 -87h192c8 57 -26 87 -79 87zM236 628l19 90h313l-19 -90
h-313z" />
    <glyph glyph-name="eogonek" unicode="&#x119;" horiz-adv-x="638" 
d="M400 181h190c-37 -101 -138 -194 -305 -194c-134 0 -262 70 -262 229s116 340 337 340c204 0 295 -144 234 -335h-375c-1 -8 0 -10 0 -17c0 -39 34 -69 85 -69c49 0 81 15 96 46zM357 419c-47 0 -92 -24 -113 -87h192c8 57 -26 87 -79 87zM229 0h160
c-28 -13 -104 -41 -104 -78c0 -21 21 -27 44 -27c15 0 28 2 39 5l-17 -79c-21 -5 -48 -9 -79 -9c-64 0 -132 18 -132 85c0 39 32 78 89 103z" />
    <glyph glyph-name="edotaccent" unicode="&#x117;" horiz-adv-x="638" 
d="M400 181h190c-37 -101 -138 -194 -305 -194c-134 0 -262 70 -262 229s116 340 337 340c204 0 295 -144 234 -335h-375c-1 -8 0 -10 0 -17c0 -39 34 -69 85 -69c49 0 81 15 96 46zM357 419c-47 0 -92 -24 -113 -87h192c8 57 -26 87 -79 87zM318 725h166l-25 -116h-166z
" />
    <glyph glyph-name="gbreve" unicode="&#x11f;" horiz-adv-x="665" 
d="M424 309c0 56 -30 100 -79 100c-82 0 -114 -103 -114 -154c0 -56 22 -98 73 -98c80 0 120 98 120 152zM445 476l13 62h200l-111 -523c-34 -164 -138 -203 -301 -203c-168 0 -244 64 -251 172h184c3 -31 28 -47 76 -47c52 0 84 28 96 85l14 66c-39 -51 -105 -72 -170 -72
c-101 0 -181 73 -181 217c0 146 100 317 284 317c73 0 128 -39 147 -74zM474 725h111c-19 -72 -72 -132 -186 -132c-101 0 -154 50 -154 114v9c0 3 0 6 1 9h104c0 -3 -1 -6 -1 -9c0 -27 21 -41 53 -41c41 0 61 15 72 50z" />
    <glyph glyph-name="gcircumflex" unicode="&#x11d;" horiz-adv-x="665" 
d="M424 309c0 56 -30 100 -79 100c-82 0 -114 -103 -114 -154c0 -56 22 -98 73 -98c80 0 120 98 120 152zM445 476l13 62h200l-111 -523c-34 -164 -138 -203 -301 -203c-168 0 -244 64 -251 172h184c3 -31 28 -47 76 -47c52 0 84 28 96 85l14 66c-39 -51 -105 -72 -170 -72
c-101 0 -181 73 -181 217c0 146 100 317 284 317c73 0 128 -39 147 -74zM506 725l108 -127h-165l-41 57l-62 -57h-180l165 127h175z" />
    <glyph glyph-name="uni0123" unicode="&#x123;" horiz-adv-x="665" 
d="M471 697l-21 -100h-148l22 106l75 90h96l-59 -96h35zM424 309c0 56 -30 100 -79 100c-82 0 -114 -103 -114 -154c0 -56 22 -98 73 -98c80 0 120 98 120 152zM445 476l13 62h200l-111 -523c-34 -164 -138 -203 -301 -203c-168 0 -244 64 -251 172h184c3 -31 28 -47 76 -47
c52 0 84 28 96 85l14 66c-39 -51 -105 -72 -170 -72c-101 0 -181 73 -181 217c0 146 100 317 284 317c73 0 128 -39 147 -74z" />
    <glyph glyph-name="gdotaccent" unicode="&#x121;" horiz-adv-x="665" 
d="M424 309c0 56 -30 100 -79 100c-82 0 -114 -103 -114 -154c0 -56 22 -98 73 -98c80 0 120 98 120 152zM445 476l13 62h200l-111 -523c-34 -164 -138 -203 -301 -203c-168 0 -244 64 -251 172h184c3 -31 28 -47 76 -47c52 0 84 28 96 85l14 66c-39 -51 -105 -72 -170 -72
c-101 0 -181 73 -181 217c0 146 100 317 284 317c73 0 128 -39 147 -74zM534 716l-25 -119h-166l25 119h166z" />
    <glyph glyph-name="hbar" unicode="&#x127;" horiz-adv-x="665" 
d="M363 725l-12 -53h84l-18 -87h-84l-23 -108c37 47 103 73 167 73c109 0 152 -59 152 -152c0 -26 -4 -56 -11 -91l-65 -307h-200l62 292c4 18 6 33 6 46c0 41 -18 56 -49 56c-47 0 -87 -34 -102 -102l-62 -292h-200l124 585h-84l18 87h85l11 53h201z" />
    <glyph glyph-name="hcircumflex" unicode="&#x125;" horiz-adv-x="665" 
d="M363 725l-53 -248c37 47 103 73 167 73c109 0 152 -59 152 -152c0 -26 -4 -56 -11 -91l-65 -307h-200l62 292c4 18 6 33 6 46c0 41 -18 56 -49 56c-47 0 -87 -34 -102 -102l-62 -292h-200l154 725h201zM399 886l112 -113h-193l-47 49l-66 -49h-198l160 113h232z" />
    <glyph glyph-name="dotlessi" unicode="&#x131;" horiz-adv-x="333" 
d="M122 538h200l-114 -538h-199z" />
    <glyph glyph-name="ibreve" unicode="&#x12d;" horiz-adv-x="333" 
d="M315 725h111c-19 -72 -72 -132 -186 -132c-101 0 -154 50 -154 114v9c0 3 0 6 1 9h104c0 -3 -1 -6 -1 -9c0 -27 21 -41 53 -41c41 0 61 15 72 50zM122 538h200l-114 -538h-199z" />
    <glyph glyph-name="imacron" unicode="&#x12b;" horiz-adv-x="333" 
d="M75 628l19 90h313l-19 -90h-313zM122 538h200l-114 -538h-199z" />
    <glyph glyph-name="iogonek" unicode="&#x12f;" horiz-adv-x="333" 
d="M122 538h200l-114 -538c-43 -13 -128 -41 -128 -78c0 -20 40 -27 62 -27c15 0 34 2 43 5l-17 -78c-21 -5 -51 -10 -83 -10c-64 0 -165 18 -165 85c0 39 32 78 89 103zM163 725h200l-32 -153h-200z" />
    <glyph glyph-name="itilde" unicode="&#x129;" horiz-adv-x="333" 
d="M169 724c80 0 100 -44 144 -44c29 0 56 12 60 44h95c-15 -89 -69 -126 -138 -126c-77 0 -106 44 -145 44c-29 0 -52 -13 -59 -44h-95c11 85 76 126 138 126zM122 538h200l-114 -538h-199z" />
    <glyph glyph-name="uni1ECB" unicode="&#x1ecb;" horiz-adv-x="333" 
d="M122 538h200l-114 -538h-199zM163 725h200l-32 -153h-200zM185 -56l-25 -119h-166l25 119h166z" />
    <glyph glyph-name="uni0237" unicode="&#x237;" horiz-adv-x="333" 
d="M9 -3l113 541h200l-115 -544c-32 -148 -75 -169 -237 -169h-75l30 134h32c36 0 45 7 52 38z" />
    <glyph glyph-name="jcircumflex" unicode="&#x135;" horiz-adv-x="333" 
d="M355 725l108 -127h-165l-41 57l-62 -57h-180l165 127h175zM9 -3l113 541h200l-115 -544c-32 -148 -75 -169 -237 -169h-75l30 134h32c36 0 45 7 52 38z" />
    <glyph glyph-name="uni0137" unicode="&#x137;" horiz-adv-x="686" 
d="M163 725h200l-80 -377l216 190h227l-262 -225l143 -313h-207l-81 189l-86 -73l-24 -116h-200zM202 -136l21 100h149l-23 -106l-74 -89h-97l59 95h-35z" />
    <glyph glyph-name="lacute" unicode="&#x13a;" horiz-adv-x="333" 
d="M539 886l-178 -113h-182l127 113h233zM363 725l-154 -725h-200l154 725h200z" />
    <glyph glyph-name="lcaron" unicode="&#x13e;" horiz-adv-x="457" 
d="M596 725l-95 -170h-133l55 170h173zM363 725l-154 -725h-200l154 725h200z" />
    <glyph glyph-name="uni013C" unicode="&#x13c;" horiz-adv-x="335" 
d="M365 725l-154 -725h-200l154 725h200zM6 -136l21 100h149l-23 -106l-74 -89h-97l59 95h-35z" />
    <glyph glyph-name="ldot" unicode="&#x140;" horiz-adv-x="502" 
d="M386 511h166l-25 -116h-166zM363 725l-154 -725h-200l154 725h200z" />
    <glyph glyph-name="lslash" unicode="&#x142;" horiz-adv-x="359" 
d="M376 725l-45 -213l72 32l-32 -154l-73 -32l-76 -358h-200l55 260l-73 -32l33 155l73 32l66 310h200z" />
    <glyph glyph-name="eng" unicode="&#x14b;" horiz-adv-x="665" 
d="M353 -3l63 295c4 17 5 32 5 45c0 43 -18 57 -49 57c-47 0 -87 -34 -102 -102l-62 -292h-199l113 538h200l-12 -61c37 47 103 73 167 73c109 0 153 -59 153 -152c0 -28 -4 -58 -11 -91l-67 -313c-32 -148 -90 -169 -237 -169h-76l31 134h36c27 0 40 7 47 38z" />
    <glyph glyph-name="nacute" unicode="&#x144;" horiz-adv-x="666" 
d="M123 538h200l-13 -61c37 47 103 73 167 73c109 0 152 -59 152 -152c0 -26 -4 -56 -11 -91l-65 -307h-200l62 292c4 18 6 33 6 46c0 41 -18 56 -49 56c-47 0 -86 -34 -101 -102l-62 -292h-200zM648 725l-165 -127h-166l124 127h207z" />
    <glyph glyph-name="ncaron" unicode="&#x148;" horiz-adv-x="665" 
d="M123 538h200l-13 -61c37 47 103 73 167 73c109 0 152 -59 152 -152c0 -26 -4 -56 -11 -91l-65 -307h-200l62 292c4 18 6 33 6 46c0 41 -18 56 -49 56c-47 0 -86 -34 -101 -102l-62 -292h-200zM330 598l-108 127h165l41 -57l62 57h180l-165 -127h-175z" />
    <glyph glyph-name="uni0146" unicode="&#x146;" horiz-adv-x="665" 
d="M123 538h200l-13 -61c37 47 103 73 167 73c109 0 152 -59 152 -152c0 -26 -4 -56 -11 -91l-65 -307h-200l62 292c4 18 6 33 6 46c0 41 -18 56 -49 56c-47 0 -86 -34 -101 -102l-62 -292h-200zM183 -136l21 100h149l-23 -106l-74 -89h-97l59 95h-35z" />
    <glyph glyph-name="oe" unicode="&#x153;" horiz-adv-x="1009" 
d="M774 181h190c-37 -101 -138 -194 -307 -194c-68 0 -128 21 -171 66c-47 -43 -106 -66 -182 -66c-147 0 -278 68 -278 248c0 184 113 323 315 323c73 0 139 -24 186 -76c48 45 110 74 193 74c165 0 261 -95 261 -234c0 -33 -5 -66 -15 -101h-374c-1 -2 -1 -4 -1 -7v-6
c0 -43 36 -73 87 -73c49 0 81 15 96 46zM308 136c75 0 102 100 102 168c0 56 -19 105 -78 105c-76 0 -103 -100 -103 -168c0 -56 20 -105 79 -105zM721 419c-45 0 -88 -24 -108 -87h191c1 3 1 8 1 13c0 51 -39 74 -84 74z" />
    <glyph glyph-name="obreve" unicode="&#x14f;" horiz-adv-x="640" 
d="M353 558c142 0 263 -67 263 -230c0 -172 -110 -341 -330 -341c-142 0 -263 67 -263 230c0 172 110 341 330 341zM301 136c82 0 112 118 112 178c0 52 -20 95 -75 95c-82 0 -112 -118 -112 -178c0 -52 20 -95 75 -95zM461 725h111c-19 -72 -72 -132 -186 -132
c-101 0 -154 50 -154 114v9c0 3 0 6 1 9h104c0 -3 -1 -6 -1 -9c0 -27 21 -41 53 -41c41 0 61 15 72 50z" />
    <glyph glyph-name="ohungarumlaut" unicode="&#x151;" horiz-adv-x="640" 
d="M520 725l-165 -127h-166l124 127h207zM760 725l-165 -127h-166l124 127h207zM353 558c142 0 263 -67 263 -230c0 -172 -110 -341 -330 -341c-142 0 -263 67 -263 230c0 172 110 341 330 341zM301 136c82 0 112 118 112 178c0 52 -20 95 -75 95c-82 0 -112 -118 -112 -178
c0 -52 20 -95 75 -95z" />
    <glyph glyph-name="omacron" unicode="&#x14d;" horiz-adv-x="640" 
d="M353 558c142 0 263 -67 263 -230c0 -172 -110 -341 -330 -341c-142 0 -263 67 -263 230c0 172 110 341 330 341zM301 136c82 0 112 118 112 178c0 52 -20 95 -75 95c-82 0 -112 -118 -112 -178c0 -52 20 -95 75 -95zM243 628l19 90h313l-19 -90h-313z" />
    <glyph glyph-name="uni1ECD" unicode="&#x1ecd;" horiz-adv-x="640" 
d="M339 -56l-25 -119h-166l25 119h166zM353 558c142 0 263 -67 263 -230c0 -172 -110 -341 -330 -341c-142 0 -263 67 -263 230c0 172 110 341 330 341zM301 136c82 0 112 118 112 178c0 52 -20 95 -75 95c-82 0 -112 -118 -112 -178c0 -52 20 -95 75 -95z" />
    <glyph glyph-name="racute" unicode="&#x155;" horiz-adv-x="452" 
d="M488 541l-41 -193c-17 3 -38 4 -59 4c-47 0 -109 -14 -125 -96l-54 -256h-200l114 538h192l-19 -92c35 56 113 95 180 95h12zM535 725l-165 -127h-166l124 127h207z" />
    <glyph glyph-name="rcaron" unicode="&#x159;" horiz-adv-x="452" 
d="M488 541l-41 -193c-17 3 -38 4 -59 4c-47 0 -109 -14 -125 -96l-54 -256h-200l114 538h192l-19 -92c35 56 113 95 180 95h12zM234 598l-108 127h165l41 -57l62 57h180l-165 -127h-175z" />
    <glyph glyph-name="uni0157" unicode="&#x157;" horiz-adv-x="452" 
d="M490 541l-41 -193c-17 3 -38 4 -59 4c-47 0 -109 -14 -125 -96l-54 -256h-200l114 538h192l-19 -92c35 56 113 95 180 95h12zM9 -136l21 100h149l-23 -106l-74 -89h-97l59 95h-35z" />
    <glyph glyph-name="sacute" unicode="&#x15b;" horiz-adv-x="553" 
d="M545 725l-165 -127h-166l124 127h207zM540 479l-76 -136c-55 39 -122 65 -179 65c-29 0 -60 -4 -60 -19c0 -12 5 -19 50 -32l66 -19c101 -29 174 -69 174 -162c0 -125 -124 -189 -248 -189c-96 0 -197 21 -284 85l88 140c64 -56 149 -78 206 -78c40 0 62 9 62 24
s-14 23 -70 38l-54 15c-96 27 -163 74 -163 172c0 115 116 170 236 170c88 0 176 -23 252 -74z" />
    <glyph glyph-name="scaron" unicode="&#x161;" horiz-adv-x="553" 
d="M238 598l-108 127h165l41 -57l62 57h180l-165 -127h-175zM540 479l-76 -136c-55 39 -122 65 -179 65c-29 0 -60 -4 -60 -19c0 -12 5 -19 50 -32l66 -19c101 -29 174 -69 174 -162c0 -125 -124 -189 -248 -189c-96 0 -197 21 -284 85l88 140c64 -56 149 -78 206 -78
c40 0 62 9 62 24s-14 23 -70 38l-54 15c-96 27 -163 74 -163 172c0 115 116 170 236 170c88 0 176 -23 252 -74z" />
    <glyph glyph-name="scedilla" unicode="&#x15f;" horiz-adv-x="553" 
d="M540 479l-76 -136c-55 39 -122 65 -179 65c-29 0 -60 -4 -60 -19c0 -12 5 -19 50 -32l66 -19c101 -29 174 -69 174 -162c0 -125 -124 -189 -248 -189c-96 0 -197 21 -284 85l88 140c64 -56 149 -78 206 -78c40 0 62 9 62 24s-14 23 -70 38l-54 15
c-96 27 -163 74 -163 172c0 115 116 170 236 170c88 0 176 -23 252 -74zM164 -84l70 85h62l-43 -52c10 3 21 4 33 4c53 0 85 -23 85 -60c0 -68 -75 -94 -149 -94c-34 0 -64 5 -91 14l16 52c13 -5 39 -11 64 -11c31 0 57 8 57 31c0 16 -16 25 -37 25c-12 0 -27 -2 -39 -9z
" />
    <glyph glyph-name="scircumflex" unicode="&#x15d;" horiz-adv-x="553" 
d="M429 725l108 -127h-165l-41 57l-62 -57h-180l165 127h175zM540 479l-76 -136c-55 39 -122 65 -179 65c-29 0 -60 -4 -60 -19c0 -12 5 -19 50 -32l66 -19c101 -29 174 -69 174 -162c0 -125 -124 -189 -248 -189c-96 0 -197 21 -284 85l88 140c64 -56 149 -78 206 -78
c40 0 62 9 62 24s-14 23 -70 38l-54 15c-96 27 -163 74 -163 172c0 115 116 170 236 170c88 0 176 -23 252 -74z" />
    <glyph glyph-name="uni0219" unicode="&#x219;" horiz-adv-x="553" 
d="M540 479l-76 -136c-55 39 -122 65 -179 65c-29 0 -60 -4 -60 -19c0 -12 5 -19 50 -32l66 -19c101 -29 174 -69 174 -162c0 -125 -124 -189 -248 -189c-96 0 -197 21 -284 85l88 140c64 -56 149 -78 206 -78c40 0 62 9 62 24s-14 23 -70 38l-54 15
c-96 27 -163 74 -163 172c0 115 116 170 236 170c88 0 176 -23 252 -74zM156 -136l21 100h149l-23 -106l-74 -89h-97l59 95h-35z" />
    <glyph glyph-name="tbar" unicode="&#x167;" horiz-adv-x="448" 
d="M152 538l32 148h200l-32 -148h106l-26 -126h-104c-7 -25 -10 -48 -14 -68h113l-29 -136h-114c-3 -11 -5 -20 -6 -27l-3 -15c-1 -7 -2 -9 -2 -10c0 -17 11 -21 32 -21h69l-29 -135h-108c-119 0 -173 10 -173 90c0 13 1 29 19 118h-79l28 136h80l15 68h-90l26 126h89z" />
    <glyph glyph-name="tcaron" unicode="&#x165;" horiz-adv-x="504" 
d="M638 725l-94 -150h-124l45 150h173zM152 538l32 148h200l-32 -148h106l-26 -126h-104c-53 -245 -55 -252 -55 -256c0 -17 11 -21 32 -21h69l-29 -135h-108c-119 0 -173 10 -173 90c0 20 3 43 63 322h-90l26 126h89z" />
    <glyph glyph-name="uni0163" unicode="&#x163;" horiz-adv-x="448" 
d="M152 538l32 148h200l-32 -148h106l-26 -126h-104c-53 -245 -55 -252 -55 -256c0 -17 11 -21 32 -21h69l-29 -135h-108c-119 0 -173 10 -173 90c0 20 3 43 63 322h-90l26 126h89zM42 -136l21 100h149l-23 -106l-74 -89h-97l59 95h-35z" />
    <glyph glyph-name="uni021B" unicode="&#x21b;" horiz-adv-x="448" 
d="M152 538l32 148h200l-32 -148h106l-26 -126h-104c-53 -245 -55 -252 -55 -256c0 -17 11 -21 32 -21h69l-29 -135h-108c-119 0 -173 10 -173 90c0 20 3 43 63 322h-90l26 126h89zM42 -136l21 100h149l-23 -106l-74 -89h-97l59 95h-35z" />
    <glyph glyph-name="ubreve" unicode="&#x16d;" horiz-adv-x="649" 
d="M328 0l13 60c-37 -47 -96 -73 -160 -73c-108 0 -150 58 -150 150c0 27 4 58 11 93l65 308h200l-62 -293c-4 -19 -6 -35 -6 -48c0 -39 16 -50 47 -50c45 0 79 29 94 98l62 293h200l-114 -538h-200zM464 725h111c-19 -72 -72 -132 -186 -132c-101 0 -154 50 -154 114v9
c0 3 0 6 1 9h104c0 -3 -1 -6 -1 -9c0 -27 21 -41 53 -41c41 0 61 15 72 50z" />
    <glyph glyph-name="uhungarumlaut" unicode="&#x171;" horiz-adv-x="649" 
d="M503 725l-165 -127h-166l124 127h207zM743 725l-165 -127h-166l124 127h207zM328 0l13 60c-37 -47 -96 -73 -160 -73c-108 0 -150 58 -150 150c0 27 4 58 11 93l65 308h200l-62 -293c-4 -19 -6 -35 -6 -48c0 -39 16 -50 47 -50c45 0 79 29 94 98l62 293h200l-114 -538
h-200z" />
    <glyph glyph-name="umacron" unicode="&#x16b;" horiz-adv-x="649" 
d="M328 0l13 60c-37 -47 -96 -73 -160 -73c-108 0 -150 58 -150 150c0 27 4 58 11 93l65 308h200l-62 -293c-4 -19 -6 -35 -6 -48c0 -39 16 -50 47 -50c45 0 79 29 94 98l62 293h200l-114 -538h-200zM233 628l19 90h313l-19 -90h-313z" />
    <glyph glyph-name="uogonek" unicode="&#x173;" horiz-adv-x="649" 
d="M328 0l13 60c-37 -47 -96 -73 -160 -73c-108 0 -150 58 -150 150c0 27 4 58 11 93l65 308h200l-62 -293c-4 -19 -6 -35 -6 -48c0 -39 16 -50 47 -50c45 0 79 29 94 98l62 293h200l-114 -538c-43 -13 -128 -41 -128 -78c0 -20 40 -27 62 -27c15 0 35 2 44 5l-17 -78
c-21 -5 -52 -10 -84 -10c-64 0 -165 18 -165 85c0 39 31 78 88 103z" />
    <glyph glyph-name="uring" unicode="&#x16f;" horiz-adv-x="649" 
d="M328 0l13 60c-37 -47 -96 -73 -160 -73c-108 0 -150 58 -150 150c0 27 4 58 11 93l65 308h200l-62 -293c-4 -19 -6 -35 -6 -48c0 -39 16 -50 47 -50c45 0 79 29 94 98l62 293h200l-114 -538h-200zM394 785c51 0 94 -37 94 -89c0 -51 -42 -89 -94 -89c-53 0 -95 37 -95 89
s43 89 95 89zM394 737c-23 0 -41 -17 -41 -41c0 -23 18 -40 41 -40s41 17 41 40c0 24 -18 41 -41 41z" />
    <glyph glyph-name="utilde" unicode="&#x169;" horiz-adv-x="649" 
d="M328 0l13 60c-37 -47 -96 -73 -160 -73c-108 0 -150 58 -150 150c0 27 4 58 11 93l65 308h200l-62 -293c-4 -19 -6 -35 -6 -48c0 -39 16 -50 47 -50c45 0 79 29 94 98l62 293h200l-114 -538h-200zM314 724c80 0 100 -44 144 -44c29 0 56 12 60 44h95
c-15 -89 -69 -126 -138 -126c-77 0 -106 44 -145 44c-29 0 -52 -13 -59 -44h-95c11 85 76 126 138 126z" />
    <glyph glyph-name="uni1EE5" unicode="&#x1ee5;" horiz-adv-x="649" 
d="M328 0l13 60c-37 -47 -96 -73 -160 -73c-108 0 -150 58 -150 150c0 27 4 58 11 93l65 308h200l-62 -293c-4 -19 -6 -35 -6 -48c0 -39 16 -50 47 -50c45 0 79 29 94 98l62 293h200l-114 -538h-200zM348 -56l-25 -119h-166l25 119h166z" />
    <glyph glyph-name="wacute" unicode="&#x1e83;" horiz-adv-x="894" 
d="M260 199l128 339h200l-4 -339l134 339h210l-258 -538h-231l4 312l-123 -312h-223l-48 538h207zM746 725l-165 -127h-166l124 127h207z" />
    <glyph glyph-name="wcircumflex" unicode="&#x175;" horiz-adv-x="894" 
d="M260 199l128 339h200l-4 -339l134 339h210l-258 -538h-231l4 312l-123 -312h-223l-48 538h207zM609 725l108 -127h-165l-41 57l-62 -57h-180l165 127h175z" />
    <glyph glyph-name="wdieresis" unicode="&#x1e85;" horiz-adv-x="894" 
d="M260 199l128 339h200l-4 -339l134 339h210l-258 -538h-231l4 312l-123 -312h-223l-48 538h207zM315 725h171l-27 -127h-170zM567 725h170l-27 -127h-170z" />
    <glyph glyph-name="wgrave" unicode="&#x1e81;" horiz-adv-x="894" 
d="M260 199l128 339h200l-4 -339l134 339h210l-258 -538h-231l4 312l-123 -312h-223l-48 538h207zM421 598l-118 127h208l65 -127h-155z" />
    <glyph glyph-name="ycircumflex" unicode="&#x177;" horiz-adv-x="587" 
d="M265 160l156 378h203l-285 -541c-77 -149 -107 -172 -274 -172h-100l28 133h39c55 0 80 0 95 27l7 12l-98 541h192zM445 725l108 -127h-165l-41 57l-62 -57h-180l165 127h175z" />
    <glyph glyph-name="ygrave" unicode="&#x1ef3;" horiz-adv-x="587" 
d="M265 160l156 378h203l-285 -541c-77 -149 -107 -172 -274 -172h-100l28 133h39c55 0 80 0 95 27l7 12l-98 541h192zM270 598l-118 127h208l65 -127h-155z" />
    <glyph glyph-name="uni0233" unicode="&#x233;" horiz-adv-x="596" 
d="M265 160l156 378h203l-285 -541c-77 -149 -107 -172 -274 -172h-100l28 133h39c55 0 80 0 95 27l7 12l-98 541h192zM198 628l19 90h313l-19 -90h-313z" />
    <glyph glyph-name="zacute" unicode="&#x17a;" horiz-adv-x="604" 
d="M-21 0l29 136l326 266h-251l29 136h502l-29 -136l-327 -266h283l-29 -136h-533zM613 725l-165 -127h-166l124 127h207z" />
    <glyph glyph-name="zcaron" unicode="&#x17e;" horiz-adv-x="604" 
d="M-21 0l29 136l326 266h-251l29 136h502l-29 -136l-327 -266h283l-29 -136h-533zM294 598l-108 127h165l41 -57l62 57h180l-165 -127h-175z" />
    <glyph glyph-name="zdotaccent" unicode="&#x17c;" horiz-adv-x="604" 
d="M-21 0l29 136l326 266h-251l29 136h502l-29 -136l-327 -266h283l-29 -136h-533zM327 725h166l-25 -116h-166z" />
    <glyph glyph-name="uni0259" unicode="&#x259;" horiz-adv-x="636" 
d="M236 362h-190c37 101 138 194 305 194c134 0 262 -70 262 -229s-116 -340 -337 -340c-204 0 -295 144 -234 335h374c1 3 1 6 1 8v9c0 39 -34 69 -85 69c-49 0 -81 -15 -96 -46zM279 124c45 0 90 23 113 87h-192c-8 -57 26 -87 79 -87z" />
    <glyph glyph-name="uni0410" unicode="&#x410;" horiz-adv-x="739" 
d="M-51 0l413 725h229l112 -725h-222l-14 121h-228l-64 -121h-226zM428 478l-107 -201h129z" />
    <glyph glyph-name="uni0411" unicode="&#x411;" horiz-adv-x="739" 
d="M377 0h-364l152 725h564l-38 -179h-355l-18 -88h100c183 0 288 -43 288 -195c0 -155 -105 -263 -329 -263zM288 311l-30 -141h132c65 0 101 35 101 83c0 43 -32 58 -83 58h-120z" />
    <glyph glyph-name="uni0412" unicode="&#x412;" horiz-adv-x="723" 
d="M11 0l154 725h313c146 0 252 -36 252 -156c0 -71 -28 -130 -93 -177c35 -24 56 -66 56 -122c0 -193 -168 -270 -352 -270h-330zM282 294l-26 -125h126c40 0 88 23 88 74c0 29 -20 51 -61 51h-127zM338 556l-25 -117h114c36 0 76 25 76 69c0 27 -16 48 -51 48h-114z" />
    <glyph glyph-name="uni0413" unicode="&#x413;" horiz-adv-x="580" 
d="M222 0h-209l152 725h511l-38 -180h-302z" />
    <glyph glyph-name="uni0414" unicode="&#x414;" horiz-adv-x="876" 
d="M140 -142h-190l68 322h25c72 0 125 68 169 239l79 306h554l-115 -545h105l-68 -322h-190l30 142h-437zM284 180h237l78 365h-162l-43 -160c-31 -112 -70 -172 -110 -205z" />
    <glyph glyph-name="uni0415" unicode="&#x415;" horiz-adv-x="686" 
d="M11 0l154 725h562l-38 -179h-353l-19 -92h334l-39 -180h-334l-20 -94h357l-38 -180h-566z" />
    <glyph glyph-name="uni0401" unicode="&#x401;" horiz-adv-x="686" 
d="M11 0l154 725h562l-38 -179h-353l-19 -92h334l-39 -180h-334l-20 -94h357l-38 -180h-566zM273 886h169l-25 -113h-168zM502 886h169l-25 -113h-169z" />
    <glyph glyph-name="uni0416" unicode="&#x416;" horiz-adv-x="1158" 
d="M202 0h-251l301 383l-156 342h231l159 -349h1l72 349h209l-72 -349h1l273 349h252l-294 -370l154 -355h-230l-159 362h-1l-76 -362h-209l76 362h-1z" />
    <glyph glyph-name="uni0417" unicode="&#x417;" horiz-adv-x="662" 
d="M284 -13c-208 0 -294 121 -281 263h203c3 -67 34 -92 99 -92c69 0 102 30 110 74c7 43 -32 67 -105 67h-47l22 141h51c64 0 107 24 115 73c5 36 -29 59 -80 59c-48 0 -110 -23 -126 -82h-200c32 136 163 247 360 247c159 0 244 -84 244 -196c0 -68 -33 -115 -106 -154
c61 -35 95 -84 83 -164c-27 -169 -172 -236 -342 -236z" />
    <glyph glyph-name="uni0418" unicode="&#x418;" horiz-adv-x="842" 
d="M230 0h-217l152 725h209l-94 -436l371 436h218l-152 -725h-208l89 427z" />
    <glyph glyph-name="uni0419" unicode="&#x419;" horiz-adv-x="811" 
d="M508 755c-161 0 -220 52 -220 122v9h128c0 -33 30 -53 94 -53c59 0 102 18 102 53h138c-13 -88 -83 -131 -242 -131zM230 0h-217l152 725h209l-94 -436l371 436h218l-152 -725h-208l89 427z" />
    <glyph glyph-name="uni041A" unicode="&#x41a;" horiz-adv-x="756" 
d="M221 0h-208l152 725h208l-72 -349h1l266 349h252l-292 -368l152 -357h-230l-152 362h-1z" />
    <glyph glyph-name="uni041B" unicode="&#x41b;" horiz-adv-x="788" 
d="M41 0h-61l38 180h22c50 0 103 48 151 239l79 306h545l-152 -725h-209l114 545h-144l-45 -169c-68 -248 -171 -376 -338 -376z" />
    <glyph glyph-name="uni041C" unicode="&#x41c;" horiz-adv-x="988" 
d="M531 0h-178l-50 489l-104 -489h-188l154 725h282l46 -465l213 465h311l-154 -725h-188l105 492z" />
    <glyph glyph-name="uni041D" unicode="&#x41d;" horiz-adv-x="803" 
d="M623 725h209l-154 -725h-209l58 274h-249l-58 -274h-209l154 725h209l-57 -271h249z" />
    <glyph glyph-name="uni041E" unicode="&#x41e;" horiz-adv-x="805" 
d="M260 334c-3 -113 52 -172 140 -172c117 0 179 112 187 233c3 113 -52 172 -140 172c-117 0 -179 -112 -187 -233zM805 401c-16 -238 -172 -414 -424 -414c-192 0 -352 114 -339 341c16 238 172 414 424 414c194 0 350 -115 339 -341z" />
    <glyph glyph-name="uni041F" unicode="&#x41f;" horiz-adv-x="789" 
d="M222 0h-209l152 725h651l-152 -725h-209l114 545h-233z" />
    <glyph glyph-name="uni0420" unicode="&#x420;" horiz-adv-x="701" 
d="M165 725h269c175 0 298 -43 298 -192c0 -224 -175 -297 -392 -297h-70l-50 -236h-209zM338 556l-32 -151h90c55 0 113 19 113 87c0 41 -29 64 -81 64h-90z" />
    <glyph glyph-name="uni0421" unicode="&#x421;" horiz-adv-x="766" 
d="M546 278h210c-50 -199 -218 -291 -387 -291c-189 0 -327 103 -327 322c0 208 136 433 409 433c170 0 324 -95 332 -290h-208c-8 67 -39 114 -134 114c-125 0 -180 -144 -180 -248c0 -97 45 -156 137 -156c67 0 121 41 148 116z" />
    <glyph glyph-name="uni0422" unicode="&#x422;" horiz-adv-x="657" 
d="M172 0l116 546h-215l38 179h642l-38 -179h-218l-116 -546h-209z" />
    <glyph glyph-name="uni0423" unicode="&#x423;" horiz-adv-x="704" 
d="M172 -13h-119l38 180h174l-184 558h218l97 -336l188 336h231l-366 -575c-88 -141 -137 -163 -277 -163z" />
    <glyph glyph-name="uni0424" unicode="&#x424;" horiz-adv-x="931" 
d="M507 -37h-209l18 89c-164 21 -273 125 -273 278c0 177 155 333 407 352l16 83h209l-16 -83c165 -21 273 -123 273 -272c0 -180 -149 -339 -407 -358zM350 212l66 310c-93 -13 -167 -92 -167 -193c0 -64 40 -106 101 -117zM625 522l-66 -310c93 16 168 92 168 193
c0 64 -35 106 -102 117z" />
    <glyph glyph-name="uni0425" unicode="&#x425;" horiz-adv-x="778" 
d="M-58 0l343 377l-163 348h229l85 -182l165 182h255l-334 -366l168 -359h-228l-91 193l-176 -193h-253z" />
    <glyph glyph-name="uni0426" unicode="&#x426;" horiz-adv-x="833" 
d="M724 -142h-190l30 142h-551l152 725h209l-114 -545h219l114 545h208l-114 -545h105z" />
    <glyph glyph-name="uni0427" unicode="&#x427;" horiz-adv-x="758" 
d="M633 0h-209l52 244c-39 -10 -112 -21 -167 -21c-145 0 -220 73 -220 210c0 24 3 51 10 78l45 214h209l-40 -194c-5 -21 -7 -41 -7 -59c0 -51 36 -64 109 -64c31 0 74 3 97 10l64 307h209z" />
    <glyph glyph-name="uni0428" unicode="&#x428;" horiz-adv-x="1043" 
d="M918 0h-905l152 725h209l-114 -545h139l114 545h209l-114 -545h139l114 545h209z" />
    <glyph glyph-name="uni0429" unicode="&#x429;" horiz-adv-x="1102" 
d="M993 -142h-190l30 142h-820l152 725h209l-114 -545h139l114 545h209l-114 -545h139l114 545h209l-114 -545h105z" />
    <glyph glyph-name="uni042A" unicode="&#x42a;" horiz-adv-x="846" 
d="M448 0h-288l115 553h-201l37 172h410l-48 -227h46c196 0 302 -57 302 -220c0 -192 -117 -278 -373 -278zM437 328l-32 -158h82c85 0 117 27 117 95c0 51 -39 63 -95 63h-72z" />
    <glyph glyph-name="uni042B" unicode="&#x42b;" horiz-adv-x="1035" 
d="M294 0h-281l152 725h209l-48 -227h39c196 0 304 -57 304 -220c0 -192 -118 -278 -375 -278zM290 328l-32 -158h75c87 0 119 27 119 95c0 51 -41 63 -97 63h-65zM910 0h-209l152 725h209z" />
    <glyph glyph-name="uni042C" unicode="&#x42c;" horiz-adv-x="707" 
d="M309 0h-296l152 725h209l-48 -227h54c196 0 302 -57 302 -220c0 -192 -117 -278 -373 -278zM290 328l-32 -158h90c85 0 117 27 117 95c0 51 -39 63 -95 63h-80z" />
    <glyph glyph-name="uni042D" unicode="&#x42d;" horiz-adv-x="780" 
d="M353 -13c-180 0 -328 100 -328 272v19h205c0 -69 46 -116 134 -116c73 0 140 40 161 128h-226l32 150h226c0 84 -48 127 -127 127s-136 -42 -159 -115h-206c40 180 194 290 381 290c207 0 333 -120 333 -315c0 -257 -162 -440 -426 -440z" />
    <glyph glyph-name="uni042E" unicode="&#x42e;" horiz-adv-x="1106" 
d="M696 -13c-179 0 -298 98 -309 293h-108l-58 -280h-208l152 725h208l-56 -265h95c56 168 167 282 369 282c194 0 335 -115 324 -341c-16 -238 -157 -414 -409 -414zM715 162c114 0 164 112 172 233c3 113 -41 172 -125 172c-114 0 -149 -112 -157 -233
c-3 -113 26 -172 110 -172z" />
    <glyph glyph-name="uni042F" unicode="&#x42f;" horiz-adv-x="754" 
d="M211 0h-241l228 284c-53 32 -107 91 -107 173c0 165 109 268 320 268h370l-152 -725h-209l48 225h-70zM395 383h105l36 173h-107c-85 0 -118 -50 -118 -97c0 -40 27 -76 84 -76z" />
    <glyph glyph-name="uni0402" unicode="&#x402;" horiz-adv-x="836" 
d="M533 -10c-35 0 -83 5 -115 16l52 163c19 -3 45 -6 66 -6c56 0 80 37 80 80c0 33 -22 49 -73 49c-43 0 -81 -7 -125 -22l-56 -270h-210l114 545h-193l38 180h637l-38 -180h-234l-24 -120c51 15 97 24 152 24c142 0 205 -77 205 -181c0 -164 -88 -278 -276 -278z" />
    <glyph glyph-name="uni0403" unicode="&#x403;" horiz-adv-x="580" 
d="M697 886l-178 -113h-182l127 113h233zM222 0h-209l152 725h511l-38 -180h-302z" />
    <glyph glyph-name="uni0404" unicode="&#x404;" horiz-adv-x="776" 
d="M378 -13c-223 0 -339 104 -339 305c0 236 169 450 434 450c176 0 319 -100 319 -290h-206c0 71 -52 115 -131 115c-69 0 -147 -42 -163 -127h226l-32 -150h-226c0 -89 56 -128 129 -128c77 0 143 37 162 116h205c-48 -195 -202 -291 -378 -291z" />
    <glyph glyph-name="uni0405" unicode="&#x405;" horiz-adv-x="707" 
d="M722 640l-108 -161c-88 60 -175 82 -238 82c-53 0 -88 -13 -88 -37c0 -23 25 -42 62 -53l104 -30c120 -35 222 -90 222 -210c0 -162 -147 -244 -314 -244c-161 0 -280 52 -363 117l115 158c79 -67 163 -96 259 -96c49 0 88 14 88 43c0 31 -40 47 -104 64l-78 23
c-101 29 -197 94 -197 211c0 136 113 235 303 235c159 0 281 -62 337 -102z" />
    <glyph glyph-name="uni0406" unicode="&#x406;" horiz-adv-x="345" 
d="M374 725l-154 -725h-209l154 725h209z" />
    <glyph glyph-name="uni0407" unicode="&#x407;" horiz-adv-x="345" 
d="M374 725l-154 -725h-209l154 725h209zM103 886h169l-25 -113h-168zM332 886h169l-25 -113h-169z" />
    <glyph glyph-name="uni0408" unicode="&#x408;" horiz-adv-x="649" 
d="M678 725l-96 -453c-45 -205 -133 -285 -334 -285c-160 0 -258 72 -258 212c0 24 3 50 9 78h207c-5 -25 -7 -46 -7 -65c0 -56 22 -77 65 -77c55 0 86 33 109 137l96 453h209z" />
    <glyph glyph-name="uni0409" unicode="&#x409;" horiz-adv-x="1135" 
d="M41 0h-61l38 180h22c50 0 103 48 151 239l79 306h545l-48 -227h39c196 0 304 -57 304 -220c0 -192 -118 -278 -375 -278h-281l114 545h-144l-45 -169c-68 -248 -171 -376 -338 -376zM709 220l-10 -50h75c87 0 119 27 119 95c0 51 -41 63 -97 63h-64z" />
    <glyph glyph-name="uni040A" unicode="&#x40a;" horiz-adv-x="1150" 
d="M222 0h-209l152 725h209l-56 -271h249l56 271h208l-50 -241h26c188 0 316 -50 316 -218c0 -185 -121 -266 -365 -266h-287l58 274h-249zM745 314l-30 -144h77c80 0 116 35 116 82c0 43 -36 62 -101 62h-62z" />
    <glyph glyph-name="uni040B" unicode="&#x40b;" horiz-adv-x="838" 
d="M361 0h-209l114 545h-193l38 180h637l-38 -180h-235l-26 -125c60 21 116 29 159 29c151 0 203 -61 203 -190c0 -24 -5 -61 -12 -88l-37 -171h-209l30 147c5 23 8 42 8 57c0 39 -17 63 -72 63c-49 0 -75 -7 -106 -15z" />
    <glyph glyph-name="uni040C" unicode="&#x40c;" horiz-adv-x="756" 
d="M716 886l-178 -113h-182l127 113h233zM221 0h-208l152 725h208l-72 -349h1l266 349h252l-292 -368l152 -357h-230l-152 362h-1z" />
    <glyph glyph-name="uni040E" unicode="&#x40e;" horiz-adv-x="704" 
d="M172 -13h-119l38 180h174l-184 558h218l97 -336l188 336h231l-366 -575c-88 -141 -137 -163 -277 -163zM439 755c-161 0 -220 52 -220 122v9h128c0 -33 30 -53 94 -53c59 0 102 18 102 53h138c-13 -88 -83 -131 -242 -131z" />
    <glyph glyph-name="uni040F" unicode="&#x40f;" horiz-adv-x="774" 
d="M396 -142h-190l30 142h-223l152 725h209l-114 -545h218l114 545h209l-152 -725h-223z" />
    <glyph glyph-name="uni0490" unicode="&#x490;" horiz-adv-x="580" 
d="M222 0h-209l152 725h321l30 142h190l-68 -322h-302z" />
    <glyph glyph-name="uni0462" unicode="&#x462;" horiz-adv-x="745" 
d="M367 0h-276l106 500h-132l32 158h132l14 67h209l-14 -67h178l-32 -158h-178l-16 -68h37c169 0 289 -32 289 -178c0 -183 -113 -254 -349 -254zM358 272l-22 -102h69c75 0 97 18 97 61c0 36 -28 41 -75 41h-69z" />
    <glyph glyph-name="uni0472" unicode="&#x472;" horiz-adv-x="823" 
d="M375 -13c-190 0 -335 111 -335 311c0 251 194 444 438 444c189 0 347 -112 347 -311c0 -251 -184 -444 -450 -444zM404 162c81 0 162 45 180 153h-323c-1 -3 -1 -7 -1 -11v-10c0 -93 72 -132 144 -132zM288 429h317v9c0 90 -69 129 -141 129c-77 0 -155 -42 -176 -138z
" />
    <glyph glyph-name="uni0474" unicode="&#x474;" horiz-adv-x="733" 
d="M403 0h-233l-84 725h222l31 -478l131 269c67 137 127 209 284 209h69l-38 -180h-22c-61 0 -74 -20 -108 -83z" />
    <glyph glyph-name="uni0492" unicode="&#x492;" horiz-adv-x="620" 
d="M262 0h-209l54 255h-83l36 170h83l62 300h511l-38 -180h-302l-24 -120h155l-36 -170h-155z" />
    <glyph glyph-name="uni0496" unicode="&#x496;" horiz-adv-x="1177" 
d="M1075 -142h-190l30 142h-64l-159 362h-1l-76 -362h-209l76 362h-1l-280 -362h-251l301 383l-156 342h231l159 -349h1l72 349h209l-72 -349h1l273 349h252l-294 -370l76 -175h140z" />
    <glyph glyph-name="uni049A" unicode="&#x49a;" horiz-adv-x="777" 
d="M675 -142h-190l30 142h-65l-152 362h-1l-76 -362h-208l152 725h208l-72 -349h1l266 349h252l-292 -368l75 -177h140z" />
    <glyph glyph-name="uni04A2" unicode="&#x4a2;" horiz-adv-x="864" 
d="M755 -142h-190l30 142h-124l58 274h-249l-58 -274h-209l152 725h209l-56 -271h249l56 271h209l-114 -545h105z" />
    <glyph glyph-name="uni04AE" unicode="&#x4ae;" horiz-adv-x="733" 
d="M81 725h231l93 -253l191 253h248l-377 -448l-59 -277h-209l60 282z" />
    <glyph glyph-name="uni04B0" unicode="&#x4b0;" horiz-adv-x="733" 
d="M408 0h-209l24 113h-157l36 175h155l-176 437h231l93 -253l191 253h248l-368 -437h161l-36 -175h-169z" />
    <glyph glyph-name="uni04B2" unicode="&#x4b2;" horiz-adv-x="780" 
d="M678 -142h-190l30 142h-56l-91 193l-176 -193h-253l343 377l-163 348h229l85 -182l165 182h255l-334 -366l84 -179h140z" />
    <glyph glyph-name="uni04B6" unicode="&#x4b6;" horiz-adv-x="817" 
d="M708 -142h-190l30 142h-124l52 244c-39 -10 -112 -21 -167 -21c-145 0 -220 73 -220 210c0 24 3 51 10 78l45 214h209l-40 -194c-5 -21 -7 -41 -7 -59c0 -51 36 -64 109 -64c31 0 74 3 97 10l64 307h209l-114 -545h105z" />
    <glyph glyph-name="uni04BA" unicode="&#x4ba;" horiz-adv-x="726" 
d="M222 0h-209l152 725h209l-52 -244c39 10 107 21 164 21c145 0 220 -73 220 -210c0 -24 -3 -51 -10 -78l-45 -214h-209l40 194c5 21 7 41 7 59c0 51 -36 66 -109 66c-31 0 -71 -5 -94 -12z" />
    <glyph glyph-name="uni04C0" unicode="&#x4c0;" horiz-adv-x="345" 
d="M374 725l-154 -725h-209l154 725h209z" />
    <glyph glyph-name="uni04D8" unicode="&#x4d8;" horiz-adv-x="804" 
d="M371 -13c-192 0 -336 102 -336 301c0 36 8 90 23 134h526v14c0 93 -67 131 -131 131c-40 0 -107 -11 -131 -67h-227c46 158 203 242 374 242c188 0 337 -104 337 -308c0 -233 -161 -447 -435 -447zM387 162c73 0 160 38 176 146h-313v-23c0 -91 62 -123 137 -123z" />
    <glyph glyph-name="uni04E2" unicode="&#x4e2;" horiz-adv-x="803" 
d="M230 0h-217l152 725h209l-94 -436l371 436h218l-152 -725h-208l89 427zM681 782h-356l20 95h357z" />
    <glyph glyph-name="uni04E8" unicode="&#x4e8;" horiz-adv-x="823" 
d="M375 -13c-190 0 -335 111 -335 311c0 251 194 444 438 444c189 0 347 -112 347 -311c0 -251 -184 -444 -450 -444zM404 162c81 0 162 45 180 153h-323c-1 -3 -1 -7 -1 -11v-10c0 -93 72 -132 144 -132zM288 429h317v9c0 90 -69 129 -141 129c-77 0 -155 -42 -176 -138z
" />
    <glyph glyph-name="uni04EE" unicode="&#x4ee;" horiz-adv-x="704" 
d="M172 -13h-119l38 180h174l-184 558h218l97 -336l188 336h231l-366 -575c-88 -141 -137 -163 -277 -163zM640 782h-356l20 95h357z" />
    <glyph glyph-name="uni0430" unicode="&#x430;" horiz-adv-x="635" 
d="M408 347l3 15c1 3 1 5 1 7v7c0 41 -38 55 -79 55c-51 0 -87 -22 -99 -73h-172c16 101 109 199 289 199c137 0 248 -47 248 -187c0 -22 -3 -46 -9 -72l-17 -82c-13 -64 -33 -157 -36 -216h-184l15 70c-45 -60 -107 -83 -183 -83c-106 0 -171 66 -171 150
c0 121 121 183 394 210zM385 225l4 20c-126 -13 -166 -35 -166 -78c0 -27 16 -46 51 -46c52 0 92 21 111 104z" />
    <glyph glyph-name="uni0431" unicode="&#x431;" horiz-adv-x="634" 
d="M280 -13c-143 0 -240 86 -240 246c0 29 3 53 12 94l11 43c48 203 131 336 379 357l204 18l-34 -167l-221 -22c-79 -8 -147 -21 -177 -137c45 62 127 81 177 81c124 0 219 -71 219 -208c0 -189 -151 -305 -330 -305zM290 136c72 0 114 66 114 149c0 64 -31 81 -68 81
c-68 0 -108 -74 -108 -143c0 -64 27 -87 62 -87z" />
    <glyph glyph-name="uni0432" unicode="&#x432;" horiz-adv-x="654" 
d="M348 0h-339l114 538h299c132 0 200 -33 200 -121c0 -52 -19 -97 -101 -129c43 -8 78 -45 78 -97c0 -108 -60 -191 -251 -191zM247 228l-24 -110h94c64 0 87 26 87 65c0 28 -12 45 -52 45h-105zM287 421l-20 -99h95c47 0 66 32 66 60c0 25 -14 39 -54 39h-87z" />
    <glyph glyph-name="uni0433" unicode="&#x433;" horiz-adv-x="519" 
d="M209 0h-200l114 538h435l-32 -146h-235z" />
    <glyph glyph-name="uni0434" unicode="&#x434;" horiz-adv-x="734" 
d="M118 -120h-180l56 266h33c54 0 91 49 133 197l51 195h471l-84 -392h92l-56 -266h-180l26 120h-336zM225 146h173l52 246h-101l-19 -70c-29 -97 -56 -147 -105 -176z" />
    <glyph glyph-name="uni0435" unicode="&#x435;" horiz-adv-x="638" 
d="M400 181h190c-37 -101 -138 -194 -305 -194c-134 0 -262 70 -262 229s116 340 337 340c204 0 295 -144 234 -335h-375c-1 -8 0 -10 0 -17c0 -39 34 -69 85 -69c49 0 81 15 96 46zM357 419c-47 0 -92 -24 -113 -87h192c8 57 -26 87 -79 87z" />
    <glyph glyph-name="uni0451" unicode="&#x451;" horiz-adv-x="638" 
d="M207 725h171l-27 -127h-170zM459 725h170l-27 -127h-170zM400 181h190c-37 -101 -138 -194 -305 -194c-134 0 -262 70 -262 229s116 340 337 340c204 0 295 -144 234 -335h-375c-1 -8 0 -10 0 -17c0 -39 34 -69 85 -69c49 0 81 15 96 46zM357 419c-47 0 -92 -24 -113 -87
h192c8 57 -26 87 -79 87z" />
    <glyph glyph-name="uni0436" unicode="&#x436;" horiz-adv-x="1002" 
d="M178 0h-228l243 289l-130 249h214l118 -254h1l54 254h200l-54 -254h1l209 254h226l-236 -262l132 -276h-215l-118 280h-1l-58 -280h-200l58 280h-1z" />
    <glyph glyph-name="uni0437" unicode="&#x437;" horiz-adv-x="592" 
d="M269 -13c-136 0 -256 52 -256 203h168c8 -56 39 -76 100 -76c59 0 86 34 86 69c0 25 -10 40 -63 40h-66l20 105h65c68 0 74 26 74 51c0 27 -22 47 -70 47c-46 0 -99 -19 -107 -68h-168c27 141 168 197 290 197c140 0 223 -55 223 -146c0 -56 -24 -89 -88 -118
c43 -16 72 -52 72 -100c0 -120 -95 -204 -280 -204z" />
    <glyph glyph-name="uni0438" unicode="&#x438;" horiz-adv-x="688" 
d="M194 0h-185l114 538h185l-60 -283l244 283h186l-114 -538h-185l58 278z" />
    <glyph glyph-name="uni0439" unicode="&#x439;" horiz-adv-x="688" 
d="M410 593c-101 0 -154 50 -154 114v9c0 3 0 6 1 9h104c0 -3 -1 -6 -1 -9c0 -27 21 -41 53 -41c41 0 61 15 72 50h111c-19 -72 -72 -132 -186 -132zM194 0h-185l114 538h185l-60 -283l244 283h186l-114 -538h-185l58 278z" />
    <glyph glyph-name="uni043A" unicode="&#x43a;" horiz-adv-x="676" 
d="M208 0h-199l114 538h199l-54 -254h1l208 254h225l-230 -267l130 -271h-214l-121 280h-1z" />
    <glyph glyph-name="uni043B" unicode="&#x43b;" horiz-adv-x="681" 
d="M21 0h-50l30 146h22c41 0 82 61 122 222l45 170h481l-114 -538h-200l82 392h-99l-38 -133c-48 -171 -140 -259 -281 -259z" />
    <glyph glyph-name="uni043C" unicode="&#x43c;" horiz-adv-x="872" 
d="M194 0h-185l114 538h249l50 -331l178 331h262l-114 -538h-185l76 358l-198 -358h-127l-46 355z" />
    <glyph glyph-name="uni043D" unicode="&#x43d;" horiz-adv-x="690" 
d="M209 0h-200l114 538h200l-40 -190h157l40 190h200l-114 -538h-200l42 202h-157z" />
    <glyph glyph-name="uni043E" unicode="&#x43e;" horiz-adv-x="640" 
d="M353 558c142 0 263 -67 263 -230c0 -172 -110 -341 -330 -341c-142 0 -263 67 -263 230c0 172 110 341 330 341zM301 136c82 0 112 118 112 178c0 52 -20 95 -75 95c-82 0 -112 -118 -112 -178c0 -52 20 -95 75 -95z" />
    <glyph glyph-name="uni043F" unicode="&#x43f;" horiz-adv-x="670" 
d="M209 0h-200l114 538h548l-114 -538h-201l82 392h-147z" />
    <glyph glyph-name="uni0440" unicode="&#x440;" horiz-adv-x="672" 
d="M251 241c0 -60 29 -105 77 -105c80 0 111 106 111 164c0 57 -20 101 -71 101c-77 0 -117 -100 -117 -160zM325 538l-13 -62c32 41 97 74 169 74c93 0 170 -75 170 -227c0 -151 -90 -336 -277 -336c-72 0 -128 43 -147 86l-53 -248h-200l151 713h200z" />
    <glyph glyph-name="uni0441" unicode="&#x441;" horiz-adv-x="617" 
d="M604 330h-186c3 37 -18 78 -73 78c-88 0 -119 -115 -119 -185c0 -48 20 -87 76 -87c47 0 79 22 98 75h185c-51 -149 -166 -224 -311 -224c-133 0 -251 68 -251 223c0 180 125 347 330 347c160 0 254 -103 251 -227z" />
    <glyph glyph-name="uni0442" unicode="&#x442;" horiz-adv-x="587" 
d="M334 0h-200l82 392h-176l32 146h554l-32 -146h-178z" />
    <glyph glyph-name="uni0443" unicode="&#x443;" horiz-adv-x="587" 
d="M65 -175h-100l28 133h39c55 0 80 0 95 27l7 12l-98 541h192l37 -378l156 378h203l-285 -541c-77 -149 -107 -172 -274 -172z" />
    <glyph glyph-name="uni0444" unicode="&#x444;" horiz-adv-x="840" 
d="M423 -175h-196l34 166c-123 0 -238 78 -238 226c0 215 163 321 354 321l38 187h196l-38 -187c132 0 237 -81 237 -236c0 -224 -167 -311 -353 -311zM296 135l54 259c-75 0 -147 -47 -147 -171c0 -69 49 -88 93 -88zM536 394l-54 -259c80 0 146 39 146 163
c0 70 -50 96 -92 96z" />
    <glyph glyph-name="uni0445" unicode="&#x445;" horiz-adv-x="665" 
d="M705 538l-266 -273l143 -265h-214l-68 123l-120 -123h-231l269 276l-142 262h216l64 -120l118 120h231z" />
    <glyph glyph-name="uni0446" unicode="&#x446;" horiz-adv-x="722" 
d="M622 -120h-180l26 120h-459l114 538h200l-84 -392h147l84 392h200l-84 -392h92z" />
    <glyph glyph-name="uni0447" unicode="&#x447;" horiz-adv-x="633" 
d="M509 0h-200l38 177c-35 -9 -79 -14 -120 -14c-101 0 -174 43 -174 151c0 18 2 37 6 56l35 168h200l-36 -168c-3 -15 -5 -26 -5 -33c0 -25 20 -38 59 -38c19 0 44 2 61 6l50 233h200z" />
    <glyph glyph-name="uni0448" unicode="&#x448;" horiz-adv-x="949" 
d="M825 0h-816l114 538h201l-84 -392h108l84 392h200l-84 -392h108l84 392h199z" />
    <glyph glyph-name="uni0449" unicode="&#x449;" horiz-adv-x="991" 
d="M891 -120h-180l26 120h-728l114 538h200l-84 -392h108l84 392h200l-84 -392h108l84 392h200l-84 -392h92z" />
    <glyph glyph-name="uni044A" unicode="&#x44a;" horiz-adv-x="670" 
d="M356 381h56c153 0 222 -47 222 -148c0 -137 -94 -233 -266 -233h-283l83 392h-125l29 146h317zM303 135h75c65 0 78 38 78 71c0 28 -16 41 -63 41h-66z" />
    <glyph glyph-name="uni044B" unicode="&#x44b;" horiz-adv-x="880" 
d="M289 0h-278l112 538h202l-34 -157h27c153 0 222 -47 222 -148c0 -137 -79 -233 -251 -233zM263 247l-24 -112h45c65 0 78 38 78 71c0 28 -16 41 -63 41h-36zM756 0h-200l114 538h200z" />
    <glyph glyph-name="uni044C" unicode="&#x44c;" horiz-adv-x="611" 
d="M323 0h-312l112 538h202l-34 -157h61c153 0 222 -47 222 -148c0 -137 -79 -233 -251 -233zM263 247l-24 -112h79c65 0 78 38 78 71c0 28 -16 41 -63 41h-70z" />
    <glyph glyph-name="uni044D" unicode="&#x44d;" horiz-adv-x="630" 
d="M282 -14c-176 0 -261 104 -261 220h184c0 -36 16 -71 79 -71c52 0 88 36 95 87h-140l22 100h141c0 49 -21 88 -81 88c-53 0 -84 -34 -93 -73h-184c24 117 142 222 291 222c172 0 268 -91 268 -248c0 -155 -98 -325 -321 -325z" />
    <glyph glyph-name="uni044E" unicode="&#x44e;" horiz-adv-x="923" 
d="M578 -13c-139 0 -248 64 -253 219h-72l-44 -206h-200l114 538h200l-40 -186h66c43 116 135 206 296 206c142 0 253 -67 253 -230c0 -172 -100 -341 -320 -341zM593 136c82 0 102 118 102 178c0 52 -11 95 -65 95c-82 0 -102 -118 -102 -178c0 -52 11 -95 65 -95z" />
    <glyph glyph-name="uni044F" unicode="&#x44f;" horiz-adv-x="630" 
d="M180 0h-215l170 195c-47 27 -68 71 -68 134c0 101 71 209 259 209h294l-114 -538h-190l32 152h-53zM306 282h70l24 121h-71c-55 0 -87 -19 -87 -68c0 -35 21 -53 64 -53z" />
    <glyph glyph-name="uni0452" unicode="&#x452;" horiz-adv-x="649" 
d="M341 -175h-75l30 134h32c36 0 45 5 52 38l27 134c4 18 6 33 6 46c0 41 -15 56 -46 56c-47 0 -82 -34 -97 -102l-27 -131h-200l94 449h-72l32 146h71l27 130h200l-27 -130h154l-32 -146h-153l-28 -133c37 47 99 73 163 73c109 0 149 -59 149 -152c0 -26 -4 -56 -11 -91
l-32 -152c-32 -147 -75 -169 -237 -169z" />
    <glyph glyph-name="uni0453" unicode="&#x453;" horiz-adv-x="519" 
d="M607 725l-165 -127h-166l124 127h207zM209 0h-200l114 538h435l-32 -146h-235z" />
    <glyph glyph-name="uni0454" unicode="&#x454;" horiz-adv-x="611" 
d="M292 -14c-187 0 -264 99 -264 243c0 168 128 330 323 330c180 0 255 -106 255 -222h-184v7c0 33 -27 66 -75 66c-51 0 -90 -37 -97 -88h141l-22 -100h-140c0 -64 29 -87 81 -87c51 0 80 32 91 71h184c-21 -114 -149 -220 -293 -220z" />
    <glyph glyph-name="uni0455" unicode="&#x455;" horiz-adv-x="553" 
d="M540 479l-76 -136c-55 39 -122 65 -179 65c-29 0 -60 -4 -60 -19c0 -12 5 -19 50 -32l66 -19c101 -29 174 -69 174 -162c0 -125 -124 -189 -248 -189c-96 0 -197 21 -284 85l88 140c64 -56 149 -78 206 -78c40 0 62 9 62 24s-14 23 -70 38l-54 15
c-96 27 -163 74 -163 172c0 115 116 170 236 170c88 0 176 -23 252 -74z" />
    <glyph glyph-name="uni0456" unicode="&#x456;" horiz-adv-x="334" 
d="M123 538h200l-114 -538h-199zM164 725h200l-32 -153h-200z" />
    <glyph glyph-name="uni0457" unicode="&#x457;" horiz-adv-x="333" 
d="M54 725h171l-27 -127h-170zM306 725h170l-27 -127h-170zM123 538h200l-114 -538h-199z" />
    <glyph glyph-name="uni0458" unicode="&#x458;" horiz-adv-x="333" 
d="M9 -3l113 541h200l-115 -544c-32 -148 -75 -169 -237 -169h-75l30 134h32c36 0 45 7 52 38zM163 725h200l-32 -153h-200z" />
    <glyph glyph-name="uni0459" unicode="&#x459;" horiz-adv-x="947" 
d="M21 0h-50l30 146h22c41 0 82 61 122 222l45 170h481l-33 -157h50c153 0 222 -47 222 -148c0 -137 -79 -233 -251 -233h-302l82 392h-99l-38 -133c-48 -171 -140 -259 -281 -259zM598 195l-12 -60h68c65 0 78 38 78 71c0 28 -16 41 -63 41h-60z" />
    <glyph glyph-name="uni045A" unicode="&#x45a;" horiz-adv-x="955" 
d="M647 381h49c153 0 222 -47 222 -148c0 -137 -79 -233 -251 -233h-302l43 202h-157l-42 -202h-200l114 538h200l-40 -190h157l40 190h200zM594 135h68c65 0 78 38 78 71c0 28 -16 41 -63 41h-60z" />
    <glyph glyph-name="uni045B" unicode="&#x45b;" horiz-adv-x="649" 
d="M243 0h-200l94 449h-72l32 146h71l27 130h200l-27 -130h154l-32 -146h-153l-28 -133c37 47 99 73 163 73c109 0 149 -59 149 -152c0 -26 -4 -56 -11 -91l-31 -146h-200l28 131c4 18 6 33 6 46c0 41 -15 56 -46 56c-47 0 -82 -34 -97 -102z" />
    <glyph glyph-name="uni045C" unicode="&#x45c;" horiz-adv-x="676" 
d="M639 725l-165 -127h-166l124 127h207zM208 0h-199l114 538h199l-54 -254h1l208 254h225l-230 -267l130 -271h-214l-121 280h-1z" />
    <glyph glyph-name="uni045E" unicode="&#x45e;" horiz-adv-x="587" 
d="M328 593c-101 0 -154 50 -154 114v9c0 3 0 6 1 9h104c0 -3 -1 -6 -1 -9c0 -27 21 -41 53 -41c41 0 61 15 72 50h111c-19 -72 -72 -132 -186 -132zM65 -175h-100l28 133h39c55 0 80 0 95 27l7 12l-98 541h192l37 -378l156 378h203l-285 -541c-77 -149 -107 -172 -274 -172
z" />
    <glyph glyph-name="uni045F" unicode="&#x45f;" horiz-adv-x="680" 
d="M346 -120h-180l26 120h-183l114 538h200l-84 -392h147l84 392h200l-114 -538h-184z" />
    <glyph glyph-name="uni0491" unicode="&#x491;" horiz-adv-x="518" 
d="M209 0h-200l114 538h255l24 123h180l-56 -269h-235z" />
    <glyph glyph-name="uni0463" unicode="&#x463;" horiz-adv-x="641" 
d="M351 0h-306l94 449h-74l32 146h74l26 130h200l-26 -130h136l-32 -146h-136l-14 -71h69c157 0 217 -52 217 -155c0 -126 -57 -223 -260 -223zM297 243l-24 -108h84c52 0 76 30 76 65c0 32 -16 43 -51 43h-85z" />
    <glyph glyph-name="uni0473" unicode="&#x473;" horiz-adv-x="657" 
d="M294 -13c-159 0 -270 95 -270 239c0 190 148 328 338 328c157 0 269 -96 269 -238c0 -184 -134 -329 -337 -329zM304 136c43 0 89 23 99 86h-172v-3c0 -61 32 -83 73 -83zM253 322h172c0 61 -32 83 -73 83s-86 -22 -99 -83z" />
    <glyph glyph-name="uni0475" unicode="&#x475;" horiz-adv-x="593" 
d="M331 0h-222l-73 538h189l38 -351l87 190c61 134 107 161 251 161h39l-32 -146h-10c-52 0 -63 -20 -96 -80z" />
    <glyph glyph-name="uni0493" unicode="&#x493;" horiz-adv-x="530" 
d="M220 0h-200l38 178h-54l28 136h54l48 224h435l-32 -146h-235l-16 -78h147l-28 -136h-147z" />
    <glyph glyph-name="uni0497" unicode="&#x497;" horiz-adv-x="1022" 
d="M922 -120h-180l26 120h-55l-118 280h-1l-58 -280h-200l58 280h-1l-215 -280h-228l243 289l-130 249h214l118 -254h1l54 254h200l-54 -254h1l209 254h226l-236 -262l62 -130h120z" />
    <glyph glyph-name="uni049B" unicode="&#x49b;" horiz-adv-x="696" 
d="M596 -120h-180l25 120h-53l-121 280h-1l-58 -280h-199l114 538h199l-54 -254h1l208 254h225l-230 -267l60 -125h120z" />
    <glyph glyph-name="uni04A3" unicode="&#x4a3;" horiz-adv-x="733" 
d="M633 -120h-180l25 120h-112l42 202h-157l-42 -202h-200l114 538h200l-40 -190h157l40 190h200l-83 -392h92z" />
    <glyph glyph-name="uni04AF" unicode="&#x4af;" horiz-adv-x="566" 
d="M291 -176h-200l32 156l-82 558h189l42 -345l165 345h200l-314 -557z" />
    <glyph glyph-name="uni04B1" unicode="&#x4b1;" horiz-adv-x="566" 
d="M291 -176h-200l18 86h-99l28 136h75l-72 492h189l42 -345l165 345h200l-277 -492h70l-28 -136h-93z" />
    <glyph glyph-name="uni04B3" unicode="&#x4b3;" horiz-adv-x="667" 
d="M567 -120h-180l26 120h-45l-68 123l-120 -123h-231l269 276l-142 262h216l64 -120l118 120h231l-266 -273l64 -119h120z" />
    <glyph glyph-name="uni04B7" unicode="&#x4b7;" horiz-adv-x="675" 
d="M575 -120h-180l26 120h-112l37 177c-33 -9 -78 -14 -119 -14c-101 0 -174 43 -174 151c0 18 2 37 6 56l35 168h200l-36 -168c-3 -15 -5 -26 -5 -33c0 -25 20 -38 59 -38c19 0 44 2 61 6l50 233h200l-87 -411h92z" />
    <glyph glyph-name="uni04BB" unicode="&#x4bb;" horiz-adv-x="665" 
d="M363 725l-53 -248c37 47 103 73 167 73c109 0 152 -59 152 -152c0 -26 -4 -56 -11 -91l-65 -307h-200l62 292c4 18 6 33 6 46c0 41 -18 56 -49 56c-47 0 -87 -34 -102 -102l-62 -292h-200l154 725h201z" />
    <glyph glyph-name="uni04CF" unicode="&#x4cf;" horiz-adv-x="333" 
d="M363 725l-154 -725h-200l154 725h200z" />
    <glyph glyph-name="uni04D9" unicode="&#x4d9;" horiz-adv-x="640" 
d="M288 -14c-162 0 -264 100 -264 239c0 28 5 60 15 96h388c0 56 -36 90 -100 90c-39 0 -76 -19 -91 -48h-188c32 89 129 195 294 195c161 0 271 -97 271 -246c0 -175 -125 -326 -325 -326zM291 123c41 0 90 22 109 87h-208c-1 -3 -1 -5 -1 -8v-7c0 -52 47 -72 100 -72z" />
    <glyph glyph-name="uni04E3" unicode="&#x4e3;" horiz-adv-x="688" 
d="M194 0h-185l114 538h185l-60 -283l244 283h186l-114 -538h-185l58 278zM250 628l19 90h313l-19 -90h-313z" />
    <glyph glyph-name="uni04E9" unicode="&#x4e9;" horiz-adv-x="657" 
d="M294 -13c-159 0 -270 95 -270 239c0 190 148 328 338 328c157 0 269 -96 269 -238c0 -184 -134 -329 -337 -329zM304 136c43 0 89 23 99 86h-172v-3c0 -61 32 -83 73 -83zM253 322h172c0 61 -32 83 -73 83s-86 -22 -99 -83z" />
    <glyph glyph-name="uni04EF" unicode="&#x4ef;" horiz-adv-x="587" 
d="M180 628l19 90h313l-19 -90h-313zM65 -175h-100l28 133h39c55 0 80 0 95 27l7 12l-98 541h192l37 -378l156 378h203l-285 -541c-77 -149 -107 -172 -274 -172z" />
    <glyph glyph-name="uni0414.locl" horiz-adv-x="840" 
d="M140 -141h-190l68 320h70l313 546h229l90 -546h88l-68 -320h-190l30 140h-410zM463 478l-161 -299h201z" />
    <glyph glyph-name="uni041B.locl" horiz-adv-x="716" 
d="M177 0h-228l395 725h233l84 -725h-222l-31 478z" />
    <glyph glyph-name="uni0432.locl" horiz-adv-x="607" 
d="M302 -12h-45c-149 0 -227 50 -227 158c0 23 3 49 9 78l56 271c38 177 132 247 281 247c141 0 223 -54 223 -170c0 -67 -33 -130 -102 -161c56 -16 90 -65 90 -140c0 -153 -108 -283 -285 -283zM295 120c68 0 101 52 101 151c0 44 -20 70 -69 70h-74l-28 -131
c-3 -11 -4 -22 -4 -33c0 -40 27 -57 74 -57zM293 533l-20 -98h79c65 0 94 53 94 105c0 57 -26 70 -74 70c-39 0 -67 -21 -79 -77z" />
    <glyph glyph-name="uni0433.locl" horiz-adv-x="518" 
d="M198 -13c-140 0 -215 64 -194 189c19 101 99 137 207 158l63 13c32 7 41 20 42 31c3 12 -9 23 -40 23c-61 0 -129 -25 -175 -44l-33 141c45 24 131 54 224 54c125 0 216 -61 197 -172c-19 -101 -96 -150 -200 -169l-53 -11c-39 -8 -57 -14 -60 -33s24 -27 57 -27
c71 0 137 28 185 55l40 -139c-60 -37 -141 -69 -260 -69z" />
    <glyph glyph-name="uni0434.locl" horiz-adv-x="665" 
d="M424 309c0 56 -30 100 -79 100c-82 0 -114 -103 -114 -154c0 -56 22 -98 73 -98c80 0 120 98 120 152zM445 476l13 62h200l-111 -523c-34 -164 -138 -203 -301 -203c-168 0 -244 64 -251 172h184c3 -31 28 -47 76 -47c52 0 84 28 96 85l14 66c-39 -51 -105 -72 -170 -72
c-101 0 -181 73 -181 217c0 146 100 317 284 317c73 0 128 -39 147 -74z" />
    <glyph glyph-name="uni0436.locl" horiz-adv-x="950" 
d="M178 0h-228l243 289l-130 249h214l118 -254h1l93 441h200l-93 -441h1l209 254h226l-236 -262l132 -276h-215l-118 280h-1l-58 -280h-200l58 280h-1z" />
    <glyph glyph-name="uni0437.locl" horiz-adv-x="563" 
d="M216 -176c-131 0 -244 61 -247 219h172c0 -61 29 -85 77 -85c51 0 90 32 101 93c5 42 -4 79 -76 79h-81l24 128h76c80 0 94 48 102 77c12 51 -9 89 -60 89c-53 0 -101 -29 -117 -84h-152c31 145 139 215 282 215c124 0 234 -75 207 -203c-13 -63 -39 -115 -106 -147
c64 -33 92 -91 81 -163c-16 -132 -128 -218 -283 -218z" />
    <glyph glyph-name="uni0438.locl" horiz-adv-x="649" 
d="M328 0l13 60c-37 -47 -96 -73 -160 -73c-108 0 -150 58 -150 150c0 27 4 58 11 93l65 308h200l-62 -293c-4 -19 -6 -35 -6 -48c0 -39 16 -50 47 -50c45 0 79 29 94 98l62 293h200l-114 -538h-200z" />
    <glyph glyph-name="_475" horiz-adv-x="649" 
d="M378 593c-101 0 -154 50 -154 114v9c0 3 0 6 1 9h104c0 -3 -1 -6 -1 -9c0 -27 21 -41 53 -41c41 0 61 15 72 50h111c-19 -72 -72 -132 -186 -132zM328 0l13 60c-37 -47 -96 -73 -160 -73c-108 0 -150 58 -150 150c0 27 4 58 11 93l65 308h200l-62 -293
c-4 -19 -6 -35 -6 -48c0 -39 16 -50 47 -50c45 0 79 29 94 98l62 293h200l-114 -538h-200z" />
    <glyph glyph-name="uni043A.locl" horiz-adv-x="676" 
d="M208 0h-199l154 725h199l-94 -441h1l208 254h225l-230 -267l130 -271h-214l-121 280h-1z" />
    <glyph glyph-name="uni043B.locl" horiz-adv-x="593" 
d="M150 0h-201l294 538h222l73 -538h-189l-38 351z" />
    <glyph glyph-name="_478" horiz-adv-x="665" 
d="M123 538h200l-13 -61c37 47 103 73 167 73c109 0 152 -59 152 -152c0 -26 -4 -56 -11 -91l-65 -307h-200l62 292c4 18 6 33 6 46c0 41 -18 56 -49 56c-47 0 -86 -34 -101 -102l-62 -292h-200z" />
    <glyph glyph-name="_479" horiz-adv-x="989" 
d="M470 550c87 0 130 -37 143 -94c57 71 123 94 191 94c108 0 149 -57 149 -149c0 -27 -4 -59 -11 -94l-65 -307h-200l62 292c4 20 6 36 6 49c0 39 -15 53 -46 53c-45 0 -79 -34 -94 -102l-62 -292h-200l62 292c4 19 6 35 6 48c0 39 -16 54 -47 54c-45 0 -78 -34 -93 -102
l-62 -292h-200l114 538h200l-13 -61c37 47 96 73 160 73z" />
    <glyph glyph-name="_480" horiz-adv-x="705" 
d="M605 -120h-180l26 120h-5c-66 3 -89 42 -92 76c-32 -54 -111 -89 -173 -89c-108 0 -150 58 -150 150c0 27 4 58 11 93l65 308h200l-62 -293c-4 -19 -6 -35 -6 -48c0 -39 16 -50 47 -50c45 0 79 29 94 98l62 293h200l-67 -316c-11 -53 0 -76 71 -77h15z" />
    <glyph glyph-name="_481" horiz-adv-x="984" 
d="M181 -13c-108 0 -150 58 -150 150c0 27 4 58 11 93l65 308h200l-62 -293c-4 -19 -6 -35 -6 -48c0 -39 16 -50 47 -50c45 0 79 29 94 98v-1l62 294h200l-62 -293c-4 -19 -6 -35 -6 -48c0 -39 16 -50 47 -50c45 0 79 29 94 98l62 293h200l-114 -538h-200l13 60
c-37 -47 -96 -73 -160 -73c-83 0 -126 33 -142 90c-48 -75 -135 -90 -193 -90z" />
    <glyph glyph-name="_482" horiz-adv-x="1041" 
d="M941 -120h-180l26 120h-5c-66 3 -89 42 -92 76c-37 -59 -110 -89 -174 -89c-83 0 -126 33 -142 90c-48 -75 -135 -90 -193 -90c-108 0 -150 58 -150 150c0 27 4 58 11 93l65 308h200l-62 -293c-4 -19 -6 -35 -6 -48c0 -39 16 -50 47 -50c45 0 79 29 94 98v-1l62 294h200
l-62 -293c-4 -19 -6 -35 -6 -48c0 -39 16 -50 47 -50c45 0 79 29 94 98l62 293h200l-67 -316c-11 -53 1 -76 72 -77h15z" />
    <glyph glyph-name="uni044E.locl" horiz-adv-x="955" 
d="M601 -13c-139 0 -258 64 -263 219h-82l-44 -206h-200l153 725h200l-79 -373h76c43 116 145 206 306 206c142 0 263 -67 263 -230c0 -172 -110 -341 -330 -341zM616 136c82 0 112 118 112 178c0 52 -20 95 -75 95c-82 0 -112 -118 -112 -178c0 -52 20 -95 75 -95z" />
    <glyph glyph-name="_484" horiz-adv-x="611" 
d="M281 -11c-155 0 -237 46 -237 154c0 17 2 32 6 52l74 343h200l-34 -157h64c156 0 221 -58 221 -171c0 -122 -77 -221 -294 -221zM308 125c60 0 92 31 92 74c0 28 -17 48 -61 48h-77l-12 -52c-1 -7 -2 -12 -2 -19c0 -31 21 -51 60 -51z" />
    <glyph glyph-name="_485" horiz-adv-x="683" 
d="M349 -11c-149 0 -228 46 -228 154c0 17 2 32 6 52l44 203h-129l30 140h319l-34 -157h69c156 0 221 -58 221 -171c0 -122 -81 -221 -298 -221zM376 125c60 0 96 31 96 74c0 28 -17 48 -61 48h-82l-12 -52c-1 -7 -2 -12 -2 -19c0 -31 18 -51 61 -51z" />
    <glyph glyph-name="uni0431.locl" horiz-adv-x="632" 
d="M274 -13c-151 0 -254 95 -254 228c0 131 88 211 164 251c-35 21 -63 59 -63 111c0 78 54 148 206 148c227 0 266 1 313 9l-30 -145c-42 -8 -101 -9 -257 -9c-55 0 -59 -28 -59 -41c0 -14 8 -35 50 -35h13c129 0 244 -67 244 -215c0 -183 -146 -302 -327 -302zM293 136
c68 0 108 70 108 143c0 67 -37 92 -72 92c-64 0 -108 -59 -108 -146c0 -61 33 -89 72 -89z" />
    <glyph glyph-name="_487" horiz-adv-x="333" 
d="M75 628l19 90h313l-19 -90h-313zM122 538h200l-114 -538h-199z" />
    <glyph glyph-name="_488" horiz-adv-x="665" 
d="M424 309c0 56 -30 100 -79 100c-82 0 -114 -103 -114 -154c0 -56 22 -98 73 -98c80 0 120 98 120 152zM445 476l13 62h200l-111 -523c-34 -164 -138 -203 -301 -203c-168 0 -244 64 -251 172h184c3 -31 28 -47 76 -47c52 0 84 28 96 85l14 66c-39 -51 -105 -72 -170 -72
c-101 0 -181 73 -181 217c0 146 100 317 284 317c73 0 128 -39 147 -74z" />
    <glyph glyph-name="uni043F.locl" horiz-adv-x="649" 
d="M328 0l13 60c-37 -47 -96 -73 -160 -73c-108 0 -150 58 -150 150c0 27 4 58 11 93l65 308h200l-62 -293c-4 -19 -6 -35 -6 -48c0 -39 16 -50 47 -50c45 0 79 29 94 98l62 293h200l-114 -538h-200zM233 628l19 90h313l-19 -90h-313z" />
    <glyph glyph-name="uni0442.locl" horiz-adv-x="982" 
d="M180 -12c-108 0 -149 57 -149 149c0 27 4 59 11 94l65 307h200l-62 -292c-4 -20 -6 -36 -6 -49c0 -39 15 -53 46 -53c45 0 79 34 94 102l62 292h200l-62 -292c-4 -19 -6 -35 -6 -48c0 -39 16 -54 47 -54c45 0 78 34 93 102l62 292h200l-114 -538h-200l13 61
c-37 -47 -96 -73 -160 -73c-87 0 -130 37 -143 94c-57 -71 -123 -94 -191 -94zM869 628h-613l19 90h613z" />
    <glyph glyph-name="uniF6D4" unicode="&#xf6d4;" horiz-adv-x="399" 
d="M191 593c-101 0 -154 50 -154 114v9c0 3 0 6 1 9h104c0 -3 -1 -6 -1 -9c0 -27 21 -41 53 -41c41 0 61 15 72 50h111c-19 -72 -72 -132 -186 -132z" />
    <glyph glyph-name="uniF6D1" unicode="&#xf6d1;" horiz-adv-x="402" 
d="M190 755c-161 0 -220 52 -220 122v9h128c0 -33 30 -53 94 -53c59 0 102 18 102 53h138c-13 -88 -83 -131 -242 -131z" />
    <glyph glyph-name="uni20BD" unicode="&#x20bd;" horiz-adv-x="756" 
d="M266 0h-208l20 95h-67l17 84h67l13 57h-67l36 170h67l68 321l294 -1c188 0 321 -50 278 -247s-193 -244 -382 -244h-86l-11 -57h184l-18 -84l-185 1zM384 556l-32 -151h105c60 0 100 23 111 75c11 53 -19 76 -79 76h-105z" />
    <glyph glyph-name="uni20B4" unicode="&#x20b4;" horiz-adv-x="710" 
d="M315 -12c-152 0 -267 75 -251 218c3 20 5 38 16 55h-56l17 83h658l-18 -83h-365c-35 -16 -58 -35 -61 -66c-4 -35 19 -55 83 -55c78 0 115 41 126 76h186c-24 -109 -142 -231 -335 -228zM709 391h-658l18 83h348c34 15 53 37 56 66c3 27 -14 48 -78 48
c-63 0 -104 -34 -104 -66h-194c13 114 128 220 320 220c148 0 266 -75 250 -215c-2 -18 -7 -36 -16 -53h75z" />
    <glyph glyph-name="pi" unicode="&#x3c0;" horiz-adv-x="747" 
d="M236 0h-200l77 364h-75l38 174h684l-38 -174h-75l-37 -181c-1 -7 -2 -11 -2 -16c0 -17 11 -22 32 -22h36l-31 -145h-76c-109 0 -172 10 -172 99c0 19 3 38 8 63l42 202h-133z" />
    <glyph glyph-name="mu" unicode="&#xb5;" horiz-adv-x="648" 
d="M111 538h199l-62 -293c-4 -18 -6 -33 -6 -45c0 -40 19 -53 50 -53c45 0 77 29 92 98l62 293h201l-114 -538h-200l12 62c-36 -51 -75 -73 -152 -74l-37 -174h-199z" />
    <glyph glyph-name="mu" unicode="&#x3bc;" horiz-adv-x="648" 
d="M111 538h199l-62 -293c-4 -18 -6 -33 -6 -45c0 -40 19 -53 50 -53c45 0 77 29 92 98l62 293h201l-114 -538h-200l12 62c-36 -51 -75 -73 -152 -74l-37 -174h-199z" />
    <glyph glyph-name="ellipsis" unicode="&#x2026;" horiz-adv-x="1062" 
d="M231 0h-217l45 210h217zM585 0h-217l45 210h217zM939 0h-217l45 210h217z" />
    <glyph glyph-name="endash" unicode="&#x2013;" horiz-adv-x="597" 
d="M528 181h-499l37 174h499z" />
    <glyph glyph-name="emdash" unicode="&#x2014;" horiz-adv-x="760" 
d="M692 181h-663l37 174h663z" />
    <glyph glyph-name="guilsinglleft" unicode="&#x2039;" horiz-adv-x="355" 
d="M115 41l-118 233l210 231h182l-168 -232l62 -232h-168z" />
    <glyph glyph-name="guilsinglright" unicode="&#x203a;" horiz-adv-x="355" 
d="M356 271l-210 -230h-182l170 231l-65 233h168z" />
    <glyph glyph-name="quoteleft" unicode="&#x2018;" horiz-adv-x="354" 
d="M349 558l-45 -209h-216l47 221l120 155h147l-108 -167h55z" />
    <glyph glyph-name="quoteright" unicode="&#x2019;" horiz-adv-x="354" 
d="M123 515l45 210h218l-48 -222l-121 -155h-146l108 167h-56z" />
    <glyph glyph-name="quotedblleft" unicode="&#x201c;" horiz-adv-x="623" 
d="M618 558l-45 -209h-216l47 221l120 155h147l-108 -167h55zM349 558l-45 -209h-216l47 221l120 155h147l-108 -167h55z" />
    <glyph glyph-name="quotedblright" unicode="&#x201d;" horiz-adv-x="623" 
d="M392 515l45 210h218l-48 -222l-121 -155h-146l108 167h-56zM123 515l45 210h218l-48 -222l-121 -155h-146l108 167h-56z" />
    <glyph glyph-name="quotesinglbase" unicode="&#x201a;" horiz-adv-x="354" 
d="M13 0l45 210h218l-48 -222l-121 -155h-146l108 167h-56z" />
    <glyph glyph-name="quotedblbase" unicode="&#x201e;" horiz-adv-x="623" 
d="M282 0l45 210h218l-48 -222l-121 -155h-146l108 167h-56zM13 0l45 210h218l-48 -222l-121 -155h-146l108 167h-56z" />
    <glyph glyph-name="bullet" unicode="&#x2022;" horiz-adv-x="440" 
d="M215 96c-96 0 -176 79 -176 183c0 98 80 177 176 177c105 0 184 -79 184 -177c0 -104 -79 -183 -184 -183z" />
    <glyph glyph-name="dagger" unicode="&#x2020;" horiz-adv-x="629" 
d="M347 0h-200l77 364h-193l37 174h193l40 187h200l-40 -187h194l-37 -174h-194z" />
    <glyph glyph-name="daggerdbl" unicode="&#x2021;" horiz-adv-x="654" 
d="M369 0h-200l29 136h-193l37 174h192l22 102h-193l37 174h194l29 139h201l-29 -139h193l-37 -174h-195l-22 -102h194l-37 -174h-193z" />
    <glyph glyph-name="perthousand" unicode="&#x2030;" horiz-adv-x="1442" 
d="M1166 156c0 -55 19 -78 50 -78c61 0 80 108 80 177c0 53 -20 78 -51 78c-62 0 -79 -108 -79 -177zM1411 243c0 -117 -56 -250 -196 -250c-101 0 -165 61 -165 174c0 117 55 250 195 250c103 0 166 -61 166 -174zM378 0h-166l500 725h166zM185 473c0 -55 19 -78 50 -78
c61 0 80 108 80 177c0 53 -20 78 -51 78c-62 0 -79 -108 -79 -177zM430 560c0 -117 -56 -250 -196 -250c-101 0 -165 61 -165 174c0 117 55 250 195 250c103 0 166 -61 166 -174zM775 156c0 -55 19 -78 50 -78c61 0 80 108 80 177c0 53 -20 78 -51 78
c-62 0 -79 -108 -79 -177zM1020 243c0 -117 -56 -250 -196 -250c-101 0 -165 61 -165 174c0 117 55 250 195 250c103 0 166 -61 166 -174z" />
    <glyph glyph-name="uni2113" unicode="&#x2113;" horiz-adv-x="554" 
d="M133 129v21l-65 -41l-38 87l127 81l46 213c40 180 158 248 287 248c101 0 156 -43 156 -119c0 -139 -84 -202 -276 -322l-14 -9l-13 -64c-3 -15 -5 -27 -5 -38c0 -35 17 -49 52 -49c36 0 67 16 98 36l43 -111c-38 -30 -125 -75 -219 -75c-108 0 -179 34 -179 142z
M406 523l-22 -103c68 47 117 97 117 150c0 20 -11 30 -34 30c-35 0 -50 -25 -61 -77z" />
    <glyph glyph-name="uni2116" unicode="&#x2116;" horiz-adv-x="1198" 
d="M1218 599c0 -176 -90 -267 -219 -267c-89 0 -167 44 -167 142c0 165 94 267 219 267c93 0 167 -41 167 -142zM1125 150h-360l33 155h360zM1012 464c29 1 53 40 56 96v6c0 29 -7 43 -30 43c-35 0 -56 -47 -56 -106c0 -23 7 -38 30 -39zM678 0h-246l-122 451l-96 -451h-203
l154 725h246l123 -440l93 440h205z" />
    <glyph glyph-name="uni2117" unicode="&#x2117;" horiz-adv-x="825" 
d="M412 -13c-208 0 -375 152 -375 374c0 223 167 377 375 377c207 0 374 -154 374 -377c0 -222 -167 -374 -374 -374zM412 662c-164 0 -292 -121 -292 -301c0 -176 128 -299 292 -299c167 0 291 123 291 299c0 180 -124 301 -291 301zM428 318h-52v-143h-108v400h160
c107 0 186 -27 186 -131c0 -105 -93 -126 -186 -126zM376 401h79c36 0 51 19 51 43c0 23 -15 47 -51 47h-79v-90z" />
    <glyph glyph-name="trademark" unicode="&#x2122;" horiz-adv-x="966" 
d="M140 326v299h-131v100h381v-100h-132v-299h-118zM728 326h-105l-92 278v-278h-116v399h188l73 -256l83 256h176v-399h-116v280z" />
    <glyph glyph-name="lozenge" unicode="&#x25ca;" horiz-adv-x="596" 
d="M301 486l-105 -156l105 -155l105 155zM-1 330l301 441l295 -441l-295 -442z" />
    <glyph glyph-name="_519" horiz-adv-x="440" 
d="M215 96c-96 0 -176 79 -176 183c0 98 80 177 176 177c105 0 184 -79 184 -177c0 -104 -79 -183 -184 -183z" />
    <glyph glyph-name="estimated" unicode="&#x212e;" horiz-adv-x="565" 
d="M490 147h40c-32 -89 -109 -160 -241 -160c-176 0 -270 128 -270 282c0 160 105 281 265 281c168 0 257 -133 260 -280h-410v-195c31 -32 96 -55 163 -55c95 0 161 48 193 127zM134 465v-163h294v162c-29 29 -81 52 -145 52c-63 0 -117 -18 -149 -51z" />
    <glyph glyph-name="minus" unicode="&#x2212;" 
d="M45 356h587v-174h-587v174z" />
    <glyph glyph-name="lessequal" unicode="&#x2264;" 
d="M294 441l337 -59v-194l-587 166v174l587 166v-194zM44 0v174h587v-174h-587z" />
    <glyph glyph-name="greaterequal" unicode="&#x2265;" 
d="M401 441l-338 59v194l587 -166v-174l-587 -166v194zM650 0h-587v174h587v-174z" />
    <glyph glyph-name="notequal" unicode="&#x2260;" 
d="M163 65h-107v174h171l22 59h-193v174h257l32 88h207l-32 -88h102v-174h-165l-22 -59h187v-174h-250l-35 -97h-209z" />
    <glyph glyph-name="approxequal" unicode="&#x2248;" 
d="M217 500c90 0 183 -60 215 -60c23 0 30 13 31 60h147c0 -139 -40 -225 -148 -225c-88 0 -172 62 -215 62c-24 0 -33 -14 -34 -62h-147c0 139 41 225 151 225zM217 256c90 0 183 -60 215 -60c23 0 30 13 31 60h147c0 -139 -40 -225 -148 -225c-88 0 -172 62 -215 62
c-24 0 -33 -14 -34 -62h-147c0 139 41 225 151 225z" />
    <glyph glyph-name="partialdiff" unicode="&#x2202;" horiz-adv-x="622" 
d="M307 391c-56 0 -82 -64 -82 -128c0 -65 26 -127 82 -127s88 46 88 127c0 80 -32 128 -88 128zM19 264c0 175 103 275 228 275c60 0 111 -24 140 -61l1 1c-32 91 -137 126 -222 126v141c299 -8 435 -196 435 -426c0 -220 -140 -333 -303 -333c-171 0 -279 104 -279 277z
" />
    <glyph glyph-name="product" unicode="&#x220f;" horiz-adv-x="720" 
d="M249 -175h-200v900h620v-900h-200v726h-220v-726z" />
    <glyph glyph-name="radical" unicode="&#x221a;" horiz-adv-x="657" 
d="M-1 224l251 76l100 -249l119 674h187l-164 -900h-226l-130 297l-96 -29z" />
    <glyph glyph-name="summation" unicode="&#x2211;" horiz-adv-x="647" 
d="M29 -1l300 276l-300 276v174h587v-174h-349l297 -276l-297 -276h349v-174h-587v174z" />
    <glyph glyph-name="integral" unicode="&#x222b;" horiz-adv-x="378" 
d="M110 207v223c0 256 85 314 189 314c53 0 108 -29 108 -88c0 -35 -23 -59 -60 -59c-24 0 -55 12 -55 57c0 8 1 17 3 27c-27 -5 -41 -45 -41 -118c0 -72 11 -100 11 -260v-180c0 -255 -85 -313 -189 -313c-53 0 -108 29 -108 87c0 31 22 59 61 59c24 0 54 -14 54 -58
c0 -7 -1 -16 -3 -26c29 7 39 45 39 118c0 51 -9 125 -9 217z" />
    <glyph glyph-name="infinity" unicode="&#x221e;" horiz-adv-x="768" 
d="M557 90c-76 0 -126 39 -173 87c-45 -47 -97 -86 -176 -86c-107 0 -179 71 -179 172c0 100 75 171 186 171c71 0 121 -33 168 -81c47 48 99 81 168 81c111 0 186 -71 186 -171c0 -102 -72 -173 -180 -173zM215 207c40 0 70 25 95 56c-27 29 -54 55 -93 55
c-37 0 -66 -22 -66 -54c0 -33 25 -57 64 -57zM551 318c-39 0 -66 -26 -93 -55c27 -31 56 -56 95 -56c37 0 63 23 63 56c0 32 -26 55 -65 55z" />
    <glyph glyph-name="uni0394" unicode="&#x394;" horiz-adv-x="717" 
d="M-1 0l358 763l359 -763h-717zM468 160l-111 235l-112 -235h223z" />
    <glyph glyph-name="uni0394" unicode="&#x2206;" horiz-adv-x="717" 
d="M-1 0l358 763l359 -763h-717zM468 160l-111 235l-112 -235h223z" />
    <glyph glyph-name="uni03A9" unicode="&#x3a9;" horiz-adv-x="777" 
d="M195 176l8 35c-100 35 -149 119 -149 220c0 173 145 307 373 307c182 0 340 -96 340 -283c0 -128 -76 -235 -206 -256l-4 -23h174l-37 -176h-328l55 259c100 3 163 81 163 167c0 104 -91 145 -171 145c-108 0 -180 -64 -180 -160c0 -72 37 -138 132 -151l-55 -260h-327
l37 176h175z" />
    <glyph glyph-name="uni03A9" unicode="&#x2126;" horiz-adv-x="777" 
d="M195 176l8 35c-100 35 -149 119 -149 220c0 173 145 307 373 307c182 0 340 -96 340 -283c0 -128 -76 -235 -206 -256l-4 -23h174l-37 -176h-328l55 259c100 3 163 81 163 167c0 104 -91 145 -171 145c-108 0 -180 -64 -180 -160c0 -72 37 -138 132 -151l-55 -260h-327
l37 176h175z" />
    <glyph glyph-name="Euro" unicode="&#x20ac;" horiz-adv-x="793" 
d="M-13 383l51 69h92c40 170 156 290 356 290c171 0 308 -92 308 -265v-9h-189c-1 84 -44 126 -124 126c-73 0 -120 -55 -144 -142h219l-52 -69h-180c-3 -17 -3 -33 -4 -52h159l-51 -68h-108c9 -84 54 -128 130 -128c69 0 113 26 130 98h189c-24 -151 -165 -247 -332 -247
c-171 0 -301 97 -320 277h-138l52 68h84c0 17 1 35 3 52h-131z" />
    <glyph glyph-name="fi" unicode="&#xfb01;" horiz-adv-x="746" 
d="M536 538h200l-114 -538h-199zM44 412l24 115h68l5 19c38 145 62 179 236 179h107l-27 -127h-68c-33 0 -38 -6 -45 -37l-7 -34h105l-24 -115h-106l-88 -412h-200l88 412h-68zM577 725h200l-32 -153h-200z" />
    <glyph glyph-name="fl" unicode="&#xfb02;" horiz-adv-x="746" 
d="M44 412l24 115h68l5 19c38 145 62 179 236 179h107l-27 -127h-68c-33 0 -38 -6 -45 -37l-7 -34h105l-24 -115h-106l-88 -412h-200l88 412h-68zM777 725l-154 -725h-200l154 725h200z" />
    <glyph glyph-name="_537" horiz-adv-x="333" 
d="M163 725h200l-32 -153h-200z" />
    <glyph glyph-name="breve" unicode="&#x2d8;" horiz-adv-x="399" 
d="M266 725h111c-19 -72 -72 -132 -186 -132c-101 0 -154 50 -154 114v9c0 3 0 6 1 9h104c0 -3 -1 -6 -1 -9c0 -27 21 -41 53 -41c41 0 61 15 72 50z" />
    <glyph glyph-name="caron" unicode="&#x2c7;" horiz-adv-x="480" 
d="M137 598l-108 127h165l41 -57l62 57h180l-165 -127h-175z" />
    <glyph glyph-name="circumflex" unicode="&#x2c6;" horiz-adv-x="480" 
d="M339 725l108 -127h-165l-41 57l-62 -57h-180l165 127h175z" />
    <glyph glyph-name="dotaccent" unicode="&#x2d9;" horiz-adv-x="208" 
d="M34 725h166l-25 -116h-166z" />
    <glyph glyph-name="_542" horiz-adv-x="210" 
d="M212 -56l-25 -119h-166l25 119h166z" />
    <glyph glyph-name="hungarumlaut" unicode="&#x2dd;" horiz-adv-x="583" 
d="M344 725l-165 -127h-166l124 127h207zM584 725l-165 -127h-166l124 127h207z" />
    <glyph glyph-name="ogonek" unicode="&#x2db;" horiz-adv-x="332" 
d="M132 0h160c-28 -13 -104 -41 -104 -78c0 -21 21 -27 44 -27c15 0 28 2 39 5l-17 -79c-21 -5 -48 -9 -79 -9c-64 0 -132 18 -132 85c0 39 32 78 89 103z" />
    <glyph glyph-name="ring" unicode="&#x2da;" horiz-adv-x="229" 
d="M116 785c51 0 94 -37 94 -89c0 -51 -42 -89 -94 -89c-53 0 -95 37 -95 89s43 89 95 89zM116 737c-23 0 -41 -17 -41 -41c0 -23 18 -40 41 -40s41 17 41 40c0 24 -18 41 -41 41z" />
    <glyph glyph-name="tilde" unicode="&#x2dc;" horiz-adv-x="461" 
d="M151 724c80 0 100 -44 144 -44c29 0 56 12 60 44h95c-15 -89 -69 -126 -138 -126c-77 0 -106 44 -145 44c-29 0 -52 -13 -59 -44h-95c11 85 76 126 138 126z" />
    <glyph glyph-name="uni032C" unicode="&#x32c;" horiz-adv-x="480" 
d="M78 -138l-108 138h165l41 -57l62 57h180l-165 -138h-175z" />
    <glyph glyph-name="_548" horiz-adv-x="240" 
d="M241 725l-95 -170h-133l55 170h173z" />
    <glyph glyph-name="uni0326" unicode="&#x326;" horiz-adv-x="195" 
d="M23 -136l21 100h149l-23 -106l-74 -89h-97l59 95h-35z" />
    <glyph glyph-name="zero.zero" horiz-adv-x="695" 
d="M685 431c0 -207 -97 -444 -348 -444c-180 0 -291 112 -291 310c0 208 97 444 345 444c184 0 294 -112 294 -310zM391 593c-92 0 -129 -129 -140 -242l232 102c-1 95 -36 140 -92 140zM339 136c83 0 121 105 137 210l-227 -99c7 -76 39 -111 90 -111z" />
    <glyph glyph-name="one.onum" horiz-adv-x="440" 
d="M311 0h-200l92 409h-150l31 153c122 3 171 28 212 90h158z" />
    <glyph glyph-name="two.onum" horiz-adv-x="633" 
d="M245 394l-190 2c3 141 102 267 314 267c168 0 273 -59 273 -171c0 -140 -153 -229 -321 -317h243l-35 -175h-550l29 147c239 120 425 238 425 309c0 39 -34 57 -82 57c-46 0 -103 -8 -106 -119z" />
    <glyph glyph-name="three.onum" horiz-adv-x="628" 
d="M11 250l190 13c0 -80 38 -127 107 -127c51 0 82 20 82 57c0 35 -35 66 -107 66h-30l26 156h28c79 0 116 9 116 48c0 31 -32 51 -76 51c-41 0 -84 -13 -100 -70l-190 23c29 129 142 196 302 196c157 0 270 -58 270 -183c0 -95 -67 -141 -118 -160c51 -19 84 -77 84 -125
c0 -141 -129 -207 -276 -207c-163 0 -292 64 -308 262z" />
    <glyph glyph-name="four.onum" horiz-adv-x="674" 
d="M395 435l-164 -144h127zM668 291l-37 -176h-109l-26 -115h-200l26 115h-318l30 155l432 382h173l-81 -361h110z" />
    <glyph glyph-name="five.onum" horiz-adv-x="652" 
d="M20 201l193 22c5 -40 30 -87 101 -87c60 0 101 29 101 89c0 41 -26 78 -98 78c-36 0 -74 -10 -97 -46l-170 29l130 366h482l-34 -174h-315l-29 -71c33 23 73 36 129 36c115 0 211 -62 211 -198c0 -171 -136 -257 -304 -257c-145 0 -287 53 -300 213z" />
    <glyph glyph-name="six.onum" horiz-adv-x="652" 
d="M415 235c0 40 -28 70 -83 70c-48 0 -94 -38 -94 -98c0 -35 21 -72 82 -72c55 0 95 44 95 100zM642 481l-176 -19c0 43 -43 51 -86 51c-60 0 -97 -39 -112 -102c33 28 76 37 120 37c123 0 233 -76 233 -208c0 -161 -123 -252 -300 -252c-175 0 -275 98 -275 281
c0 213 114 394 346 394c118 0 247 -37 250 -182z" />
    <glyph glyph-name="seven.onum" horiz-adv-x="580" 
d="M71 478l35 174h565l-34 -174c-208 -101 -365 -273 -384 -478h-222c26 185 204 396 397 478h-357z" />
    <glyph glyph-name="eight.onum" horiz-adv-x="645" 
d="M545 329c46 -31 69 -76 69 -134c0 -143 -155 -206 -294 -206c-156 0 -291 72 -291 213c0 79 49 133 112 164c-31 27 -49 68 -49 112c0 132 139 184 277 184c116 0 267 -47 267 -179c0 -59 -39 -125 -91 -154zM232 207c0 -57 53 -72 85 -72c65 0 97 36 97 75
s-30 71 -83 71c-56 0 -99 -23 -99 -74zM286 449c0 -28 25 -57 68 -57c51 0 81 30 81 62c0 35 -25 59 -68 59c-49 0 -81 -25 -81 -64z" />
    <glyph glyph-name="nine.onum" horiz-adv-x="640" 
d="M260 416c0 -40 28 -71 83 -71c48 0 95 38 95 99c0 36 -22 71 -83 71c-55 0 -95 -43 -95 -99zM34 174l176 15c3 -43 41 -51 85 -51c60 0 97 39 112 102c-33 -28 -76 -37 -119 -37c-124 0 -234 76 -234 207c0 162 123 253 300 253c175 0 276 -98 276 -281
c0 -213 -114 -394 -347 -394c-118 0 -246 43 -249 186z" />
    <glyph glyph-name="zero.onum" horiz-adv-x="664" 
d="M248 229c0 -74 31 -92 76 -92c99 0 128 164 128 284c0 75 -32 92 -77 92c-99 0 -127 -164 -127 -284zM654 386c0 -189 -95 -398 -329 -398c-167 0 -279 80 -279 276c0 188 95 399 327 399c169 0 281 -80 281 -277z" />
    <glyph glyph-name="zero.onum_zero" horiz-adv-x="664" 
d="M654 386c0 -189 -95 -398 -329 -398c-167 0 -279 80 -279 276c0 188 95 399 327 399c169 0 281 -80 281 -277zM375 513c-73 0 -108 -88 -121 -182l198 86v4c0 75 -32 92 -77 92zM324 137c69 0 106 81 119 173l-195 -86c0 -70 31 -87 76 -87z" />
    <glyph glyph-name="one.tnum" 
d="M430 170h190l-36 -170h-603l37 170h212l62 292h-214l31 145c169 3 237 34 280 107h157z" />
    <glyph glyph-name="two.tnum" 
d="M278 463h-191c5 147 106 279 325 279c152 0 281 -51 281 -187c0 -159 -170 -286 -354 -385h273l-36 -170h-577l32 152c247 127 453 267 453 369c0 51 -39 73 -90 73c-56 0 -113 -27 -116 -131z" />
    <glyph glyph-name="three.tnum" 
d="M26 259h196c0 -81 42 -123 113 -123c47 0 96 27 96 79c0 47 -42 79 -127 82h-28l28 159h32c49 0 131 9 131 77c0 36 -34 61 -85 61c-45 0 -99 -9 -115 -76h-189c24 136 145 224 307 224c112 0 290 -36 290 -193c0 -77 -50 -153 -125 -182c56 -25 87 -83 87 -152
c0 -145 -148 -228 -295 -228c-168 0 -313 84 -316 272z" />
    <glyph glyph-name="four.tnum" 
d="M402 486l-182 -177h145zM676 309l-36 -170h-111l-30 -139h-200l30 139h-342l31 150l458 436h177l-88 -416h111z" />
    <glyph glyph-name="five.tnum" 
d="M325 556l-41 -113c36 29 88 43 140 43c123 0 223 -73 223 -221c0 -180 -140 -278 -316 -278c-154 0 -306 72 -311 253h194c3 -51 30 -104 109 -104c71 0 117 39 117 108c0 59 -34 99 -109 99c-39 0 -84 -18 -109 -57l-168 38l138 401h500l-36 -169h-331z" />
    <glyph glyph-name="six.tnum" 
d="M439 253c0 51 -33 89 -93 89c-59 0 -107 -45 -107 -116c0 -47 28 -91 93 -91c60 0 107 50 107 118zM670 525h-181c-1 52 -42 69 -93 69c-67 0 -110 -51 -125 -146c35 28 81 39 130 39c128 0 243 -82 243 -226c0 -168 -130 -274 -311 -274c-184 0 -287 115 -287 308
c0 220 117 447 365 447c127 0 256 -65 259 -217z" />
    <glyph glyph-name="seven.tnum" 
d="M112 556l36 169h585l-36 -169c-225 -131 -382 -296 -409 -556h-220c32 247 213 449 421 556h-377z" />
    <glyph glyph-name="eight.tnum" 
d="M568 376c49 -39 74 -89 74 -148c0 -168 -167 -241 -316 -241c-161 0 -308 74 -308 231c0 84 51 153 123 190c-35 31 -53 77 -53 128c0 144 151 206 295 206c129 0 284 -56 284 -195c0 -71 -42 -138 -99 -171zM225 226c0 -60 53 -89 106 -89c64 0 108 41 108 94
c0 51 -37 87 -105 87c-60 0 -109 -32 -109 -92zM284 518c0 -41 30 -74 86 -74s93 31 93 78c0 41 -31 70 -86 70c-52 0 -93 -27 -93 -74z" />
    <glyph glyph-name="nine.tnum" 
d="M280 477c0 -51 33 -90 93 -90c59 0 107 48 107 117c0 47 -27 91 -93 91c-60 0 -107 -51 -107 -118zM49 204h181c1 -51 42 -68 93 -68c67 0 110 50 125 146c-35 -28 -81 -40 -130 -40c-128 0 -243 85 -243 226c0 169 130 274 311 274c184 0 287 -115 287 -307
c0 -221 -117 -448 -365 -448c-127 0 -256 65 -259 217z" />
    <glyph glyph-name="zero.tnum" 
d="M243 278c0 -96 35 -142 91 -142c111 0 144 192 144 315c0 96 -36 142 -92 142c-112 0 -143 -193 -143 -315zM680 431c0 -207 -97 -444 -348 -444c-180 0 -291 112 -291 310c0 208 97 444 345 444c184 0 294 -112 294 -310z" />
    <glyph glyph-name="zero.tnum_zero" 
d="M679 431c0 -207 -97 -444 -348 -444c-180 0 -291 112 -291 310c0 208 97 444 345 444c184 0 294 -112 294 -310zM385 593c-92 0 -129 -129 -140 -242l232 102c-1 95 -36 140 -92 140zM333 136c83 0 121 105 137 210l-227 -99c7 -76 39 -111 90 -111z" />
    <glyph glyph-name="one.case" horiz-adv-x="453" 
d="M316 0h-201l98 473h-160l31 145c127 3 183 34 226 107h157z" />
    <glyph glyph-name="two.case" horiz-adv-x="664" 
d="M258 459h-191c5 147 106 283 325 283c152 0 281 -57 281 -193c0 -159 -170 -280 -355 -379h274l-36 -170h-577l32 152c247 127 453 262 453 363c0 52 -39 78 -90 78c-56 0 -113 -32 -116 -134z" />
    <glyph glyph-name="three.case" horiz-adv-x="659" 
d="M11 253h196c0 -76 42 -117 113 -117c47 0 96 23 96 75c0 47 -42 75 -127 78h-28l28 160h32c49 0 131 5 131 73c0 36 -34 61 -85 61c-45 0 -95 -16 -111 -73h-189c24 149 143 222 303 222c112 0 290 -36 290 -194c0 -77 -50 -147 -125 -179c56 -24 87 -79 87 -148
c0 -145 -148 -224 -295 -224c-168 0 -313 74 -316 266z" />
    <glyph glyph-name="four.case" horiz-adv-x="700" 
d="M422 488l-185 -168h149zM699 320l-42 -170h-109l-32 -150h-200l32 150h-344l32 150l457 425h175l-86 -405h117z" />
    <glyph glyph-name="five.case" 
d="M321 557l-37 -108c36 29 88 43 140 43c123 0 223 -76 223 -224c0 -180 -140 -281 -316 -281c-154 0 -306 67 -311 256h194c0 -47 30 -107 109 -107c71 0 117 42 117 111c0 59 -34 102 -109 102c-39 0 -84 -18 -109 -57l-168 38l135 395h500l-36 -168h-332z" />
    <glyph glyph-name="six.case" horiz-adv-x="680" 
d="M439 256c0 51 -33 92 -93 92c-59 0 -107 -50 -107 -119c0 -47 28 -94 93 -94c60 0 107 53 107 121zM670 526h-181c-1 43 -42 67 -93 67c-67 0 -110 -54 -125 -139c35 28 81 39 130 39c128 0 243 -85 243 -229c0 -168 -130 -277 -311 -277c-185 0 -287 111 -287 304
c0 221 117 451 365 451c127 0 256 -52 259 -216z" />
    <glyph glyph-name="seven.case" horiz-adv-x="605" 
d="M75 557l36 168h585l-36 -168c-225 -134 -382 -296 -409 -557h-220c32 248 213 448 421 557h-377z" />
    <glyph glyph-name="eight.case" horiz-adv-x="687" 
d="M579 375c49 -39 74 -88 74 -147c0 -168 -167 -241 -316 -241c-161 0 -308 74 -308 231c0 84 51 153 123 189c-35 31 -53 77 -53 128c0 146 151 207 295 207c129 0 284 -57 284 -196c0 -71 -42 -138 -99 -171zM236 226c0 -59 53 -89 101 -89c69 0 113 42 113 94
c0 47 -36 87 -100 87s-114 -33 -114 -92zM295 517c0 -39 32 -73 83 -73c59 0 96 32 96 77c0 39 -32 70 -83 70c-56 0 -96 -29 -96 -74z" />
    <glyph glyph-name="nine.case" horiz-adv-x="668" 
d="M265 473c0 -51 33 -92 93 -92c59 0 107 49 107 119c0 47 -27 94 -93 94c-60 0 -107 -53 -107 -121zM34 203h181c1 -47 42 -67 93 -67c67 0 110 54 125 139c-35 -28 -81 -40 -130 -40c-128 0 -243 88 -243 229c0 169 130 278 311 278c185 0 287 -110 287 -305
c0 -221 -117 -450 -365 -450c-127 0 -256 55 -259 216z" />
    <glyph glyph-name="zero.case" horiz-adv-x="695" 
d="M248 277c0 -96 35 -141 91 -141c111 0 144 192 144 314c0 96 -36 143 -92 143c-112 0 -143 -193 -143 -316zM685 431c0 -208 -97 -444 -348 -444c-180 0 -291 112 -291 310c0 207 97 445 345 445c184 0 294 -114 294 -311z" />
    <glyph glyph-name="zero.case_zero" horiz-adv-x="695" 
d="M685 431c0 -208 -97 -444 -348 -444c-180 0 -291 112 -291 310c0 207 97 445 345 445c184 0 294 -114 294 -311zM391 593c-90 0 -129 -128 -140 -242l232 102c-1 95 -36 140 -92 140zM339 136c83 0 121 106 137 210l-227 -99c7 -76 39 -111 90 -111z" />
    <glyph glyph-name="uni21B2" unicode="&#x21b2;" horiz-adv-x="800" 
d="M761 186h-469l137 -133l-98 -95l-311 311l311 311l98 -95l-137 -133h303v373h166v-539z" />
    <glyph glyph-name="uni21B3" unicode="&#x21b3;" horiz-adv-x="800" 
d="M39 725h166v-373h303l-137 133l98 95l311 -311l-311 -311l-98 95l137 133h-469v539z" />
    <glyph glyph-name="uni21B0" unicode="&#x21b0;" horiz-adv-x="800" 
d="M595 -175v361h-303l137 -133l-98 -95l-311 311l311 311l98 -95l-137 -133h469v-527h-166z" />
    <glyph glyph-name="uni21B1" unicode="&#x21b1;" horiz-adv-x="800" 
d="M205 -175h-166v527h469l-137 133l98 95l311 -311l-311 -311l-98 95l137 133h-303v-361z" />
    <glyph glyph-name="arrowleft" unicode="&#x2190;" horiz-adv-x="800" 
d="M761 186h-469l137 -133l-98 -95l-311 311l311 311l98 -95l-137 -133h469v-166z" />
    <glyph glyph-name="arrowup" unicode="&#x2191;" horiz-adv-x="800" 
d="M317 0v469l-133 -137l-95 98l311 311l311 -311l-95 -98l-133 137v-469h-166z" />
    <glyph glyph-name="arrowright" unicode="&#x2192;" horiz-adv-x="800" 
d="M39 352h469l-137 133l98 95l311 -311l-311 -311l-98 95l137 133h-469v166z" />
    <glyph glyph-name="arrowdown" unicode="&#x2193;" horiz-adv-x="800" 
d="M483 725v-469l133 137l95 -98l-311 -311l-311 311l95 98l133 -137v469h166z" />
    <glyph glyph-name="uni2196" unicode="&#x2196;" horiz-adv-x="800" 
d="M603 -45l-331 332v-189h-134v440h440v-134h-189l332 -331z" />
    <glyph glyph-name="uni2197" unicode="&#x2197;" horiz-adv-x="800" 
d="M79 73l332 330h-189v135h440v-440h-135v189l-330 -332z" />
    <glyph glyph-name="uni2198" unicode="&#x2198;" horiz-adv-x="800" 
d="M197 583l330 -332v189h135v-440h-440v135h189l-332 330z" />
    <glyph glyph-name="uni2199" unicode="&#x2199;" horiz-adv-x="800" 
d="M721 465l-332 -330h189v-135h-440v440h135v-189l330 332z" />
    <glyph glyph-name="uni219E" unicode="&#x219e;" horiz-adv-x="800" 
d="M761 186h-175l137 -133l-98 -95l-228 228h-105l137 -133l-98 -95l-311 311l311 311l98 -95l-137 -133h105l228 228l98 -95l-137 -133h175v-166z" />
    <glyph glyph-name="uni219F" unicode="&#x219f;" horiz-adv-x="800" 
d="M317 0v175l-133 -137l-95 98l228 228v105l-133 -137l-95 98l311 311l311 -311l-95 -98l-133 137v-105l228 -228l-95 -98l-133 137v-175h-166z" />
    <glyph glyph-name="uni21A0" unicode="&#x21a0;" horiz-adv-x="800" 
d="M39 352h175l-137 133l98 95l228 -228h105l-137 133l98 95l311 -311l-311 -311l-98 95l137 133h-105l-228 -228l-98 95l137 133h-175v166z" />
    <glyph glyph-name="uni21A1" unicode="&#x21a1;" horiz-adv-x="800" 
d="M483 725v-175l133 137l95 -98l-228 -228v-105l133 137l95 -98l-311 -311l-311 311l95 98l133 -137v105l-228 228l95 98l133 -137v175h166z" />
    <glyph glyph-name="uni21A2" unicode="&#x21a2;" horiz-adv-x="800" 
d="M566 268l218 -215l-98 -95l-228 228h-166l137 -133l-98 -95l-311 311l311 311l98 -95l-137 -133h166l228 228l98 -95z" />
    <glyph glyph-name="uni21A3" unicode="&#x21a3;" horiz-adv-x="800" 
d="M25 53l218 215l-218 217l98 95l228 -228h166l-137 133l98 95l311 -311l-311 -311l-98 95l137 133h-166l-228 -228z" />
    <glyph glyph-name="uni21A4" unicode="&#x21a4;" horiz-adv-x="800" 
d="M761 0h-166v186h-303l137 -133l-98 -95l-311 311l311 311l98 -95l-137 -133h303v186h166v-538z" />
    <glyph glyph-name="uni21A5" unicode="&#x21a5;" horiz-adv-x="800" 
d="M131 0v166h186v303l-133 -137l-95 98l311 311l311 -311l-95 -98l-133 137v-303h186v-166h-538z" />
    <glyph glyph-name="uni21A6" unicode="&#x21a6;" horiz-adv-x="800" 
d="M39 538h166v-186h303l-137 133l98 95l311 -311l-311 -311l-98 95l137 133h-303v-186h-166v538z" />
    <glyph glyph-name="uni21A7" unicode="&#x21a7;" horiz-adv-x="800" 
d="M669 725v-166h-186v-303l133 137l95 -98l-311 -311l-311 311l95 98l133 -137v303h-186v166h538z" />
    <glyph glyph-name="filledbox" unicode="&#x25a0;" horiz-adv-x="624" 
d="M42 0v538h538v-538h-538z" />
    <glyph glyph-name="H22073" unicode="&#x25a1;" horiz-adv-x="624" 
d="M42 0v538h538v-538h-538zM208 372v-206h206v206h-206z" />
    <glyph glyph-name="H18533" unicode="&#x25cf;" horiz-adv-x="602" 
d="M17 269c0 154 120 281 283 281s283 -127 283 -281c0 -155 -120 -282 -283 -282s-283 127 -283 282z" />
    <glyph glyph-name="onethird" unicode="&#x2153;" horiz-adv-x="895" 
d="M222 317h-114l57 265h-90l18 83c71 1 103 19 127 60h90zM242 0h-166l500 725h166zM504 147h111c0 -45 24 -69 64 -69c25 0 52 15 52 43c0 25 -23 45 -71 46h-14l15 90h18c26 0 73 6 73 43c0 20 -20 34 -48 34c-25 0 -55 -6 -64 -42h-107c11 76 84 126 172 126
c62 0 165 -19 165 -109c0 -43 -29 -86 -70 -103c31 -15 49 -47 49 -86c0 -81 -84 -127 -166 -127c-94 0 -179 47 -179 154z" />
    <glyph glyph-name="twothirds" unicode="&#x2154;" horiz-adv-x="1013" 
d="M189 577h-108c3 83 60 158 183 158c85 0 160 -28 160 -105c0 -90 -95 -161 -198 -216h151l-20 -97h-325l17 86c140 72 255 151 255 207c0 28 -22 41 -50 41c-31 0 -62 -15 -65 -74zM360 0h-166l500 725h166zM622 147h111c0 -45 24 -69 64 -69c25 0 52 15 52 43
c0 25 -23 45 -71 46h-14l15 90h18c26 0 73 6 73 43c0 20 -20 34 -48 34c-25 0 -55 -6 -64 -42h-107c11 76 84 126 172 126c62 0 165 -19 165 -109c0 -43 -29 -86 -70 -103c31 -15 49 -47 49 -86c0 -81 -84 -127 -166 -127c-94 0 -179 47 -179 154z" />
    <glyph glyph-name="uni2155" unicode="&#x2155;" horiz-adv-x="906" 
d="M222 317h-114l57 265h-90l18 83c71 1 103 19 127 60h90zM242 0h-166l500 725h166zM682 312l-23 -63c20 17 50 25 79 25c69 0 125 -41 125 -125c0 -101 -79 -156 -178 -156c-88 0 -173 40 -176 143h110c3 -28 16 -58 61 -58c39 0 65 20 65 59c0 32 -19 55 -60 55
c-23 0 -46 -9 -61 -32l-96 22l78 226h282l-20 -96h-186z" />
    <glyph glyph-name="uni2159" unicode="&#x2159;" horiz-adv-x="906" 
d="M222 317h-114l57 265h-90l18 83c71 1 103 19 127 60h90zM242 0h-166l500 725h166zM745 142c0 28 -19 49 -52 49c-32 0 -60 -25 -60 -64c0 -25 16 -50 52 -50c33 0 60 28 60 65zM876 296h-103c0 29 -24 37 -52 37c-37 0 -61 -27 -70 -81c20 16 46 22 73 22
c73 0 137 -47 137 -127c0 -96 -74 -154 -175 -154c-104 0 -163 65 -163 173c0 124 66 252 206 252c72 0 144 -37 147 -122z" />
    <glyph glyph-name="oneeighth" unicode="&#x215b;" horiz-adv-x="910" 
d="M222 317h-114l57 265h-90l18 83c71 1 103 19 127 60h90zM242 0h-166l500 725h166zM825 212c28 -23 42 -51 42 -84c0 -93 -95 -135 -179 -135c-93 0 -174 42 -174 130c0 48 29 86 69 107c-20 18 -30 42 -30 72c0 83 84 116 167 116c72 0 161 -32 161 -110
c0 -39 -24 -77 -56 -96zM632 128c0 -35 30 -50 59 -50c36 0 60 23 60 52c0 28 -20 49 -59 49c-33 0 -60 -18 -60 -51zM665 291c0 -23 17 -41 48 -41s51 17 51 44c0 23 -18 38 -47 38s-52 -14 -52 -41z" />
    <glyph glyph-name="uni2156" unicode="&#x2156;" horiz-adv-x="1024" 
d="M189 577h-108c3 83 60 158 183 158c85 0 160 -28 160 -105c0 -90 -95 -161 -198 -216h151l-20 -97h-325l17 86c140 72 255 151 255 207c0 28 -22 41 -50 41c-31 0 -62 -15 -65 -74zM360 0h-166l500 725h166zM800 312l-23 -63c20 17 50 25 79 25c69 0 125 -41 125 -125
c0 -101 -79 -156 -178 -156c-88 0 -173 40 -176 143h110c3 -28 16 -58 61 -58c39 0 65 20 65 59c0 32 -19 55 -60 55c-23 0 -46 -9 -61 -32l-96 22l78 226h282l-20 -96h-186z" />
    <glyph glyph-name="uni2157" unicode="&#x2157;" horiz-adv-x="1022" 
d="M50 464h111c0 -45 24 -69 64 -69c25 0 52 15 52 43c0 25 -23 45 -71 46h-14l15 90h18c26 0 73 6 73 43c0 20 -20 34 -48 34c-25 0 -55 -6 -64 -42h-107c11 76 84 126 172 126c62 0 165 -19 165 -109c0 -43 -29 -86 -70 -103c31 -15 49 -47 49 -86
c0 -81 -84 -127 -166 -127c-94 0 -179 47 -179 154zM358 0h-166l500 725h166zM798 312l-23 -63c20 17 50 25 79 25c69 0 125 -41 125 -125c0 -101 -79 -156 -178 -156c-88 0 -173 40 -176 143h110c3 -28 16 -58 61 -58c39 0 65 20 65 59c0 32 -19 55 -60 55
c-23 0 -46 -9 -61 -32l-96 22l78 226h282l-20 -96h-186z" />
    <glyph glyph-name="threeeighths" unicode="&#x215c;" horiz-adv-x="1026" 
d="M50 464h111c0 -45 24 -69 64 -69c25 0 52 15 52 43c0 25 -23 45 -71 46h-14l15 90h18c26 0 73 6 73 43c0 20 -20 34 -48 34c-25 0 -55 -6 -64 -42h-107c11 76 84 126 172 126c62 0 165 -19 165 -109c0 -43 -29 -86 -70 -103c31 -15 49 -47 49 -86
c0 -81 -84 -127 -166 -127c-94 0 -179 47 -179 154zM358 0h-166l500 725h166zM941 212c28 -23 42 -51 42 -84c0 -93 -95 -135 -179 -135c-93 0 -174 42 -174 130c0 48 29 86 69 107c-20 18 -30 42 -30 72c0 83 84 116 167 116c72 0 161 -32 161 -110c0 -39 -24 -77 -56 -96z
M748 128c0 -35 30 -50 59 -50c36 0 60 23 60 52c0 28 -20 49 -59 49c-33 0 -60 -18 -60 -51zM781 291c0 -23 17 -41 48 -41s51 17 51 44c0 23 -18 38 -47 38s-52 -14 -52 -41z" />
    <glyph glyph-name="uni2158" unicode="&#x2158;" horiz-adv-x="1045" 
d="M278 590l-100 -99h81zM436 491l-21 -96h-63l-17 -78h-114l17 78h-192l18 85l257 245h100l-48 -234h63zM381 0h-166l500 725h166zM821 312l-23 -63c20 17 50 25 79 25c69 0 125 -41 125 -125c0 -101 -79 -156 -178 -156c-88 0 -173 40 -176 143h110c3 -28 16 -58 61 -58
c39 0 65 20 65 59c0 32 -19 55 -60 55c-23 0 -46 -9 -61 -32l-96 22l78 226h282l-20 -96h-186z" />
    <glyph glyph-name="uni215A" unicode="&#x215a;" horiz-adv-x="1033" 
d="M228 629l-23 -63c20 17 50 25 79 25c69 0 125 -41 125 -125c0 -101 -79 -156 -178 -156c-88 0 -173 40 -176 143h110c3 -28 16 -58 61 -58c39 0 65 20 65 59c0 32 -19 55 -60 55c-23 0 -46 -9 -61 -32l-96 22l78 226h282l-20 -96h-186zM369 0h-166l500 725h166zM872 142
c0 28 -19 49 -52 49c-32 0 -60 -25 -60 -64c0 -25 16 -50 52 -50c33 0 60 28 60 65zM1003 296h-103c0 29 -24 37 -52 37c-37 0 -61 -27 -70 -81c20 16 46 22 73 22c73 0 137 -47 137 -127c0 -96 -74 -154 -175 -154c-104 0 -163 65 -163 173c0 124 66 252 206 252
c72 0 144 -37 147 -122z" />
    <glyph glyph-name="fiveeighths" unicode="&#x215d;" horiz-adv-x="1038" 
d="M228 629l-23 -63c20 17 50 25 79 25c69 0 125 -41 125 -125c0 -101 -79 -156 -178 -156c-88 0 -173 40 -176 143h110c3 -28 16 -58 61 -58c39 0 65 20 65 59c0 32 -19 55 -60 55c-23 0 -46 -9 -61 -32l-96 22l78 226h282l-20 -96h-186zM369 0h-166l500 725h166zM952 212
c28 -23 42 -51 42 -84c0 -93 -95 -135 -179 -135c-93 0 -174 42 -174 130c0 48 29 86 69 107c-20 18 -30 42 -30 72c0 83 84 116 167 116c72 0 161 -32 161 -110c0 -39 -24 -77 -56 -96zM759 128c0 -35 30 -50 59 -50c36 0 60 23 60 52c0 28 -20 49 -59 49
c-33 0 -60 -18 -60 -51zM792 291c0 -23 17 -41 48 -41s51 17 51 44c0 23 -18 38 -47 38s-52 -14 -52 -41z" />
    <glyph glyph-name="seveneighths" unicode="&#x215e;" horiz-adv-x="997" 
d="M86 629l21 96h331l-21 -96c-125 -72 -217 -168 -230 -312h-126c19 138 121 251 238 312h-213zM328 0h-166l500 725h166zM911 212c28 -23 42 -51 42 -84c0 -93 -95 -135 -179 -135c-93 0 -174 42 -174 130c0 48 29 86 69 107c-20 18 -30 42 -30 72c0 83 84 116 167 116
c72 0 161 -32 161 -110c0 -39 -24 -77 -56 -96zM718 128c0 -35 30 -50 59 -50c36 0 60 23 60 52c0 28 -20 49 -59 49c-33 0 -60 -18 -60 -51zM751 291c0 -23 17 -41 48 -41s51 17 51 44c0 23 -18 38 -47 38s-52 -14 -52 -41z" />
    <glyph glyph-name="uni215F" unicode="&#x215f;" horiz-adv-x="522" 
d="M222 317h-114l57 265h-90l18 83c71 1 103 19 127 60h90zM242 0h-166l500 725h166z" />
    <glyph glyph-name="fraction" unicode="&#x2044;" horiz-adv-x="266" 
d="M-14 0h-166l500 725h166z" />
    <glyph glyph-name="a.sups" horiz-adv-x="359" 
d="M225 507c28 0 50 11 61 58l3 11c-71 -8 -92 -19 -92 -43c0 -15 8 -26 28 -26zM269 438l8 40c-25 -35 -60 -47 -103 -47c-60 0 -96 37 -96 84c0 68 65 103 221 119l2 8c1 2 1 5 1 8c0 23 -22 30 -45 30c-28 0 -48 -13 -55 -41h-98c8 57 64 113 164 113
c77 0 141 -27 141 -106c0 -13 -2 -27 -6 -41l-9 -45c-8 -34 -18 -89 -21 -122h-104z" />
    <glyph glyph-name="b.sups" horiz-adv-x="378" 
d="M197 479l-9 -41h-114l87 408h114l-30 -140c17 23 55 42 96 42c51 0 94 -43 94 -128s-51 -189 -156 -189c-39 0 -71 24 -82 48zM210 574c0 -33 16 -59 43 -59c44 0 61 61 61 92s-11 56 -39 56c-43 0 -65 -57 -65 -89z" />
    <glyph glyph-name="c.sups" horiz-adv-x="348" 
d="M409 623h-106c0 21 -10 44 -41 44c-50 0 -63 -67 -63 -99c0 -28 9 -53 44 -53c25 0 42 14 51 42h106c-27 -84 -87 -126 -170 -126c-76 0 -146 39 -146 131c0 101 66 190 178 190c92 0 147 -60 147 -129z" />
    <glyph glyph-name="d.sups" horiz-adv-x="378" 
d="M263 438l8 36c-19 -23 -55 -43 -96 -43c-51 0 -95 43 -95 128s51 189 156 189c40 0 72 -24 83 -48l31 146h114l-87 -408h-114zM305 605c0 33 -15 58 -42 58c-44 0 -62 -60 -62 -91s12 -57 39 -57c43 0 65 58 65 90z" />
    <glyph glyph-name="e.sups" horiz-adv-x="360" 
d="M296 540h109c-21 -56 -71 -109 -169 -109c-76 0 -152 39 -152 135c0 92 63 185 183 185c95 0 147 -53 147 -132c0 -17 -3 -36 -8 -57h-211v-7c0 -24 20 -40 48 -40c27 0 45 8 53 25zM267 674c-25 0 -48 -14 -59 -49h105c1 2 1 4 1 7c0 29 -22 42 -47 42z" />
    <glyph glyph-name="f.sups" horiz-adv-x="234" 
d="M146 734l3 10c21 83 34 102 133 102h61l-15 -72h-39c-19 0 -21 -3 -24 -20l-4 -20h58l-13 -64h-59l-50 -232h-114l50 232h-38l13 64h38z" />
    <glyph glyph-name="g.sups" horiz-adv-x="375" 
d="M320 707l7 34h113l-63 -297c-18 -90 -77 -112 -168 -112c-96 0 -139 36 -142 96h105c1 -17 14 -25 41 -25c29 0 47 16 54 47l8 37c-23 -28 -58 -40 -97 -40c-56 0 -101 39 -101 122c0 82 56 179 160 179c41 0 72 -22 83 -41zM308 611c0 32 -17 57 -44 57
c-45 0 -63 -58 -63 -86c0 -31 12 -55 40 -55c44 0 67 55 67 84z" />
    <glyph glyph-name="h.sups" horiz-adv-x="375" 
d="M275 846l-29 -139c20 27 58 41 93 41c63 0 86 -34 86 -86c0 -15 -3 -32 -7 -51l-36 -173h-114l35 165c2 10 3 18 3 25c0 23 -11 31 -27 31c-25 0 -48 -19 -56 -56l-35 -165h-113l86 408h114z" />
    <glyph glyph-name="i.sups" horiz-adv-x="189" 
d="M139 741h114l-64 -303h-114zM161 846h114l-18 -87h-114z" />
    <glyph glyph-name="j.sups" horiz-adv-x="194" 
d="M79 436l65 305h114l-65 -306c-16 -84 -43 -96 -135 -96h-43l16 77h20c20 0 24 3 28 20zM167 846h114l-19 -87h-114z" />
    <glyph glyph-name="k.sups" horiz-adv-x="389" 
d="M161 846h114l-45 -212l122 107h129l-149 -127l81 -176h-117l-45 106l-49 -42l-13 -64h-114z" />
    <glyph glyph-name="l.sups" horiz-adv-x="189" 
d="M275 846l-86 -408h-114l86 408h114z" />
    <glyph glyph-name="m.sups" horiz-adv-x="557" 
d="M335 748c49 0 74 -21 81 -53c32 40 70 53 107 53c61 0 84 -33 84 -84c0 -16 -3 -34 -7 -53l-36 -173h-114l35 165c2 11 3 20 3 27c0 19 -8 29 -25 29c-27 0 -44 -19 -52 -56l-35 -165h-114l35 165c2 10 3 19 3 26c0 23 -9 30 -25 30c-27 0 -44 -19 -51 -56l-35 -165h-114
l64 303h113l-6 -34c21 27 54 41 89 41z" />
    <glyph glyph-name="uni207F" unicode="&#x207f;" horiz-adv-x="375" 
d="M139 741h114l-7 -34c21 27 58 41 93 41c63 0 86 -34 86 -86c0 -15 -3 -32 -7 -51l-36 -173h-114l35 165c2 10 3 18 3 25c0 23 -11 31 -27 31c-25 0 -48 -19 -55 -56l-35 -165h-114z" />
    <glyph glyph-name="o.sups" horiz-adv-x="361" 
d="M200 574c0 -31 11 -59 43 -59c43 0 57 57 57 95c0 29 -11 58 -43 58c-43 0 -57 -57 -57 -94zM416 611c0 -104 -66 -180 -175 -180c-83 0 -157 38 -157 139c0 104 64 182 178 182c77 0 154 -39 154 -141z" />
    <glyph glyph-name="p.sups" horiz-adv-x="379" 
d="M254 741l-7 -35c17 23 54 42 95 42c52 0 95 -43 95 -128s-51 -189 -156 -189c-39 0 -71 24 -82 48l-30 -140h-114l85 402h114zM212 574c0 -33 16 -59 43 -59c44 0 61 60 61 92c0 31 -11 56 -39 56c-43 0 -65 -57 -65 -89z" />
    <glyph glyph-name="q.sups" horiz-adv-x="376" 
d="M242 339l29 135c-19 -23 -55 -43 -96 -43c-51 0 -95 43 -95 128s51 189 156 189c40 0 72 -24 83 -48l9 41h113l-85 -402h-114zM305 605c0 33 -15 58 -42 58c-44 0 -62 -60 -62 -91s12 -57 39 -57c43 0 65 58 65 90z" />
    <glyph glyph-name="r.sups" horiz-adv-x="256" 
d="M345 743l-23 -110c-9 1 -21 2 -33 2c-27 0 -61 -7 -70 -54l-30 -143h-114l64 303h109l-10 -52c19 32 64 53 101 53c3 0 3 1 6 1z" />
    <glyph glyph-name="s.sups" horiz-adv-x="311" 
d="M374 712l-40 -82c-33 21 -72 37 -104 37c-15 0 -33 -2 -33 -10c0 -7 1 -9 28 -17l36 -11c58 -16 99 -40 99 -92c0 -71 -70 -106 -140 -106c-53 0 -109 10 -161 43l47 84c39 -32 88 -44 120 -44c23 0 34 4 34 13c0 8 -9 13 -40 21l-29 8c-55 15 -92 42 -92 98
c0 65 66 95 133 95c48 0 97 -10 142 -37z" />
    <glyph glyph-name="t.sups" horiz-adv-x="254" 
d="M155 741l18 83h114l-18 -83h59l-14 -71h-59l-26 -122c-4 -20 -4 -21 -4 -22c0 -7 6 -11 17 -11h39l-16 -77h-61c-67 0 -98 5 -98 51c0 5 0 9 4 32l31 149h-51l15 71h50z" />
    <glyph glyph-name="u.sups" horiz-adv-x="366" 
d="M253 438l8 33c-21 -27 -55 -40 -90 -40c-61 0 -84 33 -84 84c0 15 2 33 6 52l37 174h114l-35 -166c-2 -10 -3 -19 -3 -26c0 -21 9 -27 25 -27c26 0 43 18 52 53l35 166h114l-65 -303h-114z" />
    <glyph glyph-name="v.sups" horiz-adv-x="333" 
d="M197 741l22 -197l90 197h114l-166 -303h-126l-41 303h107z" />
    <glyph glyph-name="w.sups" horiz-adv-x="506" 
d="M218 551l71 190h113l-2 -190l75 190h120l-146 -303h-132l3 173l-68 -173h-126l-29 303h118z" />
    <glyph glyph-name="x.sups" horiz-adv-x="377" 
d="M469 741l-150 -154l80 -149h-122l-37 68l-67 -68h-132l152 155l-80 148h123l36 -67l65 67h132z" />
    <glyph glyph-name="y.sups" horiz-adv-x="337" 
d="M227 528l88 213h115l-160 -305c-45 -82 -58 -97 -155 -97h-57l16 76h21c31 0 46 -1 54 14l4 7l-55 305h109z" />
    <glyph glyph-name="z.sups" horiz-adv-x="341" 
d="M58 438l16 77l183 149h-141l17 77h283l-16 -77l-184 -149h159l-16 -77h-301z" />
    <glyph glyph-name="uni2074" unicode="&#x2074;" horiz-adv-x="396" 
d="M304 711l-100 -99h81zM462 612l-21 -96h-63l-17 -78h-114l17 78h-192l18 85l257 245h100l-48 -234h63z" />
    <glyph glyph-name="uni2075" unicode="&#x2075;" horiz-adv-x="383" 
d="M254 750l-23 -63c20 17 50 25 79 25c69 0 125 -41 125 -125c0 -101 -79 -156 -178 -156c-88 0 -173 40 -176 143h110c3 -28 16 -58 61 -58c39 0 65 20 65 59c0 32 -19 55 -60 55c-23 0 -46 -9 -61 -32l-96 22l78 226h282l-20 -96h-186z" />
    <glyph glyph-name="uni2076" unicode="&#x2076;" horiz-adv-x="384" 
d="M317 580c0 28 -19 49 -52 49c-32 0 -60 -25 -60 -64c0 -25 16 -50 52 -50c33 0 60 28 60 65zM448 734h-103c0 29 -24 37 -52 37c-37 0 -61 -27 -70 -81c20 16 46 22 73 22c73 0 137 -47 137 -127c0 -96 -74 -154 -175 -154c-104 0 -163 65 -163 173c0 124 66 252 206 252
c72 0 144 -37 147 -122z" />
    <glyph glyph-name="uni2077" unicode="&#x2077;" horiz-adv-x="343" 
d="M112 750l21 96h331l-21 -96c-125 -72 -217 -168 -230 -312h-126c19 138 121 251 238 312h-213z" />
    <glyph glyph-name="uni2078" unicode="&#x2078;" horiz-adv-x="388" 
d="M397 650c28 -23 42 -51 42 -84c0 -93 -95 -135 -179 -135c-93 0 -174 42 -174 130c0 48 29 86 69 107c-20 18 -30 42 -30 72c0 83 84 116 167 116c72 0 161 -32 161 -110c0 -39 -24 -77 -56 -96zM204 566c0 -35 30 -50 59 -50c36 0 60 23 60 52c0 28 -20 49 -59 49
c-33 0 -60 -18 -60 -51zM237 729c0 -23 17 -41 48 -41s51 17 51 44c0 23 -18 38 -47 38s-52 -14 -52 -41z" />
    <glyph glyph-name="uni2079" unicode="&#x2079;" horiz-adv-x="377" 
d="M220 707c0 -28 19 -50 52 -50c32 0 60 26 60 65c0 27 -15 50 -52 50c-33 0 -60 -28 -60 -65zM89 553h103c0 -29 24 -37 52 -37c37 0 61 27 70 81c-20 -16 -46 -22 -73 -22c-73 0 -137 47 -137 127c0 96 73 154 175 154c104 0 163 -65 163 -173c0 -126 -66 -252 -206 -252
c-72 0 -144 37 -147 122z" />
    <glyph glyph-name="uni2070" unicode="&#x2070;" horiz-adv-x="392" 
d="M211 594c0 -55 19 -78 50 -78c61 0 80 108 80 177c0 53 -20 78 -51 78c-62 0 -79 -108 -79 -177zM456 681c0 -117 -56 -250 -196 -250c-101 0 -165 61 -165 174c0 117 55 250 195 250c103 0 166 -61 166 -174z" />
    <glyph glyph-name="uni2070.zero" horiz-adv-x="407" 
d="M456 681c0 -117 -56 -250 -196 -250c-101 0 -165 61 -165 174c0 117 55 250 195 250c103 0 166 -61 166 -174zM290 771c-43 0 -66 -54 -74 -109l125 30v1c0 53 -20 78 -51 78zM261 516c41 0 62 46 73 98l-123 -30c3 -47 21 -68 50 -68z" />
    <glyph glyph-name="period.sups" horiz-adv-x="175" 
d="M59 438l26 124h128l-26 -124h-128z" />
    <glyph glyph-name="hyphen.sups" horiz-adv-x="236" 
d="M281 539h-212l23 103h212z" />
    <glyph glyph-name="comma.sups" horiz-adv-x="176" 
d="M60 438l26 124h129l-28 -132l-67 -88h-90l60 96h-30z" />
    <glyph glyph-name="uni207C" unicode="&#x207c;" horiz-adv-x="383" 
d="M419 609h-327v103h327v-103zM419 471h-327v105h327v-105z" />
    <glyph glyph-name="uni207A" unicode="&#x207a;" horiz-adv-x="383" 
d="M319 438h-119v101h-108v103h108v96h119v-96h109v-103h-109v-101z" />
    <glyph glyph-name="uni207B" unicode="&#x207b;" horiz-adv-x="375" 
d="M92 642h336v-103h-336v103z" />
    <glyph glyph-name="uni207D" unicode="&#x207d;" horiz-adv-x="224" 
d="M250 333h-116c-19 43 -46 125 -46 212c0 100 43 210 114 299h122c-69 -93 -119 -194 -119 -301c0 -73 20 -149 45 -210z" />
    <glyph glyph-name="uni207E" unicode="&#x207e;" horiz-adv-x="228" 
d="M114 844h115c19 -43 48 -124 48 -212c0 -100 -43 -211 -115 -299h-122c69 92 119 193 119 300c0 73 -18 150 -45 211z" />
    <glyph glyph-name="a.subs" horiz-adv-x="359" 
d="M106 -59c28 0 50 11 61 58l3 11c-71 -8 -92 -19 -92 -43c0 -15 8 -26 28 -26zM150 -128l8 40c-25 -35 -60 -47 -103 -47c-60 0 -96 37 -96 84c0 68 65 103 221 119l2 8c1 2 1 5 1 8c0 23 -22 30 -45 30c-28 0 -48 -13 -55 -41h-98c8 57 64 113 164 113
c77 0 141 -27 141 -106c0 -13 -2 -27 -6 -41l-9 -45c-8 -34 -18 -89 -21 -122h-104z" />
    <glyph glyph-name="b.subs" horiz-adv-x="378" 
d="M78 -87l-9 -41h-114l87 408h114l-30 -140c17 23 55 42 96 42c51 0 94 -43 94 -128s-51 -189 -156 -189c-39 0 -71 24 -82 48zM91 8c0 -33 16 -59 43 -59c44 0 61 61 61 92s-11 56 -39 56c-43 0 -65 -57 -65 -89z" />
    <glyph glyph-name="c.subs" horiz-adv-x="348" 
d="M290 57h-106c0 21 -10 44 -41 44c-50 0 -63 -67 -63 -99c0 -28 9 -53 44 -53c25 0 42 14 51 42h106c-27 -84 -87 -126 -170 -126c-76 0 -146 39 -146 131c0 101 66 190 178 190c92 0 147 -60 147 -129z" />
    <glyph glyph-name="d.subs" horiz-adv-x="378" 
d="M144 -128l8 36c-19 -23 -55 -43 -96 -43c-51 0 -95 43 -95 128s51 189 156 189c40 0 72 -24 83 -48l31 146h114l-87 -408h-114zM186 39c0 33 -15 58 -42 58c-44 0 -62 -60 -62 -91s12 -57 39 -57c43 0 65 58 65 90z" />
    <glyph glyph-name="e.subs" horiz-adv-x="360" 
d="M177 -26h109c-21 -56 -71 -109 -169 -109c-76 0 -152 39 -152 135c0 92 63 185 183 185c95 0 147 -53 147 -132c0 -17 -3 -36 -8 -57h-211v-7c0 -24 20 -40 48 -40c27 0 45 8 53 25zM148 108c-25 0 -48 -14 -59 -49h105c1 2 1 4 1 7c0 29 -22 42 -47 42z" />
    <glyph glyph-name="f.subs" horiz-adv-x="234" 
d="M27 168l3 10c21 83 34 102 133 102h61l-15 -72h-39c-19 0 -21 -3 -24 -20l-4 -20h58l-13 -64h-59l-50 -232h-114l50 232h-38l13 64h38z" />
    <glyph glyph-name="g.subs" horiz-adv-x="375" 
d="M201 141l7 34h113l-63 -297c-18 -90 -77 -112 -168 -112c-96 0 -139 36 -142 96h105c1 -17 14 -25 41 -25c29 0 47 16 54 47l8 37c-23 -28 -58 -40 -97 -40c-56 0 -101 39 -101 122c0 82 56 179 160 179c41 0 72 -22 83 -41zM189 45c0 32 -17 57 -44 57
c-45 0 -63 -58 -63 -86c0 -31 12 -55 40 -55c44 0 67 55 67 84z" />
    <glyph glyph-name="h.subs" horiz-adv-x="375" 
d="M156 280l-29 -139c20 27 58 41 93 41c63 0 86 -34 86 -86c0 -15 -3 -32 -7 -51l-36 -173h-114l35 165c2 10 3 18 3 25c0 23 -11 31 -27 31c-25 0 -48 -19 -56 -56l-35 -165h-113l86 408h114z" />
    <glyph glyph-name="i.subs" horiz-adv-x="189" 
d="M20 175h114l-64 -303h-114zM42 280h114l-18 -87h-114z" />
    <glyph glyph-name="j.subs" horiz-adv-x="194" 
d="M-40 -130l65 305h114l-65 -306c-16 -84 -43 -96 -135 -96h-43l16 77h20c20 0 24 3 28 20zM48 280h114l-19 -87h-114z" />
    <glyph glyph-name="k.subs" horiz-adv-x="389" 
d="M42 280h114l-45 -212l122 107h129l-149 -127l81 -176h-117l-45 106l-49 -42l-13 -64h-114z" />
    <glyph glyph-name="l.subs" horiz-adv-x="189" 
d="M156 280l-86 -408h-114l86 408h114z" />
    <glyph glyph-name="m.subs" horiz-adv-x="557" 
d="M216 182c49 0 74 -21 81 -53c32 40 70 53 107 53c61 0 84 -33 84 -84c0 -16 -3 -34 -7 -53l-36 -173h-114l35 165c2 11 3 20 3 27c0 19 -8 29 -25 29c-27 0 -44 -19 -52 -56l-35 -165h-114l35 165c2 10 3 19 3 26c0 23 -9 30 -25 30c-27 0 -44 -19 -51 -56l-35 -165h-114
l64 303h113l-6 -34c21 27 54 41 89 41z" />
    <glyph glyph-name="n.subs" horiz-adv-x="375" 
d="M20 175h114l-7 -34c21 27 58 41 93 41c63 0 86 -34 86 -86c0 -15 -3 -32 -7 -51l-36 -173h-114l35 165c2 10 3 18 3 25c0 23 -11 31 -27 31c-25 0 -48 -19 -55 -56l-35 -165h-114z" />
    <glyph glyph-name="o.subs" horiz-adv-x="361" 
d="M81 8c0 -31 11 -59 43 -59c43 0 57 57 57 95c0 29 -11 58 -43 58c-43 0 -57 -57 -57 -94zM297 45c0 -104 -66 -180 -175 -180c-83 0 -157 38 -157 139c0 104 64 182 178 182c77 0 154 -39 154 -141z" />
    <glyph glyph-name="p.subs" horiz-adv-x="379" 
d="M135 175l-7 -35c17 23 54 42 95 42c52 0 95 -43 95 -128s-51 -189 -156 -189c-39 0 -71 24 -82 48l-30 -140h-114l85 402h114zM93 8c0 -33 16 -59 43 -59c44 0 61 60 61 92c0 31 -11 56 -39 56c-43 0 -65 -57 -65 -89z" />
    <glyph glyph-name="q.subs" horiz-adv-x="376" 
d="M123 -227l29 135c-19 -23 -55 -43 -96 -43c-51 0 -95 43 -95 128s51 189 156 189c40 0 72 -24 83 -48l9 41h113l-85 -402h-114zM186 39c0 33 -15 58 -42 58c-44 0 -62 -60 -62 -91s12 -57 39 -57c43 0 65 58 65 90z" />
    <glyph glyph-name="r.subs" horiz-adv-x="256" 
d="M226 177l-23 -110c-9 1 -21 2 -33 2c-27 0 -61 -7 -70 -54l-30 -143h-114l64 303h109l-10 -52c19 32 64 53 101 53c3 0 3 1 6 1z" />
    <glyph glyph-name="s.subs" horiz-adv-x="311" 
d="M255 146l-40 -82c-33 21 -72 37 -104 37c-15 0 -33 -2 -33 -10c0 -7 1 -9 28 -17l36 -11c58 -16 99 -40 99 -92c0 -71 -70 -106 -140 -106c-53 0 -109 10 -161 43l47 84c39 -32 88 -44 120 -44c23 0 34 4 34 13c0 8 -9 13 -40 21l-29 8c-55 15 -92 42 -92 98
c0 65 66 95 133 95c48 0 97 -10 142 -37z" />
    <glyph glyph-name="t.subs" horiz-adv-x="254" 
d="M36 175l18 83h114l-18 -83h59l-14 -71h-59l-26 -122c-4 -20 -4 -21 -4 -22c0 -7 6 -11 17 -11h39l-16 -77h-61c-67 0 -98 5 -98 51c0 5 0 9 4 32l31 149h-51l15 71h50z" />
    <glyph glyph-name="u.subs" horiz-adv-x="366" 
d="M134 -128l8 33c-21 -27 -55 -40 -90 -40c-61 0 -84 33 -84 84c0 15 2 33 6 52l37 174h114l-35 -166c-2 -10 -3 -19 -3 -26c0 -21 9 -27 25 -27c26 0 43 18 52 53l35 166h114l-65 -303h-114z" />
    <glyph glyph-name="v.subs" horiz-adv-x="333" 
d="M78 175l22 -197l90 197h114l-166 -303h-126l-41 303h107z" />
    <glyph glyph-name="w.subs" horiz-adv-x="506" 
d="M99 -15l71 190h113l-2 -190l75 190h120l-146 -303h-132l3 173l-68 -173h-126l-29 303h118z" />
    <glyph glyph-name="x.subs" horiz-adv-x="377" 
d="M350 175l-150 -154l80 -149h-122l-37 68l-67 -68h-132l152 155l-80 148h123l36 -67l65 67h132z" />
    <glyph glyph-name="y.subs" horiz-adv-x="337" 
d="M108 -38l88 213h115l-160 -305c-45 -82 -58 -97 -155 -97h-57l16 76h21c31 0 46 -1 54 14l4 7l-55 305h109z" />
    <glyph glyph-name="z.subs" horiz-adv-x="341" 
d="M-61 -128l16 77l183 149h-141l17 77h283l-16 -77l-184 -149h159l-16 -77h-301z" />
    <glyph glyph-name="uni2081" unicode="&#x2081;" horiz-adv-x="256" 
d="M129 -128h-114l57 265h-90l18 83c71 1 103 19 127 60h90z" />
    <glyph glyph-name="uni2082" unicode="&#x2082;" horiz-adv-x="375" 
d="M96 132h-108c3 83 60 158 183 158c85 0 160 -28 160 -105c0 -90 -95 -161 -198 -216h151l-20 -97h-325l17 86c140 72 255 151 255 207c0 28 -22 41 -50 41c-31 0 -62 -15 -65 -74z" />
    <glyph glyph-name="uni2083" unicode="&#x2083;" horiz-adv-x="372" 
d="M-43 19h111c0 -45 24 -69 64 -69c25 0 52 15 52 43c0 25 -23 45 -71 46h-14l15 90h18c26 0 73 6 73 43c0 20 -20 34 -48 34c-25 0 -55 -6 -64 -42h-107c11 76 84 126 172 126c62 0 165 -19 165 -109c0 -43 -29 -86 -70 -103c31 -15 49 -47 49 -86
c0 -81 -84 -127 -166 -127c-94 0 -179 47 -179 154z" />
    <glyph glyph-name="uni2084" unicode="&#x2084;" horiz-adv-x="396" 
d="M185 145l-100 -99h81zM343 46l-21 -96h-63l-17 -78h-114l17 78h-192l18 85l257 245h100l-48 -234h63z" />
    <glyph glyph-name="uni2085" unicode="&#x2085;" horiz-adv-x="383" 
d="M135 184l-23 -63c20 17 50 25 79 25c69 0 125 -41 125 -125c0 -101 -79 -156 -178 -156c-88 0 -173 40 -176 143h110c3 -28 16 -58 61 -58c39 0 65 20 65 59c0 32 -19 55 -60 55c-23 0 -46 -9 -61 -32l-96 22l78 226h282l-20 -96h-186z" />
    <glyph glyph-name="uni2086" unicode="&#x2086;" horiz-adv-x="384" 
d="M198 14c0 28 -19 49 -52 49c-32 0 -60 -25 -60 -64c0 -25 16 -50 52 -50c33 0 60 28 60 65zM329 168h-103c0 29 -24 37 -52 37c-37 0 -61 -27 -70 -81c20 16 46 22 73 22c73 0 137 -47 137 -127c0 -96 -74 -154 -175 -154c-104 0 -163 65 -163 173c0 124 66 252 206 252
c72 0 144 -37 147 -122z" />
    <glyph glyph-name="uni2087" unicode="&#x2087;" horiz-adv-x="343" 
d="M-7 184l21 96h331l-21 -96c-125 -72 -217 -168 -230 -312h-126c19 138 121 251 238 312h-213z" />
    <glyph glyph-name="uni2088" unicode="&#x2088;" horiz-adv-x="388" 
d="M278 84c28 -23 42 -51 42 -84c0 -93 -95 -135 -179 -135c-93 0 -174 42 -174 130c0 48 29 86 69 107c-20 18 -30 42 -30 72c0 83 84 116 167 116c72 0 161 -32 161 -110c0 -39 -24 -77 -56 -96zM85 0c0 -35 30 -50 59 -50c36 0 60 23 60 52c0 28 -20 49 -59 49
c-33 0 -60 -18 -60 -51zM118 163c0 -23 17 -41 48 -41s51 17 51 44c0 23 -18 38 -47 38s-52 -14 -52 -41z" />
    <glyph glyph-name="uni2089" unicode="&#x2089;" horiz-adv-x="377" 
d="M101 141c0 -28 19 -50 52 -50c32 0 60 26 60 65c0 27 -15 50 -52 50c-33 0 -60 -28 -60 -65zM-30 -13h103c0 -29 24 -37 52 -37c37 0 61 27 70 81c-20 -16 -46 -22 -73 -22c-73 0 -137 47 -137 127c0 96 73 154 175 154c104 0 163 -65 163 -173
c0 -126 -66 -252 -206 -252c-72 0 -144 37 -147 122z" />
    <glyph glyph-name="uni2080" unicode="&#x2080;" horiz-adv-x="392" 
d="M92 28c0 -55 19 -78 50 -78c61 0 80 108 80 177c0 53 -20 78 -51 78c-62 0 -79 -108 -79 -177zM337 115c0 -117 -56 -250 -196 -250c-101 0 -165 61 -165 174c0 117 55 250 195 250c103 0 166 -61 166 -174z" />
    <glyph glyph-name="uni2080.zero" horiz-adv-x="407" 
d="M337 115c0 -117 -56 -250 -196 -250c-101 0 -165 61 -165 174c0 117 55 250 195 250c103 0 166 -61 166 -174zM171 205c-43 0 -66 -54 -74 -109l125 30v1c0 53 -20 78 -51 78zM142 -50c41 0 62 46 73 98l-123 -30c3 -47 21 -68 50 -68z" />
    <glyph glyph-name="period.subs" horiz-adv-x="175" 
d="M-60 -128l26 124h128l-26 -124h-128z" />
    <glyph glyph-name="hyphen.subs" horiz-adv-x="236" 
d="M162 -27h-212l23 103h212z" />
    <glyph glyph-name="comma.subs" horiz-adv-x="176" 
d="M-59 -128l26 124h129l-28 -132l-67 -88h-90l60 96h-30z" />
    <glyph glyph-name="equal.subs" horiz-adv-x="383" 
d="M300 43h-327v103h327v-103zM300 -95h-327v105h327v-105z" />
    <glyph glyph-name="plus.subs" horiz-adv-x="383" 
d="M200 -128h-119v101h-108v103h108v96h119v-96h109v-103h-109v-101z" />
    <glyph glyph-name="minus.subs" horiz-adv-x="375" 
d="M-27 76h336v-103h-336v103z" />
    <glyph glyph-name="uni208D" unicode="&#x208d;" horiz-adv-x="224" 
d="M131 -233h-116c-19 43 -46 125 -46 212c0 100 43 210 114 299h122c-69 -93 -119 -194 -119 -301c0 -73 20 -149 45 -210z" />
    <glyph glyph-name="uni208E" unicode="&#x208e;" horiz-adv-x="228" 
d="M-5 278h115c19 -43 48 -124 48 -212c0 -100 -43 -211 -115 -299h-122c69 92 119 193 119 300c0 73 -18 150 -45 211z" />
    <glyph glyph-name="one.frac" horiz-adv-x="256" 
d="M222 317h-114l57 265h-90l18 83c71 1 103 19 127 60h90z" />
    <glyph glyph-name="two.frac" horiz-adv-x="375" 
d="M189 577h-108c3 83 60 158 183 158c85 0 160 -28 160 -105c0 -90 -95 -161 -198 -216h151l-20 -97h-325l17 86c140 72 255 151 255 207c0 28 -22 41 -50 41c-31 0 -62 -15 -65 -74z" />
    <glyph glyph-name="three.frac" horiz-adv-x="372" 
d="M50 464h111c0 -45 24 -69 64 -69c25 0 52 15 52 43c0 25 -23 45 -71 46h-14l15 90h18c26 0 73 6 73 43c0 20 -20 34 -48 34c-25 0 -55 -6 -64 -42h-107c11 76 84 126 172 126c62 0 165 -19 165 -109c0 -43 -29 -86 -70 -103c31 -15 49 -47 49 -86
c0 -81 -84 -127 -166 -127c-94 0 -179 47 -179 154z" />
    <glyph glyph-name="four.frac" horiz-adv-x="396" 
d="M278 590l-100 -99h81zM436 491l-21 -96h-63l-17 -78h-114l17 78h-192l18 85l257 245h100l-48 -234h63z" />
    <glyph glyph-name="five.frac" horiz-adv-x="383" 
d="M228 629l-23 -63c20 17 50 25 79 25c69 0 125 -41 125 -125c0 -101 -79 -156 -178 -156c-88 0 -173 40 -176 143h110c3 -28 16 -58 61 -58c39 0 65 20 65 59c0 32 -19 55 -60 55c-23 0 -46 -9 -61 -32l-96 22l78 226h282l-20 -96h-186z" />
    <glyph glyph-name="six.frac" horiz-adv-x="384" 
d="M291 459c0 28 -19 49 -52 49c-32 0 -60 -25 -60 -64c0 -25 16 -50 52 -50c33 0 60 28 60 65zM422 613h-103c0 29 -24 37 -52 37c-37 0 -61 -27 -70 -81c20 16 46 22 73 22c73 0 137 -47 137 -127c0 -96 -74 -154 -175 -154c-104 0 -163 65 -163 173c0 124 66 252 206 252
c72 0 144 -37 147 -122z" />
    <glyph glyph-name="seven.frac" horiz-adv-x="343" 
d="M86 629l21 96h331l-21 -96c-125 -72 -217 -168 -230 -312h-126c19 138 121 251 238 312h-213z" />
    <glyph glyph-name="eight.frac" horiz-adv-x="388" 
d="M371 529c28 -23 42 -51 42 -84c0 -93 -95 -135 -179 -135c-93 0 -174 42 -174 130c0 48 29 86 69 107c-20 18 -30 42 -30 72c0 83 84 116 167 116c72 0 161 -32 161 -110c0 -39 -24 -77 -56 -96zM178 445c0 -35 30 -50 59 -50c36 0 60 23 60 52c0 28 -20 49 -59 49
c-33 0 -60 -18 -60 -51zM211 608c0 -23 17 -41 48 -41s51 17 51 44c0 23 -18 38 -47 38s-52 -14 -52 -41z" />
    <glyph glyph-name="nine.frac" horiz-adv-x="377" 
d="M194 586c0 -28 19 -50 52 -50c32 0 60 26 60 65c0 27 -15 50 -52 50c-33 0 -60 -28 -60 -65zM63 432h103c0 -29 24 -37 52 -37c37 0 61 27 70 81c-20 -16 -46 -22 -73 -22c-73 0 -137 47 -137 127c0 96 73 154 175 154c104 0 163 -65 163 -173c0 -126 -66 -252 -206 -252
c-72 0 -144 37 -147 122z" />
    <glyph glyph-name="zero.frac" horiz-adv-x="392" 
d="M185 473c0 -55 19 -78 50 -78c61 0 80 108 80 177c0 53 -20 78 -51 78c-62 0 -79 -108 -79 -177zM430 560c0 -117 -56 -250 -196 -250c-101 0 -165 61 -165 174c0 117 55 250 195 250c103 0 166 -61 166 -174z" />
    <glyph glyph-name="zero.frac_zero" horiz-adv-x="407" 
d="M430 560c0 -117 -56 -250 -196 -250c-101 0 -165 61 -165 174c0 117 55 250 195 250c103 0 166 -61 166 -174zM264 650c-43 0 -66 -54 -74 -109l125 30v1c0 53 -20 78 -51 78zM235 395c41 0 62 46 73 98l-123 -30c3 -47 21 -68 50 -68z" />
    <glyph glyph-name="one.dnom" horiz-adv-x="256" 
d="M154 0h-114l57 265h-90l18 83c71 1 103 19 127 60h90z" />
    <glyph glyph-name="two.dnom" horiz-adv-x="375" 
d="M121 260h-108c3 83 60 158 183 158c85 0 160 -28 160 -105c0 -90 -95 -161 -198 -216h151l-20 -97h-325l17 86c140 72 255 151 255 207c0 28 -22 41 -50 41c-31 0 -62 -15 -65 -74z" />
    <glyph glyph-name="three.dnom" horiz-adv-x="372" 
d="M-18 147h111c0 -45 24 -69 64 -69c25 0 52 15 52 43c0 25 -23 45 -71 46h-14l15 90h18c26 0 73 6 73 43c0 20 -20 34 -48 34c-25 0 -55 -6 -64 -42h-107c11 76 84 126 172 126c62 0 165 -19 165 -109c0 -43 -29 -86 -70 -103c31 -15 49 -47 49 -86
c0 -81 -84 -127 -166 -127c-94 0 -179 47 -179 154z" />
    <glyph glyph-name="four.dnom" horiz-adv-x="396" 
d="M210 273l-100 -99h81zM368 174l-21 -96h-63l-17 -78h-114l17 78h-192l18 85l257 245h100l-48 -234h63z" />
    <glyph glyph-name="five.dnom" horiz-adv-x="383" 
d="M160 312l-23 -63c20 17 50 25 79 25c69 0 125 -41 125 -125c0 -101 -79 -156 -178 -156c-88 0 -173 40 -176 143h110c3 -28 16 -58 61 -58c39 0 65 20 65 59c0 32 -19 55 -60 55c-23 0 -46 -9 -61 -32l-96 22l78 226h282l-20 -96h-186z" />
    <glyph glyph-name="six.dnom" horiz-adv-x="384" 
d="M223 142c0 28 -19 49 -52 49c-32 0 -60 -25 -60 -64c0 -25 16 -50 52 -50c33 0 60 28 60 65zM354 296h-103c0 29 -24 37 -52 37c-37 0 -61 -27 -70 -81c20 16 46 22 73 22c73 0 137 -47 137 -127c0 -96 -74 -154 -175 -154c-104 0 -163 65 -163 173c0 124 66 252 206 252
c72 0 144 -37 147 -122z" />
    <glyph glyph-name="seven.dnom" horiz-adv-x="343" 
d="M18 312l21 96h331l-21 -96c-125 -72 -217 -168 -230 -312h-126c19 138 121 251 238 312h-213z" />
    <glyph glyph-name="eight.dnom" horiz-adv-x="388" 
d="M303 212c28 -23 42 -51 42 -84c0 -93 -95 -135 -179 -135c-93 0 -174 42 -174 130c0 48 29 86 69 107c-20 18 -30 42 -30 72c0 83 84 116 167 116c72 0 161 -32 161 -110c0 -39 -24 -77 -56 -96zM110 128c0 -35 30 -50 59 -50c36 0 60 23 60 52c0 28 -20 49 -59 49
c-33 0 -60 -18 -60 -51zM143 291c0 -23 17 -41 48 -41s51 17 51 44c0 23 -18 38 -47 38s-52 -14 -52 -41z" />
    <glyph glyph-name="nine.dnom" horiz-adv-x="377" 
d="M126 269c0 -28 19 -50 52 -50c32 0 60 26 60 65c0 27 -15 50 -52 50c-33 0 -60 -28 -60 -65zM-5 115h103c0 -29 24 -37 52 -37c37 0 61 27 70 81c-20 -16 -46 -22 -73 -22c-73 0 -137 47 -137 127c0 96 73 154 175 154c104 0 163 -65 163 -173c0 -126 -66 -252 -206 -252
c-72 0 -144 37 -147 122z" />
    <glyph glyph-name="zero.dnom" horiz-adv-x="392" 
d="M117 156c0 -55 19 -78 50 -78c61 0 80 108 80 177c0 53 -20 78 -51 78c-62 0 -79 -108 -79 -177zM362 243c0 -117 -56 -250 -196 -250c-101 0 -165 61 -165 174c0 117 55 250 195 250c103 0 166 -61 166 -174z" />
    <glyph glyph-name="zero.dnom_zero" horiz-adv-x="407" 
d="M362 243c0 -117 -56 -250 -196 -250c-101 0 -165 61 -165 174c0 117 55 250 195 250c103 0 166 -61 166 -174zM196 333c-43 0 -66 -54 -74 -109l125 30v1c0 53 -20 78 -51 78zM167 78c41 0 62 46 73 98l-123 -30c3 -47 21 -68 50 -68z" />
    <glyph glyph-name="ampersand.case" horiz-adv-x="824" 
d="M-20 204c0 116 92 177 199 209c-31 47 -48 88 -48 139c0 125 113 190 253 190c152 0 229 -79 229 -167c0 -84 -65 -158 -144 -190l69 -77c16 27 28 55 39 83h211c-17 -57 -65 -136 -136 -211l161 -180h-281l-43 50c-69 -39 -145 -63 -226 -63c-188 0 -283 96 -283 217z
M203 212c0 -45 33 -74 89 -74c33 0 66 8 98 25l-119 138c-35 -19 -68 -48 -68 -89zM433 555c0 29 -20 51 -48 51c-23 0 -45 -14 -45 -49c0 -20 15 -44 42 -75c27 15 51 44 51 73z" />
    <glyph glyph-name="hyphen.case" horiz-adv-x="486" 
d="M427 276h-368l37 174h368z" />
    <glyph glyph-name="endash.case" horiz-adv-x="597" 
d="M548 276h-499l37 174h499z" />
    <glyph glyph-name="emdash.case" horiz-adv-x="760" 
d="M712 276h-663l37 174h663z" />
    <glyph glyph-name="question.case" horiz-adv-x="644" 
d="M251 489h-197c13 179 153 253 340 253c152 0 277 -63 277 -181c0 -125 -112 -179 -180 -209c-68 -29 -110 -56 -110 -115h-209c9 108 57 177 169 218c85 31 122 51 122 91c0 28 -39 48 -86 48c-57 0 -126 -28 -126 -105zM336 0h-217l45 210h217z" />
    <glyph glyph-name="questiondown.case" horiz-adv-x="644" 
d="M424 241h197c-13 -180 -155 -254 -340 -254c-152 0 -277 65 -277 182c0 123 112 180 180 209c66 29 109 56 109 115h209c-8 -109 -57 -178 -169 -219c-85 -31 -121 -50 -121 -90c0 -28 38 -48 86 -48c57 0 126 28 126 105zM508 515h-217l45 210h217z" />
    <glyph glyph-name="exclam.case" horiz-adv-x="371" 
d="M257 237h-153l18 332l33 156h257l-33 -156zM239 0h-217l45 210h217z" />
    <glyph glyph-name="exclamdown.case" horiz-adv-x="371" 
d="M156 489h154l-20 -344l-31 -145h-257l31 145zM348 515h-217l45 210h217z" />
    <glyph glyph-name="guilsinglleft.case" horiz-adv-x="355" 
d="M135 136l-118 233l210 231h182l-168 -232l62 -232h-168z" />
    <glyph glyph-name="guilsinglright.case" horiz-adv-x="355" 
d="M376 366l-210 -230h-182l170 231l-65 233h168z" />
    <glyph glyph-name="guillemotleft.case" horiz-adv-x="638" 
d="M135 136l-118 233l210 231h182l-168 -232l62 -232h-168zM418 136l-118 233l210 231h182l-168 -232l62 -232h-168z" />
    <glyph glyph-name="guillemotright.case" horiz-adv-x="638" 
d="M659 366l-210 -230h-182l170 231l-65 233h168zM376 366l-210 -230h-182l170 231l-65 233h168z" />
    <glyph glyph-name="parenleft.case" horiz-adv-x="390" 
d="M326 0h-201c-27 61 -60 156 -60 273c0 157 84 314 204 452h221c-114 -130 -215 -285 -215 -457c0 -101 22 -188 51 -268z" />
    <glyph glyph-name="parenright.case" horiz-adv-x="390" 
d="M108 725h201c26 -61 60 -157 60 -273c0 -157 -84 -313 -204 -452h-221c115 130 215 284 215 457c0 101 -22 189 -51 268z" />
    <glyph glyph-name="bracketleft.case" horiz-adv-x="365" 
d="M153 725h299l-33 -157h-116l-88 -411h115l-33 -157h-298z" />
    <glyph glyph-name="bracketright.case" horiz-adv-x="365" 
d="M97 725h299l-154 -725h-298l33 157h114l88 411h-115z" />
    <glyph glyph-name="braceleft.case" horiz-adv-x="388" 
d="M325 0h-86c-119 0 -170 20 -170 104c0 21 3 46 9 75l2 10c4 18 6 34 6 49c0 33 -14 53 -61 53l31 146c67 0 86 39 98 100l2 11c27 148 89 177 237 177h86l-31 -145h-46c-27 0 -37 -3 -45 -36l-7 -30c-24 -103 -78 -135 -132 -149l-1 -2c40 -11 75 -35 75 -96
c0 -15 -2 -33 -6 -53l-6 -31c-1 -7 -2 -11 -2 -15c0 -19 11 -23 32 -23h46z" />
    <glyph glyph-name="braceright.case" horiz-adv-x="388" 
d="M92 725h86c119 0 170 -20 170 -104c0 -21 -3 -45 -9 -74l-2 -11c-4 -18 -6 -34 -6 -48c0 -33 14 -53 61 -53l-31 -147c-67 0 -87 -39 -98 -100l-2 -10c-29 -148 -87 -178 -237 -178h-86l31 145h46c27 0 38 5 46 36l6 30c24 104 78 135 132 149l2 3c-41 11 -76 33 -76 96
c0 15 2 32 6 52l6 31c1 7 2 12 2 16c0 19 -11 22 -32 22h-46z" />
    <glyph glyph-name="bar.case" horiz-adv-x="310" 
d="M65 725h180v-725h-180v725z" />
    <glyph glyph-name="brokenbar.case" horiz-adv-x="298" 
d="M59 260h180v-260h-180v260zM59 725h180v-260h-180v260z" />
    <glyph glyph-name="periodcentered.case" horiz-adv-x="354" 
d="M285 257h-217l45 210h217z" />
    <glyph glyph-name="bullet.case" horiz-adv-x="440" 
d="M235 191c-96 0 -176 79 -176 183c0 98 80 177 176 177c105 0 184 -79 184 -177c0 -104 -79 -183 -184 -183z" />
    <glyph glyph-name="plus.case" 
d="M459 95h-200v182h-194v174h194v182h200v-182h193v-174h-193v-182z" />
    <glyph glyph-name="minus.case" 
d="M65 451h587v-174h-587v174z" />
    <glyph glyph-name="divide.case" 
d="M250 95v145h217v-145h-217zM250 488v145h217v-145h-217zM652 277h-587v174h587v-174z" />
    <glyph glyph-name="multiply.case" 
d="M623 223l-115 -110l-147 140l-156 -147l-114 108l155 149l-150 141l116 109l149 -142l154 148l115 -110l-155 -146z" />
    <glyph glyph-name="equal.case" horiz-adv-x="679" 
d="M643 393h-566v175h566v-175zM643 160h-566v174h566v-174z" />
    <glyph glyph-name="plusminus.case" 
d="M250 538v95h200v-95h193v-175h-193v-75h-200v75h-194v175h194zM643 95h-587v174h587v-174z" />
    <glyph glyph-name="less.case" 
d="M64 450l567 198v-194l-317 -91l317 -92v-193l-567 198v174z" />
    <glyph glyph-name="greater.case" 
d="M654 450v-174l-567 -198v193l317 92l-317 91v194z" />
    <glyph glyph-name="lessequal.case" 
d="M314 536l337 -59v-194l-587 166v174l587 166v-194zM64 95v174h587v-174h-587z" />
    <glyph glyph-name="greaterequal.case" 
d="M421 536l-338 59v194l587 -166v-174l-587 -166v194zM670 95h-587v174h587v-174z" />
    <glyph glyph-name="notequal.case" 
d="M183 160h-107v174h171l22 59h-193v174h257l32 88h207l-32 -88h102v-174h-165l-22 -59h187v-174h-250l-35 -97h-209z" />
    <glyph glyph-name="acute.case" horiz-adv-x="358" 
d="M358 886l-178 -113h-182l127 113h233z" />
    <glyph glyph-name="breve.case" horiz-adv-x="402" 
d="M274 886h118c-22 -78 -91 -117 -206 -117c-117 0 -176 36 -176 108v9h118c0 -36 31 -46 67 -46c37 0 72 9 79 46z" />
    <glyph glyph-name="caron.case" horiz-adv-x="524" 
d="M129 773l-112 113h193l47 -50l66 50h198l-161 -113h-231z" />
    <glyph glyph-name="cedilla.case" horiz-adv-x="274" 
d="M46 -84l70 85h62l-43 -52c10 3 21 4 33 4c53 0 85 -23 85 -60c0 -68 -75 -94 -149 -94c-34 0 -64 5 -91 14l16 52c13 -5 39 -11 64 -11c31 0 57 8 57 31c0 16 -16 25 -37 25c-12 0 -27 -2 -39 -9z" />
    <glyph glyph-name="circumflex.case" horiz-adv-x="544" 
d="M399 886l112 -113h-193l-47 49l-66 -49h-198l160 113h232z" />
    <glyph glyph-name="dieresis.case" horiz-adv-x="420" 
d="M22 886h169l-25 -113h-168zM251 886h169l-25 -113h-169z" />
    <glyph glyph-name="dotaccent.case" horiz-adv-x="193" 
d="M22 886h171l-25 -113h-170z" />
    <glyph glyph-name="grave.case" horiz-adv-x="355" 
d="M160 773l-140 113h233l79 -113h-172z" />
    <glyph glyph-name="hungarumlaut.case" horiz-adv-x="618" 
d="M358 886l-178 -113h-182l127 113h233zM618 886l-179 -113h-183l128 113h234z" />
    <glyph glyph-name="macron.case" horiz-adv-x="398" 
d="M365 782h-356l20 95h357z" />
    <glyph glyph-name="ogonek.case" horiz-adv-x="318" 
d="M132 0h160c-28 -13 -104 -41 -104 -78c0 -21 21 -27 44 -27c15 0 29 1 38 4l-17 -78c-21 -5 -47 -9 -78 -9c-64 0 -132 18 -132 85c0 39 32 78 89 103z" />
    <glyph glyph-name="ring.case" horiz-adv-x="221" 
d="M135 893c-23 0 -43 -18 -43 -43s20 -42 43 -42s43 17 43 42s-20 43 -43 43zM135 935c51 0 91 -36 91 -85c0 -51 -40 -85 -91 -85s-90 34 -90 85c0 49 41 85 90 85z" />
    <glyph glyph-name="tilde.case" horiz-adv-x="463" 
d="M169 886c62 0 82 -36 124 -36c28 0 54 9 59 36h92c-15 -75 -67 -113 -147 -113c-64 0 -89 35 -129 35c-28 0 -50 -10 -57 -35h-93c12 71 72 113 151 113z" />
    <glyph glyph-name="a.salt" horiz-adv-x="666" 
d="M345 0l13 63c-32 -41 -97 -76 -169 -76c-93 0 -170 77 -170 228c0 8 1 15 1 23c8 169 119 312 276 312c71 0 129 -43 147 -85l15 73h200l-113 -538h-200zM419 288v9c0 60 -29 104 -77 104c-67 0 -108 -83 -111 -151v-12c0 -57 20 -102 71 -102c67 0 112 83 117 152z" />
    <glyph glyph-name="aacute.salt" horiz-adv-x="666" 
d="M345 0l13 63c-32 -41 -97 -76 -169 -76c-93 0 -170 77 -170 228c0 8 1 15 1 23c8 169 119 312 276 312c71 0 129 -43 147 -85l15 73h200l-113 -538h-200zM419 288v9c0 60 -29 104 -77 104c-67 0 -108 -83 -111 -151v-12c0 -57 20 -102 71 -102c67 0 112 83 117 152z
M592 725l-165 -127h-166l124 127h207z" />
    <glyph glyph-name="abreve.salt" horiz-adv-x="666" 
d="M345 0l13 63c-32 -41 -97 -76 -169 -76c-93 0 -170 77 -170 228c0 8 1 15 1 23c8 169 119 312 276 312c71 0 129 -43 147 -85l15 73h200l-113 -538h-200zM419 288v9c0 60 -29 104 -77 104c-67 0 -108 -83 -111 -151v-12c0 -57 20 -102 71 -102c67 0 112 83 117 152z
M469 725h111c-19 -72 -72 -132 -186 -132c-101 0 -154 50 -154 114v9c0 3 0 6 1 9h104c0 -3 -1 -6 -1 -9c0 -27 21 -41 53 -41c41 0 61 15 72 50z" />
    <glyph glyph-name="acircumflex.salt" horiz-adv-x="666" 
d="M345 0l13 63c-32 -41 -97 -76 -169 -76c-93 0 -170 77 -170 228c0 8 1 15 1 23c8 169 119 312 276 312c71 0 129 -43 147 -85l15 73h200l-113 -538h-200zM419 288v9c0 60 -29 104 -77 104c-67 0 -108 -83 -111 -151v-12c0 -57 20 -102 71 -102c67 0 112 83 117 152z
M498 725l108 -127h-165l-41 57l-62 -57h-180l165 127h175z" />
    <glyph glyph-name="adieresis.salt" horiz-adv-x="666" 
d="M345 0l13 63c-32 -41 -97 -76 -169 -76c-93 0 -170 77 -170 228c0 8 1 15 1 23c8 169 119 312 276 312c71 0 129 -43 147 -85l15 73h200l-113 -538h-200zM419 288v9c0 60 -29 104 -77 104c-67 0 -108 -83 -111 -151v-12c0 -57 20 -102 71 -102c67 0 112 83 117 152z
M217 725h171l-27 -127h-170zM469 725h170l-27 -127h-170z" />
    <glyph glyph-name="agrave.salt" horiz-adv-x="666" 
d="M345 0l13 63c-32 -41 -97 -76 -169 -76c-93 0 -170 77 -170 228c0 8 1 15 1 23c8 169 119 312 276 312c71 0 129 -43 147 -85l15 73h200l-113 -538h-200zM419 288v9c0 60 -29 104 -77 104c-67 0 -108 -83 -111 -151v-12c0 -57 20 -102 71 -102c67 0 112 83 117 152z
M287 598l-118 127h208l65 -127h-155z" />
    <glyph glyph-name="amacron.salt" horiz-adv-x="666" 
d="M345 0l13 63c-32 -41 -97 -76 -169 -76c-93 0 -170 77 -170 228c0 8 1 15 1 23c8 169 119 312 276 312c71 0 129 -43 147 -85l15 73h200l-113 -538h-200zM419 288v9c0 60 -29 104 -77 104c-67 0 -108 -83 -111 -151v-12c0 -57 20 -102 71 -102c67 0 112 83 117 152z
M238 628l19 90h313l-19 -90h-313z" />
    <glyph glyph-name="aogonek.salt" horiz-adv-x="666" 
d="M345 0l13 63c-32 -41 -97 -76 -169 -76c-93 0 -170 77 -170 228c0 8 1 15 1 23c8 169 119 312 276 312c71 0 129 -43 147 -85l15 73h200l-113 -538c-43 -13 -129 -43 -129 -80c0 -20 40 -27 62 -27c15 0 32 2 41 5l-15 -78c-21 -5 -51 -10 -83 -10c-64 0 -165 18 -165 85
c0 39 32 80 89 105zM419 288v9c0 60 -29 104 -77 104c-67 0 -108 -83 -111 -151v-12c0 -57 20 -102 71 -102c67 0 112 83 117 152z" />
    <glyph glyph-name="aring.salt" horiz-adv-x="666" 
d="M345 0l13 63c-32 -41 -97 -76 -169 -76c-93 0 -170 77 -170 228c0 8 1 15 1 23c8 169 119 312 276 312c71 0 129 -43 147 -85l15 73h200l-113 -538h-200zM419 288v9c0 60 -29 104 -77 104c-67 0 -108 -83 -111 -151v-12c0 -57 20 -102 71 -102c67 0 112 83 117 152z
M394 785c51 0 94 -37 94 -89c0 -51 -42 -89 -94 -89c-53 0 -95 37 -95 89s43 89 95 89zM394 737c-23 0 -41 -17 -41 -41c0 -23 18 -40 41 -40s41 17 41 40c0 24 -18 41 -41 41z" />
    <glyph glyph-name="atilde.salt" horiz-adv-x="666" 
d="M345 0l13 63c-32 -41 -97 -76 -169 -76c-93 0 -170 77 -170 228c0 8 1 15 1 23c8 169 119 312 276 312c71 0 129 -43 147 -85l15 73h200l-113 -538h-200zM419 288v9c0 60 -29 104 -77 104c-67 0 -108 -83 -111 -151v-12c0 -57 20 -102 71 -102c67 0 112 83 117 152z
M325 724c80 0 100 -44 144 -44c29 0 56 12 60 44h95c-15 -89 -69 -126 -138 -126c-77 0 -106 44 -145 44c-29 0 -52 -13 -59 -44h-95c11 85 76 126 138 126z" />
    <glyph glyph-name="l.ss02" horiz-adv-x="375" 
d="M42 162l118 563h199l-115 -552c-1 -7 -2 -11 -2 -15c0 -19 11 -23 32 -23h68l-28 -135h-108c-119 0 -173 10 -173 90c0 19 3 43 9 72z" />
    <glyph glyph-name="lacute.ss02" horiz-adv-x="375" 
d="M536 886l-178 -113h-182l127 113h233zM42 162l118 563h199l-115 -552c-1 -7 -2 -11 -2 -15c0 -19 11 -23 32 -23h68l-28 -135h-108c-119 0 -173 10 -173 90c0 19 3 43 9 72z" />
    <glyph glyph-name="lcaron.ss02" horiz-adv-x="457" 
d="M592 725l-95 -170h-133l55 170h173zM42 162l118 563h199l-115 -552c-1 -7 -2 -11 -2 -15c0 -19 11 -23 32 -23h68l-28 -135h-108c-119 0 -173 10 -173 90c0 19 3 43 9 72z" />
    <glyph glyph-name="uni013C.ss02" horiz-adv-x="375" 
d="M26 -136l21 100h149l-23 -106l-74 -89h-97l59 95h-35zM42 162l118 563h199l-115 -552c-1 -7 -2 -11 -2 -15c0 -19 11 -23 32 -23h68l-28 -135h-108c-119 0 -173 10 -173 90c0 19 3 43 9 72z" />
    <glyph glyph-name="ldot.ss02" horiz-adv-x="484" 
d="M383 511h166l-25 -116h-166zM42 162l118 563h199l-115 -552c-1 -7 -2 -11 -2 -15c0 -19 11 -23 32 -23h68l-28 -135h-108c-119 0 -173 10 -173 90c0 19 3 43 9 72z" />
    <glyph glyph-name="lslash.ss02" horiz-adv-x="365" 
d="M-14 228l33 155l80 34l65 308h199l-45 -214l78 33l-32 -154l-78 -33l-38 -184c-1 -7 -2 -11 -2 -15c0 -19 11 -23 32 -23h68l-28 -135h-108c-119 0 -173 10 -173 90c0 19 3 43 9 72l21 101z" />
    <glyph glyph-name="fl.ss02" horiz-adv-x="789" 
d="M44 412l24 115h68l5 19c38 145 62 179 236 179h107l-27 -127h-68c-33 0 -38 -6 -45 -37l-7 -34h105l-24 -115h-106l-88 -412h-200l88 412h-68zM456 162l118 563h199l-115 -552c-1 -7 -2 -11 -2 -15c0 -19 11 -23 32 -23h68l-28 -135h-108c-119 0 -173 10 -173 90
c0 19 3 43 9 72z" />
    <glyph glyph-name="germandbls.ss03" horiz-adv-x="739" 
d="M171 -175h-200l138 652c39 185 149 264 338 264c152 0 271 -55 271 -180c0 -68 -40 -123 -88 -151c41 -27 68 -76 68 -153c0 -180 -151 -270 -304 -270c-51 0 -92 5 -133 12l33 156c24 -4 52 -8 80 -8c59 0 117 25 117 93c0 55 -40 76 -111 76h-43l32 148h45
c44 0 104 20 104 73c0 33 -29 56 -82 56c-60 0 -109 -31 -126 -111z" />
    <glyph glyph-name="_796" horiz-adv-x="666" 
d="M345 0l13 63c-32 -41 -97 -76 -169 -76c-93 0 -170 77 -170 228c0 8 1 15 1 23c8 169 119 312 276 312c71 0 129 -43 147 -85l15 73h200l-113 -538h-200zM419 288v9c0 60 -29 104 -77 104c-67 0 -108 -83 -111 -151v-12c0 -57 20 -102 71 -102c67 0 112 83 117 152z" />
    <glyph glyph-name="circle" unicode="&#x25cb;" horiz-adv-x="602" 
d="M17 269c0 154 120 281 283 281s283 -127 283 -281c0 -155 -120 -282 -283 -282s-283 127 -283 282zM417 269c0 64 -50 118 -117 118c-69 0 -117 -54 -117 -118c0 -65 48 -119 117 -119c67 0 117 54 117 119z" />
    </font>
</defs>
</svg>
